<svg width="96" height="15" viewBox="0 0 96 15" fill="none" xmlns="http://www.w3.org/2000/svg">
<path d="M73.2018 13.1889L70.0919 9.09879C71.5884 8.47717 73.2906 7.49969 73.2158 5.25195C73.1082 2.01321 70.8121 1.18888 67.2906 1.28348C66.865 1.29699 64.4894 1.29699 63.989 1.29699C63.989 1.29699 63.9469 1.29699 63.9375 1.33753C63.9235 1.39159 64.0311 1.48618 64.1012 1.54924C64.3958 1.81951 64.3958 3.69339 64.3958 4.28798L64.4099 12.5808C64.4099 13.1799 64.3865 13.9141 64.2041 14.3105C64.0544 14.6348 63.9609 14.6348 63.9796 14.6979C63.9936 14.7384 64.0311 14.7384 64.0311 14.7384H66.6125C66.6125 14.7384 66.6546 14.7384 66.6639 14.6979C66.6827 14.6258 66.5844 14.6483 66.4021 14.2249C66.2805 13.9411 66.2384 12.5718 66.2384 12.5718C66.2384 12.5718 66.2477 3.73393 66.2477 2.85105C66.2477 2.23393 66.5657 2.17987 67.3654 2.17537C70.0591 2.14384 71.2563 3.5042 71.2703 5.38708C71.2844 7.49069 70.1012 8.48168 67.7115 8.64384L71.4855 13.8195C71.8315 14.324 72.5283 14.9682 73.6694 14.9817C74.1184 14.9817 74.6796 14.9321 74.9414 14.8781C75.0069 14.8646 75.0396 14.7925 74.9976 14.7519C74.3008 14.324 73.6975 13.8285 73.2064 13.1889H73.2018Z" fill="white"/>
<path d="M41.35 1.29688C41.3453 1.88697 41.35 2.67075 41.35 3.13021C41.35 3.13021 41.35 3.19778 41.3921 3.19327C41.4669 3.19327 41.6072 3.04462 41.8737 2.94102C42.2198 2.80138 43.2674 2.76084 43.8847 2.76084H46.0873C46.0873 2.76084 46.0873 10.1798 46.0826 12.5626C46.0826 13.1572 46.078 13.896 45.8862 14.2879C45.7085 14.6527 45.6571 14.6032 45.6664 14.6753C45.6758 14.7383 45.788 14.7383 45.788 14.7383H48.3508C48.3508 14.7383 48.3975 14.7383 48.4022 14.6933C48.4116 14.6257 48.2993 14.6302 48.1356 14.2023C48.0281 13.9185 47.9673 13.1437 47.9673 12.5491C47.9626 10.0897 47.9673 3.48156 47.9673 2.76084H50.1699C50.7872 2.76084 51.8348 2.80138 52.1809 2.94102C52.4427 3.04462 52.5877 3.19327 52.6625 3.19327C52.7046 3.19327 52.7046 3.13021 52.7046 3.13021C52.7046 2.67075 52.7093 1.88246 52.7046 1.29688H41.35Z" fill="white"/>
<path d="M62.7171 12.6843C62.6282 12.6843 62.4926 12.8825 62.1465 13.0041C61.8472 13.1077 61.1364 13.2023 60.5144 13.2023H56.0951L56.0904 8.49958H59.2003C59.8223 8.49958 61.0522 8.49958 61.4357 8.56715C61.8566 8.64372 61.8613 8.78336 61.9314 8.78336C61.9688 8.78336 61.9735 8.75634 61.9735 8.75634V6.81039C61.9735 6.81039 61.9735 6.76534 61.9314 6.76534C61.8472 6.76534 61.8519 6.9185 61.4357 7.00408C61.1317 7.07615 59.8176 7.04462 59.1956 7.04462L56.0857 7.05363V2.73832H60.2105C60.8278 2.73832 61.5386 2.82841 61.8332 2.93651C62.0998 3.03111 62.2401 3.19327 62.3149 3.18877C62.3663 3.18877 62.357 3.1257 62.357 3.1257V1.29688H53.855C53.855 1.29688 53.7896 1.29687 53.7896 1.33742C53.7896 1.38246 53.8503 1.39597 54.0093 1.7248C54.1964 2.1212 54.2104 2.81039 54.2104 3.40949C54.2104 4.5266 54.2104 11.5086 54.2104 12.6257C54.2104 13.2248 54.2011 13.923 54.0093 14.3149C53.8597 14.6257 53.7942 14.6482 53.7896 14.7023C53.7896 14.7428 53.8457 14.7428 53.8457 14.7428L62.5394 14.7293L62.7545 12.7653C62.7545 12.7653 62.7685 12.6843 62.7077 12.6843H62.7171Z" fill="white"/>
<path d="M95.9673 14.5987L95.6634 14.3554C95.2471 13.9951 94.8777 13.5897 94.5644 13.1437L90.8278 7.89147L95.0227 2.23381C95.191 2.00859 95.3781 1.80138 95.5839 1.60769L95.8037 1.40498C95.8364 1.35994 95.8036 1.30138 95.7475 1.30138H92.806H92.7078C92.7078 1.30138 92.6657 1.30138 92.6563 1.34192C92.6423 1.38697 92.8013 1.47706 92.7873 1.79687C92.7732 1.90949 92.7545 2.03111 92.7218 2.14372C92.7031 2.21129 92.675 2.28787 92.6423 2.36895C92.6283 2.39597 92.6142 2.423 92.6002 2.44552C92.3477 2.85994 90.0328 6.26084 89.8738 6.40949C89.7195 6.26084 87.4373 2.94552 87.1099 2.423C87.1099 2.423 87.1099 2.4185 87.1099 2.41399C86.7452 1.56264 87.0912 1.40048 87.0772 1.33742C87.0632 1.29687 87.0258 1.29688 87.0258 1.29688H84.4958H81.9657C81.9657 1.29688 81.9237 1.29687 81.9143 1.33742C81.8956 1.40048 82.2417 1.56264 81.8862 2.40048C81.5449 2.95003 79.2534 6.41399 79.099 6.56264C78.94 6.40949 76.4755 2.84192 76.2183 2.423C75.8535 1.57165 76.1996 1.40949 76.1855 1.34642C76.1715 1.30588 76.1341 1.30588 76.1341 1.30588H73.548H72.9634C72.9166 1.30588 72.8932 1.35543 72.9213 1.39147L73.1879 1.60769C73.4872 1.85093 73.7491 2.13021 73.9735 2.44102L78.0842 8.14823V8.40048V8.75634V11.8735C78.0842 12.468 78.0515 13.932 77.8597 14.3239C77.6774 14.6978 77.6306 14.6302 77.6306 14.7023C77.6306 14.7473 77.6914 14.7518 77.6914 14.7518H80.2541C80.2541 14.7518 80.3149 14.7428 80.3149 14.7023C80.3149 14.6347 80.2682 14.7023 80.0858 14.3239C79.894 13.932 79.8613 12.4726 79.8613 11.8735V8.76084V8.14823C79.8613 8.14823 83.668 2.4185 84.3274 1.76985C85.23 2.67525 88.8169 7.99057 88.8169 7.99057L84.8418 13.5041C84.5612 13.8915 84.2198 14.2383 83.8317 14.5266L83.7475 14.5897C83.7101 14.6347 83.7475 14.7023 83.8083 14.7023H86.7919H86.8153C86.8153 14.7023 86.8574 14.7023 86.8668 14.6617C86.8761 14.6212 86.7358 14.5356 86.7358 14.2563C86.7545 14.0581 86.8247 13.8419 86.9603 13.6122C87.2082 13.1978 89.6026 9.67075 89.7662 9.5176C89.9252 9.67075 92.3337 13.1933 92.5862 13.6122C92.6891 13.7834 92.7545 13.95 92.7873 14.1032C92.8434 14.5086 92.6517 14.6167 92.6657 14.6617C92.6797 14.7023 92.7171 14.7023 92.7171 14.7023H92.7545H95.9393C95.9907 14.7023 96.0188 14.6482 95.986 14.6077L95.9673 14.5987Z" fill="white"/>
<path d="M13.314 14.5496C13.1971 14.4325 13.0942 14.3019 13.0101 14.1622C12.7622 13.7523 12.2571 12.901 12.0373 12.437L7.0007 1.51808C6.80741 1.13069 6.61255 1.13069 6.41614 1.51808L1.37949 12.437C1.05681 13.1307 0.724777 13.7748 0.425478 14.2028C0.275828 14.419 0.0794135 14.5766 0.00926528 14.6667C-0.0141175 14.6983 0.00926528 14.7433 0.0513542 14.7433H2.62346C2.62346 14.7433 2.66554 14.7433 2.6749 14.7028C2.68893 14.6532 2.46445 14.5316 2.57201 14.0406C2.57201 14.0361 2.57201 14.0271 2.57201 14.0226C2.58137 13.9865 2.59072 13.9505 2.60007 13.9145C2.62346 13.8289 2.66087 13.7343 2.70763 13.6307C2.74505 13.5406 6.57981 5.24331 6.57981 5.24331C6.68738 5.02259 6.71076 5.02259 6.81832 5.24331C6.81832 5.24331 10.4099 13.0181 10.6718 13.5902C10.6718 13.6037 10.6811 13.6172 10.6858 13.6307C10.7513 13.7884 10.7981 13.919 10.8214 14.0316C10.8214 14.0316 10.8214 14.0406 10.8214 14.0451C10.8261 14.0676 10.8308 14.0902 10.8355 14.1127C10.8495 14.1893 10.8542 14.2658 10.8495 14.3379C10.8355 14.5902 10.7092 14.6712 10.7186 14.7073C10.7326 14.7478 10.77 14.7478 10.77 14.7478H13.3281C13.3842 14.7478 13.4169 14.6893 13.3842 14.6442C13.3702 14.6262 13.3421 14.5947 13.3047 14.5586L13.314 14.5496Z" fill="white"/>
<path d="M38.5344 4.31081L41.0504 0H38.5344V4.31081Z" fill="white"/>
<path d="M23.4342 13.1889L20.3243 9.09879C21.8208 8.47717 23.523 7.49969 23.4482 5.25195C23.3407 2.01321 21.0445 1.18888 17.523 1.28348C17.0975 1.29699 14.7218 1.29699 14.2214 1.29699C14.2214 1.29699 14.1793 1.29699 14.1699 1.33753C14.1559 1.39159 14.2635 1.48618 14.3336 1.54924C14.6282 1.81951 14.6282 3.69339 14.6282 4.28798L14.6423 12.5808C14.6423 13.1799 14.6189 13.9141 14.4365 14.3105C14.2869 14.6348 14.1933 14.6348 14.212 14.6979C14.2261 14.7384 14.2635 14.7384 14.2635 14.7384H16.8449C16.8449 14.7384 16.887 14.7384 16.8964 14.6979C16.9151 14.6258 16.8169 14.6483 16.6345 14.2249C16.5129 13.9411 16.4708 12.5718 16.4708 12.5718C16.4708 12.5718 16.4802 3.73393 16.4802 2.85105C16.4802 2.23393 16.7982 2.17987 17.5979 2.17537C20.2915 2.14384 21.4887 3.5042 21.5028 5.38708C21.5168 7.49069 20.3336 8.48168 17.9439 8.64384L21.7179 13.8195C22.064 14.324 22.7608 14.9682 23.9018 14.9817C24.3508 14.9817 24.912 14.9321 25.1739 14.8781C25.2393 14.8646 25.2721 14.7925 25.23 14.7519C24.5332 14.324 23.9299 13.8285 23.4389 13.1889H23.4342Z" fill="white"/>
<path d="M37.1178 12.1625C35.8738 13.4193 33.8676 13.8247 32.156 13.8247C28.8169 13.8247 26.4786 10.9463 26.4412 8.0409C26.3945 4.40126 28.8263 2.18955 32.4038 2.18955C33.7273 2.18955 35.9533 3.00937 36.7858 4.32468C36.8699 4.47333 37.0289 4.98685 37.0289 4.98685C37.0383 5.01387 37.0617 5.04991 37.1318 5.0409C37.1879 5.03189 37.1879 4.98685 37.1879 4.98685V1.78414C37.1879 1.73009 37.1458 1.68955 37.0897 1.68955C36.8886 1.68955 36.4724 1.67603 36.4069 1.66703C35.9533 1.61748 34.2932 1.10847 32.4927 1.08594C27.7553 1.02739 24.6454 3.58594 24.5426 8.03189C24.449 12.167 27.6057 15.0004 32.3804 15.0004C33.6805 15.0004 35.4763 14.7796 36.7063 14.5049L37.2628 12.2301C37.2815 12.1445 37.1739 12.0904 37.1131 12.1535L37.1178 12.1625Z" fill="white"/>
</svg>
