<svg viewBox="0 0 27.1748 272.378" fill="none" xmlns="http://www.w3.org/2000/svg"><g transform="translate(-40, 0)"><g id="line_2">
<path d="M41.6207 13.4466C43.3969 10.9573 44.84 8.33469 45.9722 5.51201C46.8603 3.2672 47.4598 1.26687 47.6596 0C50.3682 0.644549 50.9232 0.822356 50.9232 1.06684C50.9232 1.31132 50.679 1.42245 49.5689 1.60026C48.2146 4.77855 47.4154 6.37881 46.2165 8.31246C48.1702 8.73475 48.259 8.75698 48.259 8.93478C48.259 9.11259 47.9038 9.33485 47.3043 9.55711V15.6248C47.334 17.5214 47.3488 19.1735 47.3488 20.5811C47.3636 21.7369 47.3932 22.7963 47.4376 23.7594V23.8039C47.4376 23.9817 47.3488 24.0928 47.1933 24.1595C47.0379 24.2484 46.3497 24.2928 45.839 24.2928C45.5282 24.2928 45.4394 24.2039 45.4394 23.9372V23.8928C45.4986 22.5444 45.543 19.7884 45.5726 15.6248V9.33485C44.3293 11.1796 43.4857 12.1575 41.9537 13.6911L41.6429 13.4689L41.6207 13.4466ZM52.3663 3.42278C51.7003 3.42278 51.1896 3.445 50.1906 3.57836L50.0351 2.55597C51.2118 2.71155 51.9223 2.80045 52.3885 2.80045H62.6901C63.3783 1.8892 63.6004 1.62249 64.333 0.755678C65.3543 1.66694 65.6429 1.95587 66.6198 2.97826C66.7308 3.08939 66.7752 3.15607 66.7752 3.22275C66.7752 3.33387 66.6198 3.445 66.4644 3.445H63.9112V14.9358C63.9112 17.0694 63.9112 17.1139 64 19.3365C64.0148 20.2255 64.0296 21.0701 64.0444 21.8702V22.048C64.0444 22.7148 63.8668 23.0926 63.334 23.4705C62.7567 23.8705 62.1573 24.0928 60.9584 24.2484C60.7142 23.3371 60.6031 23.1593 60.1813 22.9371C59.9149 22.8259 59.2932 22.6703 58.4496 22.5148L57.4727 22.337C57.1619 22.2925 56.8289 22.2036 56.518 22.1591V21.8035C59.049 21.9073 60.7364 21.9591 61.58 21.9591C61.9796 21.9369 62.1129 21.848 62.1129 21.6035V3.42278H52.3663ZM52.3663 18.2474C52.3663 18.4919 52.2775 18.603 52.0999 18.6475C51.9667 18.6919 51.3006 18.7586 50.9898 18.7586C50.679 18.7586 50.568 18.6697 50.568 18.4474V18.3585C50.5976 17.3658 50.6124 14.4764 50.6124 9.69046C50.6124 9.2904 50.5902 8.31246 50.568 6.8011C51.3673 7.29007 51.6115 7.42343 52.3885 7.91239H56.9621C57.2729 7.4012 57.3839 7.26785 57.7613 6.8011C58.4496 7.29007 58.6716 7.42343 59.3154 7.91239C59.5597 8.0902 59.6263 8.20133 59.6263 8.29023C59.6263 8.37914 59.5819 8.46804 59.4931 8.53472C59.4043 8.6014 59.3154 8.66807 59.2044 8.75698C59.0934 8.84588 58.9602 8.91256 58.7826 9.04591V12.1353C58.7826 14.1356 58.7826 15.0913 58.8714 17.225C58.8714 17.5806 58.5162 17.6695 57.5171 17.6695C57.0953 17.6695 57.0065 17.6251 57.0065 17.3584V16.2026H52.3885V18.2252L52.3663 18.2474ZM52.3663 15.6025H56.9843V8.53472H52.3663V15.6025Z" fill="#fff"/>
<path d="M49.3025 35.8725C47.4376 36.517 46.5273 36.8504 45.839 37.2505C45.4394 37.495 45.284 37.5394 45.062 37.5394C44.7734 37.5394 44.2405 37.1838 43.8853 36.7393C43.3969 36.117 42.9972 35.1835 42.9972 34.7167C42.9972 34.5834 43.0416 34.4056 43.1526 34.1389C43.7077 35.2502 44.1961 35.6058 45.173 35.6058C45.7502 35.6058 47.593 35.2279 49.7021 34.6723C50.3238 33.1165 50.79 31.2273 50.79 30.2938C50.79 29.4714 50.2794 29.0047 48.7475 28.5157C49.0583 28.2935 49.2359 28.249 49.5467 28.249C49.9463 28.249 50.6124 28.3824 51.3228 28.6046C52.5217 28.9603 53.1878 29.427 53.1878 29.9826C53.1878 30.2049 53.1434 30.2938 52.8104 30.7605C52.4329 31.3162 51.8779 32.5164 51.1008 34.3834C52.2775 34.1166 52.7882 34.0722 53.4098 34.0722C55.6966 34.0722 56.7845 35.428 56.7845 38.2284C56.7845 41.6512 55.4302 46.0741 53.876 47.8078C53.21 48.519 52.1665 49.0079 51.3228 49.0079C50.8788 49.0079 50.6568 48.8301 50.6124 48.3856C50.5236 47.6299 50.4792 47.5855 47.6596 45.274L47.9038 44.9184C49.9463 46.0964 51.4783 46.7631 52.0333 46.7631C52.6549 46.7631 53.0768 46.2075 53.765 44.5183C54.6975 42.3402 55.3414 39.3842 55.3414 37.3394C55.3414 35.5613 54.8529 34.9168 53.4542 34.9168C52.6549 34.9168 52.1665 35.0279 50.6568 35.4724C50.4052 36.0799 49.8871 37.2875 49.1027 39.0952C48.9917 39.3619 48.4588 40.6066 47.5264 42.8292C46.4607 45.3407 45.5726 47.2521 45.1508 48.0078C44.9732 48.3634 44.7512 48.519 44.5069 48.519C44.0185 48.519 43.7299 47.83 43.7299 46.6742C43.7299 45.9852 43.8187 45.7852 44.3515 45.1851C44.8844 44.6072 45.5504 43.4737 46.3275 42.029C47.0083 40.7103 47.7188 39.236 48.4588 37.6061L49.2581 35.8725H49.3025ZM59.6929 34.1611C61.7798 34.7834 63.4006 35.8503 64.5772 37.3616C65.5985 38.6729 66.087 39.9398 66.087 41.14C66.087 42.0513 65.6873 42.5847 65.0213 42.5847C64.7993 42.5847 64.6661 42.5625 64.3996 42.4069C63.9778 42.1624 63.8224 42.1402 63.3117 42.1402C62.3793 42.1402 62.2461 42.1402 59.9815 42.3847L59.8705 42.0068C62.5569 41.1845 63.1119 40.9844 63.9334 40.651C63.8224 39.7398 63.5782 39.0063 63.1119 38.0951C62.2683 36.4726 61.2248 35.4502 59.4709 34.5612L59.6929 34.1833V34.1611Z" fill="#fff"/>
<path d="M47.8594 71.7227C49.8797 72.8785 51.4339 73.5453 51.9889 73.5453C52.5439 73.5453 53.0324 72.9896 53.7206 71.3005C54.6531 69.1223 55.2969 66.1885 55.2969 64.166C55.2969 63.0547 55.0527 62.3212 54.5865 62.0101C54.3201 61.8323 53.9648 61.7434 53.3876 61.7434C52.6327 61.7434 52.1443 61.8545 50.6124 62.2768C50.3608 62.8991 49.8427 64.1067 49.0583 65.8996C48.9251 66.2107 48.3922 67.4776 47.482 69.6335C46.4163 72.145 45.5282 74.0565 45.1064 74.8121C44.9288 75.1677 44.7068 75.3233 44.4625 75.3233C43.9741 75.3233 43.6855 74.6343 43.6855 73.4786C43.6855 72.8118 43.7743 72.5896 44.3071 71.9895C45.506 70.5226 46.6605 68.3444 49.2137 62.7213C47.4376 63.2992 46.3053 63.7659 45.7502 64.0993C45.3506 64.3438 45.1952 64.3882 44.9732 64.3882C44.6845 64.3882 44.1517 64.0326 43.7965 63.5881C43.308 62.9658 42.9084 62.0323 42.9084 61.5655C42.9084 61.4322 42.9528 61.2544 43.0638 60.9877C43.6189 62.0767 44.1073 62.4546 45.0842 62.4546C45.6614 62.4546 47.6374 62.0545 49.6133 61.5211C50.235 60.0097 50.7012 58.0539 50.7012 57.1426C50.7012 56.3202 50.1684 55.8313 48.6586 55.3645C48.9695 55.1201 49.1471 55.0756 49.4357 55.0756C49.8353 55.0756 50.5236 55.209 51.2562 55.4312C52.4551 55.7868 53.1212 56.2758 53.1212 56.8537C53.1212 57.0315 53.0768 57.1426 52.7438 57.6316C52.2331 58.5206 51.8113 59.3652 51.0342 61.2322C52.2109 60.9877 52.6772 60.9432 53.3432 60.9432C55.63 60.9432 56.7178 62.299 56.7178 65.0994C56.7178 68.5222 55.3635 72.9452 53.8094 74.6343C53.1434 75.3233 52.0999 75.8345 51.2562 75.8345C50.8122 75.8345 50.5902 75.6567 50.5458 75.2122C50.5014 74.5232 50.3904 74.3899 47.593 72.1006L47.8372 71.7894L47.8594 71.7227ZM59.6041 60.9654C61.691 61.5878 63.3117 62.6546 64.4884 64.166C65.5097 65.4773 65.9981 66.7442 65.9981 67.9221C65.9981 68.8556 65.5985 69.389 64.9325 69.389C64.7105 69.389 64.6216 69.3668 64.3108 69.2112C63.8668 68.9445 63.7336 68.9223 63.2229 68.9223C62.2905 68.9223 62.1573 68.9223 59.8927 69.1668L59.7817 68.8112C62.4237 68.011 63.0897 67.7666 63.8446 67.4554C63.5338 64.8772 61.7132 62.4101 59.3821 61.3433L59.6041 60.9654ZM60.5143 55.6312C61.4912 56.1647 62.2239 56.6759 62.8899 57.276C63.8446 58.1205 64.222 58.7429 64.222 59.3874C64.222 60.032 63.8446 60.4987 63.4006 60.4987C63.1637 60.4987 62.7715 59.9208 62.2239 58.7651C61.7354 57.8316 60.8918 56.6759 60.1813 55.9646L60.5365 55.609L60.5143 55.6312ZM63.2673 54.0977C64.222 54.52 64.9991 54.9867 65.8205 55.609C66.8418 56.3869 67.1748 56.9203 67.1748 57.6538C67.1748 58.2983 66.9084 58.7429 66.5088 58.7429C66.2646 58.7429 66.1092 58.6095 65.8871 58.2317C64.9547 56.5425 64.4218 55.8535 62.9565 54.4311L63.2451 54.0754L63.2673 54.0977Z" fill="#fff"/>
<path d="M42.198 103.795C45.1064 103.283 46.8603 102.728 49.8131 101.372C51.1674 100.75 52.1665 100.172 53.432 99.3272C52.2775 98.3048 51.7891 97.727 50.6124 95.8822C47.8594 98.5938 46.3053 99.7273 43.086 101.239L42.864 100.927C45.9056 98.8827 47.4598 97.4603 49.4135 95.0821C50.5902 93.6596 51.3228 92.5706 51.7225 91.726C53.5652 92.2372 54.1647 92.4817 54.1647 92.7039C54.1647 92.7928 54.1203 92.8595 54.0315 92.9262C53.9426 92.9929 53.5874 93.0818 52.877 93.2151C52.4773 93.7708 52.3663 93.9264 51.9445 94.4375H58.1166C58.605 93.993 58.7826 93.8152 59.271 93.3485C60.0703 93.993 60.3145 94.1931 61.025 94.7709C61.2026 94.9265 61.2692 95.0154 61.2692 95.0821C61.2692 95.2599 61.0028 95.3488 59.9815 95.5933C58.1388 97.5492 57.3173 98.2826 55.6744 99.505C58.4496 100.839 60.9806 101.328 66.6642 101.528V101.817C65.5763 102.039 65.1101 102.506 64.7549 103.728C62.3793 103.506 60.7808 103.172 58.716 102.35C57.1175 101.728 55.7854 101.039 54.5865 100.238C52.988 101.216 51.7891 101.839 50.013 102.483C47.0823 103.572 45.3062 103.95 42.2202 104.195V103.795H42.198ZM52.7216 83.7025C52.6105 86.1251 52.4995 87.0586 52.0999 88.2143C51.4561 90.0591 50.1018 91.726 48.259 92.9706C47.5042 93.4818 46.7937 93.8597 45.3062 94.4598L45.1508 94.1486C47.1489 92.9706 47.9704 92.3039 48.9029 91.1481C50.346 89.3256 50.8566 87.5698 51.012 83.7469H44.6401C44.0629 83.7469 43.5745 83.7914 42.5532 83.9247L42.2868 82.8134C43.0638 83.0357 43.8853 83.1246 44.6179 83.1246H53.1878V81.2799C53.1878 80.8353 53.1656 80.4797 53.1434 79.8352C55.8076 80.1241 56.1628 80.213 56.1628 80.502C56.1628 80.7242 55.852 80.902 54.9417 81.2799V83.1246H62.0463C62.6901 82.2356 62.8899 81.9689 63.6448 81.1465C64.7327 82.1244 65.1101 82.4578 66.198 83.4358C66.2202 83.4802 66.2424 83.5469 66.2424 83.5691C66.2424 83.658 66.1536 83.7247 66.087 83.7247H58.1166V87.592C58.1166 87.8142 58.1166 88.3699 58.1388 89.17C58.1388 89.4145 58.161 89.7924 58.161 90.2369C58.161 90.8147 57.9389 91.1259 57.3617 91.3926C56.7845 91.6593 56.1406 91.8149 55.1859 91.926C55.0305 91.3482 54.8751 91.1259 54.4089 90.8592C53.9871 90.6369 53.4764 90.4813 52.6549 90.3702V89.9479C54.6531 90.1035 54.7641 90.1035 56.0296 90.1702C56.296 90.1702 56.3848 90.0591 56.3848 89.7257V83.7469H52.6772L52.7216 83.7025ZM42.309 92.3261C43.6411 91.1037 44.5513 89.9479 45.7724 87.9254C46.4385 86.8141 46.7049 86.2362 46.9713 85.4805C49.4135 86.3696 49.5245 86.414 49.5245 86.6363C49.5245 86.903 49.1249 87.0363 48.1702 87.1253C46.2831 89.9257 44.6401 91.5482 42.5532 92.6373L42.309 92.3483V92.3261ZM51.4117 95.0599C51.234 95.2377 51.1674 95.3044 50.9676 95.5044C52.2553 97.1935 52.8326 97.7492 54.3201 98.7049C55.741 97.6381 56.5624 96.8379 58.161 95.0599H51.4117ZM59.7151 85.725C61.2248 86.3918 62.6679 87.1919 63.7558 87.9698C65.1101 88.9255 65.5985 89.459 65.5985 90.0813C65.5985 90.8592 65.0435 91.9483 64.666 91.9483C64.5106 91.9483 64.3108 91.7704 64 91.237C62.9121 89.3923 61.4468 87.6587 59.5375 85.9917L59.7151 85.7472V85.725Z" fill="#fff"/>
<path d="M55.1637 128.221C59.9593 126.532 62.5569 123.687 62.5569 120.175C62.5569 117.552 60.914 115.774 58.5162 115.774C56.1184 115.774 53.1212 117.152 50.2794 119.531C50.3016 121.686 50.4348 124.62 50.568 125.665C50.6568 126.332 50.6568 126.443 50.6568 126.709C50.6568 127.598 50.4348 128.532 50.124 129.199C49.9685 129.554 49.7243 129.732 49.4579 129.732C49.2359 129.732 49.0139 129.599 48.9029 129.377C48.9029 129.377 48.8141 129.125 48.6364 128.621C48.3922 127.91 48.259 127.687 47.704 127.021C46.9935 126.176 46.5051 125.687 45.6836 124.976C45.5504 125.22 45.4616 125.376 45.4172 125.509C45.0398 126.22 44.8622 126.465 44.6401 126.465C44.2627 126.465 43.8409 125.443 43.8409 124.576C43.8409 124.22 43.9519 124.02 44.3515 123.598C44.7512 123.198 45.1064 122.798 45.506 122.287C46.2831 121.309 48.7919 117.752 49.4579 116.663C49.5023 115.708 49.5467 115.063 49.5689 114.708C48.7845 115.152 47.9186 115.715 46.9713 116.397C46.4607 116.775 46.1499 116.908 45.8834 116.908C45.4394 116.908 44.9066 116.552 44.4625 115.997C44.0629 115.485 43.7965 114.885 43.7965 114.53C43.7965 114.419 43.8409 114.285 43.9297 114.085C44.3737 114.93 44.951 115.374 45.5504 115.374C46.1055 115.374 48.0592 114.596 49.6799 113.685C49.7243 113.174 49.8131 111.596 49.8131 111.018C49.8131 109.329 49.6355 108.973 48.2368 107.951C48.4144 107.84 48.5254 107.817 48.6364 107.817C49.1693 107.817 50.1018 108.218 50.8122 108.751C51.4783 109.24 51.7891 109.64 51.7891 109.996C51.7891 110.144 51.6855 110.499 51.4783 111.062C51.2118 111.751 51.0564 112.374 50.9454 113.285C51.5893 113.818 51.9001 114.219 51.9001 114.485C51.9001 114.604 51.7521 114.833 51.4561 115.174C51.1896 115.53 50.901 115.997 50.5014 116.93C50.457 117.308 50.457 117.419 50.4126 117.819C51.9667 116.975 52.3219 116.775 53.1656 116.374C55.0527 115.441 56.8955 114.996 58.605 114.996C62.0907 114.996 64.6438 117.352 64.6438 120.531C64.6438 123.176 63.1341 125.398 60.2479 126.998C58.7382 127.821 57.3395 128.287 55.3191 128.621L55.1859 128.221H55.1637ZM47.5042 121.909C46.6309 123.361 46.1129 124.235 45.95 124.531C47.1489 125.42 47.1711 125.443 49.1471 126.665C49.1471 124.954 49.2581 120.997 49.3247 118.753C47.7484 121.464 47.7262 121.531 47.482 121.931L47.5042 121.909Z" fill="#fff"/>
<path d="M56.407 137.044C55.3635 137.356 52.8548 138.356 51.0342 139.156C50.5014 139.4 50.1462 139.512 49.9463 139.512C49.4579 139.512 48.9251 139.134 48.4366 138.4C47.9482 137.689 47.6818 136.978 47.6818 136.422C47.6818 136.178 47.7262 136 47.926 135.733C48.3256 136.978 49.0361 137.689 49.9241 137.689C50.6124 137.689 53.1434 137.111 54.9639 136.533C56.0074 136.178 56.0518 136.178 56.6068 135.711C56.7179 135.622 56.8511 135.578 56.9843 135.578C57.3395 135.578 57.7613 135.844 58.4274 136.511C59.049 137.089 59.2266 137.4 59.2266 137.711C59.2266 137.889 59.0934 138.067 58.7826 138.222C58.0055 138.622 57.7391 138.845 56.5624 140C54.8751 141.69 53.8982 142.668 52.6549 144.001C50.9528 145.838 49.9167 146.942 49.5467 147.313L49.5911 147.357C52.4329 145.579 54.5865 144.823 56.8289 144.823C60.2479 144.823 62.5347 146.824 62.5347 149.802C62.5347 153.625 59.0046 156.448 54.1647 156.448C51.5449 156.448 49.8797 155.403 49.8797 153.78C49.8797 152.469 51.1008 151.513 52.766 151.513C54.0759 151.513 55.2747 152.002 56.1406 152.825C56.629 153.269 56.9177 153.714 57.3173 154.47C59.3377 153.58 60.5365 151.758 60.5365 149.491C60.5365 148.024 59.9593 146.824 58.8936 146.179C58.3386 145.868 57.2951 145.646 56.2516 145.646C53.6318 145.646 49.9908 147.78 47.7928 150.602C47.3488 151.158 47.1489 151.313 46.8825 151.313C46.4829 151.313 45.9944 150.38 45.9944 149.58C45.9944 149.269 46.1721 148.957 46.5495 148.646C47.5708 147.868 47.9926 147.446 50.2572 144.935C53.4986 141.29 54.5199 140.112 56.629 137.4C56.7771 137.207 56.8659 137.067 56.8955 136.978C56.8955 136.978 56.8511 136.933 56.8067 136.933C56.8067 136.933 56.7845 136.933 56.7845 136.956H56.6956C56.6956 136.956 56.6512 136.978 56.5624 137L56.4292 137.044H56.407ZM52.3219 152.336C51.3006 152.336 50.6568 152.869 50.6568 153.692C50.6568 154.67 51.8335 155.314 53.6984 155.314C54.4089 155.314 54.7641 155.27 55.5856 155.07C55.0527 153.358 53.8316 152.314 52.3441 152.314L52.3219 152.336Z" fill="#fff"/>
<path d="M66.8196 163.871C66.8196 165.76 65.2655 167.316 63.3784 167.316C61.4912 167.316 59.9371 165.76 59.9371 163.871C59.9371 161.982 61.4912 160.426 63.3784 160.426C65.2655 160.426 66.8196 161.937 66.8196 163.871ZM60.803 163.871C60.803 165.293 61.9796 166.449 63.3784 166.449C64.7771 166.449 65.9537 165.293 65.9537 163.871C65.9537 162.449 64.7993 161.293 63.3784 161.293C61.9574 161.293 60.803 162.449 60.803 163.871Z" fill="#fff"/>
</g></g></svg>