<svg width="320" height="66" viewBox="0 0 320 66" fill="none" xmlns="http://www.w3.org/2000/svg">
<path d="M0.0104469 15.8126C2.08939 12.9385 3.77134 9.87769 5.07721 6.60934C6.10101 4.01541 6.82185 1.70162 7.04123 0.21789C10.2171 0.954567 10.8648 1.17246 10.8648 1.4526C10.8648 1.73275 10.5827 1.85726 9.27688 2.07515C7.68894 5.74815 6.75917 7.60541 5.35928 9.85694C7.62626 10.355 7.75162 10.3861 7.75162 10.5729C7.75162 10.7908 7.34419 11.0398 6.6338 11.2784V18.3235C6.67559 20.5301 6.69648 22.4462 6.69648 24.0717C6.71738 25.4136 6.74872 26.638 6.79051 27.7447V27.8069C6.79051 28.0248 6.69648 28.1493 6.50844 28.2116C6.32039 28.305 5.51598 28.3672 4.92051 28.3672C4.54442 28.3672 4.45039 28.2739 4.45039 27.9626V27.9003C4.51308 26.3371 4.56531 23.1448 4.6071 18.3235V11.0294C3.14453 13.1564 2.18341 14.3081 0.37609 16.0616L0 15.8126H0.0104469ZM12.5781 4.20217C11.7946 4.20217 11.2096 4.2333 10.0291 4.38893L9.84101 3.21648C11.2096 3.40324 12.0453 3.49662 12.5781 3.49662H24.613C25.4174 2.44867 25.6681 2.1374 26.5457 1.12058C27.7262 2.16853 28.0709 2.51093 29.2201 3.68338C29.3454 3.80789 29.4081 3.90127 29.4081 3.96353C29.4081 4.08804 29.2201 4.21255 29.032 4.21255H26.0442V17.5246C26.0442 19.994 26.0442 20.0563 26.1382 22.6191C26.1591 23.6497 26.18 24.6285 26.2009 25.5554V25.7733C26.2009 26.5411 25.9815 26.9769 25.3652 27.4127C24.6757 27.8796 23.9966 28.1182 22.5967 28.305C22.3147 27.257 22.1893 27.0391 21.6983 26.7901C21.3849 26.6656 20.6745 26.4789 19.682 26.2921L18.5329 26.0742C18.1568 26.0119 17.7911 25.9186 17.415 25.8563L17.4464 25.4517C20.3924 25.5762 22.353 25.6384 23.328 25.6384C23.7981 25.6073 23.9444 25.5139 23.9444 25.2338V4.20217H12.5781ZM12.5781 21.374C12.5781 21.6541 12.4841 21.7787 12.2647 21.8409C12.108 21.9032 11.3349 21.9654 10.9588 21.9654C10.5827 21.9654 10.4574 21.872 10.4574 21.5919V21.4985C10.4992 20.3433 10.5201 16.9954 10.5201 11.4548C10.5201 10.9879 10.4887 9.84657 10.4574 8.11382C11.3872 8.67411 11.6692 8.81937 12.5677 9.41078H17.9165C18.2926 8.81937 18.4179 8.67411 18.8463 8.11382C19.6507 8.67411 19.9014 8.81937 20.6536 9.41078C20.9357 9.62867 21.0297 9.75318 21.0297 9.84657C21.0297 9.93995 20.967 10.0645 20.873 10.1267C20.779 10.189 20.6536 10.2823 20.5282 10.3757C20.4029 10.4691 20.2462 10.5625 20.0268 10.7181V14.2978C20.0268 16.6115 20.0268 17.7217 20.1208 20.2015C20.1208 20.6062 19.7134 20.7307 18.5329 20.7307C18.0314 20.7307 17.9374 20.6684 17.9374 20.3572V19.0291H12.5572V21.374H12.5781ZM12.5781 18.3132H17.9583V10.1267H12.5781V18.3132Z" fill="white"/>
<path d="M40.0953 10.9049C37.9224 11.6416 36.8568 12.0462 36.0524 12.5131C35.5823 12.7933 35.4047 12.8555 35.1539 12.8555C34.8092 12.8555 34.1928 12.4509 33.7854 11.9321C33.2212 11.2265 32.7616 10.1371 32.7616 9.58717C32.7616 9.43154 32.8243 9.21365 32.9496 8.90237C33.5973 10.1993 34.1615 10.604 35.3106 10.604C35.9897 10.604 38.1418 10.1682 40.5968 9.52492C41.3072 7.72992 41.8713 5.54064 41.8713 4.46156C41.8713 3.507 41.2758 2.97783 39.479 2.39679C39.855 2.14778 40.0431 2.08552 40.4087 2.08552C40.8788 2.08552 41.6519 2.24116 42.4981 2.49017C43.898 2.89483 44.6711 3.44474 44.6711 4.09841C44.6711 4.34743 44.6084 4.47194 44.2323 4.99072C43.7935 5.6444 43.1458 7.02437 42.2369 9.19289C43.6055 8.88162 44.201 8.81937 44.9427 8.81937C47.6171 8.81937 48.8916 10.3965 48.8916 13.6337C48.8916 17.5869 47.3037 22.7125 45.5068 24.7254C44.7338 25.5554 43.5115 26.1157 42.519 26.1157C41.9862 26.1157 41.7459 25.8978 41.6833 25.4102C41.5892 24.549 41.5266 24.4867 38.2358 21.7994L38.5178 21.3948C40.9102 22.754 42.6862 23.5218 43.3339 23.5218C44.0443 23.5218 44.5457 22.8681 45.3501 20.9278C46.4366 18.3962 47.1888 14.9618 47.1888 12.6169C47.1888 10.5521 46.6247 9.80506 44.9845 9.80506C44.0547 9.80506 43.4906 9.92957 41.7251 10.4587C41.4325 11.1574 40.8301 12.5581 39.9177 14.6609C39.7924 14.9722 39.176 16.4248 38.0791 18.9876C36.8359 21.8928 35.8121 24.1132 35.3106 24.9848C35.0912 25.3894 34.8405 25.5762 34.5689 25.5762C34.0048 25.5762 33.6705 24.7772 33.6705 23.4491C33.6705 22.6502 33.7645 22.4323 34.3809 21.7164C35.0077 21.042 35.7807 19.7346 36.6792 18.0745C37.4662 16.5527 38.295 14.8442 39.1656 12.9489L40.0953 10.936V10.9049ZM52.2242 8.92313C54.6479 9.63905 56.5492 10.8738 57.9178 12.6273C59.0983 14.1421 59.6938 15.6258 59.6938 17.0162C59.6938 18.0641 59.2237 18.6867 58.4506 18.6867C58.1999 18.6867 58.0432 18.6556 57.7402 18.4688C57.2387 18.1886 57.0507 18.1575 56.4657 18.1575C55.3792 18.1575 55.2225 18.1575 52.5794 18.4377L52.4541 18.0019C55.5986 17.0473 56.2463 16.8294 57.2074 16.4248C57.082 15.3768 56.8 14.5053 56.2463 13.4573C55.2538 11.5689 54.042 10.3965 51.9839 9.34853L52.2347 8.91275L52.2242 8.92313Z" fill="white"/>
<path d="M69.5034 21.5296C71.8645 22.8577 73.6718 23.6255 74.3195 23.6255C74.9672 23.6255 75.5313 22.9822 76.3357 21.0316C77.4222 18.4999 78.1744 15.0967 78.1744 12.7518C78.1744 11.4548 77.8923 10.6247 77.3386 10.2512C77.0252 10.0333 76.6283 9.93995 75.9388 9.93995C75.0717 9.93995 74.4762 10.0645 72.7002 10.5625C72.4077 11.2819 71.8053 12.6826 70.8929 14.7647C70.7362 15.1382 70.1198 16.5908 69.0542 19.0913C67.811 21.9965 66.7872 24.2169 66.2858 25.0885C66.0664 25.4932 65.8157 25.6799 65.5441 25.6799C64.9799 25.6799 64.6456 24.881 64.6456 23.5529C64.6456 22.7851 64.7396 22.5361 65.356 21.8202C66.7559 20.1185 68.0931 17.5869 71.0809 11.0709C69.002 11.7453 67.6961 12.2745 67.038 12.6791C66.5679 12.9593 66.3903 13.0215 66.1395 13.0215C65.7948 13.0215 65.1784 12.6169 64.771 12.0981C64.2069 11.3925 63.7472 10.3031 63.7472 9.75318C63.7472 9.59755 63.8099 9.37966 63.9352 9.06839C64.5829 10.3342 65.1471 10.77 66.2962 10.77C66.9753 10.77 69.2841 10.3031 71.5824 9.69093C72.2928 7.92706 72.8569 5.67552 72.8569 4.62757C72.8569 3.67301 72.2301 3.11272 70.4646 2.5628C70.8407 2.28266 71.0287 2.22041 71.363 2.22041C71.8331 2.22041 72.6375 2.37604 73.4733 2.62506C74.8732 3.02971 75.6462 3.61075 75.6462 4.26442C75.6462 4.48231 75.5836 4.60682 75.2075 5.15674C74.612 6.17356 74.121 7.16963 73.2121 9.32778C74.5807 9.04763 75.1448 8.98538 75.9179 8.98538C78.5923 8.98538 79.8668 10.5625 79.8668 13.7997C79.8668 17.7529 78.2789 22.8785 76.482 24.8602C75.7089 25.6592 74.4866 26.2506 73.4942 26.2506C72.9614 26.2506 72.7211 26.0327 72.6584 25.545C72.5957 24.7461 72.4704 24.5905 69.2109 21.9343L69.493 21.5608L69.5034 21.5296ZM83.2203 9.07876C85.644 9.78431 87.5453 11.0294 88.9139 12.7829C90.0944 14.2978 90.6898 15.7815 90.6898 17.1407C90.6898 18.2198 90.2197 18.8423 89.4466 18.8423C89.1959 18.8423 89.0706 18.8112 88.7363 18.6244C88.2035 18.3132 88.0468 18.282 87.4617 18.282C86.3752 18.282 86.2185 18.282 83.5755 18.5622L83.4501 18.1575C86.532 17.2341 87.305 16.9539 88.2035 16.5804C87.8274 13.5818 85.7171 10.7389 82.98 9.50417L83.2307 9.06839L83.2203 9.07876ZM84.2859 2.9052C85.435 3.52775 86.2812 4.10879 87.0543 4.82471C88.1721 5.81041 88.6109 6.52633 88.6109 7.26301C88.6109 7.99969 88.1721 8.55998 87.6498 8.55998C87.3782 8.55998 86.922 7.88901 86.2812 6.54708C85.7171 5.46801 84.7246 4.13992 83.8889 3.29948L84.2963 2.89483L84.2859 2.9052ZM87.4826 1.1102C88.6004 1.60824 89.4989 2.12702 90.4704 2.87408C91.6509 3.76639 92.0584 4.38893 92.0584 5.25012C92.0584 5.98679 91.745 6.51596 91.2853 6.51596C91.0032 6.51596 90.8152 6.36032 90.5749 5.92454C89.4884 3.9739 88.8616 3.17497 87.1483 1.50448L87.4931 1.09983L87.4826 1.1102Z" fill="white"/>
<path d="M93.9806 27.7966C97.3759 27.2052 99.4235 26.5619 102.871 24.9848C104.459 24.2792 105.608 23.5944 107.102 22.6087C105.765 21.4363 105.169 20.7515 103.801 18.6244C100.594 21.7787 98.7653 23.0756 95.0044 24.8291L94.7537 24.4556C98.2952 22.0795 100.134 20.4402 102.401 17.6906C103.769 16.0512 104.636 14.7854 105.107 13.7997C107.248 14.3911 107.969 14.6609 107.969 14.941C107.969 15.0344 107.906 15.1278 107.812 15.1901C107.718 15.2523 107.28 15.3768 106.475 15.5325C106.005 16.1758 105.88 16.3625 105.389 16.9539H112.607C113.172 16.4248 113.381 16.2484 113.945 15.6881C114.874 16.4248 115.157 16.6738 115.992 17.3275C116.212 17.5142 116.274 17.6076 116.274 17.701C116.274 17.9189 115.961 18.0123 114.78 18.2924C112.639 20.5439 111.667 21.4155 109.745 22.837C112.984 24.383 115.93 24.9329 122.584 25.1819V25.5243C121.31 25.7733 120.777 26.3232 120.349 27.7447C117.58 27.4957 115.71 27.1014 113.287 26.1365C111.417 25.4309 109.87 24.6216 108.471 23.6982C106.601 24.8395 105.201 25.5554 103.122 26.2921C99.7055 27.5579 97.6162 27.9937 94.012 28.2739L93.9806 27.8069V27.7966ZM106.266 4.51344C106.141 7.32526 106.015 8.40434 105.556 9.73243C104.814 11.8595 103.226 13.8101 101.074 15.2316C100.207 15.823 99.3608 16.2484 97.6266 16.9643L97.4386 16.5908C99.7682 15.2316 100.74 14.4638 101.826 13.1045C103.508 11.0086 104.093 8.96463 104.281 4.51344H96.8535C96.164 4.51344 95.6103 4.5757 94.4298 4.73133L94.1164 3.43437C95.0149 3.68338 95.9864 3.80789 96.8535 3.80789H106.872V1.67049C106.872 1.14133 106.841 0.747052 106.809 0C109.923 0.342399 110.32 0.435781 110.32 0.767804C110.32 1.01682 109.944 1.23471 108.888 1.66012V3.78714H117.194C117.935 2.77032 118.186 2.45905 119.064 1.50448C120.338 2.64581 120.777 3.01934 122.052 4.16067C122.083 4.22292 122.114 4.28518 122.114 4.3163C122.114 4.40968 122.02 4.50307 121.926 4.50307H112.628V8.98538C112.628 9.2344 112.628 9.87769 112.66 10.8115C112.66 11.0917 112.691 11.5274 112.691 12.0462C112.691 12.731 112.44 13.063 111.761 13.3743C111.072 13.6856 110.33 13.8723 109.212 13.9969C109.024 13.3224 108.836 13.0734 108.314 12.7621C107.812 12.5131 107.227 12.3264 106.266 12.2019V11.7038C108.596 11.8906 108.721 11.8906 110.215 11.9528C110.529 11.9528 110.623 11.8283 110.623 11.4237V4.50307H106.298L106.266 4.51344ZM94.106 14.5156C95.6626 13.0942 96.7177 11.7661 98.1489 9.42116C98.922 8.12419 99.2354 7.47052 99.5488 6.57821C102.411 7.59503 102.537 7.65729 102.537 7.9063C102.537 8.21758 102.067 8.37321 100.949 8.46659C98.7444 11.7142 96.8117 13.5922 94.388 14.858L94.106 14.5156ZM104.741 17.6699C104.522 17.8878 104.459 17.95 104.208 18.199C105.702 20.1497 106.381 20.793 108.126 21.9032C109.776 20.6684 110.737 19.745 112.607 17.6699H104.741ZM114.446 6.85836C116.222 7.62616 117.894 8.55997 119.168 9.45229C120.756 10.5625 121.31 11.185 121.31 11.8906C121.31 12.7829 120.662 14.0487 120.223 14.0487C120.035 14.0487 119.816 13.8308 119.45 13.2187C118.176 11.0917 116.462 9.07876 114.227 7.1385L114.446 6.85836Z" fill="white"/>
<path d="M140.219 25.2026C145.818 23.252 148.869 19.9525 148.869 15.8749C148.869 12.8452 146.936 10.7804 144.136 10.7804C141.337 10.7804 137.826 12.3886 134.525 15.1382C134.556 17.6387 134.713 21.042 134.87 22.2456C134.964 23.0134 134.964 23.1379 134.964 23.4491C134.964 24.466 134.713 25.545 134.337 26.3232C134.149 26.7279 133.867 26.9458 133.564 26.9458C133.313 26.9458 133.031 26.7901 132.916 26.5411C132.895 26.4581 132.791 26.171 132.603 25.6799C132.321 24.8499 132.164 24.6008 131.516 23.8227C130.681 22.837 130.117 22.2767 129.155 21.4466C128.999 21.7268 128.905 21.9135 128.842 22.0692C128.403 22.8992 128.194 23.1794 127.944 23.1794C127.505 23.1794 127.014 22.0069 127.014 20.9901C127.014 20.5854 127.139 20.3468 127.609 19.8488C128.079 19.3819 128.476 18.9253 128.947 18.3339C129.845 17.1926 132.77 13.0838 133.554 11.818C133.616 10.7078 133.648 9.9607 133.679 9.56642C132.767 10.0783 131.75 10.7285 130.628 11.5171C130.033 11.9528 129.667 12.1085 129.354 12.1085C128.821 12.1085 128.205 11.7038 127.703 11.0605C127.233 10.4691 126.93 9.76356 126.93 9.35891C126.93 9.2344 126.993 9.07876 127.087 8.82974C127.62 9.81544 128.267 10.3135 128.988 10.3135C129.636 10.3135 131.913 9.42116 133.804 8.36284C133.867 7.77142 133.961 5.95567 133.961 5.27087C133.961 3.32023 133.742 2.89483 132.122 1.72237C132.342 1.59786 132.467 1.56673 132.592 1.56673C133.219 1.56673 134.306 2.03364 135.142 2.64581C135.915 3.2061 136.291 3.66263 136.291 4.09841C136.291 4.26442 136.165 4.67599 135.915 5.33312C135.601 6.13205 135.413 6.84798 135.288 7.89593C136.03 8.51847 136.406 8.975 136.406 9.28628C136.406 9.43154 136.228 9.69785 135.873 10.0852C135.559 10.4899 135.215 11.0398 134.755 12.1188C134.692 12.5546 134.692 12.6791 134.661 13.1357C136.468 12.15 136.897 11.9321 137.868 11.4652C140.072 10.3861 142.225 9.85694 144.209 9.85694C148.284 9.85694 151.272 12.5754 151.272 16.2795C151.272 19.3404 149.496 21.9343 146.142 23.7812C144.366 24.7357 142.757 25.2649 140.386 25.6695L140.229 25.2026H140.219ZM131.266 17.8878C130.249 19.5755 129.646 20.5854 129.458 20.9175C130.858 21.9343 130.89 21.9654 133.188 23.3869C133.188 21.4051 133.313 16.8087 133.407 14.2147C131.569 17.369 131.537 17.4312 131.266 17.8878Z" fill="white"/>
<path d="M172.771 4.51344C171.56 4.88697 168.634 6.0283 166.493 6.95174C165.866 7.23188 165.469 7.35639 165.218 7.35639C164.654 7.35639 164.038 6.92061 163.442 6.05942C162.878 5.22937 162.575 4.42006 162.575 3.77676C162.575 3.49662 162.638 3.27873 162.857 2.97783C163.327 4.43044 164.163 5.22937 165.187 5.22937C165.991 5.22937 168.948 4.55494 171.069 3.90127C172.28 3.49662 172.343 3.49662 173.001 2.94671C173.127 2.85332 173.283 2.79107 173.44 2.79107C173.847 2.79107 174.338 3.10234 175.122 3.87015C175.832 4.55494 176.052 4.88697 176.052 5.26049C176.052 5.47838 175.895 5.66515 175.519 5.85191C174.62 6.31882 174.307 6.56784 172.939 7.91668C170.975 9.86732 169.825 11.0086 168.363 12.5546C166.371 14.6782 165.159 15.9544 164.727 16.3833L164.79 16.4455C168.122 14.3808 170.64 13.5092 173.252 13.5092C177.232 13.5092 179.907 15.823 179.907 19.2885C179.907 23.7085 175.77 26.9769 170.139 26.9769C167.088 26.9769 165.135 25.7733 165.135 23.8849C165.135 22.3701 166.566 21.2599 168.488 21.2599C170.013 21.2599 171.413 21.8202 172.437 22.7747C173.001 23.3039 173.336 23.7915 173.806 24.6942C176.167 23.6774 177.567 21.54 177.567 18.915C177.567 17.2133 176.877 15.823 175.634 15.0863C174.986 14.7128 173.764 14.4638 172.552 14.4638C169.501 14.4638 165.239 16.9332 162.659 20.2119C162.126 20.8552 161.917 21.042 161.604 21.042C161.133 21.042 160.58 19.9629 160.58 19.0291C160.58 18.6556 160.799 18.3235 161.228 17.95C162.408 17.0577 162.909 16.5597 165.553 13.6545C169.345 9.42116 170.525 8.06194 172.98 4.90772C173.147 4.67945 173.252 4.51344 173.294 4.40968C173.294 4.40968 173.231 4.34743 173.2 4.34743C173.2 4.34743 173.168 4.34743 173.168 4.37856H173.074C173.074 4.37856 173.012 4.40968 172.918 4.44081L172.761 4.50307L172.771 4.51344ZM167.987 22.2352C166.806 22.2352 166.023 22.8577 166.023 23.8123C166.023 24.9536 167.391 25.7007 169.564 25.7007C170.4 25.7007 170.807 25.6384 171.768 25.4205C171.152 23.4388 169.721 22.2352 167.976 22.2352H167.987Z" fill="white"/>
<path d="M195.629 24.9536C195.629 27.1429 193.822 28.9379 191.618 28.9379C189.413 28.9379 187.606 27.1429 187.606 24.9536C187.606 22.7643 189.413 20.9693 191.618 20.9693C193.822 20.9693 195.629 22.7332 195.629 24.9536ZM188.598 24.9536C188.598 26.593 189.967 27.9522 191.618 27.9522C193.268 27.9522 194.637 26.6241 194.637 24.9536C194.637 23.2831 193.3 21.955 191.618 21.955C189.936 21.955 188.598 23.2831 188.598 24.9536Z" fill="white"/>
<path d="M8.3471 41.3577C8.62917 41.6067 9.05749 41.7312 9.62163 41.7312C10.1858 41.7312 12.1393 41.2954 14.4063 40.6521C15.6808 40.3097 16.433 40.0607 16.83 39.8843C16.9554 39.822 17.1643 39.6664 17.4568 39.4174C17.6135 39.2929 17.8329 39.1995 18.021 39.1995C18.9194 39.1995 20.8521 41.1813 20.8521 42.1047C20.8521 42.4471 20.7581 42.5405 20.079 42.8102C19.6402 43.0281 18.303 44.0138 15.9734 45.9333C13.6124 47.884 10.1231 50.5713 6.95766 52.9162C10.3529 51.6192 12.7766 50.8203 19.0552 49.0253C20.3297 48.6518 21.2282 48.4028 21.949 48.1641C22.7221 47.884 22.9101 47.8529 23.2235 47.8529C23.631 47.8529 24.31 48.1641 24.8428 48.5895C25.2502 48.9319 25.3756 49.1498 25.3756 49.4818C25.3756 49.7931 25.1249 50.0421 24.7488 50.0733C24.4981 50.1355 24.4667 50.1355 22.7534 50.2289C21.0401 50.2912 18.8045 50.9344 17.2165 51.7749C14.5735 53.1652 12.9855 55.3234 12.9855 57.4919C12.9855 59.2869 14.1347 60.7084 16.0674 61.3517C16.8718 61.6318 17.3733 61.6941 18.8045 61.6941C19.0239 61.6941 19.2433 61.6941 19.4 61.6629C19.6507 61.6318 19.8387 61.6007 19.9014 61.6007C20.5909 61.6007 21.7401 62.7109 21.7401 63.3646C21.7401 63.956 21.2386 64.1946 20.1521 64.1946C15.2107 64.1946 11.6901 61.6007 11.6901 58.0211C11.6901 56.4751 12.3483 54.9602 13.6228 53.6321C14.5839 52.5842 15.4301 51.9616 17.133 50.9759C13.5601 51.9616 7.86654 54.2547 5.99654 55.4583C5.55777 55.7384 5.40106 55.8007 5.22347 55.8007C4.53397 55.8007 3.47883 54.7838 3.47883 54.1613C3.47883 53.7255 3.69821 53.5388 4.31458 53.3624C5.93386 52.8643 8.76498 50.7062 13.0587 46.5974C16.5062 43.3602 18.0314 41.6585 18.0314 41.1605C18.0314 40.9115 17.8434 40.7559 17.5926 40.7559C17.2479 40.7559 16.9345 40.8492 14.1974 41.9283C12.3901 42.6339 11.3036 43.1319 10.4365 43.6611C9.99772 43.9101 9.78878 44.0035 9.50671 44.0035C8.87989 44.0035 8.1695 43.3809 7.57403 42.3018C7.19794 41.6793 6.97855 40.9737 6.97855 40.5068C6.97855 40.3512 7.00989 40.1956 7.1666 39.9154C7.51135 40.5587 7.79341 40.9322 8.3471 41.368V41.3577Z" fill="white"/>
<path d="M38.0059 53.2794C37.9433 53.9642 37.9119 54.2339 37.9119 54.6697C37.9119 58.3427 40.2416 60.0755 45.2561 60.0755C47.7111 60.0755 50.2915 59.6397 52.1302 58.9653C52.3182 58.8719 52.5063 58.8407 52.663 58.8407C53.1331 58.8407 53.8435 59.1209 54.3763 59.4529C54.8151 59.7953 55.0553 60.1585 55.0553 60.532C55.0553 60.9989 54.7106 61.3309 54.0629 61.4866C52.6317 61.8601 49.5811 62.1091 46.8127 62.1091C43.3339 62.1091 41.1191 61.6733 39.5625 60.6254C38.0059 59.6397 36.9821 57.689 36.9821 55.7488C36.9821 55.0121 37.1388 54.1717 37.4836 53.1549L38.0164 53.2794H38.0059ZM38.9775 41.0775C40.5654 42.1255 41.6519 42.4367 43.7309 42.4367C45.8098 42.4367 48.4006 42.0632 50.1975 41.5133C50.4169 41.451 50.6676 41.3888 50.7617 41.3888C51.5661 41.3888 52.6316 42.3122 52.6316 42.997C52.6316 43.5262 52.4436 43.6196 50.3647 44.0761C49.1528 44.3251 48.8708 44.4496 45.8202 45.5909C45.3258 45.7777 44.4761 46.127 43.2712 46.6389C42.6444 46.8879 42.6444 46.919 42.0594 47.1369L41.84 46.67C42.8011 46.1097 43.3025 45.8088 44.107 45.3731C45.5138 44.6122 46.3844 44.128 46.7187 43.9205C46.0292 43.9827 44.9427 44.0138 44.389 44.0138C43.2399 44.0138 41.8086 43.6714 40.8475 43.1838C40.0431 42.748 39.5416 42.3226 38.6745 41.3888L38.988 41.0775H38.9775Z" fill="white"/>
<path d="M65.7112 51.7645C66.143 51.7645 67.3967 50.7131 69.4721 48.6103C71.8645 46.172 73.139 45.3316 74.3508 45.3316C75.6567 45.3316 76.6492 45.9748 79.731 48.7244C83.9307 52.4597 86.7304 54.5037 88.8407 55.3649C89.5302 55.6139 89.7705 55.8629 90.1153 56.5373C90.4287 57.1288 90.648 57.8966 90.648 58.3946C90.648 58.7681 90.366 59.0379 90.0212 59.0379C89.5825 59.0379 88.4333 58.4465 87.2215 57.6475C85.1321 56.2261 82.2174 53.5699 78.9475 50.1148C76.1164 47.1473 75.2179 46.4418 74.1941 46.4418C73.2957 46.4418 72.4181 47.2199 70.8616 49.2847C69.9631 50.4572 69.8064 50.7373 69.0856 52.0031C68.6155 52.8332 68.5841 52.9266 68.5214 53.1133C68.208 53.7981 68.208 53.8189 67.9886 54.0057C67.7693 54.1613 67.5499 54.2547 67.3096 54.2547C65.941 54.2547 63.5174 51.972 63.5174 50.7062C63.5174 50.7062 63.5591 50.5609 63.6427 50.2704C64.2382 51.1316 65.1053 51.7541 65.6903 51.7541L65.7112 51.7645Z" fill="white"/>
<path d="M98.5773 51.2665C96.4879 53.3001 95.7148 53.8915 93.7926 55.064L93.5105 54.6593C95.4745 52.9888 96.7804 51.474 98.7026 48.6622C100.071 46.7115 100.719 45.5079 101.377 43.9101C102.067 44.1902 102.558 44.4081 102.871 44.5222C104.208 45.0514 104.49 45.207 104.49 45.4457C104.49 45.7258 104.083 45.8815 103.31 45.8815C103.278 45.8815 103.184 45.8815 103.09 45.8503C101.722 47.7698 100.949 48.7555 99.6429 50.177C101.325 50.5505 101.69 50.6751 101.69 50.9448C101.69 51.1627 101.565 51.225 100.698 51.5051V56.7864C100.698 57.8793 100.708 59.7746 100.729 62.4723V64.7238C100.698 64.9728 100.635 65.0039 100.353 65.0662C99.9145 65.1284 99.4235 65.1907 99.0787 65.1907C98.5459 65.1907 98.3997 65.1284 98.3997 64.9106V64.7549C98.4624 63.956 98.525 61.4451 98.5877 57.2533V51.2561L98.5773 51.2665ZM94.1687 45.9852C95.7879 44.5326 97.1251 43.0489 98.7444 40.8596C99.6115 39.7183 100.176 38.826 101.011 37.3111C102.693 38.0167 103.56 38.4524 103.843 38.6703C103.874 38.7015 103.937 38.7948 103.999 38.9816C103.999 39.1684 103.686 39.324 103.352 39.324C103.163 39.324 102.913 39.2929 102.641 39.2929C100.029 42.416 97.6057 44.543 94.4925 46.3691L94.1791 45.9956L94.1687 45.9852ZM106.392 48.2056C105.524 48.2056 104.929 48.2679 103.654 48.4235L103.404 47.1888C104.741 47.469 105.18 47.5001 106.392 47.5001H117.956C118.761 46.5144 119.011 46.2342 119.826 45.3108C121.07 46.3276 121.414 46.67 122.563 47.7802C122.657 47.9047 122.689 47.967 122.689 47.9981C122.689 48.1226 122.532 48.216 122.407 48.216H116.191V54.3896C116.191 57.1703 116.191 58.7162 116.253 62.6071V62.8873C116.253 63.5721 115.971 63.9664 115.261 64.4021C114.613 64.7757 113.892 64.9936 112.367 65.2633C112.305 64.2776 112.054 63.9041 111.312 63.5617C110.999 63.4372 110.508 63.3127 109.599 63.1882L107.52 62.8769V62.3477C109.912 62.5034 110.852 62.5656 113.433 62.6279C113.872 62.5968 113.966 62.5345 113.966 62.1921V48.1953H106.412L106.392 48.2056ZM104.772 39.4381C105.859 39.656 106.705 39.7494 107.885 39.7494H116.065C116.776 38.826 116.995 38.5458 117.747 37.6846C118.991 38.6081 119.367 38.9194 120.61 39.9984C120.673 40.0918 120.704 40.1541 120.704 40.2163C120.704 40.3408 120.516 40.4653 120.328 40.4653H107.885C106.768 40.4653 106.204 40.4965 104.992 40.6832L104.772 39.4485V39.4381Z" fill="white"/>
<path d="M129.208 43.3602C130.67 44.4081 131.694 44.7505 133.345 44.7505C134.776 44.7505 137.074 44.3459 138.443 43.8271C137.732 42.499 136.479 40.8907 135.768 40.372C135.361 40.0607 134.525 39.8428 133.376 39.7287C133.595 39.1995 133.783 39.1061 134.619 38.9297C135.121 38.8052 135.486 38.7741 136.05 38.7741C137.137 38.7741 137.889 38.9297 138.161 39.1787C138.443 39.4278 138.474 39.5211 138.537 40.3823C138.558 40.7974 138.983 41.8176 139.811 43.4432C142.674 42.3952 143.415 42.0217 144.262 41.1605C144.512 40.9426 144.794 40.8492 145.254 40.8492C146.466 40.8492 147.093 41.1294 147.093 41.6482C147.093 42.0839 146.685 42.333 145.077 43.0074C144.575 43.2253 143.05 43.7441 140.501 44.5534C140.71 44.9061 140.936 45.2866 141.18 45.6947C141.368 46.006 141.869 46.8672 142.705 48.2264C145.16 47.2718 145.756 47.0228 146.56 46.5248C145.912 45.8503 145.693 45.6636 144.941 45.0722L145.16 44.7609C146.341 45.3523 147.156 45.6221 147.772 45.6221L148.336 45.5598C148.43 45.5287 148.524 45.5287 148.587 45.5287C149.088 45.5287 149.422 45.84 149.422 46.2965C149.422 47.0332 147.615 47.9981 143.384 49.4818C144.345 51.1212 144.502 51.4014 144.784 51.889C145.258 52.7329 145.735 53.5457 146.215 54.3273C146.591 54.9187 146.748 55.4064 146.748 55.9978C146.748 57.2014 146.341 58.0107 145.724 58.0107C145.442 58.0107 145.348 57.9484 144.857 57.5438C143.269 56.2779 140.375 55.4168 137.638 55.4168C136.207 55.4168 134.807 55.728 133.752 56.2779C132.478 56.9316 131.882 57.7305 131.882 58.7785C131.882 60.698 133.93 61.7148 137.764 61.7148C139.289 61.7148 140.187 61.6214 141.681 61.279C141.838 61.2479 141.963 61.2168 142.057 61.2168C142.987 61.2168 144.105 62.078 144.105 62.8562C144.105 63.1052 143.948 63.3231 143.635 63.4476C143.039 63.6966 141.149 63.9145 139.373 63.9145C136.949 63.9145 134.797 63.5721 133.397 62.991C131.496 62.161 130.378 60.7084 130.378 59.1001C130.378 56.3194 133.679 54.4622 138.589 54.4622C140.428 54.4622 142.162 54.649 144.439 55.147C144.095 53.9123 143.259 52.0862 142.11 49.8969C140.02 50.6024 137.377 51.0693 135.486 51.0693C134.149 51.0693 133.157 50.7892 132.248 50.177C131.631 49.7412 131.287 49.3158 130.754 48.3198L131.13 48.0396C132.122 49.3677 133.146 49.8657 134.797 49.8657C136.604 49.8657 138.871 49.4611 141.451 48.6933C140.804 47.4897 139.989 46.0994 139.279 44.9892C137.189 45.6324 135.142 45.9748 133.491 45.9748C131.84 45.9748 130.315 45.2382 128.947 43.7233L129.197 43.3809L129.208 43.3602Z" fill="white"/>
<path d="M174.265 41.0152C175.508 41.5133 177.222 41.9698 177.775 41.9698C177.901 41.9698 177.964 41.9698 178.089 41.9387H178.277C179.05 41.9387 179.489 42.2811 179.489 42.8933C179.489 43.3602 178.956 43.8167 177.775 44.5015C176.658 45.0929 176.25 45.2693 173.231 46.421C174.85 48.7037 176.564 51.3598 177.493 53.0926C177.995 53.9849 178.172 54.6386 178.172 55.4064C178.172 56.61 177.953 57.0457 177.337 57.0457C176.992 57.0457 176.804 56.9524 176.376 56.5166C175.749 55.9252 174.976 55.3753 174.297 55.064C172.709 54.3273 170.661 53.8915 168.666 53.8915C165.093 53.8915 162.847 55.2819 162.847 57.5023C162.847 58.8304 163.745 59.9717 165.27 60.6254C166.357 61.0612 167.914 61.2998 169.596 61.2998C170.776 61.2998 171.497 61.2375 172.301 61.0819C172.458 61.0508 172.583 61.0197 172.677 61.0197C173.482 61.0197 174.61 62.0053 174.61 62.6901C174.61 63.4579 174.077 63.6447 171.904 63.6447C169.575 63.6447 167.423 63.3646 165.814 62.8147C163.014 61.8912 161.363 60.0028 161.363 57.7824C161.363 54.6905 164.445 52.8436 169.543 52.8436C171.622 52.8436 173.962 53.1549 175.634 53.6425C174.955 51.5155 173.638 49.1913 171.904 46.7842C169.669 47.4586 167.642 47.801 165.594 47.801C163.233 47.801 161.457 46.9709 159.869 45.0825L160.214 44.7713C161.896 46.006 163.233 46.4729 165.187 46.4729C166.838 46.4729 168.854 46.1305 170.943 45.5183C169.637 43.8167 167.861 42.1877 166.618 41.5029C165.657 40.9737 165.438 40.7351 165.438 40.2993C165.438 39.5938 166.211 39.158 167.548 39.158C168.666 39.158 169.784 39.3448 171.183 39.8013L171.027 40.2682C170.316 40.1748 169.846 40.1437 169.627 40.1437C168.979 40.1437 168.666 40.2682 168.666 40.4861C168.666 40.6417 168.979 41.0464 169.94 42.1255C170.285 42.5301 171.089 43.5158 172.333 45.0929C172.604 44.9684 173.259 44.7021 174.297 44.294C175.007 43.9827 175.602 43.7026 176.564 43.1527C175.759 42.499 175.728 42.4679 174.046 41.3577L174.265 41.0152Z" fill="white"/>
<path d="M193.947 48.299C194.198 48.548 194.574 48.6725 194.94 48.6725C195.682 48.6725 196.246 48.5169 200.289 47.2199C202.618 46.4833 202.806 46.421 203.214 46.1409C203.496 45.9541 203.59 45.923 203.747 45.923C204.582 45.923 206.296 47.6557 206.296 48.5169C206.296 48.8904 206.17 48.9838 205.397 49.2847C204.896 49.5026 204.593 49.7205 203.653 50.5194C202.597 51.3806 199.327 54.566 197.437 56.61C198.93 55.8422 199.923 55.5309 200.915 55.5309C201.688 55.5309 202.409 55.811 202.963 56.2987C203.653 56.9212 203.861 57.4712 204.363 59.5152C204.77 61.3102 205.324 61.6733 207.507 61.6733C208.155 61.6733 208.876 61.6111 209.44 61.5488C209.733 61.5073 210.095 61.3932 210.527 61.2064C210.683 61.1442 210.809 61.113 210.934 61.113C211.279 61.113 211.864 61.3932 212.428 61.8186C212.992 62.2544 213.201 62.5241 213.201 62.8977C213.201 63.6032 212.271 63.8522 209.565 63.8522C207.204 63.8522 205.711 63.5721 204.561 62.8665C203.663 62.3374 203.13 61.6007 202.817 60.4594C202.733 60.1273 202.597 59.3353 202.409 58.0833C202.253 56.942 201.605 56.3194 200.539 56.3194C199.139 56.3194 197.238 57.4297 195.316 59.3803C194.355 60.3349 193.634 61.1753 192.109 63.1778C191.795 63.5825 191.576 63.7692 191.367 63.7692C190.834 63.7692 190.249 62.6279 190.249 61.6733C190.249 61.2998 190.374 61.0819 190.751 60.8121C192.495 59.5463 193.174 58.9549 195.264 56.9524C197.562 54.732 201.271 50.6854 202.879 48.6103C203.412 47.9047 203.538 47.718 203.538 47.5312C203.538 47.4067 203.412 47.3444 203.193 47.3444C202.138 47.3444 198.836 48.7348 195.88 50.4364C195.285 50.7788 194.95 50.9033 194.668 50.9033C194.167 50.9033 193.676 50.4675 193.237 49.6375C192.924 48.9942 192.673 48.1538 192.673 47.6557C192.673 47.2199 192.798 46.9502 193.174 46.5455C193.456 47.6246 193.613 47.967 193.947 48.3094V48.299ZM197.834 38.0167C199.359 39.2202 200.226 39.6249 201.877 39.9984C202.744 40.2163 203.057 40.2474 204.144 40.3408C204.708 40.372 205.011 40.5276 205.481 40.9841C205.951 41.451 206.222 41.9698 206.222 42.3745C206.222 42.6857 205.94 42.9659 205.596 42.9659C205.533 42.9659 205.345 42.9659 205.157 42.9348C205 42.9036 204.812 42.9036 204.593 42.9036C204.217 42.9036 203.357 42.9763 202.012 43.1215C201.762 43.1527 200.142 43.4328 197.134 43.9205L197.008 43.5158C199.401 42.748 201.824 42.0009 202.608 41.7831C199.902 40.8907 198.816 40.1437 197.51 38.2968L197.823 38.0167H197.834Z" fill="white"/>
<path d="M227.628 64.4851C231.232 62.0469 232.758 60.0651 233.541 56.7656C232.82 57.2014 232.267 57.3881 231.546 57.3881C229.373 57.3881 227.722 55.4686 227.722 52.937C227.722 50.2185 229.436 48.216 231.734 48.216C232.329 48.216 232.664 48.3094 233.479 48.7452C233.479 48.216 233.51 46.5248 233.51 45.5287C233.51 45.4664 233.51 45.1863 233.479 44.9061C231.055 45.124 228.161 45.7051 225.643 46.4521C224.86 46.7011 224.337 46.919 223.617 47.2822C223.429 47.3444 223.084 47.4378 222.906 47.4378C222.342 47.4378 221.632 47.002 220.911 46.2654C220.221 45.5287 219.668 44.5015 219.668 44.0138C219.668 43.9516 219.73 43.7959 219.824 43.6403C220.629 44.6883 221.6 45.2174 222.844 45.2174C223.47 45.2174 224.149 45.1552 225.518 44.9373C229.185 44.3459 230.303 44.2006 233.479 43.8582C233.479 42.0009 233.384 41.1086 233.134 40.4342C232.789 39.573 232.047 39.1372 230.459 38.9194C230.835 38.4524 231.055 38.3591 231.891 38.3591C232.946 38.3591 234.001 38.5147 234.91 38.7948C235.651 39.0439 236.09 39.4381 236.09 39.8739C236.09 40.1229 236.059 40.1852 235.777 40.704C235.432 41.3576 235.213 42.2188 235.098 43.7026C235.634 43.6403 236.306 43.5781 237.114 43.5158C240.102 43.2979 240.447 43.2357 241.251 42.9555C242.024 42.6442 242.149 42.6131 242.4 42.6131C243.017 42.6131 244.27 43.1423 245.043 43.7544C245.419 44.0346 245.545 44.2525 245.545 44.5845C245.545 44.9165 245.325 45.1137 244.855 45.1137C244.636 45.1137 244.573 45.1137 243.173 44.9269C241.554 44.709 240.217 44.6156 238.389 44.6156C237.239 44.6156 236.341 44.6468 235.056 44.7401C234.931 45.9126 234.837 47.801 234.837 48.9423C234.837 49.1602 234.837 49.5337 234.868 49.9903C235.651 51.5674 235.86 52.5219 235.86 54.099C235.86 57.1288 234.649 59.9406 232.507 61.9431C231.326 63.0533 229.801 64.039 227.869 64.8794L227.618 64.4748L227.628 64.4851ZM231.577 48.9527C230.177 48.9527 229.091 50.4053 229.091 52.2833C229.091 54.1613 230.146 55.6554 231.609 55.6554C232.946 55.6554 233.604 54.6697 233.604 52.7502C233.604 50.1874 232.946 48.9527 231.577 48.9527Z" fill="white"/>
<path d="M256.629 48.9527C256.65 48.6207 256.671 48.1883 256.692 47.6557C256.733 47.2476 256.765 46.8879 256.786 46.5766C255.856 47.1992 254.205 48.3094 253.641 48.7037C253.046 49.1083 252.868 49.2017 252.586 49.2017C251.782 49.2017 250.288 47.3756 250.288 46.3899C250.288 46.3276 250.319 46.0786 250.382 45.8607C251.061 46.8464 251.75 47.3444 252.398 47.3444C253.046 47.3444 255.041 46.5144 256.88 45.4872C257.036 44.1902 257.099 43.329 257.099 42.2085C257.099 40.4135 256.817 39.8947 255.323 38.7845C255.511 38.66 255.574 38.6288 255.73 38.6288C256.232 38.6288 256.911 38.9401 257.726 39.4589C258.718 40.1437 259.345 40.9115 259.345 41.4925C259.345 41.7208 259.241 42.1427 259.032 42.7584C258.812 43.3498 258.593 44.3355 258.468 45.1967C259.147 45.9022 259.366 46.1512 259.366 46.4003C259.366 46.587 259.335 46.6493 258.927 47.2926C258.551 47.9774 258.238 48.5584 257.935 49.2951C257.872 49.8242 257.872 49.9488 257.872 50.4364C260.923 47.5623 261.946 46.67 263.284 45.7155C265.457 44.1695 266.919 43.5262 268.288 43.5262C269.249 43.5262 270.126 43.9308 270.743 44.6364C271.338 45.3212 271.579 46.1512 271.579 47.3548C271.579 48.5584 271.547 48.7452 270.952 51.9305C270.576 53.933 270.388 55.728 270.388 56.9939C270.388 58.2597 270.607 58.8823 271.161 59.2765C271.599 59.5878 272.153 59.7434 272.749 59.7434C274.305 59.7434 276.478 58.9445 278.536 57.5542L278.787 57.9277C276.551 60.2103 274.128 61.4762 271.913 61.4762C269.552 61.4762 268.277 59.9613 268.277 57.1495C268.277 56.0393 268.559 54.0575 269.05 51.6504C269.761 48.3405 269.823 47.9151 269.823 46.7738C269.823 45.2589 269.134 44.3977 267.922 44.3977C266.585 44.3977 264.966 45.3212 262.479 47.5208C260.86 48.9423 259.397 50.4572 257.747 52.3974C257.715 53.1341 257.715 53.5388 257.715 54.0057C257.715 55.6762 257.809 57.1599 258.029 59.5359C258.123 60.2726 258.123 60.5216 258.123 60.9885C258.123 62.7524 257.527 64.205 256.786 64.205C256.441 64.205 256.19 63.956 256.044 63.3749C255.95 63.0637 255.605 62.1091 255.511 61.8912C255.166 61.2687 254.174 60.0028 252.774 58.5191C252.147 60.0028 252.032 60.1896 251.719 60.1896C251.437 60.1896 251.186 59.9406 251.008 59.484C250.82 58.986 250.664 58.2493 250.664 57.7824C250.664 57.4089 250.695 57.3466 251.197 56.859C251.698 56.3921 252.189 55.7177 253.213 54.1094L256.608 48.9527H256.629ZM254.738 54.732C254.017 56.0912 253.683 56.7656 253.087 58.0107C254.926 59.5255 255.48 59.9613 256.389 60.5112C256.43 59.7296 256.462 57.8032 256.483 54.732C256.483 53.2171 256.514 52.5116 256.608 51.2457C256.169 52.138 256.138 52.138 254.738 54.732Z" fill="white"/>
<path d="M288.597 52.1899C286.852 58.6125 286.392 60.5942 286.392 61.5177V61.6422C286.361 62.6279 286.361 62.7524 286.173 63.0014C286.048 63.2193 285.828 63.3438 285.577 63.3438C285.045 63.3438 284.616 62.908 284.24 61.9535C283.613 60.3764 283.248 58.0314 283.248 55.7488C283.248 52.9058 283.592 50.3119 284.648 45.4664C285.055 43.5469 285.118 43.2149 285.118 42.6857C285.118 41.7623 284.867 41.0153 284.219 39.9673C284.94 39.9984 285.525 40.4031 286.392 41.5133C287.103 42.4056 287.51 43.2772 287.51 43.8582C287.51 44.0865 287.343 44.5395 287.009 45.2174C285.515 48.3094 284.648 51.9824 284.648 55.2507C284.648 56.859 284.773 57.8447 285.149 59.1105C285.368 58.6125 285.797 57.5645 286.455 55.9874C286.8 55.1885 287.541 53.4246 288.137 52.0343L288.607 52.1899H288.597ZM291.71 46.6078C293.204 47.5623 294.165 47.8736 295.721 47.8736C296.808 47.8736 297.988 47.718 299.263 47.4378V46.0786C299.263 42.6235 299.232 42.2188 298.824 41.7831C298.448 41.3784 297.769 41.1709 296.777 41.0775C297.215 40.6729 297.466 40.5795 298.27 40.5795C298.96 40.5795 299.796 40.704 300.381 40.8596C301.279 41.1398 301.749 41.5029 301.749 41.9698C301.749 42.1877 301.749 42.2188 301.467 42.9244C301.122 43.7544 300.934 45.0203 300.819 47.0643C302.125 46.6908 303.118 46.2654 303.682 45.7985C303.995 45.4872 304.089 45.4561 304.361 45.4561C304.737 45.4561 305.447 45.6428 305.824 45.8607C306.074 45.9852 306.231 46.2031 306.231 46.421C306.231 47.1058 303.964 48.0292 300.725 48.6414C300.725 52.3767 300.819 54.6593 301.133 57.0457C304.737 58.0003 306.262 59.1728 306.262 60.9989C306.262 61.6422 305.98 62.1402 305.635 62.1402C305.385 62.1402 305.165 61.9846 304.549 61.3621C303.431 60.1896 302.282 59.3284 301.196 58.8926C301.227 59.1728 301.227 59.4218 301.227 59.6293C301.227 61.8497 299.357 63.1778 296.254 63.1778C293.548 63.1778 291.647 61.8808 291.647 60.0236C291.647 57.8966 293.945 56.5373 297.497 56.5373C298.093 56.5373 298.521 56.5685 299.399 56.6307V56.1016L299.336 52.7917L299.305 48.8385C298.375 48.9942 297.466 49.0876 296.568 49.0876C294.301 49.0876 292.995 48.5273 291.438 46.9294L291.72 46.587L291.71 46.6078ZM296.463 57.8758C294.008 57.8758 292.483 58.6747 292.483 60.0028C292.483 61.113 293.663 61.829 295.533 61.829C297.278 61.829 298.458 61.3309 298.949 60.3764C299.263 59.8472 299.357 59.3907 299.357 58.2493C298.49 58.0003 297.612 57.8758 296.463 57.8758ZM302.407 38.2346C303.588 38.909 304.371 39.4693 305.113 40.1541C306.2 41.1709 306.638 41.8868 306.638 42.6235C306.638 43.3602 306.262 43.9205 305.771 43.9205C305.5 43.9205 305.043 43.2495 304.403 41.9076C303.839 40.8285 302.846 39.4693 302.01 38.66L302.418 38.2242L302.407 38.2346ZM305.489 36.4396C306.607 36.9687 307.485 37.4875 308.414 38.2034C309.595 39.1269 310.002 39.7494 310.002 40.6106C310.002 41.3161 309.689 41.8453 309.261 41.8453C308.979 41.8453 308.79 41.6897 308.55 41.2539C307.495 39.3033 306.868 38.5043 305.155 36.865L305.5 36.4292L305.489 36.4396Z" fill="white"/>
<path d="M320 62.0157C320 64.205 318.193 66 315.988 66C313.784 66 311.977 64.205 311.977 62.0157C311.977 59.8264 313.784 58.0314 315.988 58.0314C318.193 58.0314 320 59.7953 320 62.0157ZM312.98 62.0157C312.98 63.6551 314.348 65.0143 315.999 65.0143C317.649 65.0143 319.018 63.6862 319.018 62.0157C319.018 60.3452 317.681 59.0171 315.999 59.0171C314.317 59.0171 312.98 60.3452 312.98 62.0157Z" fill="white"/>
</svg>
