<svg width="189" height="70" viewBox="0 0 189 70" fill="none" xmlns="http://www.w3.org/2000/svg">
<path d="M24.624 29.0496C23.3013 28.0469 22.0853 26.8096 20.976 25.3376C19.888 23.8656 19.0133 22.2229 18.352 20.4096C17.712 18.5749 17.392 16.6336 17.392 14.5856C17.392 12.5376 17.712 10.6069 18.352 8.7936C19.0133 6.95893 19.888 5.3056 20.976 3.8336C22.0853 2.34027 23.3013 1.10293 24.624 0.1216C24.7947 0.100266 24.9333 0.153599 25.04 0.2816C25.168 0.388267 25.232 0.5376 25.232 0.7296C23.4827 2.35093 22.0533 4.36693 20.944 6.7776C19.856 9.16693 19.312 11.7696 19.312 14.5856C19.312 17.4016 19.856 20.0043 20.944 22.3936C22.0533 24.7829 23.4827 26.7989 25.232 28.4416C25.232 28.6336 25.168 28.7829 25.04 28.8896C24.9333 29.0176 24.7947 29.0709 24.624 29.0496Z" fill="white"/>
<path d="M46.256 29.0816C45.808 29.0816 45.584 28.8896 45.584 28.5056C45.584 28.3776 45.5947 27.8869 45.616 27.0336C45.6587 26.1803 45.7013 25.1136 45.744 23.8336C45.7867 22.5323 45.808 21.1883 45.808 19.8016H38.896C38.896 19.8016 38.7147 19.8123 38.352 19.8336C38.0107 19.8336 37.6267 19.8763 37.2 19.9616L36.944 18.5856C37.4773 18.7136 37.936 18.7883 38.32 18.8096C38.704 18.8309 38.896 18.8416 38.896 18.8416H45.808V14.0736H42.16C42.16 14.0736 41.9787 14.0843 41.616 14.1056C41.2747 14.1056 40.8907 14.1483 40.464 14.2336L40.208 12.8256C40.7413 12.9749 41.2 13.0603 41.584 13.0816C41.968 13.1029 42.16 13.1136 42.16 13.1136H45.808V8.8256H42.256C42.256 8.8256 42.0747 8.83627 41.712 8.8576C41.3707 8.8576 40.9867 8.90027 40.56 8.9856L40.304 7.5776C40.8373 7.72693 41.296 7.81227 41.68 7.8336C42.064 7.85493 42.256 7.8656 42.256 7.8656H45.808V3.5776H40.528C40.528 3.5776 40.3467 3.58827 39.984 3.6096C39.6213 3.6096 39.2267 3.65227 38.8 3.7376L38.544 2.3296C39.0773 2.4576 39.536 2.53227 39.92 2.5536C40.304 2.57493 40.496 2.5856 40.496 2.5856H52.24C52.3893 2.5856 52.496 2.54293 52.56 2.4576C52.6667 2.3296 52.8693 2.1056 53.168 1.7856C53.488 1.44427 53.6907 1.2096 53.776 1.0816C53.9467 0.910932 54.1387 0.900266 54.352 1.0496C54.5867 1.19893 54.9067 1.4656 55.312 1.8496C55.7173 2.21227 56.016 2.50027 56.208 2.7136C56.4 2.9056 56.464 3.0976 56.4 3.2896C56.3573 3.4816 56.2187 3.5776 55.984 3.5776H47.856V7.8656H51.024C51.152 7.8656 51.2693 7.81227 51.376 7.7056L52.464 6.6176C52.6347 6.44693 52.8373 6.44693 53.072 6.6176C53.2853 6.7456 53.5733 6.95893 53.936 7.2576C54.32 7.55627 54.6187 7.8016 54.832 7.9936C55.0027 8.14293 55.0667 8.32427 55.024 8.5376C54.9813 8.7296 54.864 8.8256 54.672 8.8256H47.856V13.1136H50.96C51.088 13.1136 51.2053 13.0603 51.312 12.9536L52.368 11.8656C52.5387 11.6949 52.7413 11.6949 52.976 11.8656C53.1893 11.9936 53.488 12.2069 53.872 12.5056C54.256 12.8043 54.544 13.0496 54.736 13.2416C54.928 13.3909 54.992 13.5723 54.928 13.7856C54.8853 13.9776 54.7787 14.0736 54.608 14.0736H47.856V18.8416H53.072C53.2213 18.8416 53.328 18.7989 53.392 18.7136C53.4987 18.5856 53.7013 18.3509 54 18.0096C54.32 17.6683 54.5333 17.4336 54.64 17.3056C54.7893 17.1136 54.9707 17.1136 55.184 17.3056C55.4187 17.4549 55.7387 17.7216 56.144 18.1056C56.5493 18.4683 56.848 18.7456 57.04 18.9376C57.232 19.1509 57.296 19.3536 57.232 19.5456C57.1893 19.7163 57.0507 19.8016 56.816 19.8016H47.856C47.8773 21.1883 47.8987 22.4896 47.92 23.7056C47.9627 24.9216 47.9947 25.9349 48.016 26.7456C48.0587 27.5349 48.08 28.0043 48.08 28.1536C48.08 28.3029 47.9093 28.4949 47.568 28.7296C47.2267 28.9643 46.7893 29.0816 46.256 29.0816ZM31.984 29.0816C31.6853 28.1429 31.3013 27.4816 30.832 27.0976C30.384 26.7349 29.6587 26.5003 28.656 26.3936C28.5707 26.2869 28.5387 26.1696 28.56 26.0416C28.6027 25.9136 28.6773 25.8176 28.784 25.7536C28.9973 25.7749 29.3067 25.7963 29.712 25.8176C30.1387 25.8389 30.5653 25.8603 30.992 25.8816C31.44 25.9029 31.792 25.9136 32.048 25.9136C32.6027 25.9136 32.88 25.6469 32.88 25.1136V17.4976C32.432 17.7963 32.0053 18.0736 31.6 18.3296C31.216 18.5856 30.864 18.8096 30.544 19.0016C30.2027 19.1936 30.128 19.5243 30.32 19.9936C30.4267 20.1643 30.384 20.3136 30.192 20.4416C30 20.5483 29.84 20.5376 29.712 20.4096C29.584 20.2389 29.3707 20.0043 29.072 19.7056C28.7733 19.3856 28.4747 19.0656 28.176 18.7456C27.8773 18.4043 27.632 18.1269 27.44 17.9136C27.3547 17.7856 27.344 17.6683 27.408 17.5616C27.472 17.4549 27.6427 17.4123 27.92 17.4336C28.2187 17.4336 28.56 17.3803 28.944 17.2736C29.5413 17.1029 30.1707 16.8789 30.832 16.6016C31.5147 16.3243 32.1973 16.0256 32.88 15.7056V8.0896H29.712C29.712 8.0896 29.5307 8.10027 29.168 8.1216C28.8267 8.1216 28.4427 8.16427 28.016 8.2496L27.76 6.8416C28.2933 6.99093 28.752 7.07627 29.136 7.0976C29.52 7.11893 29.712 7.1296 29.712 7.1296H32.88V2.0416C32.88 1.25227 32.8053 0.750933 32.656 0.537599C32.5707 0.409599 32.5707 0.292266 32.656 0.1856C32.72 0.121599 32.8267 0.100266 32.976 0.1216C33.3173 0.1856 33.7973 0.292266 34.416 0.4416C35.0347 0.5696 35.5253 0.686933 35.888 0.793599C36.0587 0.8576 36.144 0.9856 36.144 1.1776C36.1227 1.39093 36.0053 1.4976 35.792 1.4976C35.5573 1.51893 35.3227 1.57227 35.088 1.6576C34.8747 1.7216 34.768 1.9136 34.768 2.2336V7.1296H35.632C35.76 7.1296 35.8773 7.07627 35.984 6.9696C36.0907 6.86293 36.2507 6.6816 36.464 6.4256C36.6773 6.1696 36.8267 5.99893 36.912 5.9136C37.0187 5.7856 37.1147 5.73227 37.2 5.7536C37.3067 5.7536 37.4133 5.79627 37.52 5.8816C37.6267 5.96693 37.7867 6.1056 38 6.2976C38.2133 6.46827 38.4267 6.6496 38.64 6.8416C38.8747 7.0336 39.0347 7.17227 39.12 7.2576C39.2907 7.3856 39.3547 7.55627 39.312 7.7696C39.2693 7.98293 39.1627 8.0896 38.992 8.0896H34.768V14.7776C35.6213 14.3296 36.4107 13.9029 37.136 13.4976C37.8613 13.0923 38.4373 12.7509 38.864 12.4736C38.992 12.4949 39.088 12.5589 39.152 12.6656C39.2373 12.7723 39.2587 12.8896 39.216 13.0176C38.8107 13.3589 38.192 13.8283 37.36 14.4256C36.5493 15.0229 35.6853 15.6309 34.768 16.2496V16.9536C34.768 17.6789 34.768 18.4896 34.768 19.3856C34.7893 20.2603 34.8107 21.1136 34.832 21.9456C34.8533 22.7776 34.864 23.5029 34.864 24.1216C34.8853 24.7403 34.896 25.1456 34.896 25.3376C34.896 26.2549 34.6933 27.0016 34.288 27.5776C33.8827 28.1536 33.1147 28.6549 31.984 29.0816Z" fill="white"/>
<path d="M64.272 29.0496C64.1013 29.0496 63.952 29.0069 63.824 28.9216C63.7173 28.8576 63.664 28.7083 63.664 28.4736C63.664 28.2816 63.6853 27.8336 63.728 27.1296C63.7707 26.4256 63.8133 25.5616 63.856 24.5376C63.8987 23.5136 63.92 22.4256 63.92 21.2736C63.92 19.7376 63.8133 18.7243 63.6 18.2336C63.5573 18.1056 63.5787 17.9989 63.664 17.9136C63.7707 17.8069 63.888 17.7963 64.016 17.8816C64.272 18.0096 64.6453 18.2123 65.136 18.4896C65.648 18.7669 66.0533 18.9909 66.352 19.1616H78.48C78.608 19.1616 78.7147 19.1189 78.8 19.0336C78.928 18.9056 79.12 18.7243 79.376 18.4896C79.632 18.2336 79.824 18.0523 79.952 17.9456C80.1227 17.7749 80.3253 17.7749 80.56 17.9456C80.7093 18.0309 80.9013 18.1803 81.136 18.3936C81.392 18.6069 81.6373 18.8203 81.872 19.0336C82.128 19.2469 82.32 19.4176 82.448 19.5456C82.704 19.7803 82.672 19.9936 82.352 20.1856C82.2453 20.2496 82.1173 20.3243 81.968 20.4096C81.8187 20.4949 81.6907 20.5696 81.584 20.6336C81.4987 20.6976 81.4347 20.7616 81.392 20.8256C81.3493 20.8683 81.328 20.9963 81.328 21.2096C81.328 21.7856 81.3387 22.4256 81.36 23.1296C81.3813 23.8336 81.4133 24.5269 81.456 25.2096C81.4987 25.8709 81.5307 26.4256 81.552 26.8736C81.5733 27.3429 81.584 27.6203 81.584 27.7056C81.584 27.8763 81.4667 28.0256 81.232 28.1536C81.0187 28.3029 80.7627 28.4096 80.464 28.4736C80.1867 28.5376 79.9413 28.5696 79.728 28.5696C79.3227 28.5696 79.12 28.3989 79.12 28.0576V26.9376H66.032V28.2816C66.032 28.5163 65.808 28.6976 65.36 28.8256C64.9333 28.9749 64.5707 29.0496 64.272 29.0496ZM85.232 19.2576C84.208 18.7456 83.2053 18.1056 82.224 17.3376C81.264 16.5696 80.3787 15.6949 79.568 14.7136C78.416 15.7589 77.104 16.6229 75.632 17.3056C74.16 17.9883 72.5067 18.5216 70.672 18.9056C70.544 18.8203 70.4587 18.7136 70.416 18.5856C70.3947 18.4576 70.4267 18.3509 70.512 18.2656C72.0267 17.7749 73.4667 17.1349 74.832 16.3456C76.2187 15.5563 77.456 14.5749 78.544 13.4016C77.392 11.8016 76.5173 10.0309 75.92 8.0896C75.4293 9.09227 74.9067 10.0309 74.352 10.9056C73.7973 11.7803 73.2533 12.5269 72.72 13.1456C72.592 13.1669 72.4747 13.1456 72.368 13.0816C72.2613 12.9963 72.1973 12.8896 72.176 12.7616C72.6027 12.0789 73.0293 11.2896 73.456 10.3936C73.904 9.47627 74.32 8.5056 74.704 7.4816C75.1093 6.43627 75.4507 5.41227 75.728 4.4096C76.0053 3.3856 76.1973 2.44693 76.304 1.5936C76.3467 1.31627 76.3573 1.09227 76.336 0.9216C76.3147 0.729599 76.2933 0.580266 76.272 0.4736C76.2293 0.260266 76.24 0.1216 76.304 0.0575993C76.4107 -0.00639992 76.528 -0.0170664 76.656 0.0255997C76.8053 0.0682658 77.0613 0.153599 77.424 0.2816C77.7867 0.4096 78.1493 0.548267 78.512 0.697601C78.896 0.8256 79.1733 0.9216 79.344 0.985599C79.4507 1.02827 79.5147 1.10293 79.536 1.2096C79.5787 1.29493 79.5787 1.3696 79.536 1.4336C79.472 1.60427 79.3227 1.67893 79.088 1.6576C78.704 1.63627 78.4587 1.8176 78.352 2.2016C78.1813 2.73493 77.9893 3.2896 77.776 3.8656C77.5627 4.4416 77.3387 5.0176 77.104 5.5936H83.344C83.4933 5.5936 83.6 5.54027 83.664 5.4336C83.7707 5.32693 83.9627 5.12427 84.24 4.8256C84.5173 4.52693 84.7093 4.32427 84.816 4.2176C84.9867 4.0256 85.1787 4.01493 85.392 4.1856C85.5413 4.29227 85.7227 4.45227 85.936 4.6656C86.1707 4.8576 86.3947 5.0496 86.608 5.2416C86.8427 5.4336 87.0027 5.58293 87.088 5.6896C87.28 5.8816 87.344 6.0736 87.28 6.2656C87.2373 6.4576 87.1093 6.5536 86.896 6.5536H84.56C83.6 9.4336 82.3093 11.7803 80.688 13.5936C81.7547 14.5536 82.9173 15.3536 84.176 15.9936C85.4347 16.6336 86.6507 17.0923 87.824 17.3696C87.2907 17.5403 86.7893 17.8176 86.32 18.2016C85.8507 18.5643 85.488 18.9163 85.232 19.2576ZM58.448 21.9456C58.128 21.9456 57.968 21.7963 57.968 21.4976C58.9493 20.2603 59.6533 19.0336 60.08 17.8176C60.528 16.5803 60.8053 15.2896 60.912 13.9456C61.04 12.6016 61.104 11.1403 61.104 9.5616C61.104 8.75093 61.0827 8.11093 61.04 7.6416C60.9973 7.17227 60.944 6.78827 60.88 6.4896C60.816 6.1696 60.7307 5.8816 60.624 5.6256C60.5813 5.47627 60.6027 5.35893 60.688 5.2736C60.7947 5.18827 60.912 5.1776 61.04 5.2416C61.1893 5.3056 61.4027 5.42293 61.68 5.5936C61.9787 5.74293 62.288 5.9136 62.608 6.1056C62.928 6.27627 63.184 6.4256 63.376 6.5536H69.2C69.328 6.5536 69.4453 6.50027 69.552 6.3936C69.6587 6.28693 69.8187 6.1376 70.032 5.9456C70.2453 5.7536 70.416 5.5936 70.544 5.4656C70.7787 5.2736 71.0027 5.2736 71.216 5.4656C71.4293 5.63627 71.6853 5.8816 71.984 6.2016C72.304 6.50027 72.5493 6.7456 72.72 6.9376C72.9333 7.1936 72.9013 7.39627 72.624 7.5456C72.5387 7.6096 72.432 7.6736 72.304 7.7376C72.1973 7.8016 72.0907 7.8656 71.984 7.9296C71.8987 7.97227 71.8347 8.0256 71.792 8.0896C71.7493 8.1536 71.728 8.29227 71.728 8.5056C71.728 8.8256 71.7387 9.26293 71.76 9.8176C71.7813 10.3509 71.8027 10.9163 71.824 11.5136C71.8667 12.0896 71.8987 12.6016 71.92 13.0496C71.9413 13.4763 71.952 13.7536 71.952 13.8816C71.952 14.0523 71.76 14.2123 71.376 14.3616C70.992 14.5109 70.6507 14.5856 70.352 14.5856C69.9467 14.5856 69.744 14.4256 69.744 14.1056V13.0816H62.928C62.7147 14.9163 62.2773 16.5269 61.616 17.9136C60.9547 19.3003 59.8987 20.6443 58.448 21.9456ZM66.032 25.9776H79.12V20.1216H66.032V25.9776ZM63.024 12.1216H69.744V7.5136H63.12V9.1136C63.12 10.1803 63.088 11.1829 63.024 12.1216ZM79.44 12.3776C80.0587 11.5669 80.6027 10.6816 81.072 9.7216C81.5627 8.74027 81.9467 7.68427 82.224 6.5536H76.656L76.496 6.9376C76.752 7.98293 77.136 8.96427 77.648 9.8816C78.16 10.7776 78.7573 11.6096 79.44 12.3776ZM58.576 3.4176L58.32 2.0096C58.8533 2.1376 59.312 2.21227 59.696 2.2336C60.08 2.25493 60.272 2.2656 60.272 2.2656H70.256C70.4053 2.2656 70.5227 2.22293 70.608 2.1376C70.7147 2.03093 70.9067 1.82827 71.184 1.5296C71.4613 1.23093 71.6533 1.0176 71.76 0.8896C71.9093 0.6976 72.0907 0.6976 72.304 0.8896C72.4533 0.974933 72.6347 1.12427 72.848 1.3376C73.0827 1.5296 73.3067 1.73227 73.52 1.9456C73.7547 2.1376 73.9253 2.28693 74.032 2.3936C74.2027 2.5856 74.2667 2.7776 74.224 2.9696C74.1813 3.1616 74.0427 3.2576 73.808 3.2576H60.272C60.272 3.2576 60.0907 3.26827 59.728 3.2896C59.3867 3.2896 59.0027 3.33227 58.576 3.4176Z" fill="white"/>
<path d="M90.48 29.0496C90.3307 29.0709 90.192 29.0176 90.064 28.8896C89.936 28.7829 89.872 28.6336 89.872 28.4416C91.6213 26.7989 93.04 24.7829 94.128 22.3936C95.2373 20.0043 95.792 17.4016 95.792 14.5856C95.792 11.7696 95.2373 9.16693 94.128 6.7776C93.04 4.36693 91.6213 2.35093 89.872 0.7296C89.872 0.5376 89.936 0.388267 90.064 0.2816C90.192 0.153599 90.3307 0.100266 90.48 0.1216C91.824 1.10293 93.04 2.34027 94.128 3.8336C95.216 5.3056 96.08 6.95893 96.72 8.7936C97.3813 10.6069 97.712 12.5376 97.712 14.5856C97.712 16.6336 97.3813 18.5749 96.72 20.4096C96.08 22.2229 95.216 23.8656 94.128 25.3376C93.04 26.8096 91.824 28.0469 90.48 29.0496Z" fill="white"/>
<path d="M122.352 29.0496C122.117 29.0496 121.947 29.0069 121.84 28.9216C121.733 28.8576 121.68 28.7083 121.68 28.4736C121.68 28.3456 121.691 27.7483 121.712 26.6816C121.755 25.6149 121.787 24.1963 121.808 22.4256C121.851 20.6549 121.883 18.6496 121.904 16.4096C121.947 14.1483 121.968 11.7696 121.968 9.2736C121.968 7.71627 121.861 6.78827 121.648 6.4896C121.584 6.38293 121.584 6.2656 121.648 6.1376C121.733 6.05227 121.84 6.03093 121.968 6.0736C122.203 6.11627 122.523 6.18027 122.928 6.2656C123.355 6.35093 123.781 6.43627 124.208 6.5216C124.635 6.60693 124.965 6.6816 125.2 6.7456C125.413 6.76693 125.499 6.89493 125.456 7.1296C125.456 7.34293 125.339 7.4496 125.104 7.4496C124.891 7.47093 124.667 7.52427 124.432 7.6096C124.219 7.6736 124.112 7.8656 124.112 8.1856V24.7616H132.4V5.4656C132.4 3.3536 132.261 2.08427 131.984 1.6576C131.899 1.5296 131.899 1.41227 131.984 1.3056C132.091 1.2416 132.197 1.22027 132.304 1.2416C132.539 1.28427 132.88 1.35893 133.328 1.4656C133.776 1.55093 134.224 1.64693 134.672 1.7536C135.141 1.83893 135.493 1.9136 135.728 1.9776C135.941 2.0416 136.027 2.1696 135.984 2.3616C135.984 2.5536 135.877 2.67093 135.664 2.7136C135.429 2.73493 135.195 2.7776 134.96 2.8416C134.747 2.9056 134.64 3.0976 134.64 3.4176V24.7616H143.056V9.5616C143.056 8.68693 143.024 8.0256 142.96 7.5776C142.896 7.10827 142.811 6.79893 142.704 6.6496C142.64 6.50027 142.651 6.38293 142.736 6.2976C142.779 6.2336 142.875 6.2016 143.024 6.2016C143.259 6.24427 143.579 6.30827 143.984 6.3936C144.411 6.47893 144.837 6.56427 145.264 6.6496C145.691 6.73493 146.021 6.8096 146.256 6.8736C146.469 6.9376 146.555 7.0656 146.512 7.2576C146.512 7.3856 146.48 7.47093 146.416 7.5136C146.352 7.55627 146.277 7.58827 146.192 7.6096C145.957 7.63093 145.723 7.6736 145.488 7.7376C145.275 7.8016 145.168 8.00427 145.168 8.3456C145.168 10.7776 145.179 13.1349 145.2 15.4176C145.221 17.6789 145.253 19.7056 145.296 21.4976C145.339 23.2896 145.371 24.7296 145.392 25.8176C145.413 26.9056 145.424 27.4816 145.424 27.5456C145.424 27.7589 145.253 27.9509 144.912 28.1216C144.571 28.3136 144.155 28.4096 143.664 28.4096C143.259 28.4096 143.056 28.2496 143.056 27.9296V25.7216H124.112V28.2176C124.112 28.3883 123.952 28.5696 123.632 28.7616C123.333 28.9536 122.907 29.0496 122.352 29.0496Z" fill="white"/>
<path d="M175.568 22.0416C173.691 21.0176 171.899 19.8549 170.192 18.5536C168.507 17.2523 166.939 15.9296 165.488 14.5856C164.037 13.2416 162.704 12.0043 161.488 10.8736C161.147 10.5749 160.869 10.4256 160.656 10.4256C160.443 10.4256 160.187 10.5856 159.888 10.9056C159.611 11.1616 159.259 11.5456 158.832 12.0576C158.405 12.5483 157.947 13.0816 157.456 13.6576C156.987 14.2336 156.549 14.7883 156.144 15.3216C155.76 15.8549 155.461 16.2923 155.248 16.6336C155.056 16.9536 154.8 17.3056 154.48 17.6896C154.16 18.0736 153.691 18.2656 153.072 18.2656C152.645 18.2656 152.24 18.0629 151.856 17.6576C151.493 17.2523 151.163 16.7829 150.864 16.2496C150.587 15.7163 150.363 15.2469 150.192 14.8416C150.235 14.6923 150.309 14.5856 150.416 14.5216C150.523 14.4576 150.64 14.4469 150.768 14.4896C151.003 14.7456 151.259 14.9909 151.536 15.2256C151.813 15.4389 152.197 15.5456 152.688 15.5456C152.944 15.5456 153.275 15.3856 153.68 15.0656C154.107 14.7456 154.565 14.3403 155.056 13.8496C155.547 13.3589 156.048 12.8363 156.56 12.2816C157.072 11.7269 157.552 11.2043 158 10.7136C158.469 10.2016 158.853 9.79627 159.152 9.4976C159.771 8.8576 160.293 8.54827 160.72 8.5696C161.168 8.5696 161.723 8.8896 162.384 9.5296C163.557 10.6603 164.869 11.8123 166.32 12.9856C167.771 14.1376 169.328 15.2363 170.992 16.2816C172.677 17.3056 174.459 18.1909 176.336 18.9376C176.72 19.0869 177.072 19.4069 177.392 19.8976C177.712 20.3669 177.829 20.8576 177.744 21.3696C177.659 21.9243 177.424 22.2656 177.04 22.3936C176.656 22.5003 176.165 22.3829 175.568 22.0416Z" fill="white"/>
<path d="M0.752 69.0496C0.517334 69.0496 0.346667 69.0069 0.24 68.9216C0.133333 68.8576 0.0800002 68.7083 0.0800002 68.4736C0.0800002 68.3456 0.0906669 67.7483 0.112 66.6816C0.154667 65.6149 0.186667 64.1963 0.208 62.4256C0.250667 60.6549 0.282667 58.6496 0.304 56.4096C0.346667 54.1483 0.368 51.7696 0.368 49.2736C0.368 47.7163 0.261334 46.7883 0.0480001 46.4896C-0.016 46.3829 -0.016 46.2656 0.0480001 46.1376C0.133333 46.0523 0.24 46.0309 0.368 46.0736C0.602667 46.1163 0.922667 46.1803 1.328 46.2656C1.75467 46.3509 2.18133 46.4363 2.608 46.5216C3.03467 46.6069 3.36533 46.6816 3.6 46.7456C3.81333 46.7669 3.89867 46.8949 3.856 47.1296C3.856 47.3429 3.73867 47.4496 3.504 47.4496C3.29067 47.4709 3.06667 47.5243 2.832 47.6096C2.61867 47.6736 2.512 47.8656 2.512 48.1856V64.7616H10.8V45.4656C10.8 43.3536 10.6613 42.0843 10.384 41.6576C10.2987 41.5296 10.2987 41.4123 10.384 41.3056C10.4907 41.2416 10.5973 41.2203 10.704 41.2416C10.9387 41.2843 11.28 41.3589 11.728 41.4656C12.176 41.5509 12.624 41.6469 13.072 41.7536C13.5413 41.8389 13.8933 41.9136 14.128 41.9776C14.3413 42.0416 14.4267 42.1696 14.384 42.3616C14.384 42.5536 14.2773 42.6709 14.064 42.7136C13.8293 42.7349 13.5947 42.7776 13.36 42.8416C13.1467 42.9056 13.04 43.0976 13.04 43.4176V64.7616H21.456V49.5616C21.456 48.6869 21.424 48.0256 21.36 47.5776C21.296 47.1083 21.2107 46.7989 21.104 46.6496C21.04 46.5003 21.0507 46.3829 21.136 46.2976C21.1787 46.2336 21.2747 46.2016 21.424 46.2016C21.6587 46.2443 21.9787 46.3083 22.384 46.3936C22.8107 46.4789 23.2373 46.5643 23.664 46.6496C24.0907 46.7349 24.4213 46.8096 24.656 46.8736C24.8693 46.9376 24.9547 47.0656 24.912 47.2576C24.912 47.3856 24.88 47.4709 24.816 47.5136C24.752 47.5563 24.6773 47.5883 24.592 47.6096C24.3573 47.6309 24.1227 47.6736 23.888 47.7376C23.6747 47.8016 23.568 48.0043 23.568 48.3456C23.568 50.7776 23.5787 53.1349 23.6 55.4176C23.6213 57.6789 23.6533 59.7056 23.696 61.4976C23.7387 63.2896 23.7707 64.7296 23.792 65.8176C23.8133 66.9056 23.824 67.4816 23.824 67.5456C23.824 67.7589 23.6533 67.9509 23.312 68.1216C22.9707 68.3136 22.5547 68.4096 22.064 68.4096C21.6587 68.4096 21.456 68.2496 21.456 67.9296V65.7216H2.512V68.2176C2.512 68.3883 2.352 68.5696 2.032 68.7616C1.73333 68.9536 1.30667 69.0496 0.752 69.0496Z" fill="white"/>
<path d="M53.968 62.0416C52.0907 61.0176 50.2987 59.8549 48.592 58.5536C46.9067 57.2523 45.3387 55.9296 43.888 54.5856C42.4373 53.2416 41.104 52.0043 39.888 50.8736C39.5467 50.5749 39.2693 50.4256 39.056 50.4256C38.8427 50.4256 38.5867 50.5856 38.288 50.9056C38.0107 51.1616 37.6587 51.5456 37.232 52.0576C36.8053 52.5483 36.3467 53.0816 35.856 53.6576C35.3867 54.2336 34.9493 54.7883 34.544 55.3216C34.16 55.8549 33.8613 56.2923 33.648 56.6336C33.456 56.9536 33.2 57.3056 32.88 57.6896C32.56 58.0736 32.0907 58.2656 31.472 58.2656C31.0453 58.2656 30.64 58.0629 30.256 57.6576C29.8933 57.2523 29.5627 56.7829 29.264 56.2496C28.9867 55.7163 28.7627 55.2469 28.592 54.8416C28.6347 54.6923 28.7093 54.5856 28.816 54.5216C28.9227 54.4576 29.04 54.4469 29.168 54.4896C29.4027 54.7456 29.6587 54.9909 29.936 55.2256C30.2133 55.4389 30.5973 55.5456 31.088 55.5456C31.344 55.5456 31.6747 55.3856 32.08 55.0656C32.5067 54.7456 32.9653 54.3403 33.456 53.8496C33.9467 53.3589 34.448 52.8363 34.96 52.2816C35.472 51.7269 35.952 51.2043 36.4 50.7136C36.8693 50.2016 37.2533 49.7963 37.552 49.4976C38.1707 48.8576 38.6933 48.5483 39.12 48.5696C39.568 48.5696 40.1227 48.8896 40.784 49.5296C41.9573 50.6603 43.2693 51.8123 44.72 52.9856C46.1707 54.1376 47.728 55.2363 49.392 56.2816C51.0773 57.3056 52.8587 58.1909 54.736 58.9376C55.12 59.0869 55.472 59.4069 55.792 59.8976C56.112 60.3669 56.2293 60.8576 56.144 61.3696C56.0587 61.9243 55.824 62.2656 55.44 62.3936C55.056 62.5003 54.5653 62.3829 53.968 62.0416Z" fill="white"/>
<path d="M85.424 69.0496C84.1013 68.0469 82.8853 66.8096 81.776 65.3376C80.688 63.8656 79.8133 62.2229 79.152 60.4096C78.512 58.5749 78.192 56.6336 78.192 54.5856C78.192 52.5376 78.512 50.6069 79.152 48.7936C79.8133 46.9589 80.688 45.3056 81.776 43.8336C82.8853 42.3403 84.1013 41.1029 85.424 40.1216C85.5947 40.1003 85.7333 40.1536 85.84 40.2816C85.968 40.3883 86.032 40.5376 86.032 40.7296C84.2827 42.3509 82.8533 44.3669 81.744 46.7776C80.656 49.1669 80.112 51.7696 80.112 54.5856C80.112 57.4016 80.656 60.0043 81.744 62.3936C82.8533 64.7829 84.2827 66.7989 86.032 68.4416C86.032 68.6336 85.968 68.7829 85.84 68.8896C85.7333 69.0176 85.5947 69.0709 85.424 69.0496Z" fill="white"/>
<path d="M108.816 69.0496C108.539 68.3243 108.251 67.7589 107.952 67.3536C107.653 66.9696 107.248 66.6923 106.736 66.5216C106.245 66.3296 105.552 66.1803 104.656 66.0736C104.485 65.7963 104.528 65.5829 104.784 65.4336C105.019 65.4336 105.381 65.4549 105.872 65.4976C106.363 65.5189 106.885 65.5403 107.44 65.5616C108.016 65.5829 108.528 65.5936 108.976 65.5936C109.296 65.5936 109.509 65.5403 109.616 65.4336C109.744 65.3056 109.808 65.1029 109.808 64.8256V51.3856H101.2C101.2 51.3856 101.019 51.3963 100.656 51.4176C100.315 51.4176 99.9307 51.4709 99.504 51.5776L99.248 50.1696C99.7813 50.2976 100.24 50.3723 100.624 50.3936C101.008 50.4149 101.2 50.4256 101.2 50.4256H113.072C113.179 50.4256 113.264 50.4149 113.328 50.3936C113.392 50.3723 113.456 50.3189 113.52 50.2336C113.584 50.1483 113.701 50.0096 113.872 49.8176C114.043 49.6043 114.203 49.3909 114.352 49.1776C114.523 48.9643 114.64 48.8256 114.704 48.7616C114.832 48.5696 115.024 48.5589 115.28 48.7296C115.387 48.7936 115.589 48.9643 115.888 49.2416C116.208 49.4976 116.517 49.7643 116.816 50.0416C117.136 50.2976 117.339 50.4683 117.424 50.5536C117.595 50.7029 117.659 50.8843 117.616 51.0976C117.573 51.2896 117.467 51.3856 117.296 51.3856H111.888V55.0016C111.888 56.6869 111.899 58.2443 111.92 59.6736C111.963 61.1029 111.995 62.2869 112.016 63.2256C112.059 64.1643 112.08 64.7509 112.08 64.9856C112.08 65.5403 112.005 66.0736 111.856 66.5856C111.707 67.0976 111.397 67.5563 110.928 67.9616C110.459 68.3883 109.755 68.7509 108.816 69.0496ZM94.384 69.0496C93.936 69.0496 93.712 68.8683 93.712 68.5056C93.712 68.3989 93.7227 67.9616 93.744 67.1936C93.7653 66.4256 93.7973 65.4763 93.84 64.3456C93.8827 63.1936 93.9147 61.9883 93.936 60.7296C93.9573 59.4496 93.968 58.2656 93.968 57.1776V54.5856C93.1787 55.3109 92.3573 56.0149 91.504 56.6976C90.672 57.3589 89.808 58.0096 88.912 58.6496C88.592 58.6069 88.4533 58.4363 88.496 58.1376C90.1387 56.6229 91.728 54.9696 93.264 53.1776C94.8 51.3643 96.1227 49.4656 97.232 47.4816C97.3387 47.2896 97.4027 47.1189 97.424 46.9696C97.4453 46.8203 97.4667 46.6923 97.488 46.5856C97.488 46.3936 97.5307 46.2763 97.616 46.2336C97.7227 46.1909 97.8293 46.2123 97.936 46.2976C98.128 46.4256 98.3947 46.6176 98.736 46.8736C99.0987 47.1296 99.4507 47.3963 99.792 47.6736C100.155 47.9296 100.432 48.1323 100.624 48.2816C100.773 48.4309 100.795 48.5909 100.688 48.7616C100.603 48.9323 100.453 48.9856 100.24 48.9216C100.219 48.9216 100.197 48.9109 100.176 48.8896C99.9627 48.8256 99.7493 48.7829 99.536 48.7616C99.344 48.7403 99.152 48.8576 98.96 49.1136C98.448 49.7536 97.936 50.3723 97.424 50.9696C96.9333 51.5456 96.432 52.1109 95.92 52.6656V57.2096C95.92 58.3616 95.92 59.5669 95.92 60.8256C95.9413 62.0629 95.9627 63.2256 95.984 64.3136C96.0053 65.4016 96.016 66.2976 96.016 67.0016C96.0373 67.7269 96.048 68.1536 96.048 68.2816C96.048 68.4523 95.8773 68.6229 95.536 68.7936C95.1947 68.9643 94.8107 69.0496 94.384 69.0496ZM89.04 49.3696C88.912 49.3483 88.816 49.2843 88.752 49.1776C88.688 49.0709 88.6667 48.9643 88.688 48.8576C89.4133 48.2816 90.224 47.5883 91.12 46.7776C92.016 45.9669 92.88 45.1136 93.712 44.2176C94.544 43.3216 95.216 42.4789 95.728 41.6896C96.0053 41.2629 96.1333 40.9323 96.112 40.6976C96.0907 40.4629 96.144 40.3243 96.272 40.2816C96.3573 40.2176 96.464 40.2389 96.592 40.3456C96.784 40.4736 97.04 40.6656 97.36 40.9216C97.68 41.1776 98 41.4443 98.32 41.7216C98.6613 41.9776 98.9173 42.1909 99.088 42.3616C99.2373 42.5109 99.2587 42.6603 99.152 42.8096C99.0453 43.0016 98.896 43.0549 98.704 42.9696C98.4267 42.8629 98.2133 42.8203 98.064 42.8416C97.9147 42.8629 97.7227 42.9696 97.488 43.1616C96.72 43.8656 95.8347 44.6229 94.832 45.4336C93.8507 46.2229 92.848 46.9696 91.824 47.6736C90.8 48.3563 89.872 48.9216 89.04 49.3696ZM100.176 44.0576L99.92 42.6496C100.453 42.7776 100.912 42.8523 101.296 42.8736C101.68 42.8949 101.872 42.9056 101.872 42.9056H111.856C112.005 42.9056 112.123 42.8629 112.208 42.7776C112.272 42.7136 112.389 42.5856 112.56 42.3936C112.731 42.1803 112.901 41.9776 113.072 41.7856C113.243 41.5936 113.36 41.4656 113.424 41.4016C113.573 41.2523 113.755 41.2416 113.968 41.3696C114.096 41.4549 114.288 41.6149 114.544 41.8496C114.8 42.0843 115.056 42.3189 115.312 42.5536C115.568 42.7669 115.739 42.9269 115.824 43.0336C116.016 43.2256 116.08 43.4176 116.016 43.6096C115.973 43.8016 115.845 43.8976 115.632 43.8976H101.904C101.904 43.8976 101.723 43.9083 101.36 43.9296C100.997 43.9296 100.603 43.9723 100.176 44.0576Z" fill="white"/>
<path d="M133.328 65.5296C131.323 65.5296 129.701 65.2949 128.464 64.8256C127.248 64.3563 126.352 63.7483 125.776 63.0016C125.221 62.2336 124.923 61.4229 124.88 60.5696C124.837 59.6949 124.987 58.8736 125.328 58.1056C125.499 58.0416 125.659 58.0416 125.808 58.1056C125.957 58.1483 126.064 58.2549 126.128 58.4256C125.893 59.4283 125.968 60.2923 126.352 61.0176C126.736 61.7216 127.504 62.2656 128.656 62.6496C129.808 63.0336 131.419 63.2256 133.488 63.2256C134.683 63.2256 135.856 63.1296 137.008 62.9376C138.181 62.7456 139.259 62.4789 140.24 62.1376C140.603 62.0096 140.88 61.9776 141.072 62.0416C141.285 62.0843 141.595 62.2229 142 62.4576C142.661 62.8629 142.96 63.2576 142.896 63.6416C142.853 64.0043 142.512 64.2816 141.872 64.4736C140.677 64.8149 139.333 65.0816 137.84 65.2736C136.347 65.4443 134.843 65.5296 133.328 65.5296ZM130.736 50.1696C130.416 50.1056 130.299 49.9136 130.384 49.5936C130.64 49.4229 130.981 49.1883 131.408 48.8896C131.856 48.5696 132.251 48.3029 132.592 48.0896C132.251 48.0469 131.792 47.9723 131.216 47.8656C130.661 47.7589 130.085 47.5989 129.488 47.3856C128.891 47.1509 128.368 46.8309 127.92 46.4256C127.493 46.0203 127.248 45.4869 127.184 44.8256C127.269 44.7189 127.376 44.6549 127.504 44.6336C127.632 44.5909 127.739 44.6123 127.824 44.6976C127.973 45.2096 128.4 45.5936 129.104 45.8496C129.808 46.1056 130.651 46.2763 131.632 46.3616C132.635 46.4256 133.637 46.4363 134.64 46.3936C135.664 46.3296 136.549 46.2443 137.296 46.1376C137.893 46.0309 138.309 46.0203 138.544 46.1056C138.8 46.1909 139.077 46.4149 139.376 46.7776C139.931 47.3749 140.123 47.8443 139.952 48.1856C139.781 48.5269 139.344 48.6976 138.64 48.6976C138.619 48.6976 138.565 48.6976 138.48 48.6976C137.712 48.6976 136.88 48.7189 135.984 48.7616C135.109 48.8043 134.224 48.9323 133.328 49.1456C132.432 49.3376 131.568 49.6789 130.736 50.1696Z" fill="white"/>
<path d="M158.384 68.0896C158.064 67.8336 158.011 67.5563 158.224 67.2576C159.568 66.8736 160.837 66.4043 162.032 65.8496C163.248 65.2949 164.315 64.6123 165.232 63.8016C166.149 62.9696 166.864 61.9776 167.376 60.8256C167.909 59.6736 168.176 58.3083 168.176 56.7296C168.176 54.7456 167.941 53.2309 167.472 52.1856C167.024 51.1403 166.288 50.6176 165.264 50.6176C164.688 50.6176 164.123 50.8203 163.568 51.2256C163.013 51.6309 162.459 52.1109 161.904 52.6656C161.371 53.1989 160.837 53.6683 160.304 54.0736C159.792 54.4789 159.269 54.6816 158.736 54.6816C158.139 54.6816 157.68 54.5323 157.36 54.2336C157.061 53.9136 156.859 53.5296 156.752 53.0816C156.667 52.6976 156.656 52.2923 156.72 51.8656C156.805 51.4176 156.933 51.0229 157.104 50.6816C157.211 50.5963 157.328 50.5749 157.456 50.6176C157.584 50.6603 157.68 50.7349 157.744 50.8416C157.659 51.1829 157.733 51.5029 157.968 51.8016C158.203 52.0789 158.491 52.2176 158.832 52.2176C159.259 52.2176 159.717 52.0789 160.208 51.8016C160.699 51.5029 161.211 51.1616 161.744 50.7776C162.277 50.3723 162.832 50.0309 163.408 49.7536C164.005 49.4549 164.624 49.3056 165.264 49.3056C167.205 49.3056 168.581 49.9669 169.392 51.2896C170.203 52.5909 170.608 54.4149 170.608 56.7616C170.608 58.3403 170.331 59.7269 169.776 60.9216C169.243 62.0949 168.517 63.1083 167.6 63.9616C166.704 64.7936 165.712 65.4869 164.624 66.0416C163.536 66.5963 162.448 67.0336 161.36 67.3536C160.272 67.6949 159.28 67.9403 158.384 68.0896ZM161.616 47.3856C161.488 47.3429 161.392 47.2683 161.328 47.1616C161.264 47.0549 161.243 46.9483 161.264 46.8416C161.541 46.6283 161.893 46.3829 162.32 46.1056C162.747 45.8069 163.131 45.5829 163.472 45.4336C162.597 45.3483 161.883 45.1029 161.328 44.6976C160.795 44.2923 160.389 43.7909 160.112 43.1936C159.835 42.5963 159.653 41.9669 159.568 41.3056C159.632 41.1989 159.728 41.1349 159.856 41.1136C159.984 41.0709 160.101 41.0923 160.208 41.1776C160.443 41.9669 160.987 42.5749 161.84 43.0016C162.715 43.4283 163.739 43.5989 164.912 43.5136C165.531 43.4709 165.979 43.5456 166.256 43.7376C166.533 43.9296 166.779 44.2176 166.992 44.6016C167.269 45.0283 167.355 45.3909 167.248 45.6896C167.163 45.9669 166.971 46.0843 166.672 46.0416C165.669 45.9136 164.773 45.9989 163.984 46.2976C163.216 46.5963 162.501 46.9163 161.84 47.2576C161.733 47.3216 161.659 47.3643 161.616 47.3856Z" fill="white"/>
<path d="M181.68 69.0496C181.531 69.0709 181.392 69.0176 181.264 68.8896C181.136 68.7829 181.072 68.6336 181.072 68.4416C182.821 66.7989 184.24 64.7829 185.328 62.3936C186.437 60.0043 186.992 57.4016 186.992 54.5856C186.992 51.7696 186.437 49.1669 185.328 46.7776C184.24 44.3669 182.821 42.3509 181.072 40.7296C181.072 40.5376 181.136 40.3883 181.264 40.2816C181.392 40.1536 181.531 40.1003 181.68 40.1216C183.024 41.1029 184.24 42.3403 185.328 43.8336C186.416 45.3056 187.28 46.9589 187.92 48.7936C188.581 50.6069 188.912 52.5376 188.912 54.5856C188.912 56.6336 188.581 58.5749 187.92 60.4096C187.28 62.2229 186.416 63.8656 185.328 65.3376C184.24 66.8096 183.024 68.0469 181.68 69.0496Z" fill="white"/>
</svg>
