<svg width="30" height="138" viewBox="0 0 30 138" fill="none" xmlns="http://www.w3.org/2000/svg">
<path d="M7.44936 23.5115C9.16501 22.9941 10.0407 22.7026 12.2746 21.9264L12.4057 22.4439C8.87609 24.3204 6.57367 25.388 1.87947 27.2943C1.6531 28.3292 1.55481 28.5552 1.32844 28.5552C1.0693 28.5552 0.938245 28.2311 0 25.3851C0.711875 25.2869 0.938245 25.2245 1.48928 25.1263V16.1036C1.48928 14.7772 1.48928 14.5839 1.45651 13.6144C2.04031 13.7126 2.52582 13.775 2.85048 13.8077C4.24444 14.001 4.69718 14.1319 4.69718 14.4233C4.69718 14.6166 4.40528 14.7802 3.46704 15.0687V24.6089L5.54011 24.026V10.1528H3.46704V11.6725C3.43427 12.0621 3.10961 12.1572 1.8467 12.1572C1.58757 12.1572 1.48928 12.0918 1.48928 11.8658V11.7676C1.52204 10.1171 1.52204 10.0874 1.52204 6.33437C1.52204 2.58133 1.52204 2.55159 1.42375 0.383631C2.42752 0.966512 2.71942 1.15981 3.6249 1.77541H8.38761C8.80759 1.19253 8.93864 1.03194 9.42415 0.449056C10.136 0.999224 10.3624 1.19253 11.0445 1.77541C11.3364 2.03413 11.4317 2.13227 11.4317 2.22744C11.4317 2.35829 11.1726 2.55159 10.4279 3.00362V6.94996C10.4279 8.92164 10.4279 9.47181 10.4607 11.0569C10.4607 11.2829 10.3952 11.3483 10.2998 11.4138C10.139 11.5119 9.3616 11.6071 8.74504 11.6071C8.55143 11.6071 8.45314 11.5089 8.45314 11.3156V10.1499H7.44936V16.4575H8.84333C9.42713 15.714 9.62073 15.4553 10.2045 14.7445L12.3104 16.7816C12.3759 16.8798 12.4384 16.9749 12.4384 17.0403C12.4384 17.1385 12.3104 17.2009 12.1138 17.2009H7.44936V23.5115ZM3.46704 9.41233H8.45612V2.52185H3.46704V9.41233ZM15.6791 4.33295C16.0663 3.8482 16.1974 3.68464 16.6501 3.23261C17.3948 3.8482 17.6211 4.04151 18.333 4.6571C18.4938 4.8504 18.5921 4.98125 18.5921 5.07642C18.5921 5.26972 18.333 5.46599 17.7164 5.69201C16.8735 7.92242 16.3225 8.95733 15.0923 10.477C13.6686 12.1899 12.6946 13.0315 10.3952 14.3252L10.0079 14.001C12.0155 12.2227 12.8584 11.2205 13.7967 9.7008C14.7021 8.27631 15.1251 7.21166 15.6761 5.07642H13.472C12.4027 5.07642 12.1108 5.10913 11.3006 5.20727L11.1726 4.10693C11.95 4.30023 12.3074 4.33295 13.472 4.33295H15.6791ZM15.2562 28.6534C15.2562 28.8794 15.2234 28.9448 15.1579 29.0429C15.0298 29.1411 14.3477 29.2035 13.472 29.2035C13.1473 29.2035 13.0848 29.1381 13.0848 28.8794C13.2158 26.1642 13.2158 25.2245 13.2158 20.6655C13.2158 16.9779 13.2158 16.7192 13.0848 15.0389C14.1869 15.5891 14.5413 15.7824 15.6761 16.4604H24.1293C24.582 15.8776 24.7458 15.717 25.2313 15.1668C26.1368 15.8448 26.3989 16.0411 27.2389 16.7519C27.4325 16.9125 27.498 17.0106 27.498 17.076C27.498 17.2693 27.2389 17.4656 26.4287 17.8849C26.4287 23.5442 26.4615 26.1642 26.5896 28.46C26.5568 28.8794 26.3632 28.9775 25.5203 29.0102C25.2939 29.0102 25.002 29.0429 24.7101 29.0756H24.6773C24.4837 29.0756 24.3854 28.9448 24.3527 28.6563V27.2973H15.2502V28.6563L15.2562 28.6534ZM19.2087 2.6527C19.2087 1.74864 19.1759 1.19847 19.0479 0C19.6317 0.0654254 20.0516 0.130851 20.3435 0.16059C21.9966 0.29144 22.4166 0.419317 22.4166 0.710758C22.4166 0.969485 21.9639 1.1955 21.0226 1.3888C21.5737 3.75006 21.9281 4.62439 22.9021 6.17675C24.3288 4.91583 25.3952 3.68761 26.1428 2.52185C28.9932 3.75006 29.1213 3.81549 29.1213 4.04151C29.1213 4.26752 28.895 4.36566 28.475 4.36566C28.3141 4.36566 27.924 4.36566 27.5367 4.33295C25.6245 5.52845 25.0764 5.8526 23.2297 6.69421C25.0109 9.1209 26.7921 10.4472 30 11.7379L29.9345 12.1899C28.9962 12.3505 28.3797 12.868 27.8614 13.9683C25.5947 12.2554 24.4271 10.929 23.0689 8.53504C22.357 7.30683 21.9668 6.39979 20.8975 3.42591L21.1239 8.60047C21.1458 9.39747 21.1567 10.0874 21.1567 10.6703C21.1894 11.5446 21.1894 11.5743 21.2222 12.3505V12.7401C21.2222 14.227 20.7367 14.6493 18.4372 15.0032C18.3092 14.3876 18.1126 14.1289 17.6599 13.8702C17.2726 13.6115 17.1088 13.5787 14.8749 13.2546L14.9077 12.8353C15.8787 12.868 15.9114 12.868 17.1118 12.9334C17.6301 12.9552 18.1811 12.9661 18.7649 12.9661C19.1521 12.9661 19.2176 12.9007 19.2176 12.5765V2.6527H19.2087ZM24.3586 17.2069H15.2562V21.2157H24.3586V17.2069ZM15.2562 21.9591V26.5508H24.3586V21.9591H15.2562Z" fill="white"/>
<path d="M13.0848 60.3163C15.4498 58.407 16.5191 57.3424 17.6837 55.7246C18.8483 54.1068 19.6287 52.5872 20.567 50.1307C17.7492 48.6438 14.9643 47.9301 11.2709 47.7695C9.2961 51.3589 8.45318 52.718 7.35111 54.1722C6.15373 55.6592 5.14698 56.4026 4.2415 56.4026C2.8803 56.4026 1.74845 54.8503 1.74845 52.9738C1.74845 51.3233 2.55862 49.6757 3.95258 48.51C5.37931 47.3145 7.51493 46.571 10.1063 46.3747C10.559 45.5985 10.6245 45.3725 12.4057 41.2983C13.4423 38.8389 13.5733 38.485 14.0886 36.7393C13.3112 36.9326 11.0773 37.6434 9.42418 38.2263C8.90591 38.3869 8.64678 38.4523 8.35488 38.4523C7.35111 38.4523 6.31457 36.8672 6.31457 35.3148C6.31457 34.9907 6.3801 34.8301 6.672 34.5714C7.31834 36.0583 7.90214 36.5431 9.1025 36.5431C9.94543 36.5431 10.9492 36.3825 12.5368 35.9929C13.3797 35.7669 13.5078 35.7014 13.9635 35.3148C14.1571 35.0888 14.3507 35.0234 14.6426 35.0234C15.3545 35.0234 16.9748 36.7364 16.9748 37.5453C16.9748 37.804 16.8467 38.03 16.4893 38.2887C15.7447 38.9043 15.4528 39.3563 13.2189 43.7874C12.3432 45.5331 12.2151 45.7918 11.8904 46.4074C15.1609 46.568 17.9786 47.1182 21.1865 48.2512C21.7375 46.571 22.2558 44.0789 22.2558 43.044C22.2558 42.1696 21.8031 41.5897 20.5699 40.8135C20.7963 40.653 20.9274 40.6202 21.1537 40.6202C21.7048 40.6202 22.4494 40.879 23.4204 41.3637C24.4569 41.8812 24.9424 42.3986 24.9424 42.9815C24.9424 43.3057 24.9097 43.4663 24.6506 44.1146C24.5523 44.3406 24.3587 45.0186 23.8731 46.5412C23.7123 47.1241 23.5812 47.5107 23.1285 49.0006C27.0155 50.9396 28.0521 51.8794 28.0521 53.5923C28.0521 54.2377 27.7274 54.7581 27.3074 54.7581C27.0155 54.7581 26.7892 54.5975 26.2054 54.08C25.1688 53.0451 24.0995 52.2035 22.3511 51.0407C20.9244 54.1455 19.9206 55.6978 18.205 57.3483C16.7484 58.7401 15.42 59.6769 13.3469 60.6791L13.0878 60.3222L13.0848 60.3163ZM3.14241 52.1976C3.14241 53.3931 3.82152 54.5261 4.53637 54.5261C5.60567 54.5261 6.96687 52.6496 9.45992 47.7338C5.31378 48.1858 3.14241 49.7055 3.14241 52.1976Z" fill="white"/>
<path d="M13.2815 68.5956C13.2815 67.0105 13.2815 66.8172 13.1534 64.6819C16.5222 65.0388 16.9123 65.134 16.9123 65.589C16.9123 65.8804 16.6205 66.041 15.6494 66.3324V76.7143H23.5843V70.9241C23.5843 70.1479 23.5843 69.9546 23.5188 68.5628C23.4969 68.1108 23.4751 67.6687 23.4533 67.2365C26.5956 67.6261 27.0156 67.7212 27.0156 68.1108C27.0156 68.3695 26.7892 68.5301 25.8808 68.8216C25.8371 71.5377 25.8153 73.209 25.8153 73.8355C25.8153 75.0013 25.848 76.2295 25.9135 78.558C25.9135 78.9774 25.848 79.0428 25.5561 79.1409C25.3625 79.1737 24.5851 79.2391 24.1294 79.2391C23.7094 79.2391 23.5784 79.1409 23.5784 78.6889V77.4607H15.6435V90.6885H24.9396V84.8032C24.9396 83.575 24.874 82.2814 24.8085 81.407C27.9509 81.7966 28.3708 81.8918 28.3708 82.2814C28.3708 82.5728 28.0134 82.7988 27.236 82.9921V84.9013C27.236 86.9385 27.2688 89.5257 27.3671 93.2133C27.3343 93.5375 27.2688 93.6327 26.9769 93.6981C26.5897 93.7962 26.134 93.8289 25.714 93.8289C25.0676 93.8289 24.9693 93.7635 24.9366 93.3769V91.4379H4.33392V93.2163C4.30115 93.5405 4.20584 93.6684 3.84841 93.7338C3.52375 93.7665 2.94293 93.8319 2.61827 93.8319C2.1 93.8319 1.90639 93.7011 1.90639 93.3472V93.249C2.06723 90.5963 2.1 89.4008 2.1 86.8135C2.1 84.485 2.06723 83.1914 1.93916 81.4457C4.37958 81.7689 5.5998 82.0702 5.5998 82.3497C5.5998 82.6412 5.50151 82.6739 4.33689 83.0605V90.6915H13.2755V77.4637H5.72788V78.6919C5.69511 79.016 5.62959 79.1112 5.43598 79.2093C5.20961 79.2748 4.49774 79.3402 4.01223 79.3402C3.55949 79.3402 3.42843 79.2093 3.42843 78.8227L3.49396 74.0675C3.49396 70.252 3.4612 68.1822 3.36291 67.2424C5.59682 67.4357 6.69889 67.5993 6.99079 67.7599C7.05631 67.7926 7.11886 67.9532 7.11886 68.0513C7.11886 68.3755 7.0861 68.3755 5.7249 68.8602V76.7202H13.2726V68.6015L13.2815 68.5956Z" fill="white"/>
<path d="M9.58807 125.29C13.347 122.735 14.9316 120.665 15.7418 117.204C14.9971 117.656 14.4133 117.849 13.6687 117.849C11.402 117.849 9.68338 115.845 9.68338 113.192C9.68338 110.346 11.4646 108.243 13.8623 108.243C14.4789 108.243 14.8333 108.341 15.6762 108.794C15.6762 108.243 15.709 106.465 15.709 105.43C15.709 105.365 15.709 105.073 15.6762 104.785C13.1504 105.011 10.1361 105.626 7.51201 106.403C6.70185 106.661 6.15081 106.887 5.40617 107.277C5.21257 107.342 4.85514 107.437 4.66154 107.437C4.07774 107.437 3.3331 106.985 2.58846 106.209C1.87659 105.433 1.29279 104.365 1.29279 103.848C1.29279 103.783 1.35832 103.622 1.45364 103.458C2.29657 104.559 3.30034 105.109 4.59601 105.109C5.24236 105.109 5.95721 105.043 7.38096 104.817C11.2024 104.202 12.37 104.041 15.6733 103.684C15.6733 101.742 15.575 100.806 15.3158 100.095C14.9584 99.1908 14.181 98.7358 12.5309 98.5098C12.9181 98.0251 13.1474 97.9269 14.0202 97.9269C15.1222 97.9269 16.2213 98.0875 17.1625 98.379C17.9399 98.6377 18.3927 99.057 18.3927 99.512C18.3927 99.7708 18.3599 99.8362 18.068 100.386C17.7106 101.064 17.4842 101.971 17.3561 103.524C17.9181 103.458 18.62 103.394 19.462 103.33C22.5716 103.104 22.929 103.039 23.769 102.748C24.5791 102.423 24.7072 102.391 24.9663 102.391C25.6127 102.391 26.9113 102.941 27.7185 103.586C28.1057 103.878 28.2368 104.104 28.2368 104.461C28.2368 104.817 28.0104 105.011 27.5249 105.011C27.2986 105.011 27.233 105.011 25.7765 104.817C24.0907 104.591 22.6997 104.493 20.7874 104.493C19.5901 104.493 18.6488 104.526 17.3204 104.624C17.1923 105.852 17.094 107.827 17.094 109.022C17.094 109.249 17.094 109.638 17.1268 110.123C17.937 111.773 18.1633 112.776 18.1633 114.423C18.1633 117.593 16.9004 120.534 14.6635 122.637C13.4334 123.803 11.8458 124.838 9.83826 125.709L9.57913 125.29H9.58807ZM13.7015 109.022C12.2449 109.022 11.1101 110.542 11.1101 112.517C11.1101 114.491 12.2122 116.041 13.7342 116.041C15.1282 116.041 15.8073 115.006 15.8073 113.002C15.8073 110.316 15.1282 109.022 13.7015 109.022Z" fill="white"/>
<path d="M29.8988 133.828C29.8988 136.123 28.0194 138 25.7199 138C23.4205 138 21.541 136.123 21.541 133.828C21.541 131.532 23.4205 129.655 25.7199 129.655C28.0194 129.655 29.8988 131.499 29.8988 133.828ZM22.5775 133.828C22.5775 135.541 24.0043 136.965 25.7199 136.965C27.4356 136.965 28.8623 135.573 28.8623 133.828C28.8623 132.082 27.4683 130.69 25.7199 130.69C23.9715 130.69 22.5775 132.082 22.5775 133.828Z" fill="white"/>
</svg>
