<svg width="31" height="105" viewBox="0 0 31 105" fill="none" xmlns="http://www.w3.org/2000/svg">
<path d="M5.25745 14.5338C3.1038 16.6588 2.29301 17.266 0.291377 18.493L0 18.0755C2.02697 16.3426 3.38251 14.7615 5.38414 11.8395C6.80302 9.81568 7.47446 8.56343 8.15856 6.8811C8.868 7.17203 9.38741 7.39971 9.70413 7.5262C11.085 8.07011 11.3764 8.23455 11.3764 8.48753C11.3764 8.77846 10.9583 8.9429 10.1475 8.9429C10.1095 8.9429 10.0208 8.9429 9.91949 8.90495C8.50061 10.9035 7.70249 11.9281 6.34695 13.408C8.08255 13.8001 8.47527 13.9266 8.47527 14.2176C8.47527 14.4452 8.34859 14.5085 7.44912 14.7994V20.3018C7.44912 21.4402 7.46179 23.4134 7.48713 26.2215V28.5743C7.44912 28.8272 7.38578 28.8652 7.10707 28.9284C6.651 28.9917 6.14426 29.0549 5.78954 29.0549C5.24479 29.0549 5.0801 28.9917 5.0801 28.764V28.5996C5.14344 27.7647 5.20678 25.159 5.27013 20.7824V14.5464L5.25745 14.5338ZM0.684104 9.03144C2.35636 7.5262 3.7499 5.97037 5.42215 3.69353C6.32162 2.50452 6.90437 1.56849 7.7785 0C9.5141 0.733647 10.4136 1.18901 10.7049 1.4167C10.743 1.45464 10.8063 1.54319 10.8696 1.73292C10.8696 1.92266 10.5529 2.0871 10.1982 2.0871C10.0082 2.0871 9.74213 2.04915 9.46343 2.04915C6.76502 5.29996 4.24397 7.51355 1.02615 9.41091L0.709437 9.01879L0.684104 9.03144ZM13.34 11.3462C12.4405 11.3462 11.8324 11.4095 10.5022 11.5739L10.2489 10.2837C11.6297 10.5746 12.0858 10.5999 13.34 10.5999H25.3245C26.1606 9.57535 26.414 9.28442 27.2501 8.32309C28.5423 9.38562 28.897 9.73979 30.0879 10.8909C30.1892 11.0173 30.2145 11.0806 30.2145 11.1185C30.2145 11.245 30.0499 11.3462 29.9232 11.3462H23.4875V17.772C23.4875 20.6686 23.4875 22.275 23.5509 26.3227V26.6137C23.5509 27.322 23.2595 27.7394 22.5247 28.1948C21.8533 28.5743 21.1058 28.802 19.5349 29.0929C19.4716 28.0683 19.2182 27.6762 18.4454 27.322C18.1287 27.1955 17.6093 27.069 16.6718 26.9299L14.5182 26.6137V26.0698C17.0012 26.2342 17.964 26.2974 20.6371 26.3607C21.0932 26.3227 21.1819 26.2595 21.1819 25.9053V11.3336H13.3527L13.34 11.3462ZM11.6678 2.21359C12.7953 2.44127 13.6694 2.52982 14.8856 2.52982H23.3608C24.0956 1.56849 24.3237 1.27756 25.0964 0.379472C26.3886 1.3408 26.7687 1.66968 28.0609 2.79545C28.1242 2.89664 28.1622 2.95988 28.1622 3.02313C28.1622 3.14962 27.9722 3.27611 27.7822 3.27611H14.8982C13.7327 3.27611 13.1626 3.31406 11.9085 3.50379L11.6804 2.21359H11.6678Z" fill="white"/>
<path d="M9.83081 46.0173C8.44994 51.7094 7.86718 54.6314 7.86718 55.7571V56.1113C7.90519 56.3643 7.90519 56.5034 7.90519 56.6299C7.90519 57.6545 7.65182 58.1352 7.0944 58.1352C6.61299 58.1352 6.13159 57.7177 5.73886 56.9715C4.71271 54.9729 4.19329 52.1774 4.19329 48.6484C4.19329 46.2703 4.35799 44.7271 4.90274 41.3498C5.3208 38.9971 5.42215 38.099 5.42215 37.3654C5.42215 36.3661 5.04209 35.3668 4.25664 34.279C4.96608 34.317 5.61218 34.7344 6.38496 35.5313C7.32244 36.5558 7.80384 37.4286 7.80384 38.099C7.80384 38.5164 7.76583 38.7062 7.34777 39.8699C6.25827 42.931 5.67552 45.9794 5.67552 48.8128C5.67552 51.1908 5.90356 52.7087 6.4483 53.8345C6.84103 52.8731 8.76665 47.6238 9.34941 45.8909L9.83081 46.0173ZM12.4025 40.7174C13.8468 41.742 14.6195 42.0076 16.1398 42.0076C17.4573 42.0076 19.3322 41.7546 20.7765 41.3372V40.2114C20.7765 37.5425 20.6751 36.2523 20.3964 35.7083C20.0797 35.0632 19.1675 34.5826 17.66 34.2284C18.1414 33.811 18.3694 33.7477 19.4336 33.7477C21.7519 33.7477 23.2975 34.3928 23.2975 35.3542C23.2975 35.4807 23.2342 35.8095 23.1328 36.1258C22.8161 37.3148 22.7781 37.7069 22.7148 40.7553C24.4503 40.2114 24.8431 40.0217 25.6412 39.3766C25.8692 39.2121 26.0212 39.1489 26.3126 39.1489C27.3388 39.1489 28.2382 39.6043 28.2382 40.1102C28.2382 40.5023 28.0102 40.6921 27.1107 41.1348C26.0846 41.6155 25.0838 41.9443 22.7274 42.5515V47.2823C22.7274 52.3672 21.8533 54.9729 19.4463 57.5027C18.0274 58.9447 16.6085 60.0072 14.5562 61.0065L14.3028 60.5891C16.6592 58.755 17.7867 57.528 18.8382 55.6306C20.3584 52.9996 20.8651 50.1283 20.8651 44.6006V42.9563C19.4209 43.2472 18.2934 43.3737 17.1279 43.3737C14.9743 43.3737 13.5174 42.7286 12.0731 41.0842L12.3899 40.6921L12.4025 40.7174Z" fill="white"/>
<path d="M8.83 79.8283C7.03106 86.5197 6.53698 88.5688 6.53698 89.5428V89.6693C6.49898 90.6939 6.49898 90.833 6.30895 91.086C6.18226 91.3137 5.95423 91.4402 5.70086 91.4402C5.15611 91.4402 4.70004 90.9848 4.31998 89.9982C3.67389 88.3538 3.29383 85.9125 3.29383 83.5345C3.29383 80.5746 3.64855 77.8804 4.73804 72.8207C5.15611 70.8222 5.21945 70.468 5.21945 69.9241C5.21945 68.9628 4.96608 68.1912 4.28198 67.0907C5.01676 67.1287 5.63751 67.5461 6.53698 68.6971C7.27176 69.6332 7.70249 70.5313 7.70249 71.1384C7.70249 71.3745 7.52935 71.8468 7.18308 72.5551C5.63751 75.768 4.73804 79.6007 4.73804 83.0033C4.73804 84.6729 4.86473 85.7102 5.25745 87.0257C5.48549 86.5071 5.92889 85.4192 6.613 83.7749C6.96772 82.94 7.7405 81.1059 8.34859 79.6639L8.83 79.8283ZM12.0478 74.0098C13.5934 75.009 14.5942 75.3253 16.2031 75.3253C17.3306 75.3253 18.5595 75.1608 19.877 74.8699V73.4532C19.877 69.8482 19.839 69.4308 19.4209 68.9881C19.0282 68.5707 18.3314 68.343 17.2926 68.2544C17.7487 67.837 18.002 67.7358 18.8382 67.7358C19.5476 67.7358 20.4217 67.8623 21.0298 68.0267C21.9673 68.3177 22.4487 68.6971 22.4487 69.1905C22.4487 69.4181 22.4487 69.4434 22.1573 70.1897C21.8026 71.0625 21.6126 72.378 21.4859 74.5031C22.8414 74.111 23.8676 73.6682 24.4503 73.1876C24.7671 72.8713 24.8684 72.8334 25.1598 72.8334C25.5525 72.8334 26.2873 73.0231 26.68 73.2508C26.9334 73.3773 27.0981 73.605 27.0981 73.8327C27.0981 74.541 24.7417 75.5023 21.3972 76.1475C21.3972 80.0434 21.4986 82.4214 21.8153 84.888C25.5525 85.8872 27.1234 87.1016 27.1234 88.9989C27.1234 89.6693 26.832 90.1879 26.4773 90.1879C26.2239 90.1879 25.9959 90.0235 25.3498 89.3784C24.1843 88.1514 22.9935 87.2533 21.866 86.8106C21.904 87.1016 21.904 87.3545 21.904 87.5822C21.904 89.897 19.9657 91.2758 16.7479 91.2758C13.9481 91.2758 11.9845 89.9223 11.9845 87.9996C11.9845 85.786 14.3662 84.3693 18.04 84.3693C18.6481 84.3693 19.1042 84.4073 20.0037 84.4705V83.9266L19.9403 80.4861L19.9023 76.3751C18.9395 76.5396 18.002 76.6281 17.0646 76.6281C14.7082 76.6281 13.3653 76.0463 11.7438 74.3766L12.0351 74.0224L12.0478 74.0098ZM16.9759 85.7481C14.4295 85.7481 12.8586 86.5829 12.8586 87.9617C12.8586 89.1254 14.0875 89.8591 16.0131 89.8591C17.812 89.8591 19.0409 89.3404 19.5603 88.3538C19.877 87.8099 19.9783 87.3292 19.9783 86.1402C19.0789 85.8872 18.1794 85.7481 16.9886 85.7481H16.9759ZM23.1328 65.2945C24.3617 66.0029 25.1598 66.5847 25.9326 67.2931C27.0601 68.3556 27.5161 69.0893 27.5161 69.8609C27.5161 70.6325 27.1234 71.2143 26.6167 71.2143C26.338 71.2143 25.865 70.5186 25.1978 69.1272C24.615 68.0014 23.5889 66.5847 22.7148 65.7499L23.1328 65.2945ZM26.3253 63.4225C27.4908 63.9664 28.3903 64.5103 29.3531 65.2566C30.5819 66.2179 31 66.863 31 67.7611C31 68.4948 30.6833 69.0513 30.2272 69.0513C29.9358 69.0513 29.7458 68.8869 29.4924 68.4442C28.4029 66.4203 27.7568 65.5855 25.9832 63.8778L26.338 63.4225H26.3253Z" fill="white"/>
<path d="M22.2967 96.9678C24.7417 97.8659 27.2501 99.0929 28.5803 100.054C29.8345 100.99 30.2906 101.724 30.2906 102.85C30.2906 103.975 29.7078 105 29.0997 105C29.0364 105 28.8083 104.899 28.6816 104.81C28.5296 104.684 27.9806 103.912 27.0347 102.495C25.9452 100.889 24.197 99.0929 22.0687 97.3853L22.2967 96.9678Z" fill="white"/>
</svg>
