<svg width="30" height="171" viewBox="0 0 30 171" fill="none" xmlns="http://www.w3.org/2000/svg">
<path d="M0.00894454 29.1382C3.54204 28.5218 5.68277 27.843 9.28146 26.1904C10.9362 25.446 12.1348 24.7344 13.6911 23.6982C12.2958 22.4685 11.6816 21.7569 10.2534 19.5207C6.91413 22.8228 5 24.1836 1.07633 26.0296L0.816935 25.6426C4.51401 23.1504 6.42516 21.4323 8.79249 18.5501C10.2177 16.835 11.127 15.507 11.613 14.4708C13.8491 15.0872 14.5945 15.376 14.5945 15.6678C14.5945 15.7661 14.5289 15.8613 14.4335 15.9269C14.3381 15.9924 13.8819 16.1204 13.0382 16.2842C12.5522 16.963 12.421 17.1596 11.9022 17.7729H19.4246C20.0089 17.2221 20.2355 17.0285 20.8199 16.4449C21.7919 17.2221 22.0841 17.4811 22.9606 18.16C23.1872 18.3535 23.2528 18.4518 23.2528 18.5471C23.2528 18.7734 22.9278 18.8716 21.6965 19.1634C19.4603 21.5276 18.4526 22.4328 16.4431 23.9245C19.8151 25.5443 22.8951 26.1249 29.833 26.384V26.7413C28.5033 27.0003 27.9517 27.5839 27.4985 29.0727C24.6124 28.8136 22.6685 28.3938 20.1372 27.3874C18.1932 26.643 16.5713 25.8004 15.1103 24.8297C13.1634 26.0267 11.7054 26.771 9.5319 27.5482C5.96601 28.8762 3.79249 29.3287 0.0327967 29.6205L0 29.1352L0.00894454 29.1382ZM12.8175 4.72535C12.6893 7.67311 12.5581 8.80458 12.0722 10.1981C11.294 12.4312 9.63924 14.4708 7.4031 15.9626C6.49672 16.5789 5.62015 17.0315 3.80441 17.7759L3.61061 17.3858C6.04353 15.9626 7.0483 15.1527 8.18128 13.7264C9.93143 11.5231 10.5486 9.38818 10.7424 4.72535H2.99046C2.27788 4.72535 1.6935 4.79086 0.462135 4.95165L0.140131 3.59091C1.07931 3.84996 2.08408 3.98097 2.99344 3.98097H13.4347V1.74781C13.4347 1.19697 13.4019 0.777137 13.3691 0C16.613 0.357305 17.0334 0.452586 17.0334 0.80989C17.0334 1.06894 16.6458 1.29523 15.5426 1.74781V3.98097H24.201C24.9791 2.91203 25.2385 2.58748 26.1479 1.58405C27.4776 2.78102 27.9308 3.17108 29.2606 4.36805C29.2934 4.43355 29.3262 4.49906 29.3262 4.52884C29.3262 4.62709 29.2278 4.72237 29.1324 4.72237H19.4365V9.41795C19.4365 9.677 19.4365 10.3559 19.4693 11.3295C19.4693 11.6213 19.5021 12.0739 19.5021 12.6248C19.5021 13.3364 19.2427 13.6937 18.5301 14.0182C17.8175 14.3428 17.0394 14.5363 15.8706 14.6644C15.6768 13.9527 15.483 13.6937 14.9314 13.3691C14.4126 13.1101 13.7955 12.9166 12.7907 12.7855V12.2675C15.2236 12.461 15.3518 12.461 16.9082 12.5265C17.2332 12.5265 17.3286 12.3955 17.3286 11.9757V4.72535H12.8175ZM0.140131 15.2152C1.76208 13.7264 2.86225 12.333 4.35599 9.87352C5.16696 8.51278 5.49195 7.8339 5.81395 6.893C8.79547 7.96194 8.92665 8.02744 8.92665 8.28649C8.92665 8.61104 8.44067 8.77183 7.27191 8.87008C4.97019 12.2704 2.96064 14.2445 0.429338 15.5725L0.13715 15.2152H0.140131ZM11.2284 18.5203C11.0018 18.7466 10.9362 18.8121 10.6768 19.0711C12.2332 21.1107 12.9457 21.7896 14.7615 22.9568C16.4788 21.6616 17.4836 20.6909 19.4305 18.5203H11.2284ZM21.3447 7.1848C23.1932 7.99469 24.9433 8.96537 26.2731 9.90329C27.9278 11.0705 28.5092 11.7166 28.5092 12.461C28.5092 13.3989 27.8295 14.7269 27.3733 14.7269C27.1795 14.7269 26.9529 14.5006 26.5623 13.8515C25.2326 11.6184 23.4496 9.51323 21.1151 7.47362L21.3417 7.18182L21.3447 7.1848Z" fill="white"/>
<path d="M15.799 58.8004C21.6369 56.7608 24.8122 53.2949 24.8122 49.0222C24.8122 45.8481 22.8026 43.6805 19.8837 43.6805C16.9648 43.6805 13.3005 45.3658 9.86583 48.245C9.89863 50.8683 10.0596 54.4294 10.2236 55.6919C10.322 56.5018 10.322 56.6298 10.322 56.9543C10.322 58.0233 10.0626 59.1577 9.67203 59.9646C9.47823 60.3845 9.18605 60.6108 8.86106 60.6108C8.60167 60.6108 8.30948 60.45 8.18128 60.1909C8.15941 60.1036 8.05108 59.8019 7.85629 59.2858C7.5641 58.4104 7.4031 58.1513 6.72033 57.3444C5.84377 56.3082 5.26237 55.7246 4.25462 54.8522C4.09362 55.144 3.99523 55.3375 3.92964 55.5013C3.47645 56.3767 3.24985 56.6655 2.99046 56.6655C2.53727 56.6655 2.01849 55.4358 2.01849 54.3669C2.01849 53.947 2.14669 53.688 2.63566 53.1699C3.12165 52.6846 3.54204 52.1992 4.03101 51.5829C4.97018 50.3859 8.02027 46.0774 8.82827 44.7494C8.89386 43.5822 8.92666 42.8081 8.95647 42.3853C8.00636 42.9252 6.94693 43.6051 5.77818 44.4249C5.161 44.8775 4.7734 45.0412 4.44842 45.0412C3.89684 45.0412 3.24985 44.6214 2.73107 43.9395C2.24508 43.3232 1.9201 42.5788 1.9201 42.159C1.9201 42.0309 1.98569 41.8672 2.0811 41.6081C2.63268 42.6443 3.31246 43.1624 4.05784 43.1624C4.73763 43.1624 7.10495 42.2245 9.08468 41.1228C9.15027 40.5064 9.24568 38.5978 9.24568 37.8862C9.24568 35.8466 9.01908 35.394 7.33154 34.1613C7.55814 34.0303 7.68933 34.0005 7.81753 34.0005C8.46452 34.0005 9.60048 34.4858 10.477 35.1349C11.288 35.7185 11.6756 36.2039 11.6756 36.6565C11.6756 36.8292 11.5454 37.2609 11.285 37.9517C10.96 38.7943 10.7662 39.5387 10.638 40.6404C11.4162 41.2865 11.8068 41.7749 11.8068 42.0964C11.8068 42.2473 11.6229 42.5282 11.2552 42.9391C10.9302 43.3589 10.5754 43.9425 10.0865 45.0769C10.0209 45.5295 10.0209 45.6605 9.98807 46.1459C11.8694 45.1097 12.3226 44.8834 13.3274 44.3981C15.6291 43.2636 17.8652 42.7158 19.9404 42.7158C24.189 42.7158 27.3017 45.5653 27.3017 49.4509C27.3017 52.6578 25.4532 55.3763 21.9529 57.3206C20.1044 58.324 18.4198 58.8749 15.9541 59.2947L15.7931 58.8094L15.799 58.8004ZM6.46094 51.1273C5.40151 52.8979 4.7744 53.956 4.57961 54.3014C6.03757 55.3703 6.07036 55.403 8.47048 56.8918C8.47048 54.8195 8.59869 49.9958 8.69708 47.2744C6.78295 50.5765 6.75015 50.642 6.46094 51.1273Z" fill="white"/>
<path d="M11.13 94.1914C13.4317 92.7652 14.8599 91.5027 16.285 89.6566C18.554 86.6463 19.6899 82.987 19.6899 78.744C19.6899 75.9272 19.2039 73.2713 18.4914 72.0743C17.907 71.1364 17.1288 70.648 16.1896 70.648C14.5677 70.648 13.0769 72.0415 11.9082 74.6945C10.969 76.7996 10.3846 79.4556 10.3846 81.656C10.3846 82.2068 10.4174 82.5612 10.5158 83.6629C10.5486 83.8564 10.5486 84.1154 10.5486 84.3417C10.5486 84.9581 10.2564 85.3124 9.70483 85.3124C8.47346 85.3124 7.66249 82.6892 7.66249 78.6755C7.66249 75.9868 7.85629 74.3045 8.70006 69.9989C8.95945 68.7037 9.05784 68.0874 9.05784 67.6348C9.05784 66.5986 8.60465 65.9822 7.30769 65.3361C7.56708 65.2379 7.76088 65.1753 7.89207 65.1753C8.57185 65.1753 9.60942 65.5952 10.486 66.2443C11.3924 66.8934 11.7501 67.4115 11.7501 68.0576C11.7501 68.4774 11.6846 68.6739 11.297 69.2873C10.0656 71.3269 8.96243 75.9242 8.96243 78.9375C8.96243 79.2293 8.96243 79.5539 8.99523 80.1345H9.06082C10.0328 75.9897 11.2343 73.301 12.8205 71.6515C14.0191 70.3562 15.316 69.7399 16.777 69.7399C19.8897 69.7399 22.093 73.5601 22.093 78.9673C22.093 83.1775 20.9243 86.6731 18.5599 89.5554C16.6458 91.9196 14.4753 93.4411 11.3953 94.6708L11.136 94.1855L11.13 94.1914Z" fill="white"/>
<path d="M13.3661 101.51C13.3661 99.9232 13.3661 99.7296 13.2379 97.5918C16.61 97.9491 17.0006 98.0444 17.0006 98.4999C17.0006 98.7917 16.7084 98.9525 15.7364 99.2443V109.639H23.6792V103.842C23.6792 103.064 23.6792 102.871 23.6136 101.477C23.5917 101.025 23.5699 100.582 23.548 100.149C26.6935 100.54 27.1139 100.635 27.1139 101.025C27.1139 101.284 26.8873 101.445 25.9779 101.737C25.9342 104.456 25.9123 106.129 25.9123 106.757C25.9123 107.924 25.9451 109.154 26.0107 111.485C26.0107 111.905 25.9451 111.97 25.653 112.069C25.4592 112.101 24.681 112.167 24.2248 112.167C23.8044 112.167 23.6732 112.069 23.6732 111.616V110.386H15.7305V123.63H25.0358V117.738C25.0358 116.508 24.9702 115.213 24.9046 114.337C28.0501 114.728 28.4705 114.823 28.4705 115.213C28.4705 115.505 28.1127 115.731 27.3345 115.924V117.836C27.3345 119.876 27.3673 122.466 27.4657 126.158C27.4329 126.483 27.3673 126.578 27.0751 126.644C26.6875 126.742 26.2314 126.775 25.811 126.775C25.164 126.775 25.0656 126.709 25.0328 126.322V124.381H4.4186V126.161C4.38581 126.486 4.2904 126.614 3.93262 126.679C3.60763 126.712 3.02624 126.778 2.70125 126.778C2.18247 126.778 1.98867 126.647 1.98867 126.292V126.194C2.14967 123.538 2.18247 122.341 2.18247 119.751C2.18247 117.419 2.14967 116.124 2.02147 114.376C4.46432 114.7 5.68575 115.001 5.68575 115.281C5.68575 115.573 5.58736 115.606 4.42159 115.993V123.633H13.3691V110.389H5.81395V111.619C5.78116 111.944 5.71556 112.039 5.52177 112.137C5.29517 112.203 4.58259 112.268 4.0966 112.268C3.64341 112.268 3.51222 112.137 3.51222 111.75L3.57782 106.989C3.57782 103.169 3.54502 101.096 3.44663 100.155C5.68277 100.349 6.78593 100.513 7.07812 100.674C7.14371 100.706 7.20632 100.867 7.20632 100.965C7.20632 101.29 7.17352 101.29 5.81097 101.775V109.645H13.3661V101.51Z" fill="white"/>
<path d="M9.67203 158.274C13.4347 155.716 15.0209 153.644 15.8318 150.178C15.0865 150.631 14.5021 150.824 13.7567 150.824C11.4878 150.824 9.76744 148.817 9.76744 146.161C9.76744 143.312 11.5504 141.207 13.9505 141.207C14.5677 141.207 14.9225 141.305 15.7662 141.758C15.7662 141.207 15.799 139.426 15.799 138.39C15.799 138.324 15.799 138.033 15.7662 137.744C13.2379 137.97 10.2206 138.587 7.59392 139.364C6.78295 139.623 6.23137 139.849 5.48599 140.239C5.29219 140.305 4.93441 140.4 4.74061 140.4C4.15623 140.4 3.41085 139.947 2.66547 139.17C1.95289 138.393 1.36852 137.324 1.36852 136.806C1.36852 136.74 1.43411 136.58 1.52952 136.416C2.37329 137.518 3.37806 138.068 4.67502 138.068C5.322 138.068 6.03757 138.003 7.46273 137.777C11.288 137.16 12.4568 136.999 15.7633 136.642C15.7633 134.698 15.6649 133.76 15.4055 133.048C15.0477 132.143 14.2695 131.688 12.6178 131.461C13.0054 130.976 13.2349 130.878 14.1085 130.878C15.2117 130.878 16.3119 131.038 17.254 131.33C18.0322 131.589 18.4854 132.009 18.4854 132.465C18.4854 132.724 18.4526 132.789 18.1604 133.34C17.8026 134.019 17.576 134.927 17.4478 136.481C18.0103 136.416 18.713 136.351 19.5558 136.288C22.6685 136.062 23.0262 135.996 23.867 135.704C24.678 135.38 24.8062 135.347 25.0656 135.347C25.7126 135.347 27.0125 135.898 27.8205 136.544C28.2081 136.836 28.3393 137.062 28.3393 137.419C28.3393 137.777 28.1127 137.97 27.6267 137.97C27.4001 137.97 27.3345 137.97 25.8766 137.777C24.189 137.55 22.7967 137.452 20.8825 137.452C19.684 137.452 18.7418 137.485 17.412 137.583C17.2838 138.813 17.1855 140.79 17.1855 141.987C17.1855 142.213 17.1855 142.603 17.2182 143.089C18.0292 144.741 18.2558 145.745 18.2558 147.394C18.2558 150.568 16.9917 153.513 14.7525 155.618C13.5212 156.785 11.932 157.821 9.92248 158.694L9.66309 158.274H9.67203ZM13.7895 141.987C12.3315 141.987 11.1956 143.508 11.1956 145.485C11.1956 147.463 12.2987 149.014 13.8223 149.014C15.2177 149.014 15.8974 147.978 15.8974 145.971C15.8974 143.282 15.2177 141.987 13.7895 141.987Z" fill="white"/>
<path d="M30 166.823C30 169.121 28.1187 171 25.8169 171C23.5152 171 21.6339 169.121 21.6339 166.823C21.6339 164.524 23.5152 162.645 25.8169 162.645C28.1187 162.645 30 164.491 30 166.823ZM22.6744 166.823C22.6744 168.538 24.1026 169.964 25.8199 169.964C27.5373 169.964 28.9654 168.57 28.9654 166.823C28.9654 165.075 27.5701 163.681 25.8199 163.681C24.0698 163.681 22.6744 165.075 22.6744 166.823Z" fill="white"/>
</svg>
