<svg viewBox="0 0 27 272.378" fill="none" xmlns="http://www.w3.org/2000/svg"><g id="line">
<path d="M6.94912 1.86697C7.19334 2.08923 7.57077 2.17813 8.037 2.17813C8.50324 2.17813 10.1906 1.80029 12.1443 1.24465C13.2322 0.95571 13.876 0.733452 14.2091 0.577871C14.3127 0.518603 14.4903 0.385248 14.7419 0.177807C14.8751 0.0666775 15.0527 0 15.2303 0C16.0074 0 17.6503 1.71139 17.6503 2.51152C17.6503 2.80045 17.5615 2.88936 16.9843 3.13384C16.6068 3.31165 15.4746 4.17846 13.4764 5.82317C11.4561 7.51233 8.48104 9.82382 5.75023 11.8464C8.65865 10.7351 10.7234 10.0238 16.1184 8.49027C17.2063 8.1791 17.9833 7.95685 18.605 7.73459C19.271 7.4901 19.4265 7.46788 19.6929 7.46788C20.0481 7.46788 20.6253 7.73459 21.0694 8.11243C21.4246 8.40136 21.5134 8.60139 21.5134 8.89033C21.5134 9.15704 21.2914 9.3793 20.9806 9.40152C20.7586 9.44598 20.7364 9.44598 19.271 9.53488C17.8057 9.57933 15.8964 10.1572 14.5421 10.8684C12.2775 12.0686 10.9232 13.9356 10.9232 15.8026C10.9232 17.3584 11.9001 18.5808 13.5652 19.1364C14.2535 19.3809 14.6753 19.4254 15.9186 19.4254C16.0962 19.4254 16.296 19.4254 16.4292 19.4031C16.6512 19.3809 16.8067 19.3587 16.8511 19.3587C17.4283 19.3587 18.4274 20.3144 18.4274 20.8701C18.4274 21.3812 18.0055 21.5813 17.0731 21.5813C12.8326 21.5813 9.83534 19.3365 9.83534 16.2471C9.83534 14.9135 10.3904 13.6022 11.4783 12.4687C12.2997 11.5574 13.0324 11.024 14.4977 10.1794C11.4339 11.024 6.57169 13.0021 4.97317 14.0467C4.59574 14.2912 4.46253 14.3357 4.30712 14.3357C3.72988 14.3357 2.81961 13.4466 2.81961 12.9132C2.81961 12.5354 2.99722 12.3798 3.53006 12.2242C4.90657 11.8019 7.32655 9.93494 11.012 6.37881C13.9648 3.57836 15.2747 2.11145 15.2747 1.68916C15.2747 1.4669 15.1193 1.33355 14.8973 1.33355C14.6087 1.33355 14.3423 1.42245 11.9889 2.35594C10.4348 2.97826 9.50231 3.40055 8.76966 3.84507C8.39223 4.06733 8.21462 4.134 7.9704 4.134C7.43756 4.134 6.81591 3.60058 6.32747 2.6671C6.01665 2.13368 5.81684 1.51136 5.81684 1.11129C5.81684 0.977936 5.83904 0.844581 5.97225 0.600097C6.26087 1.15574 6.50509 1.48913 6.99352 1.84474L6.94912 1.86697Z" fill="#fff"/>
<path d="M5.72803 38.8285C5.68363 39.4064 5.63922 39.6509 5.63922 40.0287C5.63922 43.207 7.63737 44.6961 11.9223 44.6961C14.0315 44.6961 16.2294 44.3183 17.8057 43.7404C17.9611 43.6515 18.1166 43.6293 18.2498 43.6293C18.6494 43.6293 19.271 43.8738 19.7151 44.1627C20.0925 44.4517 20.2923 44.785 20.2923 45.0962C20.2923 45.4963 20.0037 45.7852 19.4487 45.9186C18.2276 46.2297 15.6078 46.452 13.2544 46.452C10.2794 46.452 8.39223 46.0741 7.06013 45.1629C5.72803 44.3183 4.83996 42.6291 4.83996 40.9622C4.83996 40.3177 4.97317 39.6064 5.26179 38.7174L5.70583 38.8285H5.72803ZM6.54949 28.2935C7.90379 29.2047 8.83626 29.4714 10.6346 29.4714C12.4329 29.4714 14.6309 29.1603 16.1628 28.6713C16.3404 28.6269 16.5624 28.5602 16.6512 28.5602C17.3395 28.5602 18.2498 29.3603 18.2498 29.9382C18.2498 30.3827 18.0944 30.4716 16.296 30.8717C15.2525 31.0939 15.0083 31.1828 12.4107 32.183C11.9815 32.346 11.2562 32.6497 10.235 33.0943C9.70213 33.3165 9.70213 33.3387 9.19149 33.5165L9.01388 33.1165C9.83534 32.6275 10.2572 32.3608 10.9676 32.0052C12.1813 31.3532 12.9288 30.9384 13.21 30.7605C12.6327 30.805 11.7003 30.8494 11.2118 30.8494C10.235 30.8494 8.99167 30.5605 8.17021 30.1382C7.48196 29.7604 7.06013 29.3825 6.30527 28.5824L6.57169 28.3157L6.54949 28.2935Z" fill="#fff"/>
<path d="M2.81961 64.1882C3.18964 64.1882 4.26272 63.2843 6.03885 61.4766C8.08141 59.3652 9.19149 58.654 10.2128 58.654C11.3228 58.654 12.1887 59.2096 14.8307 61.5878C18.4274 64.8105 20.8252 66.5664 22.6235 67.322C23.2007 67.5443 23.4228 67.7443 23.7114 68.3444C23.9778 68.8556 24.1554 69.5224 24.1554 69.9447C24.1554 70.2558 23.9112 70.5003 23.6226 70.5003C23.2451 70.5003 22.2683 69.9891 21.2248 69.3001C19.4487 68.0777 16.9399 65.7884 14.1425 62.788C11.7225 60.232 10.9454 59.6097 10.0796 59.6097C9.3025 59.6097 8.56984 60.2764 7.23774 62.0545C6.46068 63.0769 6.32747 63.2992 5.72803 64.4105C5.3284 65.1217 5.3062 65.2106 5.23959 65.3662C4.97317 65.944 4.97317 65.9885 4.79556 66.1441C4.61795 66.2774 4.41813 66.3663 4.21832 66.3663C3.04163 66.3663 0.976873 64.3882 0.976873 63.2992C0.976873 63.2992 1.01388 63.1732 1.08788 62.9213C1.59852 63.677 2.33117 64.2104 2.84181 64.2104L2.81961 64.1882Z" fill="#fff"/>
<path d="M4.35153 90.4369C2.57539 92.1927 1.90934 92.7039 0.244218 93.7263L0 93.3707C1.68733 91.926 2.79741 90.6147 4.44033 88.1921C5.61702 86.5029 6.17206 85.4805 6.7271 84.0803C7.30435 84.3248 7.74838 84.5026 8.0148 84.6137C9.16929 85.0583 9.3913 85.1916 9.3913 85.4139C9.3913 85.6583 9.03608 85.7917 8.37003 85.7917C8.34783 85.7917 8.25902 85.7917 8.19241 85.7695C7.01573 87.4142 6.34968 88.281 5.23959 89.5034C6.6827 89.8146 6.99352 89.9257 6.99352 90.1702C6.99352 90.348 6.88252 90.4147 6.14986 90.6592V95.2155C6.14986 96.1638 6.15726 97.8011 6.17206 100.127V102.083C6.14986 102.305 6.08326 102.328 5.86124 102.372C5.48381 102.417 5.06198 102.483 4.77336 102.483C4.32932 102.483 4.19611 102.439 4.19611 102.239V102.105C4.24052 101.416 4.30712 99.2606 4.35153 95.6377V90.4369ZM0.555042 85.8806C1.93154 84.636 3.08603 83.3469 4.46253 81.4577C5.19519 80.4797 5.68363 79.7018 6.41628 78.3905C7.85939 79.0128 8.59204 79.3684 8.83626 79.5685C8.85846 79.5907 8.92507 79.6796 8.96947 79.8352C8.96947 79.9908 8.70305 80.1241 8.41443 80.1241C8.25902 80.1241 8.037 80.1019 7.79278 80.1019C5.55042 82.7912 3.48566 84.636 0.821462 86.214L0.555042 85.9028V85.8806ZM11.0342 87.8143C10.2794 87.8143 9.79093 87.8587 8.68085 87.9921L8.45883 86.9252C9.61332 87.1697 9.96855 87.1919 11.012 87.1919H20.914C21.6022 86.3474 21.8242 86.1029 22.5125 85.3027C23.5782 86.1918 23.8668 86.4807 24.8659 87.4364C24.9547 87.5475 24.9769 87.592 24.9769 87.6142C24.9769 87.7253 24.8437 87.792 24.7327 87.792H19.4043V93.1262C19.4043 95.5266 19.4043 96.8602 19.4487 100.216V100.461C19.4487 101.039 19.2044 101.394 18.605 101.772C18.05 102.083 17.4283 102.283 16.1184 102.528C16.074 101.683 15.852 101.35 15.2081 101.061C14.9417 100.95 14.5199 100.839 13.7428 100.75L11.9667 100.483V100.038C14.0092 100.172 14.8085 100.216 17.0287 100.283C17.4061 100.261 17.4727 100.194 17.4727 99.9051V87.8365H11.012L11.0342 87.8143ZM9.63552 80.2352C10.568 80.4131 11.2784 80.502 12.2997 80.502H19.2932C19.9149 79.7018 20.0925 79.4573 20.7364 78.7239C21.802 79.524 22.1129 79.7907 23.1785 80.7242C23.2229 80.8131 23.2673 80.8576 23.2673 80.902C23.2673 81.0132 23.1119 81.1243 22.9565 81.1243H12.2997C11.3451 81.1243 10.8566 81.1465 9.81314 81.3021L9.63552 80.2352Z" fill="#fff"/>
<path d="M3.9519 110.285C5.19519 111.196 6.08326 111.485 7.48196 111.485C8.70305 111.485 10.679 111.129 11.8557 110.685C11.234 109.529 10.1906 108.151 9.56892 107.706C9.21369 107.44 8.50324 107.262 7.52636 107.151C7.70398 106.706 7.88159 106.617 8.59204 106.462C9.01388 106.351 9.3469 106.328 9.81314 106.328C10.7456 106.328 11.3895 106.462 11.6337 106.684C11.8779 106.906 11.9001 106.973 11.9445 107.729C11.9593 108.084 12.3219 108.966 13.0324 110.373C15.4746 109.462 16.1184 109.151 16.8289 108.395C17.0509 108.218 17.2729 108.129 17.6725 108.129C18.716 108.129 19.2488 108.373 19.2488 108.818C19.2488 109.196 18.8936 109.396 17.5171 109.996C17.0953 110.173 15.7854 110.64 13.6096 111.329C13.7872 111.626 13.9796 111.952 14.1869 112.307C14.3423 112.574 14.7641 113.33 15.4968 114.485C17.6059 113.663 18.1166 113.441 18.8048 113.018C18.2498 112.44 18.05 112.263 17.4283 111.774L17.6059 111.507C18.6272 112.018 19.3154 112.263 19.8483 112.263L20.3367 112.218C20.3367 112.218 20.4921 112.196 20.5587 112.196C20.9806 112.196 21.2692 112.463 21.2692 112.863C21.2692 113.507 19.7151 114.33 16.0962 115.619C16.9177 117.041 17.0509 117.263 17.2951 117.708C17.7095 118.434 18.1166 119.138 18.5162 119.819C18.827 120.331 18.9602 120.753 18.9602 121.264C18.9602 122.309 18.605 122.998 18.0722 122.998C17.8279 122.998 17.7613 122.953 17.3173 122.598C15.963 121.509 13.4764 120.753 11.1452 120.753C9.92414 120.753 8.72525 121.02 7.81499 121.509C6.7271 122.064 6.21647 122.753 6.21647 123.665C6.21647 125.309 7.9704 126.198 11.2562 126.198C12.5661 126.198 13.3432 126.109 14.6087 125.82C14.7419 125.798 14.8529 125.776 14.9195 125.776C15.7188 125.776 16.6735 126.532 16.6735 127.198C16.6735 127.421 16.5402 127.598 16.2738 127.71C15.7632 127.932 14.1425 128.11 12.6327 128.11C10.5458 128.11 8.72525 127.821 7.52636 127.31C5.90564 126.598 4.95097 125.331 4.95097 123.953C4.95097 121.553 7.77058 119.953 11.9889 119.953C13.5652 119.953 15.0527 120.108 16.9843 120.531C16.6957 119.464 15.963 117.886 14.9861 115.997C13.21 116.619 10.9454 117.019 9.3247 117.019C8.17021 117.019 7.32655 116.775 6.54949 116.241C6.01665 115.863 5.72803 115.485 5.26179 114.641L5.57262 114.396C6.41628 115.552 7.30435 115.974 8.72525 115.974C10.2794 115.974 12.2109 115.619 14.4311 114.952C13.876 113.907 13.1878 112.707 12.5661 111.751C10.79 112.307 9.03608 112.596 7.61517 112.596C6.19426 112.596 4.90657 111.952 3.72988 110.64L3.9519 110.351V110.285Z" fill="#fff"/>
<path d="M15.8964 134.933C16.9621 135.355 18.4274 135.755 18.9158 135.755C19.0268 135.755 19.0712 135.755 19.1822 135.733H19.3377C20.0037 135.733 20.3811 136.022 20.3811 136.555C20.3811 136.956 19.9371 137.356 18.9158 137.934C17.9611 138.445 17.6059 138.6 15.0305 139.578C16.407 141.556 17.8723 143.846 18.6716 145.335C19.0934 146.113 19.2488 146.668 19.2488 147.335C19.2488 148.38 19.0712 148.757 18.5384 148.757C18.2498 148.757 18.0944 148.669 17.7169 148.313C17.1841 147.802 16.518 147.335 15.9408 147.068C14.5865 146.424 12.8326 146.046 11.123 146.046C8.0592 146.046 6.14986 147.246 6.14986 149.158C6.14986 150.313 6.92692 151.291 8.23682 151.847C9.16929 152.225 10.5014 152.425 11.9445 152.425C12.9658 152.425 13.5652 152.38 14.2535 152.247C14.3867 152.225 14.4977 152.202 14.5643 152.202C15.2525 152.202 16.2072 153.047 16.2072 153.647C16.2072 154.314 15.7632 154.469 13.8982 154.469C11.9001 154.469 10.0574 154.225 8.68085 153.758C6.28307 152.958 4.86216 151.336 4.86216 149.424C4.86216 146.757 7.50416 145.157 11.8557 145.157C13.6318 145.157 15.63 145.424 17.0731 145.846C16.4958 144.001 15.3636 142.001 13.876 139.934C11.9667 140.512 10.235 140.823 8.48104 140.823C6.46068 140.823 4.92877 140.112 3.57447 138.467L3.86309 138.2C5.3062 139.267 6.43848 139.667 8.12581 139.667C9.54672 139.667 11.2784 139.378 13.0546 138.845C11.9445 137.378 10.4126 135.978 9.3469 135.378C8.52544 134.933 8.32562 134.711 8.32562 134.333C8.32562 133.711 8.99167 133.355 10.1462 133.355C11.1008 133.355 12.0555 133.511 13.2544 133.911L13.1212 134.311C12.4995 134.222 12.0999 134.2 11.9223 134.2C11.3673 134.2 11.1008 134.311 11.1008 134.488C11.1008 134.622 11.3673 134.977 12.1887 135.911C12.4773 136.267 13.1656 137.111 14.2313 138.467C14.4681 138.363 15.0231 138.134 15.8964 137.778C16.518 137.511 17.0065 137.267 17.8501 136.8C17.1619 136.244 17.1397 136.222 15.6966 135.244L15.8742 134.955L15.8964 134.933Z" fill="#fff"/>
<path d="M6.12766 167.894C6.34968 168.116 6.6605 168.205 6.97132 168.205C7.61517 168.205 8.08141 168.072 11.5449 166.96C13.543 166.316 13.6984 166.271 14.0537 166.027C14.2979 165.871 14.3645 165.849 14.4977 165.849C15.2081 165.849 16.6735 167.338 16.6735 168.094C16.6735 168.405 16.5624 168.494 15.8964 168.761C15.4746 168.939 15.2081 169.139 14.4089 169.828C13.4986 170.583 10.7012 173.317 9.08048 175.073C10.3682 174.406 11.2118 174.139 12.0555 174.139C12.7216 174.139 13.3432 174.384 13.8094 174.806C14.3867 175.34 14.5865 175.829 15.0083 177.584C15.3636 179.14 15.8298 179.451 17.6947 179.451C18.2498 179.451 18.8714 179.407 19.3377 179.34C19.5893 179.311 19.9001 179.214 20.2701 179.051C20.4033 179.007 20.5143 178.962 20.6253 178.962C20.914 178.962 21.4246 179.207 21.913 179.585C22.4015 179.963 22.5791 180.207 22.5791 180.518C22.5791 181.14 21.7798 181.341 19.4709 181.341C17.4505 181.341 16.1628 181.096 15.1859 180.496C14.4089 180.051 13.9648 179.407 13.6984 178.407C13.6244 178.125 13.506 177.444 13.3432 176.362C13.21 175.384 12.6549 174.851 11.7447 174.851C10.5458 174.851 8.92507 175.806 7.25994 177.495C6.43848 178.318 5.81684 179.051 4.50694 180.785C4.24052 181.14 4.0629 181.296 3.86309 181.296C3.41906 181.296 2.90842 180.318 2.90842 179.474C2.90842 179.162 3.01943 178.962 3.33025 178.718C4.81776 177.629 5.41721 177.118 7.19334 175.384C9.16929 173.473 12.3219 169.983 13.7206 168.183C14.1647 167.561 14.2757 167.405 14.2757 167.249C14.2757 167.138 14.1647 167.094 13.987 167.094C13.0768 167.094 10.2572 168.294 7.72618 169.761C7.21554 170.05 6.92692 170.161 6.6827 170.161C6.26087 170.161 5.83904 169.783 5.46161 169.072C5.19519 168.516 4.97317 167.783 4.97317 167.36C4.97317 166.983 5.08418 166.738 5.395 166.405C5.63922 167.338 5.77243 167.627 6.06105 167.916L6.12766 167.894ZM9.45791 159.026C10.7678 160.07 11.5005 160.404 12.9214 160.737C13.6762 160.915 13.9426 160.959 14.8751 161.026C15.3636 161.048 15.63 161.182 16.0296 161.582C16.4292 161.982 16.6735 162.426 16.6735 162.782C16.6735 163.049 16.4292 163.293 16.1406 163.293C16.0962 163.293 15.9186 163.293 15.7632 163.271C15.63 163.249 15.4746 163.249 15.2747 163.249C14.9491 163.249 14.2091 163.308 13.0546 163.426C12.8326 163.449 11.4561 163.693 8.88067 164.116L8.76966 163.76C10.8122 163.093 12.8992 162.449 13.5652 162.271C11.2562 161.493 10.3238 160.848 9.19149 159.27L9.45791 159.026Z" fill="#fff"/>
<path d="M8.32562 208.545C11.4117 206.433 12.7216 204.744 13.3876 201.877C12.766 202.255 12.2997 202.411 11.6781 202.411C9.81314 202.411 8.39223 200.766 8.39223 198.566C8.39223 196.21 9.85754 194.498 11.8335 194.498C12.3441 194.498 12.6327 194.587 13.321 194.943C13.321 194.498 13.3432 193.031 13.3432 192.165C13.3432 192.12 13.3432 191.876 13.321 191.631C11.234 191.809 8.76966 192.32 6.6161 192.965C5.95005 193.187 5.50601 193.365 4.88437 193.676C4.72895 193.72 4.44033 193.809 4.26272 193.809C3.77428 193.809 3.17484 193.431 2.55319 192.787C1.97595 192.142 1.48751 191.275 1.48751 190.831C1.48751 190.787 1.53191 190.653 1.62072 190.52C2.30897 191.431 3.13044 191.876 4.19612 191.876C4.72895 191.876 5.3062 191.831 6.48289 191.631C9.63552 191.12 10.5902 190.987 13.2988 190.698C13.2988 189.097 13.21 188.319 13.0102 187.742C12.7216 186.986 12.0777 186.63 10.7234 186.43C11.0342 186.03 11.234 185.941 11.9445 185.941C12.8548 185.941 13.765 186.075 14.5199 186.319C15.1637 186.541 15.5412 186.875 15.5412 187.253C15.5412 187.475 15.519 187.519 15.2747 187.964C14.9861 188.519 14.7863 189.275 14.6975 190.542C15.1563 190.483 15.7336 190.431 16.4292 190.386C18.9824 190.209 19.271 190.142 19.9593 189.897C20.6253 189.631 20.7364 189.609 20.9362 189.609C21.469 189.609 22.5347 190.053 23.2007 190.586C23.5116 190.831 23.6226 191.009 23.6226 191.298C23.6226 191.587 23.445 191.742 23.0453 191.742C22.8677 191.742 22.8011 191.742 21.6022 191.587C20.2257 191.409 19.0712 191.32 17.4949 191.32C16.518 191.32 15.741 191.342 14.6531 191.431C14.5421 192.453 14.4755 194.076 14.4755 195.054C14.4755 195.232 14.4755 195.565 14.4977 195.965C15.1637 197.321 15.3413 198.143 15.3413 199.521C15.3413 202.122 14.2979 204.567 12.4551 206.3C11.4339 207.256 10.1462 208.123 8.48104 208.834L8.25902 208.478L8.32562 208.545ZM11.7225 195.121C10.5236 195.121 9.59112 196.365 9.59112 197.988C9.59112 199.61 10.5014 200.899 11.7447 200.899C12.8992 200.899 13.4542 200.055 13.4542 198.388C13.4542 196.165 12.8992 195.121 11.7225 195.121Z" fill="#fff"/>
<path d="M6.54949 221.792C6.56429 221.51 6.57909 221.14 6.59389 220.68C6.6087 220.221 6.6383 219.91 6.6827 219.747C5.88344 220.28 4.46253 221.236 3.9963 221.592C3.48566 221.947 3.33025 222.014 3.08603 222.014C2.39778 222.014 1.11008 220.436 1.11008 219.591C1.11008 219.547 1.13228 219.324 1.19889 219.147C1.77613 219.991 2.37558 220.436 2.93062 220.436C3.48566 220.436 5.19519 219.725 6.77151 218.835C6.90472 217.724 6.94912 216.969 6.94912 216.013C6.94912 214.457 6.7049 214.012 5.43941 213.057C5.59482 212.946 5.66142 212.923 5.79463 212.923C6.21647 212.923 6.81591 213.19 7.50416 213.635C8.34783 214.213 8.88067 214.879 8.88067 215.391C8.88067 215.583 8.79186 215.946 8.61425 216.48C8.43663 216.991 8.23682 217.835 8.12581 218.591C8.70305 219.213 8.90287 219.413 8.90287 219.636C8.90287 219.791 8.88067 219.858 8.52544 220.414C8.21462 220.991 7.9482 221.503 7.68178 222.147C7.63737 222.592 7.63737 222.703 7.63737 223.125C10.235 220.636 11.123 219.88 12.2775 219.058C14.1425 217.724 15.3858 217.169 16.5624 217.169C17.3839 217.169 18.1388 217.524 18.6716 218.124C19.1822 218.702 19.3821 219.436 19.3821 220.48C19.3821 221.525 19.3599 221.68 18.8492 224.414C18.5384 226.148 18.3608 227.704 18.3608 228.793C18.3608 229.882 18.5384 230.415 19.0268 230.771C19.4043 231.037 19.8705 231.171 20.3811 231.171C21.7132 231.171 23.5782 230.482 25.3321 229.282L25.5541 229.593C23.6448 231.571 21.5578 232.66 19.6707 232.66C17.6503 232.66 16.5624 231.349 16.5624 228.926C16.5624 227.97 16.8067 226.259 17.2285 224.192C17.8501 221.347 17.8945 220.969 17.8945 219.969C17.8945 218.658 17.3173 217.924 16.2738 217.924C15.1193 217.924 13.7428 218.724 11.6115 220.614C10.235 221.836 8.96947 223.147 7.57077 224.814C7.54857 225.459 7.54857 225.792 7.54857 226.192C7.54857 227.637 7.63737 228.904 7.81499 230.971C7.90379 231.615 7.90379 231.815 7.90379 232.215C7.90379 233.727 7.39315 234.994 6.74931 234.994C6.46068 234.994 6.23867 234.771 6.10546 234.282C6.01665 234.016 5.72803 233.193 5.66142 232.993C5.3728 232.46 4.50694 231.371 3.30805 230.082C2.77521 231.371 2.6642 231.526 2.39778 231.526C2.15356 231.526 1.95375 231.304 1.77613 230.904C1.62072 230.482 1.48751 229.837 1.48751 229.437C1.48751 229.126 1.50971 229.059 1.93154 228.637C2.35338 228.237 2.77521 227.659 3.66327 226.259L6.57169 221.814L6.54949 221.792ZM4.92877 226.792C4.30712 227.97 4.0185 228.548 3.50786 229.615C5.08418 230.926 5.55042 231.304 6.32747 231.771C6.35708 231.089 6.38668 229.43 6.41628 226.792C6.41628 225.481 6.43848 224.881 6.52729 223.792C6.14986 224.57 6.12766 224.57 4.92877 226.792Z" fill="#fff"/>
<path d="M7.30435 251.263C5.81684 256.819 5.41721 258.509 5.41721 259.309V259.42C5.395 260.264 5.395 260.376 5.23959 260.598C5.12858 260.776 4.95097 260.887 4.72895 260.887C4.28492 260.887 3.90749 260.509 3.57447 259.687C3.04163 258.331 2.7308 256.308 2.7308 254.33C2.7308 251.885 3.01943 249.641 3.92969 245.462C4.28492 243.817 4.32932 243.506 4.32932 243.062C4.32932 242.262 4.10731 241.617 3.55227 240.706C4.17391 240.728 4.66235 241.084 5.41721 242.039C6.03885 242.817 6.37188 243.551 6.37188 244.062C6.37188 244.254 6.23127 244.647 5.95005 245.24C4.66235 247.907 3.92969 251.085 3.92969 253.908C3.92969 255.286 4.0407 256.153 4.35153 257.242C4.52914 256.819 4.90657 255.908 5.46161 254.552C5.75023 253.863 6.39408 252.33 6.90472 251.13L7.30435 251.263ZM9.96855 246.44C11.2562 247.262 12.0777 247.529 13.4098 247.529C14.3423 247.529 15.3636 247.396 16.4514 247.151V245.973C16.4514 242.995 16.4292 242.639 16.074 242.262C15.7632 241.906 15.1637 241.728 14.3201 241.639C14.6975 241.284 14.8973 241.217 15.6078 241.217C16.185 241.217 16.9177 241.328 17.4283 241.461C18.2054 241.706 18.605 242.017 18.605 242.417C18.605 242.595 18.605 242.639 18.3608 243.239C18.0722 243.951 17.9167 245.062 17.8057 246.818C18.9158 246.507 19.7817 246.129 20.2479 245.729C20.5143 245.462 20.6031 245.44 20.8252 245.44C21.136 245.44 21.7576 245.595 22.0685 245.795C22.2905 245.907 22.4237 246.084 22.4237 246.284C22.4237 246.862 20.4699 247.662 17.7169 248.196C17.7169 251.419 17.8057 253.397 18.0722 255.441C21.1582 256.264 22.4681 257.286 22.4681 258.864C22.4681 259.42 22.2239 259.842 21.9352 259.842C21.7132 259.842 21.5356 259.709 21.0028 259.175C20.0481 258.153 19.049 257.42 18.1166 257.042C18.1388 257.286 18.1388 257.486 18.1388 257.686C18.1388 259.598 16.5402 260.753 13.876 260.753C11.5671 260.753 9.92414 259.642 9.92414 258.042C9.92414 256.197 11.9001 255.019 14.9195 255.019C15.4302 255.019 15.8076 255.041 16.5402 255.108V254.664L16.4958 251.819V248.396C15.6744 248.529 14.8973 248.618 14.1203 248.618C12.1665 248.618 11.0564 248.129 9.72433 246.751L9.96855 246.462V246.44ZM14.0315 256.175C11.9223 256.175 10.6124 256.864 10.6124 258.02C10.6124 258.975 11.6337 259.598 13.21 259.598C14.6975 259.598 15.7188 259.175 16.1406 258.353C16.407 257.909 16.4958 257.508 16.4958 256.508C15.741 256.286 15.0083 256.197 14.0092 256.197L14.0315 256.175ZM19.1156 239.217C20.1369 239.794 20.803 240.283 21.4246 240.861C22.3571 241.75 22.7345 242.35 22.7345 242.995C22.7345 243.64 22.4237 244.106 22.0018 244.106C21.765 244.106 21.3728 243.528 20.8252 242.373C20.3367 241.439 19.4931 240.261 18.7826 239.572L19.1378 239.194L19.1156 239.217ZM21.7576 237.683C22.7123 238.128 23.4672 238.594 24.2664 239.194C25.2877 239.994 25.6207 240.528 25.6207 241.284C25.6207 241.906 25.3543 242.35 24.9769 242.35C24.7327 242.35 24.5772 242.217 24.3552 241.839C23.445 240.15 22.9121 239.461 21.4468 238.061L21.7354 237.683H21.7576Z" fill="#fff"/>
<path d="M25.0213 268.932C25.0213 270.822 23.4672 272.378 21.58 272.378C19.6929 272.378 18.1388 270.822 18.1388 268.932C18.1388 267.043 19.6929 265.488 21.58 265.488C23.4672 265.488 25.0213 266.999 25.0213 268.932ZM19.0046 268.932C19.0046 270.355 20.1813 271.511 21.58 271.511C22.9787 271.511 24.1554 270.355 24.1554 268.932C24.1554 267.51 23.0009 266.354 21.58 266.354C20.1591 266.354 19.0046 267.51 19.0046 268.932Z" fill="#fff"/>
</g></svg>