<svg width="30" height="233" viewBox="0 0 30 233" fill="none" xmlns="http://www.w3.org/2000/svg">
<path d="M4.47895 4.33659C5.74224 5.7779 6.8524 6.23306 9.02169 6.23306C9.6342 6.23306 10.0298 6.19513 10.8975 6.0687C11.0889 4.62738 11.2548 3.04699 11.2548 2.50334C11.2548 1.34017 10.7316 0.834446 9.1493 0.354007C9.50659 0.0632156 9.67248 0 10.0936 0C10.8082 0 12.0459 0.316078 12.9137 0.733301C13.7303 1.15052 14.1131 1.54246 14.1131 2.04818C14.1131 2.24205 13.9728 2.52019 13.692 2.88263C13.2965 3.42628 13.0795 4.0458 12.684 5.7779C15.772 5.13311 17.6861 4.3998 18.7835 3.4895C19.1408 3.17342 19.2684 3.13549 19.5874 3.13549C20.0468 3.13549 20.7614 3.26192 21.1187 3.38836C21.4377 3.51479 21.6419 3.78029 21.6419 4.09637C21.6419 4.67795 20.9911 5.05725 18.8473 5.80319C17.2267 6.34684 14.7256 6.92843 12.3267 7.30772C12.0332 8.74904 11.778 10.7087 11.7142 12.1627C13.5644 11.5558 15.1467 11.2271 16.9077 11.1386V10.9489C16.9077 10.3421 16.6525 9.88692 15.8741 9.1789C16.04 9.14097 16.1676 9.11569 16.2314 9.11569C17.0736 9.11569 18.0179 9.98806 18.3114 11.0501C21.1952 11.3662 22.9817 12.011 24.6023 13.3258C26.057 14.5775 26.8099 16.2464 26.8099 18.4084C26.8099 23.2886 21.7822 26.9551 14.1642 27.5999L14.0621 27.0816C20.6465 25.4759 24.3088 22.1255 24.3088 17.6624C24.3088 15.7028 23.4666 14.0971 21.9353 13.0983C21.0293 12.5167 19.9192 12.2006 18.171 11.973C17.6861 13.6166 17.1629 14.7039 16.1293 16.3728C14.9936 18.1429 14.0238 19.3313 12.6584 20.5451C12.9392 21.0845 13.2071 21.5354 13.4624 21.8979C13.692 22.2519 13.8197 22.6691 13.8197 23.2507C13.8197 24.1231 13.5262 24.7299 13.0795 24.7299C12.5308 24.7299 11.9821 23.8576 11.2037 21.8979C9.12378 23.7564 6.89068 24.9575 5.58911 24.9575C4.81072 24.9575 4.45342 24.6035 4.03233 23.4783C3.80264 22.9346 3.73883 22.8082 3.41982 22.2519C2.93492 21.4807 2.80732 21.0255 2.80732 20.3175C2.80732 18.6486 3.8154 16.9797 5.85708 15.2729C7.05657 14.312 8.31986 13.5408 10.2339 12.7063C10.2595 12.386 10.3233 11.5937 10.4254 10.3294C10.4636 9.78577 10.5274 9.2674 10.7188 7.47208C10.1063 7.51001 9.81284 7.5353 9.48107 7.5353C6.9162 7.5353 5.3977 6.70085 4.05785 4.57681L4.47895 4.32395V4.33659ZM5.61463 17.8268C4.93832 18.8509 4.60655 19.8497 4.60655 20.8485C4.60655 22.037 5.09145 22.8082 5.84432 22.8082C6.87792 22.8082 8.89409 21.7209 10.6806 20.2037C10.285 18.1176 10.1957 17.0556 10.1957 15.0327V13.8695C7.7584 15.2855 6.62271 16.2464 5.62739 17.8268H5.61463ZM11.6504 14.2614C11.6504 15.9935 11.8162 17.5992 12.1097 18.952C14.6363 16.3475 15.8103 14.6407 16.7546 12.011C14.9043 12.1753 13.6665 12.4661 11.6631 13.2373V14.2614H11.6504Z" fill="white"/>
<path d="M2.59039 37.9926C4.14717 39.4339 5.05317 39.8511 6.67376 39.8511C7.51595 39.8511 8.39643 39.7247 9.62144 39.4718C10.4381 37.3857 10.7954 36.0329 10.7954 34.9076C10.7954 33.8456 10.2722 33.2008 8.71544 32.4296C9.07273 32.2399 9.23862 32.202 9.49383 32.202C10.1446 32.202 11.1527 32.4928 12.0842 32.9353C13.1816 33.479 13.6155 33.833 13.6155 34.2881C13.6155 34.541 13.5517 34.7433 13.2965 35.1226C13.1689 35.3754 12.4926 36.703 11.3186 39.0799C13.7176 38.2454 14.0111 38.0811 14.9171 37.3098C15.1723 37.0823 15.2744 37.057 15.5934 37.057C16.8567 37.057 17.8009 37.4742 17.8009 38.0179C17.8009 38.8523 15.7848 39.6615 10.6295 40.8499C10.336 41.4947 9.78732 42.8096 8.90685 44.744C7.93705 46.9565 5.43598 52.3551 5.14249 52.9114C4.65759 53.7838 4.3641 54.0746 3.96852 54.0746C3.41982 54.0746 2.96044 53.0758 2.96044 51.7989C2.96044 51.1541 3.02424 50.9644 3.31774 50.6357C4.03233 49.8645 4.41514 49.384 4.87452 48.7139C6.46959 46.3623 7.6308 44.1877 8.93237 41.166C8.21778 41.2671 7.92429 41.2924 7.41387 41.2924C6.2399 41.2924 5.37218 41.1028 4.55551 40.6223C3.58571 40.0787 2.83284 39.3075 2.18205 38.2707L2.56487 38.0179L2.59039 37.9926ZM19.7533 39.7879C21.9864 39.9775 23.8111 40.5591 25.3041 41.5579C26.5674 42.3671 27.3458 43.328 27.3458 44.0613C27.3458 44.6049 27.0268 44.9969 26.5036 44.9969C26.2484 44.9969 26.0442 44.9336 25.7635 44.744C24.8575 44.2003 24.245 44.0739 22.5861 44.0739C19.9957 44.0739 19.1791 44.7819 19.1791 46.9945C19.1791 47.8668 19.345 49.2449 19.8299 52.5195C21.8077 53.1011 23.4921 53.8723 24.4364 54.6056C25.3169 55.2757 25.738 56.1102 25.738 57.1469C25.738 57.7917 25.4828 58.2342 25.0872 58.2342C24.7682 58.2342 24.6278 58.1331 23.9515 57.3998C22.7775 56.1481 21.7184 55.3769 20.0213 54.5677V55.1746C20.0213 56.4642 19.7661 57.1975 19.1153 57.9055C18.2348 58.7778 16.7163 59.2836 14.9043 59.2836C11.9821 59.2836 9.97873 57.9055 9.97873 55.8826C9.97873 53.6321 12.4415 52.0517 16.04 52.0517C16.7801 52.0517 17.1374 52.0896 17.9923 52.2161C17.8903 49.6748 17.8903 49.4219 17.8903 49.03C17.8903 46.4002 18.1455 45.4014 19.0259 44.4279C19.6767 43.7578 20.5827 43.3027 22.114 42.9234C22.5989 42.797 22.6627 42.759 23.8622 42.5062C22.9817 41.5706 21.9864 41.0648 19.6767 40.2936L19.7788 39.7752L19.7533 39.7879ZM18.0051 53.8723C16.997 53.5815 16.2569 53.4804 15.2105 53.4804C12.4543 53.4804 10.7699 54.416 10.7699 55.9205C10.7699 57.109 12.0077 57.817 14.0111 57.817C16.6397 57.817 18.0051 56.755 18.0051 54.7321V53.8597V53.8723Z" fill="white"/>
<path d="M1.8758 71.5221C3.20289 72.8749 4.04509 73.2921 5.44875 73.2921C6.71204 73.2921 8.07741 73.1025 9.5704 72.6853C10.2212 70.5992 10.6678 68.3487 10.6678 67.2487C10.6678 66.2499 10.1829 65.8327 8.37091 65.2258C8.792 64.9983 8.95789 64.935 9.37899 64.935C10.1191 64.935 11.191 65.1626 12.1735 65.5419C13.1433 65.8959 13.6282 66.3511 13.6282 66.8315C13.6282 66.9832 13.4964 67.2403 13.2327 67.6027C12.8116 68.2096 12.097 69.9164 11.2803 72.2048C13.0923 71.56 14.2663 70.9532 15.0447 70.2452C15.5678 69.7647 15.6954 69.7015 15.9507 69.7015C16.3718 69.7015 17.1501 69.8659 17.6733 70.0555C18.0306 70.1819 18.1965 70.3716 18.1965 70.6371C18.1965 71.1807 17.6733 71.598 16.3207 72.2175C14.866 72.8623 12.684 73.5703 10.6423 74.076C10.3786 74.8009 9.92344 76.1621 9.2769 78.1597C8.84305 79.4493 8.03063 81.8389 6.83964 85.3284C5.53807 89.1593 5.11697 89.9558 4.44066 89.9558C4.12165 89.9558 3.89196 89.7661 3.70055 89.311C3.44534 88.7926 3.24117 87.9961 3.24117 87.4524C3.24117 86.9341 3.27946 86.8456 3.95576 85.872C5.57635 83.5204 6.83964 80.7263 9.04721 74.3668C7.80944 74.5944 6.87792 74.6829 5.93365 74.6829C3.95576 74.6829 2.69247 73.8484 1.49298 71.7876L1.8758 71.5348V71.5221ZM14.8277 82.6101C14.7895 83.0906 14.7895 83.4825 14.7895 83.6089C14.7895 85.4422 15.6699 86.8203 17.2522 87.503C18.1327 87.8949 19.4598 88.1099 20.7231 88.1099C22.0502 88.1099 22.8031 88.0087 23.8367 87.6294C24.0664 87.5283 24.2578 87.503 24.3854 87.503C24.7427 87.503 25.4828 87.857 26.0442 88.2742C26.4271 88.5903 26.6312 88.8811 26.6312 89.1719C26.6312 89.8799 25.3679 90.2339 22.8031 90.2339C20.2382 90.2339 18.2348 89.8799 16.8056 89.2098C15.0574 88.3754 14.0493 86.7065 14.0493 84.5445C14.0493 83.8365 14.1131 83.2929 14.3428 82.5216L14.8277 82.6228V82.6101ZM15.6954 76.6679C18.0306 75.2898 20.6848 74.5185 23.2242 74.5185C23.9005 74.5185 24.7427 74.7461 25.2658 75.1001C25.5849 75.2898 25.789 75.6438 25.789 75.9978C25.789 76.5161 25.4955 76.7058 24.5513 76.7311C23.3518 76.7943 22.9562 76.8954 22.0502 77.3759C21.3994 77.7299 21.3739 77.7299 20.2637 78.4632C19.8554 78.7245 19.4768 78.9478 19.128 79.1333L18.9366 78.8425C19.1918 78.5812 19.7108 78.1007 20.4934 77.4012C20.7869 77.1483 21.0804 76.8828 22.0885 75.8966C19.9447 75.8966 18.222 76.2506 15.8869 77.0851L15.6954 76.6679Z" fill="white"/>
<path d="M8.792 110.678C8.20502 112.701 7.29902 116.203 6.91621 117.783C6.59719 119.199 6.49511 119.718 6.49511 120.514C6.45683 121.538 6.43131 121.677 6.26542 121.93C6.09953 122.158 5.90812 122.284 5.65291 122.284C5.10421 122.284 4.64483 121.829 4.26202 120.843C3.61123 119.199 3.22841 116.759 3.22841 114.382C3.22841 111.424 3.58571 108.731 4.68311 103.674C5.10421 101.676 5.16801 101.322 5.16801 100.778C5.16801 99.8174 4.9128 99.0462 4.22373 97.9462C4.96384 97.9842 5.58911 98.4014 6.49511 99.5519C7.23522 100.487 7.66908 101.385 7.66908 101.992C7.66908 102.228 7.49468 102.7 7.1459 103.408C5.58911 106.619 4.68311 110.45 4.68311 113.889C4.68311 115.533 4.81072 116.557 5.20629 117.872L6.57167 114.66L8.31986 110.513L8.80476 110.678H8.792ZM12.0332 104.862C13.59 105.861 14.598 106.177 16.2186 106.177C17.3543 106.177 18.5921 106.013 19.9192 105.722V104.306C19.9192 100.702 19.8809 100.285 19.4598 99.8427C19.077 99.4255 18.3624 99.1979 17.316 99.1094C17.7754 98.6922 18.0306 98.591 18.8728 98.591C19.5874 98.591 20.4679 98.7175 21.0804 98.8818C22.0247 99.1726 22.5096 99.5519 22.5096 100.045C22.5096 100.273 22.5096 100.298 22.2161 101.044C21.8588 101.979 21.6674 103.13 21.5398 105.355C23.0328 104.938 23.977 104.521 24.5257 104.04C24.8447 103.724 24.9468 103.686 25.2403 103.686C25.6231 103.686 26.376 103.876 26.7588 104.103C27.014 104.23 27.1799 104.457 27.1799 104.685C27.1799 105.393 24.8065 106.354 21.4377 106.999C21.4377 111.272 21.5398 113.042 21.8588 115.735C25.6231 116.734 27.2054 117.986 27.2054 119.844C27.2054 120.514 26.912 121.033 26.5547 121.033C26.2994 121.033 26.0698 120.868 25.419 120.223C23.9898 118.782 23.1859 118.2 21.9098 117.657C21.9481 117.948 21.9481 118.2 21.9481 118.428C21.9481 120.742 19.9957 122.12 16.7546 122.12C13.9345 122.12 11.9566 120.767 11.9566 118.845C11.9566 116.633 14.3556 115.217 18.0561 115.217C18.6687 115.217 19.128 115.255 20.034 115.318V114.774L19.9702 111.335L19.9319 107.226C18.9621 107.416 18.0179 107.479 17.0736 107.479C14.7001 107.479 13.3475 106.898 11.7269 105.229L12.0204 104.875L12.0332 104.862ZM16.997 116.595C14.4322 116.595 12.8499 117.429 12.8499 118.845C12.8499 119.971 14.1131 120.742 16.0272 120.742C17.8137 120.742 19.077 120.223 19.6002 119.237C19.9192 118.656 20.0213 118.175 20.0213 116.987C19.1153 116.734 18.2093 116.595 17.0098 116.595H16.997Z" fill="white"/>
<path d="M0 156.459C3.53467 155.852 5.67843 155.169 9.2769 153.538C10.9358 152.805 12.1353 152.097 13.692 151.06C12.3011 149.834 11.6759 149.126 10.2467 146.913C6.90344 150.188 4.98937 151.54 1.07188 153.374L0.816674 152.982C4.51723 150.504 6.43131 148.809 8.792 145.939C10.2212 144.233 11.1272 142.918 11.6121 141.894C13.8452 142.501 14.598 142.791 14.598 143.082C14.598 143.183 14.5342 143.272 14.4322 143.335C14.3301 143.398 13.8835 143.525 13.0413 143.689C12.5564 144.359 12.4288 144.561 11.9056 145.168H19.4343C20.0213 144.625 20.251 144.435 20.8252 143.853C21.795 144.625 22.0885 144.877 22.9689 145.56C23.1986 145.75 23.2624 145.851 23.2624 145.952C23.2624 146.18 22.9434 146.268 21.7057 146.559C19.4726 148.911 18.4645 149.808 16.4483 151.288C19.8171 152.893 22.9051 153.475 29.8469 153.728V154.082C28.5198 154.335 27.9711 154.916 27.5117 156.395C24.6278 156.142 22.6755 155.725 20.1489 154.726C18.1965 153.993 16.5759 153.146 15.1212 152.185C13.1689 153.374 11.7142 154.12 9.54487 154.891C5.97193 156.206 3.80264 156.661 0.0382816 156.952L0 156.471V156.459ZM12.8116 132.222C12.684 135.142 12.5564 136.268 12.0715 137.658C11.2931 139.871 9.6342 141.906 7.40111 143.373C6.49511 143.98 5.61463 144.435 3.80264 145.168L3.61123 144.776C6.04849 143.36 7.04381 142.564 8.1795 141.148C9.92769 138.96 10.553 136.836 10.7444 132.209H2.98596C2.27137 132.209 1.68439 132.272 0.459379 132.437L0.140366 131.084C1.08464 131.337 2.07997 131.476 2.99872 131.476H13.4496V129.263C13.4496 128.72 13.4113 128.302 13.3858 127.531C16.627 127.885 17.0481 127.986 17.0481 128.34C17.0481 128.593 16.6652 128.821 15.5551 129.276V131.488H24.2195C24.9979 130.426 25.2531 130.11 26.1718 129.112C27.4989 130.3 27.9583 130.692 29.2854 131.88C29.3237 131.944 29.3492 132.007 29.3492 132.045C29.3492 132.146 29.2471 132.234 29.1578 132.234H19.4598V136.9C19.4598 137.153 19.4598 137.835 19.4981 138.796C19.4981 139.087 19.5364 139.529 19.5364 140.086C19.5364 140.794 19.2812 141.148 18.5666 141.464C17.852 141.78 17.0736 141.982 15.9124 142.109C15.721 141.401 15.5168 141.148 14.9681 140.819C14.4449 140.566 13.8324 140.364 12.8243 140.237V139.719C15.2616 139.909 15.3892 139.909 16.946 139.972C17.265 139.972 17.3671 139.846 17.3671 139.428V132.234H12.8626L12.8116 132.222ZM0.127605 142.64C1.74819 141.16 2.8456 139.782 4.33858 137.342C5.14249 135.989 5.47427 135.319 5.79328 134.384C8.77924 135.446 8.90685 135.509 8.90685 135.762C8.90685 136.078 8.42195 136.242 7.24798 136.343C4.93832 139.719 2.93492 141.679 0.408337 142.994L0.114845 142.64H0.127605ZM11.2293 145.914C10.9996 146.142 10.9358 146.205 10.6806 146.458C12.2373 148.481 12.9519 149.163 14.7639 150.314C16.4866 149.024 17.4819 148.064 19.4343 145.914H11.2293ZM21.3484 134.662C23.1986 135.471 24.9468 136.432 26.2739 137.367C27.9328 138.531 28.507 139.163 28.507 139.909C28.507 140.844 27.8307 142.159 27.3713 142.159C27.1799 142.159 26.9502 141.932 26.5547 141.287C25.2276 139.074 23.4411 136.976 21.1059 134.953L21.3356 134.662H21.3484Z" fill="white"/>
<path d="M15.7975 185.904C21.6419 183.881 24.8192 180.443 24.8192 176.194C24.8192 173.046 22.8031 170.897 19.8937 170.897C16.9843 170.897 13.3092 172.566 9.86389 175.423C9.90217 178.028 10.0553 181.568 10.2212 182.819C10.3233 183.629 10.3233 183.755 10.3233 184.071C10.3233 185.133 10.0681 186.258 9.67248 187.055C9.48107 187.472 9.18758 187.7 8.85581 187.7C8.6006 187.7 8.3071 187.535 8.1795 187.282C8.15398 187.198 8.04764 186.899 7.86048 186.385C7.56699 185.512 7.40111 185.26 6.7248 184.45C5.84432 183.426 5.2701 182.845 4.26202 181.972C4.09613 182.263 4.00681 182.453 3.943 182.617C3.48362 183.49 3.26669 183.78 2.99872 183.78C2.53934 183.78 2.02892 182.554 2.02892 181.505C2.02892 181.087 2.15653 180.834 2.64143 180.316C3.12633 179.836 3.54743 179.355 4.03233 178.736C4.97661 177.547 8.02637 173.274 8.83028 171.959C8.89409 170.796 8.93237 170.025 8.95789 169.607C8.0051 170.147 6.94598 170.821 5.78052 171.63C5.16801 172.085 4.77244 172.237 4.45342 172.237C3.90472 172.237 3.25393 171.82 2.73075 171.15C2.24585 170.543 1.91408 169.797 1.91408 169.38C1.91408 169.253 1.97788 169.089 2.07997 168.836C2.62867 169.86 3.31774 170.379 4.05785 170.379C4.73416 170.379 7.10761 169.443 9.0855 168.356C9.1493 167.749 9.25138 165.852 9.25138 165.144C9.25138 163.121 9.02169 162.666 7.3373 161.453C7.56699 161.326 7.6946 161.288 7.8222 161.288C8.47299 161.288 9.60868 161.769 10.4764 162.413C11.2803 162.995 11.6759 163.475 11.6759 163.918C11.6759 164.087 11.544 164.516 11.2803 165.208C10.9613 166.042 10.7571 166.788 10.6295 167.875C11.4079 168.52 11.8035 169.001 11.8035 169.317C11.8035 169.468 11.6206 169.746 11.2548 170.151C10.9358 170.568 10.5785 171.15 10.0808 172.275C10.017 172.73 10.017 172.857 9.97873 173.337C11.8545 172.313 12.3139 172.085 13.322 171.605C15.6316 170.48 17.8647 169.936 19.9447 169.936C24.194 169.936 27.3075 172.768 27.3075 176.624C27.3075 179.81 25.4573 182.503 21.9609 184.438C20.1106 185.437 18.4262 185.98 15.9634 186.397L15.7975 185.917V185.904ZM6.45683 178.281C5.39345 180.034 4.76818 181.083 4.58103 181.429C6.03573 182.491 6.07401 182.516 8.47299 183.995C8.47299 181.934 8.6006 177.143 8.70268 174.45C6.7886 177.724 6.75032 177.788 6.46959 178.268L6.45683 178.281Z" fill="white"/>
<path d="M17.3288 196.512C16.0655 196.904 13.0157 198.092 10.7826 199.053C10.1319 199.344 9.71076 199.47 9.45555 199.47C8.86857 199.47 8.21778 199.015 7.60527 198.118C7.01829 197.245 6.69928 196.411 6.69928 195.741C6.69928 195.45 6.76308 195.222 6.99277 194.906C7.47767 196.411 8.35815 197.258 9.43003 197.258C10.2722 197.258 13.3603 196.55 15.5551 195.88C16.8184 195.463 16.8822 195.463 17.5712 194.881C17.6989 194.78 17.8647 194.717 18.0306 194.717C18.4517 194.717 18.9749 195.033 19.7788 195.842C20.5189 196.55 20.7486 196.904 20.7486 197.283C20.7486 197.511 20.5827 197.7 20.1999 197.89C19.2556 198.371 18.9366 198.623 17.5074 200.039C15.4658 202.062 14.2663 203.251 12.735 204.856C10.6593 207.065 9.396 208.392 8.94513 208.839L9.00893 208.902C12.4798 206.753 15.1085 205.843 17.8392 205.843C21.9864 205.843 24.7809 208.257 24.7809 211.848C24.7809 216.45 20.4679 219.851 14.598 219.851C11.4207 219.851 9.37899 218.599 9.37899 216.64C9.37899 215.059 10.872 213.909 12.8881 213.909C14.4832 213.909 15.9379 214.49 17.0098 215.489C17.5968 216.033 17.9541 216.551 18.439 217.487C20.9017 216.425 22.3692 214.212 22.3692 211.481C22.3692 209.711 21.6546 208.27 20.353 207.499C19.6767 207.107 18.4007 206.854 17.1374 206.854C13.96 206.854 9.51935 209.421 6.82688 212.834C6.27818 213.504 6.04849 213.707 5.72948 213.707C5.24458 213.707 4.65759 212.581 4.65759 211.62C4.65759 211.229 4.88728 210.887 5.3339 210.495C6.57167 209.56 7.08209 209.054 9.83837 206.032C13.7941 201.632 15.0319 200.216 17.5968 196.942C17.7669 196.706 17.8732 196.533 17.9158 196.423C17.9158 196.423 17.852 196.36 17.8137 196.36C17.8137 196.36 17.7754 196.36 17.7754 196.398H17.6733C17.6733 196.398 17.6095 196.436 17.5074 196.461L17.3416 196.525L17.3288 196.512ZM12.3267 214.971C11.0889 214.971 10.285 215.616 10.285 216.615C10.285 217.803 11.7142 218.574 13.9855 218.574C14.866 218.574 15.2871 218.511 16.2824 218.283C15.6316 216.223 14.1387 214.971 12.3267 214.971Z" fill="white"/>
<path d="M30 228.853C30 231.141 28.1242 233 25.8145 233C23.5049 233 21.6291 231.141 21.6291 228.853C21.6291 226.565 23.5049 224.706 25.8145 224.706C28.1242 224.706 30 226.539 30 228.853ZM22.6755 228.853C22.6755 230.56 24.1046 231.976 25.8273 231.976C27.55 231.976 28.9792 230.598 28.9792 228.853C28.9792 227.108 27.5883 225.73 25.8273 225.73C24.0664 225.73 22.6755 227.108 22.6755 228.853Z" fill="white"/>
</svg>
