<svg width="148" height="325" viewBox="0 0 147.692 324.507" fill="none" xmlns="http://www.w3.org/2000/svg">
<g id="Vector">
<path d="M147.257 242.557C146.286 242.278 144.919 242.712 143.807 242.855C142.903 242.917 138.877 244.393 139.334 243.853C141.125 241.751 143.982 241.652 145.518 240.97C146.348 240.604 146.845 240.679 146.574 239.953C146.286 239.178 146.823 238.973 145.049 239.519C142.056 240.344 138.945 241.788 136.353 243.556C136.053 243.76 135.737 243.909 135.415 244.064C133.659 244.895 132.354 246.861 130.801 248.119C130.818 248.119 130.83 248.119 130.846 248.119C130.242 248.187 129.977 247.753 129.164 248.28C127.989 248.336 127.464 247.04 126.679 246.327C125.787 246.03 125.363 244.907 124.646 244.275C119.772 239.017 114.159 234.503 109.285 229.325C107.8 227.242 107.156 229.232 105.694 229.381C104.937 228.966 104.152 229.022 103.361 228.991C103.361 228.991 102.322 228.321 102.548 229.877C102.842 236.58 103.892 243.332 105.784 249.725C106.433 251.381 106.083 253.179 104.694 254.177C104.141 255.058 104.728 256.26 104.107 257.147C103.847 257.612 103.282 258.009 103.118 258.511C102.943 259.063 103.994 259.398 104.163 259.764C104.491 260.316 105.123 260.582 105.592 260.948C105.97 260.948 106.298 260.607 106.676 260.52C108.122 259.813 107.54 257.897 107.975 256.558C108.291 255.733 108.54 254.909 108.472 254.004C108.178 251.399 107.811 248.783 106.783 246.371C106.575 244.07 106.411 241.671 105.609 239.513C105.654 237.746 103.593 232.097 105.214 231.539C110.584 236.679 115.249 243.636 120.512 249.155C122.116 250.444 123.974 253.873 125.216 253.458C128.497 252.751 130.005 253.421 130.383 250.984C130.954 250.32 131.609 250.692 132.117 250.823C134.427 250.63 136.725 249.942 139.103 249.7C140.277 249.44 144.327 249.744 142.932 247.524C139.972 247.09 136.81 249.025 133.89 248.435C133.856 247.803 134.574 247.741 134.992 247.741C137.245 247.034 139.939 245.007 143.225 244.697C143.767 244.697 145.846 244.486 146.427 244.25C147.133 244.132 147.692 243.94 147.692 243.94C147.692 243.94 147.704 242.998 147.246 242.557H147.257ZM125.538 250.692C120.382 245.36 114.419 238.893 109.195 232.94C108.975 232.265 107.986 231.434 107.523 230.931C107.28 230.665 107.495 230.479 107.732 230.249C110.691 233.12 114.633 236.729 117.225 240.214C117.389 240.418 117.508 240.536 117.92 240.945C117.971 240.995 118.355 240.889 118.468 241.013C118.615 241.175 118.541 241.602 118.586 241.646C120.41 243.413 123.505 246.178 125.199 248.237C126.233 249.49 126.391 250.451 125.538 250.699V250.692ZM58.0758 282.569C57.2909 282.867 57.9403 285.453 57.0819 286.085C55.6023 286.81 56.1106 288.95 54.9755 289.96C54.5632 290.376 54.2187 290.94 53.5862 290.748C52.0107 291.796 50.3221 292.186 48.5206 291.424C47.4759 291.082 43.2856 290.047 44.5676 292.447C45.0928 292.298 45.4429 292.614 45.7479 293.042C46.5893 293.916 47.8543 293.575 48.8764 293.953C53.7557 296.613 59.0359 290.587 58.5333 285.167C58.1662 284.014 59.4707 283.102 58.0758 282.563V282.569ZM69.7092 236.115C69.9407 236.71 70.4433 236.797 70.6862 237.355C71.4711 238.384 72.386 236.933 71.4373 236.258C71.2565 235.594 71.8777 234.633 72.5554 234.925C72.9225 235.073 73.3291 235.706 73.7074 235.328C74.5094 234.98 74.0237 234.162 73.7357 233.542C73.2896 232.55 72.0641 232.419 71.697 231.396C70.6749 230.553 69.7431 228.743 68.4781 228.519C67.9529 228.829 66.8968 229.146 67.23 229.946C68.2691 231.905 68.7435 234.112 69.7092 236.115ZM76.2713 261.717C74.7127 263.813 73.2218 266.826 72.1206 269.567C72.0867 272.518 71.0081 274.341 71.2622 276.933C72.1488 277.286 72.3634 276.989 72.8773 276.902C74.5207 275.352 72.5724 267.638 79.9307 260.123C80.2357 259.813 80.5971 259.063 80.9981 259.652C81.2861 261.016 79.5976 261.748 79.4677 263.143C77.3161 266.801 76.3899 271.309 76.8134 275.612C77.6549 276.121 77.8638 275.581 78.4286 275.432C79.654 274.409 79.3152 270.571 79.4903 269.226C79.7049 266.9 82.5624 261.568 83.5563 259.838C84.0476 259.342 84.5615 259.075 85.1319 258.741C85.7022 258.579 86.171 257.563 86.7809 257.978C87.1988 258.579 86.3912 259.119 86.0411 259.503C85.3408 260.266 85.2222 261.314 84.9681 262.325C84.9116 262.56 84.8213 262.783 84.7196 262.994C83.6523 265.233 81.1393 272.593 83.1497 274.261C83.4377 274.502 83.6297 274.416 84.1267 274.403C85.691 274.366 84.2283 270.77 84.889 269.095C87.5941 263.645 86.1145 260.037 90.8074 256.57C91.9876 255.696 92.4112 256.769 91.5189 257.711C90.4855 260.26 88.108 267.167 88.9607 269.374C88.7235 269.709 88.4807 270.894 89.1076 271.259C89.1188 271.526 89.181 271.811 89.452 271.935C92.5693 272.704 91.022 266.231 92.1458 264.259C92.6484 259.317 93.1115 256.478 96.5394 254.134C97.5898 253.879 98.8095 254.121 99.7526 253.439C100.532 252.304 101.814 251.716 102.283 250.283C102.898 248.888 101.594 248.857 102.141 247.319C101.955 245.72 101.989 244.132 101.91 242.514C101.187 240.635 99.9785 238.583 98.9677 236.878C97.6688 236.847 98.2392 236.053 97.8269 235.514C95.1049 234.782 91.8408 234.695 89.0793 234.298C88.2096 233.492 86.9842 233.753 85.9564 233.3C85.1488 233.058 84.8608 232.103 83.9685 232.097C83.4151 232.234 80.9134 231.52 78.8521 230.2C76.085 228.42 73.4194 226.622 72.4199 226.052C71.8721 225.735 71.3921 226.579 72.5554 228.321C73.8091 229.195 74.6901 229.282 75.3565 230.435C75.4638 231.093 78.2027 232.643 79.6484 232.73C80.6141 233.616 81.3538 233.387 81.4442 233.436C81.5346 233.486 80.9698 233.802 80.3712 235.011C80.1905 235.377 78.9989 236.214 79.8178 236.549C81.0658 236.902 83.257 232.475 84.6575 236.295C85.3126 238.074 81.2183 236.797 79.9816 240.108C79.6936 240.524 79.2305 240.765 79.1966 240.04C78.9481 239.612 78.4455 239.581 78.101 239.302C76.8586 238.291 75.5598 240.046 74.3174 240.214C71.5728 242.161 70.336 240.455 68.8226 237.814C67.0211 234.54 66.3265 230.721 64.8921 227.397C64.2822 225.89 63.5311 224.377 62.8139 222.883C62.3847 222.43 61.8651 221.5 61.6957 220.936C61.8764 220.605 62.1607 220.428 62.5485 220.403C63.2939 220.552 64.237 221.786 65.1067 221.5C65.5133 221.476 66.9533 221.978 66.7274 221.06C66.2192 219.113 63.2092 218.915 61.8595 217.972C61.3174 217.588 60.4759 217.458 60.4759 217.458C60.4759 217.458 59.6062 217.817 59.273 218.4C59.4425 222.319 62.0571 225.841 63.1697 229.412C64.0958 231.992 64.5476 234.689 65.5641 237.169C65.6827 237.386 66.2135 237.628 66.2531 237.876C66.3095 238.217 65.7787 238.384 65.9651 238.719C66.863 239.618 67.2244 241.069 68.0828 242.061C68.5289 242.818 69.8617 242.34 70.641 242.582C71.5671 243.109 72.4989 243.928 73.6001 244.033C75.1193 244.138 75.3113 241.863 76.6158 241.522C77.1975 241.77 78.0728 242.291 78.7279 241.844C80.3995 241.255 79.7105 243.066 79.366 243.965C79.5411 244.684 78.7053 246.16 79.5637 246.457C80.5181 246.631 81.0715 245.918 81.1675 244.864C81.1393 244.411 81.1393 244.232 81.2804 244.052C81.3708 243.934 81.7379 244.188 81.8226 244.064C81.9186 243.928 82.0824 243.915 82.1727 243.773C82.489 243.258 82.76 242.694 82.9916 242.111C84.618 240.052 87.7183 238.62 90.0732 237.907C91.7956 238.384 94.4781 237.38 95.489 239.389C95.8899 240.703 97.5333 240.276 97.7987 241.547C98.3352 244.244 99.2331 247.927 97.0645 250.01C95.8109 251.219 93.8625 251.269 92.3942 251.895C91.1518 252.429 90.1636 253.29 88.7631 253.495C85.8604 254.89 82.5511 253.675 79.7952 255.107C78.9481 255.671 78.2083 256.434 77.3443 256.961C76.6271 257.401 75.9212 257.587 75.1306 257.773C74.244 257.984 74.0632 258.834 73.6623 258.976C72.7079 259.317 72.1375 257.966 71.217 257.78C70.2852 257.587 69.3195 257.643 68.3764 257.724C66.5072 257.873 64.5645 258.313 62.7122 257.817C61.8651 257.587 61.2778 256.887 60.5041 256.583C59.9846 256.378 59.0302 256.118 59.0302 256.118C59.0302 256.118 57.0875 257.482 56.1445 257.191C55.4894 256.992 55.6701 255.616 54.535 255.361C53.8291 255.2 53.0159 254.853 52.2366 254.785C51.2991 254.704 50.3391 254.735 49.4863 254.22C48.6223 253.7 47.9842 252.732 47.0354 252.379C46.29 252.1 45.4147 252.379 44.9516 251.474C44.065 249.75 43.0089 248.77 41.1623 248.547C40.7048 248.491 40.3039 249.186 39.9933 248.925C39.6488 248.64 40.1458 248.231 39.8521 247.902C39.1405 247.102 38.4685 246.321 37.7231 245.54C36.5202 243.45 34.7583 243.977 33.2109 242.762C32.0137 241.826 31.3699 239.99 29.6644 240.071C27.4168 238.732 26.4794 235.743 23.8026 234.894C21.1145 233.424 19.2057 230.262 16.2352 229.642C13.5584 228.78 11.853 224.253 8.91073 223.981C7.14314 223.143 5.08189 223.137 3.57407 221.742C2.65356 221.395 1.39987 220.893 0.473717 220.781C0.197001 221.091 0.355122 221.742 0.46242 222.189C2.17354 223.968 4.51152 224.632 6.58406 225.804C7.76434 226.455 9.37381 226.287 10.1644 227.639C11.4972 228.848 13.3947 230.287 14.6822 231.663C15.422 231.893 16.2974 231.886 16.9016 232.481C17.2348 233.126 17.5115 233.864 18.336 233.703C19.1888 234.057 24.4012 238.639 24.5875 238.837C28.0324 241.274 31.2796 243.841 34.5888 246.408C38.2313 246.16 38.4233 251.04 41.2131 252.546C42.9412 253.594 45.5332 253.098 46.6683 255.256C47.3855 256.453 45.2791 256.62 46.1432 257.736C46.7079 259.02 47.9785 257.166 48.3512 259.497C48.4981 260.409 48.4359 261.388 48.1479 262.263C47.3121 264.402 44.7935 265.065 43.3365 266.702C40.5298 267.459 37.8756 268.321 35.2383 269.517C33.6853 269.827 32.714 269.319 32.0702 268.389C31.8782 267.955 31.4772 266.541 31.545 266.026C30.8391 261.798 29.2578 257.68 27.3999 253.886C26.5415 251.281 25.3047 249.136 24.1979 246.588L21.651 243.146C21.651 243.146 21.6397 243.14 21.634 243.134C21.1992 242.557 20.7587 242.03 20.3126 241.571C19.8834 241.361 20.0189 241.162 20.3126 240.92C20.4425 240.815 19.9907 240.387 20.3408 240.065C20.657 239.773 21.0862 240.263 21.1879 240.083C21.3743 239.748 21.363 239.333 20.8378 238.794C19.6236 237.56 19.104 239.184 16.4611 240.455C15.439 240.945 12.7509 239.966 13.3608 241.416C13.4737 241.652 14.1062 242.161 13.7053 242.545C13.4398 242.836 12.8299 242.421 12.5306 242.526C8.74696 243.797 4.79388 247.654 1.1288 248.987C1.3434 247.902 0.366423 249.068 0.372071 249.291C0.377718 249.514 0.394659 250.066 0.468073 250.723C2.26955 251.995 4.43245 249.161 6.10969 248.764C7.60056 248.274 8.83167 248.838 9.97242 247.474C10.3056 246.972 10.5371 246.228 11.2092 246.228C15.4898 244.765 10.7856 249.272 10.684 250.953C10.3847 252.106 9.3851 252.881 9.52628 254.159C9.74088 256.05 8.82602 257.749 8.31777 258.338C7.89987 259.193 7.94505 259.875 7.80387 260.843C7.86034 261.748 9.12533 261.785 9.35122 260.929C10.0232 259.702 11.2713 257.488 11.5085 255.957C11.7739 254.214 12.6266 253.247 12.9203 251.858C12.9937 251.399 14.2587 248.101 14.5749 248.249C15.7439 248.646 14.0441 254.772 13.6488 255.938C13.9029 257.135 12.4403 261.345 12.4516 263.881C12.4572 265.474 12.7678 265.586 13.6657 265.567C15.2808 264.005 14.6145 262.114 15.1171 260.303C15.5971 257.079 16.5967 253.898 16.7265 250.581C16.6305 249.409 16.5402 247.921 17.1783 246.861C17.3252 245.589 17.1049 244.56 17.7374 243.407C18.8047 242.297 19.2622 243.518 19.6292 244.517C19.6631 244.579 19.6914 244.635 19.7252 244.69C20.081 245.428 20.5554 246.284 20.7756 246.916C21.9107 247.71 21.4872 248.994 22.7861 249.831C23.0515 250.829 23.4411 252.044 24.4068 252.41C26.5867 254.797 25.3669 258.648 27.3039 261.264C27.3999 262.213 27.6032 264.203 27.8178 265.102C28.1058 266.318 28.439 267.229 28.8343 268.11C29.1166 269.077 29.6136 270.305 30.1106 271.16C30.2122 271.607 30.2969 272.028 30.7826 272.115C32.6575 272.469 34.5663 272.289 36.3282 271.582C37.6497 271.458 38.6492 270.286 40.0102 270.286C41.7891 270.472 43.1162 268.618 44.7878 268.37C46.2617 266.752 48.1762 265.605 50.0454 264.551C51.1523 263.986 51.8751 261.983 53.1006 261.797C53.6427 262.083 53.1627 262.56 52.9933 262.914C52.8465 263.62 53.5354 264.117 53.8008 263.403C54.1397 263.124 54.5745 263.044 54.7778 262.573C55.8169 260.849 57.1497 262.046 55.7379 263.403C54.6931 265.078 54.4277 266.801 54.2413 268.848C54.2244 269.046 54.4446 269.778 54.3882 270.112C54.2978 270.416 53.8009 271.005 53.7783 271.179C53.4225 274.279 55.5063 276.958 54.3091 280.095C53.5524 281.645 53.4451 283.444 51.9147 284.516C50.7852 285.304 50.4915 286.984 48.899 286.724C45.7535 285.856 41.2583 285.446 38.3273 284.064C38.1184 283.927 37.8982 283.778 37.6666 283.623C36.2379 282.545 33.4424 281.924 32.1266 280.901C31.7483 280.814 30.1896 279.853 29.7322 279.587C29.2861 279.246 28.8512 279.289 28.3825 278.892H28.422L28.343 278.861C28.1679 278.712 27.9928 278.564 27.8065 278.415C24.6101 276.66 22.227 273.523 18.4038 274.967C18.1214 275.073 17.0146 274.974 16.8734 275.259C16.303 276.412 17.0484 276.201 16.0715 277.392C15.7326 277.553 15.8625 278.037 15.6253 278.371C15.3825 278.719 15.4277 280.56 15.5802 281.031C15.71 281.441 16.0319 281.577 16.3651 281.552C16.5063 281.726 16.7153 281.763 16.975 281.552C18.5224 280.554 18.641 280.263 20.1488 279.196C20.8039 278.378 22.6505 278.806 23.5428 278.973C24.469 279.178 24.5311 279.599 25.1127 280.287C28.1849 281.093 30.5962 283.71 33.4763 285.012C36.1193 287.362 40.0893 287.344 43.4551 287.84C45.81 289.136 48.6392 289.923 51.2596 289.892C52.5246 289.272 54.5237 288.943 54.5293 287.083C55.5797 285.223 56.2574 283.307 57.0085 281.292C57.3078 280.92 57.5732 280.318 57.353 280.114C56.9294 279.729 56.8108 279.295 56.8334 278.657C56.5962 274.168 55.8734 269.554 56.7826 265.115C57.2796 263.217 58.8439 262.504 60.4646 262.269C61.0802 262.039 61.6844 261.432 62.3564 261.804C63.1188 262.176 66.0272 260.154 65.8973 262.349C65.4003 263.955 64.1128 263.682 63.4238 265.586C63.0059 266.163 62.7969 266.919 62.2548 267.359C61.5376 267.936 62.3734 269.139 61.9216 269.84C61.7691 270.075 61.707 270.497 61.611 270.77C60.7978 273.082 60.4646 275.203 60.9446 277.714C61.7917 278.148 62.0741 278.117 62.379 277.968C63.3843 277.472 63.2882 275.525 63.5424 274.304C64.3669 270.497 64.8299 267.018 67.3373 264.241C68.2353 263.552 69.6922 260.452 70.6015 261.909C70.432 263.18 70.6014 263.329 70.1045 264.197C70.0085 264.371 70.3812 264.581 70.1949 264.904C69.9746 265.288 69.5962 265.028 69.4946 265.189C69.0936 265.815 68.2917 267.242 67.8851 268.01C66.671 270.949 65.6996 274.279 65.9989 277.708C66.5241 278.458 67.1792 278.216 67.8512 277.906C69.0428 277.063 68.32 273.839 68.5684 272.27C69.0993 268.866 75.1531 258.945 76.2826 261.686L76.2713 261.717ZM103.802 298.66C102.441 297.035 103.994 296.44 102.78 296.551C100.21 295.51 97.5672 294.697 94.9299 293.891C93.648 293.501 92.3547 293.129 91.0784 292.701C89.7852 292.267 88.5993 291.516 87.3004 291.082C85.9055 290.617 84.9568 290.221 83.5393 289.88C82.5567 289.644 81.4103 289.601 80.5632 288.937C79.462 288.075 77.9373 288.305 76.7739 287.579C76.3391 287.052 74.7917 287.579 74.8482 286.599C80.5915 284.46 85.9677 281.701 92.0554 281.149C94.591 279.959 96.6467 276.319 99.1484 275.054C100.656 274.453 101.148 272.388 102.531 271.601C103.48 271.142 104.508 271.966 105.451 271.737C105.88 271.507 105.925 269.957 106.185 269.579C107.467 268.5 105.281 267.08 104.677 266.33C104.09 264.96 99.8148 270.683 99.1032 271.445C94.7774 276.586 90.0619 278.192 84.3977 280.163C79.6258 281.819 74.9329 283.878 70.545 286.476C69.0428 287.988 72.2787 287.61 73.0185 288.497C73.5945 289.185 72.5102 289.334 72.1375 289.607C69.9859 290.946 75.9042 292.236 76.6214 293.401C83.4885 296.998 90.2596 299.881 97.5954 301.977C99.0298 302.597 97.6744 303.806 97.9399 304.959C97.6123 306.125 97.5954 307.613 97.2566 308.81C96.353 311.922 96.4998 315.891 95.7883 318.185C94.9638 320.839 93.9868 323.517 94.9242 324.144C95.3478 324.423 95.9803 324.565 97.2396 324.485C97.6801 324.354 97.9116 323.92 97.7705 323.555C97.5446 322.978 97.8891 322.786 97.9286 322.507C98.3747 319.562 99.6002 311.178 99.7922 306.354C99.634 305.753 99.9277 304.705 100.498 305.53C100.419 307.148 100.312 309.014 100.645 310.626C100.831 311.532 100.837 312.512 100.843 313.491C100.848 314.223 100.854 314.955 100.944 315.655C101.052 316.498 101.238 317.311 101.407 318.135C101.532 318.749 100.944 319.245 101.413 319.593C102.028 320.045 101.757 321.229 102.006 321.8C102.158 323.443 103.881 322.953 104.237 321.781C105.677 320.237 103.576 317.174 103.813 315.159C103.243 311.898 102.909 308.89 102.175 305.691C102.373 303.98 101.893 301.692 100.786 300.346C91.9199 297.444 83.4546 294.406 74.9555 290.277C74.2609 290.078 74.916 289.111 75.1814 289.148C81.8282 291.479 88.2153 294.834 95.1388 296.632C96.1271 296.973 97.1097 297.227 98.0302 297.754C99.3517 298.498 101.193 297.971 102.283 299.335C102.977 300.687 103.35 302.225 103.598 303.738C103.728 304.525 103.841 305.313 103.977 306.1C104.107 306.863 104.434 307.588 104.575 308.363C104.739 309.287 104.954 311.681 105.852 311.786C106.795 311.898 107.467 312.226 107.919 311.259C107.585 309.318 106.789 306.652 106.145 304.742C106.111 302.293 104.954 300.594 103.79 298.653L103.802 298.66ZM28.823 274.943C32.4034 276.17 37.9716 276.282 40.4733 272.81C40.7161 270.553 38.525 272.58 37.5875 272.655C35.3286 273.733 31.9855 274.26 29.8282 272.952C29.5684 272.531 28.7044 273.324 29.0206 273.907C29.1053 274.471 28.5124 274.347 28.823 274.936V274.943Z" fill="var(--fill-0, black)"/>
<path d="M21.9326 280.734C21.6051 280.386 21.4131 280.74 21.0799 280.913C18.0642 283.034 16.7936 283.883 13.8006 286.122C13.4561 286.463 11.2875 288.608 11.8522 288.856C12.4904 289.588 13.3092 288.571 14.0942 288.571C15.9352 287.269 17.6294 286.128 19.4591 285.031C21.1194 283.487 21.9157 284.683 23.1129 282.563C24.2593 281.608 22.3336 281.155 21.9326 280.727V280.734ZM8.99473 292.459C6.781 295.075 4.79881 297.748 1.15068 300.085C1.24669 301.387 1.10551 302.46 1.69282 302.479C2.08248 302.491 3.62418 301.332 4.17762 300.91C4.70281 299.645 5.132 300.24 5.56119 299.856C8.59942 297.146 10.1072 293.891 12.5017 291.82C12.9648 288.348 9.87006 291.219 8.98909 292.459H8.99473ZM11.2028 287.393C11.4682 286.891 11.2932 285.812 11.2932 285.812C9.35051 285.812 6.16545 287.877 4.43174 288.732C3.90655 288.993 3.34183 289.111 2.77145 289.049C2.1559 288.98 1.56293 288.993 1.57423 289.793C1.60246 290.078 1.57423 290.729 1.47258 290.847C1.16198 291.2 0.439133 290.611 0.636787 291.895C2.22932 293.705 6.50994 289.135 8.2267 288.924C7.86528 290.375 6.25016 291.281 5.46519 291.913C4.26797 293.606 0.546424 294.052 0.744078 296.626C0.665016 297.277 0.422186 298.132 1.3201 297.94C3.04252 296.88 9.71194 290.227 11.2028 287.405V287.393Z" fill="var(--fill-0, black)"/>
<path d="M56.1486 0.0987496C56.0074 0.173156 55.7081 0.235143 55.4765 0.235143C54.8045 0.247544 54.4205 0.532688 54.3301 1.08453C54.2906 1.35116 54.3019 1.64883 54.3584 1.75424C54.4092 1.87205 54.477 2.4239 54.4883 3.00675C54.4996 3.571 54.5786 4.24056 54.6577 4.46378C54.7368 4.6994 54.7989 5.17684 54.7989 5.54887C54.7989 5.9209 54.861 6.20616 54.9401 6.20616C55.0925 6.20616 55.4822 7.20453 55.3805 7.38435C55.3523 7.45875 55.4314 7.68185 55.5725 7.87406C55.7137 8.08488 55.8436 8.57476 55.8831 9.0026C55.9227 9.49244 56.0243 9.85204 56.205 10.0567C56.3575 10.2365 56.4761 10.5652 56.4761 10.8008C56.4761 11.0551 56.5269 11.2782 56.5947 11.3216C56.6625 11.365 56.7472 11.706 56.7867 12.078C56.8488 12.5679 56.9674 12.8221 57.199 13.0019C57.4023 13.1507 57.4926 13.3305 57.4418 13.4918C57.4023 13.6406 57.5434 14.3103 57.7637 14.9924C57.967 15.662 58.1477 16.344 58.1477 16.4804C58.1477 16.6293 58.2493 16.809 58.3792 16.8958C58.4978 16.9702 58.5995 17.1935 58.6108 17.3857C58.639 18.5452 58.6729 18.7127 58.9835 19.0227C59.1642 19.2025 59.3054 19.5 59.3054 19.6799C59.3054 19.8721 59.3675 20.0643 59.4353 20.1139C59.5256 20.1759 59.5143 20.3061 59.424 20.4984C59.3223 20.734 59.3336 20.8828 59.4861 21.1681C59.6047 21.3603 59.7063 21.9121 59.7289 22.402C59.7572 23.115 59.8193 23.3258 60.0621 23.5614C60.2428 23.7226 60.3332 23.9334 60.2824 24.0202C60.2315 24.1256 60.1638 26.488 60.1412 29.2906C60.1129 32.1057 60.0621 34.6604 60.0226 34.989C59.904 36.0741 59.6894 39.1433 59.6386 40.6438C59.5877 42.0265 59.5087 43.1303 58.9665 49.2006C58.6955 52.2946 58.7858 52.0714 57.9105 51.966C57.4983 51.9039 56.702 51.8482 56.1203 51.8296C55.1264 51.7986 54.861 51.8729 55.1829 52.0961C55.3749 52.245 55.3353 52.617 55.1207 52.617C55.0191 52.617 54.9287 52.7534 54.9287 52.9022C54.9287 53.0511 55.0191 53.2123 55.1207 53.2743C55.2224 53.3177 55.3128 53.5099 55.3128 53.7207C55.3128 53.913 55.3749 54.1051 55.4652 54.1361C55.5669 54.1795 55.5274 54.3284 55.3353 54.626C55.1829 54.8492 55.053 55.1344 55.053 55.2336C55.053 55.3514 55.0022 55.4445 54.9231 55.4445C54.861 55.4445 54.7932 55.2646 54.7932 55.06C54.7932 54.8368 54.7424 54.719 54.652 54.7748C54.4826 54.9112 53.7372 54.564 53.596 54.2974C53.4774 54.0865 53.1216 54.0307 53.1216 54.2229C53.1216 54.2849 53.5056 54.7314 53.9857 55.2212C55.2224 56.4985 55.3128 56.6039 55.3128 56.8581C55.3128 56.9759 55.3636 57.0814 55.4426 57.0814C55.5951 57.0814 56.0864 58.1665 56.0864 58.5386C56.0864 58.6874 55.9453 58.8982 55.7533 58.9974C55.3918 59.1772 55.1885 59.1027 55.1885 58.7865C55.1885 58.6811 55.0982 58.5633 54.9965 58.5013C54.8949 58.4579 54.8045 58.3215 54.8045 58.2037C54.8045 57.9495 54.4544 57.7696 54.3414 57.9804C54.3019 58.0672 54.3527 58.2471 54.4713 58.396C54.5899 58.5448 54.6746 58.7059 54.6746 58.7679C54.6746 58.9477 55.5895 60.659 55.9001 61.0869C56.5043 61.8929 56.8658 62.8292 56.8658 63.5733C56.8658 63.9887 56.9448 64.4351 57.0578 64.6025C57.1594 64.7513 57.2498 65.08 57.2498 65.3033C57.2498 65.5389 57.3684 65.9109 57.5208 66.1218C57.6903 66.376 57.7524 66.6302 57.7016 66.8658C57.6507 67.089 57.7129 67.3432 57.8823 67.5788C58.0235 67.7896 58.1138 68.0377 58.0743 68.1618C58.0347 68.2672 58.1025 68.5647 58.2042 68.8189C58.3228 69.0545 58.4075 69.4266 58.4075 69.625C58.4075 69.8234 58.5374 70.2823 58.7011 70.6358C58.8649 70.9892 59.1134 71.7207 59.2546 72.2292C59.4353 72.9298 59.616 73.2834 59.9266 73.5686C60.1694 73.7918 60.9318 74.5978 61.6264 75.3667C62.8519 76.706 63.1455 76.9727 63.7893 77.3013C63.9418 77.3881 64.0717 77.5245 64.0717 77.5989C64.0717 77.6857 64.2411 77.853 64.4331 77.9709C64.755 78.1631 64.8736 78.1631 65.3706 77.9709C65.6812 77.8344 66.0426 77.6298 66.1668 77.512C66.5395 77.109 66.5678 77.4066 66.195 77.9709C66.0143 78.2561 65.732 78.5042 65.5795 78.5352C65.3762 78.5662 65.3084 78.6715 65.3197 78.9196C65.3592 79.2916 65.2915 79.304 64.7155 79.0684C64.354 78.9319 64.2637 78.9506 64.1338 79.1428C64.0434 79.2916 63.8514 79.397 63.7103 79.397C63.5691 79.397 63.3997 79.459 63.3601 79.5458C63.2302 79.7814 62.8349 79.707 62.5864 79.397C62.2137 78.9196 61.9539 79.0126 62.0612 79.5768C62.1403 80.0233 62.1234 80.0232 61.9088 79.8C61.7789 79.6512 61.6264 79.5891 61.5869 79.6387C61.536 79.7008 61.2368 79.7567 60.9036 79.7753C60.5421 79.8063 60.1694 79.9364 59.9379 80.1348C59.6442 80.389 59.5256 80.42 59.3336 80.2836C59.1303 80.1348 58.9722 80.1658 58.5091 80.42C58.1985 80.5998 57.8653 80.7487 57.775 80.7487C57.6959 80.7487 57.4926 80.9286 57.3232 81.1518C57.1199 81.4184 56.9731 81.5114 56.8488 81.406C56.5382 81.1827 55.9227 81.2447 55.4822 81.5237C55.2619 81.6725 55.0078 81.778 54.9005 81.7594C54.7819 81.7284 54.748 81.8462 54.7706 82.1624L54.7989 82.6088L54.5673 82.2988C54.2454 81.8648 53.6016 81.7036 53.3814 82.0136C53.291 82.1314 53.1216 82.2369 53.0087 82.2369C52.8957 82.2369 52.6868 82.3422 52.5569 82.46C52.2068 82.77 51.9752 82.7453 51.7098 82.3547C51.5065 82.0446 51.5065 82.0136 51.6985 81.8338C51.8905 81.6725 51.8905 81.6416 51.6985 81.4184C51.5799 81.282 51.4049 81.2262 51.2863 81.282C51.0434 81.3874 50.9926 81.8648 51.1959 82.0136C51.3879 82.15 51.3484 82.6833 51.1451 82.6833C51.0547 82.6833 50.9023 82.7886 50.8119 82.9064C50.5917 83.2165 50.4279 83.1917 50.4279 82.8321C50.4279 82.4725 50.0665 82.429 49.9648 82.7576C49.914 82.894 49.722 82.9809 49.4622 82.9809C49.2024 82.9809 48.9878 83.0429 48.9483 83.1297C48.8071 83.3839 48.6546 83.291 48.5756 82.8755C48.457 82.3857 48.7055 82.1748 49.0669 82.46C49.3605 82.7142 49.6599 82.5221 49.6599 82.0757C49.6599 81.84 49.5582 81.8089 48.8749 81.8089C48.2819 81.8213 48.0617 81.8835 47.96 82.0943C47.8301 82.3175 47.6777 82.3484 47.0847 82.305C46.5426 82.2616 46.311 82.2926 46.1981 82.4538C45.9948 82.739 46.1981 82.888 46.8532 82.888C47.4687 82.888 47.5591 83.0368 47.1468 83.3468C46.904 83.5266 46.7628 83.5575 46.5821 83.4335C46.4409 83.3591 46.0908 83.2847 45.8084 83.2847C45.2267 83.2847 45.1251 83.1359 45.5656 82.9126C46.0795 82.646 45.9891 82.3919 45.3623 82.3919C44.5265 82.3919 44.086 82.6151 44.1933 82.9871C44.2441 83.1979 44.2046 83.3157 44.0408 83.3901C43.9109 83.4335 43.7189 83.5699 43.6173 83.6753C43.4648 83.8241 43.2841 83.8241 42.7532 83.6877C42.3918 83.5823 42.0473 83.4645 41.9909 83.3901C41.8497 83.2413 41.4261 83.2537 41.4261 83.4335C41.4261 83.6257 40.6412 83.4336 40.3701 83.167C40.1668 82.9747 40.1386 82.9748 40.0595 83.198C39.9804 83.4336 39.9578 83.4336 39.7376 83.198C39.5343 82.9748 39.3141 82.9624 38.2298 83.0368C37.5352 83.0802 36.801 83.2165 36.609 83.3033C36.3662 83.4398 36.1855 83.4522 36.0443 83.3468C35.9257 83.2724 35.5925 83.2413 35.3101 83.2847C34.8584 83.3467 34.7962 83.4025 34.8358 83.7001C34.8753 83.9977 34.8358 84.0411 34.576 83.9977C34.384 83.9667 34.2654 83.8366 34.2428 83.6134C34.2033 83.3033 34.1525 83.2847 32.735 83.2847C31.8201 83.2847 31.2441 83.3467 31.1763 83.4459C31.1255 83.5514 31.2272 83.5947 31.4587 83.5637C31.9331 83.5203 32.5543 83.7249 32.4752 83.8924C32.4357 83.9544 32.3058 83.9668 32.2042 83.9234C32.1025 83.88 31.871 83.9233 31.7015 84.0288C31.4418 84.19 31.3288 84.1776 30.9166 83.8924C30.5326 83.6257 30.3744 83.5947 30.0525 83.7125C29.7307 83.8489 29.629 83.818 29.2902 83.5018C28.8779 83.0988 28.7085 83.0553 28.4148 83.2785C28.2962 83.3653 28.1212 83.322 27.8727 83.1607C27.5621 82.9499 27.4887 82.9499 27.1781 83.1297C26.8844 83.3219 26.828 83.3219 26.6868 83.1173C26.5964 82.9809 26.3366 82.894 26.0147 82.894C25.6307 82.894 25.3823 82.7887 25.0773 82.491C24.8458 82.2678 24.5634 82.0881 24.4617 82.0881C24.3432 82.0881 24.01 81.8215 23.6994 81.4928C23.3888 81.1642 23.016 80.8975 22.8636 80.8975C22.6942 80.8975 22.2706 80.6867 21.8866 80.4511C21.5139 80.1968 21.1242 80.0046 21.0226 80.0046C20.6894 80.0046 19.2606 78.7832 18.9387 78.219C18.758 77.9213 18.4869 77.5802 18.3232 77.4872C18.1538 77.3818 17.9392 77.0408 17.8206 76.7432C17.6907 76.4331 17.4591 76.1045 17.2954 75.9867C17.1147 75.8813 16.8549 75.4659 16.7024 75.0504C16.5499 74.6474 16.2506 74.1451 16.0473 73.9467C15.8045 73.7111 15.6464 73.3825 15.5955 73.0104C15.5447 72.6818 15.3753 72.2788 15.2115 72.1052C15.0478 71.9316 14.9009 71.6588 14.9009 71.51C14.9009 71.3612 14.8501 71.2123 14.7823 71.1689C14.7146 71.1255 14.6299 70.7845 14.5903 70.4125C14.5395 70.0404 14.3475 69.3708 14.1668 68.9244C13.907 68.2424 13.8731 68.0191 13.9748 67.6719C14.116 67.2255 14.0369 66.0659 13.8731 65.7993C13.6529 65.4583 13.4496 64.398 13.4101 63.4928C13.3705 62.3767 13.6698 60.2623 14.0256 59.1338C14.1273 58.8238 14.116 58.6253 13.9861 58.3463C13.8562 58.0487 13.8449 57.9122 13.9748 57.689C14.0651 57.5278 14.1273 57.3045 14.1273 57.1805C14.1273 57.0751 14.2176 56.8954 14.3306 56.7776C14.5113 56.5977 14.5113 56.5667 14.3023 56.393C14.0821 56.2132 14.099 56.1699 14.3136 55.3824C14.483 54.8306 14.6242 54.5639 14.7767 54.5639C14.9574 54.5639 15.1494 54.2788 15.1494 54.0122C15.1494 53.9687 15.0082 53.9812 14.8275 54.0246C14.4266 54.1424 14.404 53.8137 14.7485 53.0697C14.9913 52.5364 15.364 52.3566 15.3019 52.8031C15.2736 52.9519 15.3301 53.0697 15.4035 53.0697C15.5843 53.0697 15.573 52.4309 15.3922 52.2201C15.1889 51.9845 15.765 51.1474 16.1264 51.1474C16.3862 51.135 16.5669 50.8808 16.5669 50.5088C16.5669 50.422 16.4483 50.391 16.3071 50.4344C16.1659 50.4778 16.0473 50.4468 16.0473 50.3724C16.0473 50.298 16.1094 50.236 16.1772 50.236C16.2563 50.236 16.3071 50.1307 16.3071 50.0129C16.3071 49.895 16.4257 49.6532 16.5669 49.492C16.7081 49.3307 16.8267 49.0889 16.8267 48.9711C16.8267 48.8346 16.9452 48.7479 17.0977 48.7479C17.3293 48.7479 17.3575 48.6859 17.2784 48.3139C17.2389 48.0597 17.2502 47.8364 17.3293 47.7806C17.4083 47.7372 17.4704 47.7683 17.4704 47.8427C17.4704 47.9295 17.5326 48.0039 17.6116 48.0039C17.702 48.0039 17.7133 47.8427 17.6624 47.5451C17.5439 46.9808 17.8036 46.2491 18.086 46.2801C18.2272 46.2925 18.3062 46.1747 18.3062 45.9701C18.3062 45.7903 18.4361 45.5236 18.5999 45.4058C18.8032 45.226 18.8823 45.0214 18.8823 44.5874C18.8823 44.0976 18.9218 44.0355 19.1251 44.0975C19.3058 44.1595 19.4357 44.0541 19.5882 43.713C19.8084 43.2232 19.7576 42.9566 19.447 42.9566C19.2437 42.9566 19.2154 42.7955 19.3849 42.5722C19.4357 42.4978 19.5373 42.2435 19.5769 42.0079C19.6672 41.6235 19.6559 41.5925 19.4583 41.7724C19.3397 41.8778 19.1646 42.1568 19.0573 42.38C18.967 42.6032 18.7637 42.8265 18.6168 42.8885C18.3345 42.9939 18.2667 43.3473 18.5265 43.4527C18.6168 43.4961 18.5886 43.5394 18.4644 43.5394C18.3345 43.5518 18.182 43.7006 18.0916 43.868C17.99 44.0913 17.9222 44.1347 17.8488 44.0169C17.7867 43.899 17.6455 44.0045 17.3857 44.3455C16.6403 45.3252 15.7141 46.7885 15.0534 47.948C14.1894 49.4982 13.9974 49.8082 13.8675 49.8082C13.5964 49.8082 14.1611 47.9914 14.6637 47.2907C15.0139 46.8009 15.5278 45.5174 15.5278 45.133C15.5278 44.8974 15.5899 44.7486 15.7198 44.7486C15.8497 44.7486 15.9118 44.5997 15.9118 44.3021C15.9118 44.0044 15.9739 43.8556 16.0925 43.8556C16.1942 43.8556 16.324 43.7068 16.3636 43.5456C16.4426 43.2604 16.7137 42.8016 17.5213 41.5677C17.6229 41.4065 17.6907 41.239 17.6511 41.208C17.5721 41.1212 16.6855 41.9088 16.6855 42.07C16.6855 42.1444 16.533 42.3799 16.324 42.6217C15.3979 43.7254 14.884 44.5874 14.884 45.0152C14.884 45.3438 14.8049 45.4926 14.6412 45.567C14.5 45.6104 14.3475 45.7903 14.308 45.9515C14.2571 46.1003 14.1668 46.2367 14.1047 46.2367C14.0256 46.2367 14.0143 46.4476 14.0651 46.7576C14.116 47.0986 14.0934 47.2783 14.003 47.2783C13.924 47.2783 13.8618 47.2039 13.8618 47.1295C13.8618 46.7699 13.4609 47.0242 13.2293 47.5327C13.0882 47.8427 12.7776 48.4254 12.5234 48.8409C12.2298 49.3183 12.1112 49.6283 12.1902 49.7213C12.4105 49.9755 12.3314 50.4344 12.0604 50.5088C11.9192 50.5522 11.6368 50.8932 11.4448 51.2838C11.2641 51.6559 10.9196 52.1892 10.6824 52.462C10.4452 52.7348 10.2589 53.0263 10.2589 53.1193C10.2589 53.2123 9.9991 53.758 9.69415 54.3408C9.3892 54.9236 9.08989 55.5623 9.03907 55.7545C8.93742 56.1576 7.72325 57.7014 7.51995 57.7014C7.45783 57.7014 7.28842 57.8627 7.14724 58.0735C7.00606 58.2843 6.82534 58.4455 6.73498 58.4455C6.64462 58.4455 6.28321 58.6067 5.93872 58.8175C5.566 59.0408 5.19328 59.1586 5.02386 59.1152C4.61161 58.9974 4.53255 59.3074 4.87139 59.7228L5.16504 60.0825L4.89398 60.6343C4.7415 60.9319 4.19936 61.6883 3.66852 62.3022C3.15462 62.9284 2.62377 63.6415 2.51083 63.9081C2.36965 64.2182 2.1607 64.4165 1.92916 64.4723C0.991715 64.708 0.77147 64.9808 0.330984 66.3946C-0.0304413 67.6161 -0.109505 69.2964 0.161564 70.5613C0.353571 71.4665 0.353575 71.7084 0.201099 72.5702C-0.0417335 73.9529 -0.0022047 76.2286 0.251922 76.9602C0.381809 77.2703 0.472165 77.7477 0.472165 78.0019C0.472165 78.2561 0.590762 78.7584 0.731943 79.118C0.873125 79.4776 0.991713 79.8744 0.991713 80.0108C0.991713 80.1473 1.11031 80.5193 1.25149 80.8418C1.39267 81.1518 1.57338 81.6478 1.65244 81.9455C1.7428 82.2431 2.06469 83.0615 2.35835 83.7746C2.66895 84.4753 2.92308 85.1448 2.92308 85.2502C2.92308 85.3371 3.05297 85.6347 3.21674 85.8889C3.38051 86.1431 3.70805 86.7507 3.93959 87.2406C4.50431 88.4311 5.32881 90.2292 5.65071 90.9609C5.79189 91.2895 5.96131 91.5686 6.02343 91.5996C6.07425 91.6306 6.19284 91.8849 6.26626 92.1639C6.33967 92.4429 6.52603 92.7466 6.66722 92.821C6.7971 92.9079 6.91004 93.1064 6.91004 93.2552C6.91004 93.5404 7.35054 94.0611 7.69502 94.2099C7.8362 94.272 7.88702 94.4023 7.84749 94.6689C7.76843 95.072 8.59294 96.8886 9.26496 97.8063C9.45697 98.0729 9.61509 98.3581 9.61509 98.4449C9.61509 98.6682 10.6203 100.113 10.7728 100.113C10.8518 100.113 10.9027 99.8153 10.9027 99.4557C10.9027 98.8915 10.8236 98.6805 10.3888 98.1039C9.96522 97.5396 9.88616 97.3474 9.94828 97.0188C9.9991 96.7956 10.0499 96.5848 10.0782 96.5724C10.1685 96.4236 10.9535 97.6266 11.4448 98.6868C11.7385 99.3255 12.1789 100.026 12.4105 100.218C12.642 100.429 12.834 100.665 12.834 100.77C12.834 100.857 12.9357 101.217 13.0656 101.576C13.2576 102.159 13.3084 102.215 13.6472 102.14C13.9296 102.066 14.0877 102.141 14.2628 102.395C14.4943 102.705 14.5226 102.705 14.6863 102.457C14.9066 102.128 14.98 102.128 15.46 102.562C16.0643 103.083 16.6968 103.424 16.917 103.337C17.0187 103.294 17.2107 103.325 17.3405 103.399C18.0126 103.815 17.5834 102.314 16.8492 101.688C16.2563 101.179 16.2167 101.08 16.516 100.603C16.7758 100.169 16.9283 100.187 17.0977 100.677C17.2389 101.136 18.182 102.674 18.6959 103.312C18.9387 103.61 19.0799 103.684 19.1703 103.579C19.2719 103.461 19.43 103.517 19.7237 103.79C20.3054 104.298 20.4465 104.249 20.3675 103.579C20.3054 103.102 20.3562 102.953 20.7289 102.45C21.1129 101.93 21.1807 101.899 21.4235 102.066C21.8075 102.351 22.1068 102.153 22.1068 101.62C22.1068 101.086 21.8358 100.417 21.384 99.7904C21.2146 99.5548 21.0734 99.2386 21.0734 99.0898C21.0734 98.941 20.9435 98.6311 20.7797 98.3892C20.4974 97.9862 19.9157 96.901 19.9157 96.7646C19.9157 96.7336 20.0343 96.7026 20.1755 96.7026C20.5256 96.7026 21.079 97.3413 21.079 97.7319C21.079 98.1474 21.5816 99.2324 21.8245 99.3378C21.9261 99.3998 22.0673 99.3254 22.1351 99.1766C22.2763 98.8789 22.6885 99.0898 22.8184 99.5362C22.8579 99.6975 23.0104 99.8339 23.1516 99.8339C23.3323 99.8339 23.3944 99.7285 23.3944 99.4185C23.3944 99.1952 23.3323 98.9286 23.2419 98.8232C23.1234 98.6868 23.1516 98.5876 23.321 98.3644C23.5243 98.0978 23.5243 98.0234 23.2024 96.9507C23.0217 96.3244 22.8918 95.7601 22.9313 95.6857C23.0838 95.4191 23.897 95.0904 25.066 94.8548C26.6247 94.5262 26.9974 94.4394 28.7989 93.962C29.6121 93.7388 30.5495 93.5032 30.8996 93.4288C32.7011 93.0258 33.7571 92.7467 35.056 92.3127C35.4174 92.2073 35.8692 92.1018 36.0612 92.1018C36.2532 92.1018 36.6147 91.9965 36.8744 91.8787C37.2867 91.6679 38.4839 91.3702 38.9752 91.3454C39.0769 91.333 39.6585 91.209 40.2628 91.0602C40.8671 90.9114 41.652 90.7501 42.0022 90.6881C42.3636 90.6261 42.7081 90.5269 42.7984 90.4339C42.8775 90.3595 43.4535 90.2418 44.086 90.1674C44.7016 90.1053 45.5938 89.9441 46.0569 89.7953C46.52 89.6589 47.3558 89.4667 47.9261 89.3488C48.4909 89.2434 49.5356 88.9458 50.2415 88.7102C50.9474 88.4745 51.7098 88.2203 51.9131 88.1769C52.9409 87.9102 53.3701 87.7925 53.8445 87.6685C54.1268 87.5941 54.477 87.4763 54.6182 87.3833C54.7593 87.3089 55.341 87.1166 55.9057 86.9802C57.295 86.6392 57.9162 86.4284 58.2211 86.1927C58.3623 86.0873 58.6616 86.0005 58.8931 86.0005C59.1247 86.0005 59.5256 85.8951 59.7967 85.7649C60.5704 85.3805 60.7624 85.3061 61.4457 85.1076C61.8071 85.0022 62.2307 84.8225 62.4001 84.6923C62.5808 84.5744 62.9027 84.4567 63.106 84.4381C63.3262 84.4257 63.7102 84.3016 63.9531 84.1838C64.1959 84.0474 64.546 83.9171 64.7268 83.8737C64.9075 83.8303 65.3705 83.6506 65.7546 83.4708C66.1386 83.291 66.6299 83.0986 66.8219 83.0676C67.0252 83.0242 67.2228 82.8879 67.2624 82.7825C67.3019 82.6646 67.5052 82.5902 67.765 82.6026C68.0361 82.615 68.3579 82.4972 68.5895 82.305C68.7928 82.1252 69.0526 82.0198 69.1542 82.0695C69.2728 82.1129 69.5043 82.0074 69.6963 81.8462C69.8883 81.6664 70.1594 81.5361 70.3006 81.5361C70.4531 81.5361 70.7241 81.3564 70.9331 81.1332C71.255 80.7735 71.3171 80.7611 71.6164 80.9409C71.8875 81.1021 72.0569 81.1208 72.5313 80.972C72.8419 80.8665 73.2146 80.7921 73.3558 80.7921C73.497 80.7921 73.6155 80.7301 73.6155 80.6557C73.6155 80.5689 73.8075 80.327 74.056 80.1224C74.44 79.7814 74.5304 79.7505 74.7789 79.9303C74.9596 80.0667 75.0725 80.079 75.1403 79.9612C75.1911 79.8744 75.4001 79.7504 75.6034 79.6946C75.8067 79.6388 76.1568 79.428 76.3771 79.2358C76.6481 79.0002 76.8797 78.9072 77.0717 78.9692C77.2524 79.0126 77.4557 78.9568 77.6138 78.7894C77.755 78.6406 77.8736 78.5661 77.8736 78.6281C77.8736 78.6715 78.1051 78.5847 78.3875 78.4173C78.6586 78.2561 78.9804 78.1197 79.0708 78.1197C79.1725 78.1197 79.3306 78.0143 79.4209 77.8965C79.5113 77.7787 79.7146 77.6732 79.884 77.6732C80.0534 77.6732 80.3075 77.5368 80.4487 77.3756C80.6012 77.1958 80.7706 77.109 80.8497 77.1648C80.9287 77.2082 81.1095 77.1215 81.2619 76.9727C81.4144 76.8114 81.725 76.6006 81.934 76.4952C82.1542 76.4084 82.4253 76.1232 82.5382 75.8876C82.6794 75.6023 82.8601 75.4411 83.0408 75.4411C83.3514 75.4411 84.1872 74.8892 84.1872 74.6846C84.1872 74.5047 85.1529 73.8041 85.3957 73.8041C85.6668 73.8041 85.7798 73.5189 85.7572 72.9732C85.7289 72.7066 85.7854 72.4524 85.8588 72.3904C85.9209 72.347 85.9887 72.2292 85.9887 72.1238C85.9887 72.006 85.9492 72.006 85.8362 72.1362C85.7459 72.2416 85.5765 72.3161 85.4522 72.3161C85.1699 72.3161 84.9496 72.7624 85.0512 73.1779C85.1021 73.4135 85.0513 73.5066 84.7915 73.581C84.6221 73.643 84.3792 73.6553 84.2494 73.6243C84.0799 73.5933 83.9783 73.6987 83.9274 73.9343C83.8484 74.3498 83.5434 74.5421 83.5434 74.1886C83.5434 73.891 83.1707 73.8786 83.0804 74.1762C83.0295 74.294 82.8601 74.3994 82.6794 74.3994C82.51 74.3994 82.2389 74.4738 82.0977 74.5606C81.917 74.666 81.8041 74.6784 81.7137 74.573C81.4822 74.3064 80.9909 74.7838 81.0699 75.2117C81.1208 75.5527 81.0812 75.5837 80.669 75.5837C80.1156 75.5837 79.9631 75.8069 80.2454 76.1666C80.4375 76.4022 80.4374 76.4518 80.2172 76.675C79.8953 77.0161 79.8332 76.985 79.9066 76.5571C79.9461 76.2905 79.9066 76.1852 79.7654 76.1852C79.6468 76.1852 79.4548 76.3463 79.3136 76.5571C79.1725 76.7679 78.9635 76.9292 78.8506 76.9292C78.5174 76.9292 78.619 76.7061 79.0313 76.5262C79.3024 76.4084 79.3927 76.2905 79.3419 76.1231C79.2798 75.9433 79.3701 75.838 79.6525 75.7201C79.8558 75.6333 80.0647 75.4349 80.1043 75.2737C80.1833 74.9327 80.2059 74.9326 79.6412 75.2117C79.3814 75.3295 79.0369 75.4349 78.8675 75.4349C78.5061 75.4349 78.1333 75.8689 78.1333 76.2843C78.1333 76.4455 77.964 76.7308 77.7606 76.923C77.5404 77.1028 77.3597 77.4005 77.3371 77.5803C77.3089 77.7415 77.2072 77.8903 77.1056 77.8903C76.9757 77.8903 76.9248 77.7725 76.9531 77.5493C77.0039 77.1338 76.6425 77.1028 76.5521 77.5182C76.4731 77.8903 76.0777 78.0701 75.0612 78.2003C74.6208 78.2437 74.2763 78.3491 74.2763 78.4111C74.2763 78.4855 74.0052 78.6468 73.672 78.7956C73.3219 78.932 72.9887 79.1366 72.9096 79.2544C72.8306 79.3598 72.6499 79.4466 72.5256 79.4466C72.3844 79.4466 72.1416 79.552 71.9722 79.7008C71.7124 79.893 71.6221 79.9117 71.4075 79.7443C71.1872 79.5955 71.1138 79.6078 70.9444 79.862C70.8258 80.0232 70.4305 80.2341 70.0408 80.3395C69.6512 80.4449 69.205 80.6062 69.0356 80.7116C68.8662 80.817 68.4427 80.8728 68.0812 80.848C67.5278 80.8046 67.4374 80.8355 67.477 81.0587C67.5278 81.3129 67.8497 81.3688 68.2619 81.1642C68.4031 81.0898 68.4822 81.1208 68.4822 81.2696C68.4822 81.6416 68.1885 81.8338 67.6464 81.8338C67.3527 81.8338 67.0026 81.9206 66.8727 82.0446C66.6525 82.2244 66.5791 82.2244 66.2685 82.0446C65.9466 81.8524 65.907 81.8648 65.7772 82.15C65.636 82.4476 65.6077 82.4477 65.3931 82.2121C65.2237 82.0322 65.0712 81.9888 64.9188 82.0632C64.5969 82.2245 64.3371 82.15 64.0717 81.8275C63.7893 81.4865 63.5465 81.5919 63.7215 81.9764C63.8966 82.3608 63.4279 82.8692 63.1399 82.584C62.9987 82.4476 62.9874 82.3299 63.089 82.0943C63.2076 81.8587 63.1907 81.7532 62.9987 81.5858C62.8688 81.4804 62.6147 81.3935 62.4057 81.3935C62.1121 81.3935 62.0443 81.3316 62.0443 81.0216C62.0443 80.7116 61.9935 80.6495 61.5925 80.6495C61.2989 80.6495 61.1407 80.5751 61.1407 80.4573C61.1407 80.1472 61.2932 80.0419 61.4909 80.2217C61.5812 80.3085 61.7732 80.3581 61.9144 80.3085C62.2758 80.203 63.1003 80.4883 63.2811 80.7673C63.4109 80.9781 63.4618 80.9781 63.6538 80.7983C63.8458 80.6061 63.8458 80.5751 63.5634 80.3209C63.2811 80.0666 63.2811 80.0543 63.5352 80.0543C63.6764 80.0543 63.8571 79.9799 63.9361 79.8931C64.0378 79.7753 64.1056 79.8187 64.1677 80.0419C64.2298 80.2775 64.3597 80.3519 64.6929 80.3519C64.9752 80.3519 65.1334 80.2774 65.1334 80.141C65.1334 80.0232 65.3028 79.7257 65.5061 79.4715C65.828 79.0684 65.9804 78.994 66.5734 78.963C67.2454 78.932 67.2567 78.9319 67.2172 79.3349C67.1777 79.7814 67.3075 79.8435 67.7198 79.5892C67.9005 79.4838 67.9513 79.3537 67.9005 79.1428C67.8497 78.9816 67.8892 78.7397 67.9796 78.6219C68.0982 78.4421 68.0982 78.3243 67.9683 78.0391C67.8779 77.8283 67.7255 77.667 67.6464 77.667C67.4657 77.667 66.9405 77.0409 66.9405 76.8176C66.9405 76.5634 67.2003 76.5076 68.0078 76.5944C68.6516 76.6564 68.7307 76.6998 68.5895 76.892C68.3466 77.2206 68.3297 78.1135 68.5613 78.1135C68.6629 78.1135 68.742 77.9957 68.742 77.8283C68.742 77.6608 68.9114 77.4563 69.1655 77.3075C69.3858 77.1897 69.4874 77.0718 69.3688 77.0718C68.9678 77.0718 68.8775 76.7741 69.1373 76.2533C69.2785 75.9867 69.4874 75.7201 69.6003 75.6705C69.7528 75.5961 69.7811 75.4473 69.7302 75.0442C69.6116 74.2382 69.8093 73.7917 70.2837 73.7917C70.758 73.7917 70.8992 73.4941 70.6959 72.9856C70.6056 72.7314 70.6056 72.4525 70.6959 72.006C70.8371 71.3488 71.1082 71.1132 71.351 71.3984C71.752 71.8572 71.9327 71.2929 71.9948 69.3026C72.0061 68.8437 72.0569 68.4097 72.1134 68.3476C72.1699 68.2856 72.1529 68.1554 72.0739 68.05C71.8931 67.7834 71.8141 65.0304 71.9948 64.7018C72.0964 64.5096 72.0964 64.3298 71.9835 64.0445C71.8931 63.8213 71.8649 63.5671 71.9214 63.4803C71.9722 63.3749 72.023 62.8975 72.04 62.3953C72.04 61.9054 72.0795 61.4279 72.1021 61.3535C72.1416 61.2791 72.1811 60.535 72.2037 59.6856C72.232 58.4083 72.2037 58.0921 72.023 57.8688C71.8818 57.689 71.8423 57.5092 71.9214 57.3914C71.9722 57.286 72.04 56.9325 72.0513 56.6039C72.1021 54.905 72.2037 53.8199 72.3336 53.6401C72.424 53.5222 72.4522 53.268 72.3957 53.0324C72.3336 52.7038 72.3844 52.5549 72.7176 52.2139C73.1016 51.7985 73.2824 51.0235 72.9887 51.0235C72.9266 51.0235 72.8588 51.1847 72.8588 51.3831C72.8588 51.5816 72.7685 51.8171 72.6668 51.9163C72.5652 52.0155 72.4748 52.0528 72.4748 51.9784C72.4748 51.6807 72.9379 50.1802 73.1299 49.833C73.3501 49.461 73.5139 48.2581 73.5817 46.6955C73.593 46.2367 73.672 45.7158 73.7511 45.536C73.8301 45.3747 73.8697 45.0772 73.8132 44.8664C73.7737 44.6742 73.8414 43.9116 73.9544 43.1985C74.073 42.4668 74.1859 41.4436 74.1972 40.9042C74.2254 40.2779 74.3271 39.7261 74.4909 39.3416C74.6434 39.013 74.8015 38.4054 74.841 38.0024C74.8918 37.587 74.9822 37.0227 75.0443 36.7375C75.3662 35.2493 75.5864 33.1227 75.5864 31.5725C75.5864 28.3607 75.5864 28.3855 75.2928 28.1374C75.0499 27.9452 75.033 27.9018 75.2307 27.7778C75.4509 27.6413 75.513 26.9903 75.321 26.8539C75.2702 26.8105 75.1798 26.395 75.1403 25.9176C75.0895 25.4092 74.9596 24.9069 74.7902 24.6527C74.5699 24.3116 74.5473 24.1752 74.6603 24.014C74.7506 23.8962 74.7902 23.6854 74.7394 23.5676C74.6377 23.239 74.1746 23.301 74.0843 23.6421C74.0447 23.8033 73.9431 23.9397 73.881 23.9397C73.7115 23.9397 73.8414 23.1646 74.1238 22.5135C74.2932 22.0981 74.2932 22.0052 74.0843 21.6517C73.9544 21.4409 73.7511 21.2672 73.6212 21.2672C73.288 21.2672 73.1468 20.8208 73.4179 20.641C73.5478 20.5666 73.6381 20.3433 73.6381 20.1325C73.6381 19.686 73.2654 19.4752 73.096 19.8349C72.9944 20.0271 72.9266 20.0582 72.7854 19.9093C72.5821 19.7171 72.5426 19.9403 72.7459 20.1759C72.8475 20.2937 72.8475 20.3681 72.7346 20.4425C72.6047 20.5293 72.232 20.1449 72.2207 19.8907C72.2207 19.8473 72.4014 19.7109 72.6047 19.5931C72.9153 19.4443 72.9887 19.3078 72.9887 18.9234C72.9887 18.4894 72.9492 18.4335 72.6386 18.4335C72.4353 18.4335 72.2263 18.3716 72.1473 18.3158C72.0852 18.2538 72.0174 17.6461 72.0174 16.9455C72.0061 15.6806 71.927 15.3396 71.3341 14.1615C71.1929 13.8948 71.0517 13.7274 71.0009 13.7894C70.95 13.8514 70.9387 13.715 70.9896 13.5042C71.0686 13.1197 70.8089 12.6237 70.5265 12.6237C70.4644 12.6237 70.4079 12.5183 70.4079 12.4005C70.4079 12.2641 70.2667 12.1029 70.0973 12.0285C69.7754 11.8921 69.7133 11.4456 69.9448 10.9991C70.0239 10.8627 69.8658 10.6147 69.4535 10.2117C69.0526 9.82723 68.8606 9.511 68.8606 9.27538C68.8606 8.85995 68.1377 8.15941 67.7254 8.15941C67.573 8.15941 67.4431 8.09741 67.4431 8.01061C67.4431 7.9362 67.2511 7.77494 67.0026 7.65093C66.7711 7.53312 66.4096 7.20452 66.2176 6.9069C66.0256 6.60927 65.7546 6.37359 65.6247 6.37359C65.4835 6.37359 65.4214 6.29914 65.444 6.18133C65.5625 5.87131 64.6985 4.36459 64.3879 4.32118C64.2354 4.29018 64.0378 4.17241 63.9644 4.0546C63.7328 3.75698 63.3601 3.80047 63.2811 4.14149C63.1907 4.54453 63.01 4.51345 62.8067 4.06702C62.6034 3.62058 62.4848 3.60821 62.2928 3.94924C62.1742 4.17246 62.1403 4.18475 62.0725 3.99254C62.033 3.87473 61.7224 3.45932 61.3779 3.08729C60.9374 2.60985 60.7963 2.3557 60.9036 2.2379C61.1238 1.98367 60.9149 1.79137 60.3388 1.68597C60.0452 1.62396 59.6442 1.45042 59.4635 1.30161C59.0795 0.972985 57.6846 0.545114 57.3797 0.644322C57.2385 0.706327 57.086 0.60093 56.9392 0.346709C56.7189 -0.0377221 56.5891 -0.0873928 56.1768 0.123425L56.1486 0.0987496ZM66.5113 8.71119C66.5113 8.798 66.4605 8.90349 66.3814 8.94689C66.3193 8.99029 66.2515 8.93436 66.2515 8.81034C66.2515 8.67393 66.3136 8.5748 66.3814 8.5748C66.4605 8.5748 66.5113 8.63678 66.5113 8.71119ZM67.7368 10.6643C67.7763 10.7387 67.765 10.8131 67.6859 10.8131C67.6238 10.8131 67.5165 10.7387 67.4826 10.6643C67.4431 10.5775 67.4544 10.5155 67.5334 10.5155C67.5956 10.5155 67.7029 10.5775 67.7368 10.6643ZM71.4696 18.5515C71.5091 18.6259 71.4583 18.7003 71.351 18.7003C71.2324 18.7003 71.1477 18.6259 71.1477 18.5515C71.1477 18.4647 71.1985 18.4027 71.2663 18.4027C71.3454 18.4027 71.4357 18.4647 71.4696 18.5515ZM71.6221 21.1557C71.5317 21.3665 71.4301 21.5276 71.3792 21.5276C71.2381 21.5276 71.2494 21.4098 71.4075 21.0688C71.6108 20.6533 71.7915 20.7278 71.6277 21.1557H71.6221ZM71.1477 21.974C71.1477 22.0484 71.0856 22.123 71.0065 22.123C70.9444 22.123 70.9162 22.0484 70.9557 21.974C70.9952 21.8872 71.0573 21.8252 71.0969 21.8252C71.1251 21.8252 71.1477 21.8872 71.1477 21.974ZM61.1803 27.1329C61.0504 27.2817 60.9374 27.0585 61.0504 26.8663C61.1294 26.7051 61.152 26.7051 61.2029 26.8663C61.2311 26.9717 61.2141 27.0895 61.1746 27.1329H61.1803ZM78.1108 77.0718C77.9414 77.264 77.7776 77.1152 77.9075 76.892C77.947 76.8052 78.0487 76.7742 78.1277 76.8176C78.2068 76.8796 78.2068 76.9664 78.1164 77.0718H78.1108ZM74.4175 79.1861C74.3384 79.4217 74.1069 79.4963 74.1069 79.2916C74.1069 79.1304 74.248 78.963 74.3779 78.963C74.44 78.963 74.457 79.0683 74.4175 79.1861ZM73.0791 79.9427C73.0791 80.0605 72.9887 80.1534 72.8871 80.1534C72.6668 80.1534 72.6555 80.1224 72.7685 79.7938C72.8588 79.5271 73.0791 79.6141 73.0791 79.9427ZM59.4296 80.7487C59.4296 80.8231 59.5708 80.8975 59.7515 80.8975C60.0113 80.8975 60.0734 80.9719 60.0734 81.282C60.0734 81.4928 60.0113 81.7905 59.9435 81.9517C59.8249 82.1873 59.8532 82.2369 60.0452 82.2369C60.3162 82.2369 60.7172 81.654 60.7172 81.2696C60.7172 81.1208 60.8471 81.0463 61.1407 81.0587C61.4156 81.0587 61.4589 81.1373 61.2706 81.2944C60.9883 81.5176 60.8584 81.9331 61.0786 81.9331C61.1295 81.9331 61.3102 81.8276 61.4626 81.6974C61.7337 81.4865 61.7563 81.4865 61.8749 81.8462C61.9652 82.1314 62.0951 82.2307 62.3267 82.2307C62.5074 82.2307 62.6486 82.2927 62.6486 82.3795C62.6486 82.4539 62.5977 82.5283 62.5187 82.5283C62.4566 82.5283 62.3888 82.6336 62.3888 82.7514C62.3888 83.111 62.129 83.0056 62.0048 82.6026C61.8862 82.243 61.6321 82.1252 61.4513 82.336C61.4005 82.3794 61.4231 82.5158 61.5022 82.6212C61.5812 82.7266 61.6038 82.8755 61.5812 82.9313C61.4626 83.1421 60.5873 83.6133 60.5139 83.5265C60.3614 83.3467 60.5929 82.9747 60.9261 82.8259C61.248 82.6771 61.2593 82.6647 61.0447 82.3795C60.8414 82.1129 60.4631 82.1253 60.4631 82.3919C60.4631 82.4663 60.3219 82.6027 60.1412 82.6771C59.9605 82.7639 59.6668 82.9003 59.4692 83.0057C59.2659 83.0925 59.0569 83.1856 58.9778 83.1856C58.9157 83.198 58.7068 83.3467 58.5261 83.5265C58.1759 83.8985 58.2663 84.1838 58.6447 83.911C58.8367 83.7746 58.9383 83.7746 59.119 83.9544C59.3506 84.1466 59.3506 84.1776 59.1303 84.3698C58.8988 84.5806 57.9726 84.593 57.4192 84.3822C57.2667 84.3202 57.0973 84.3511 57.0578 84.4441C56.9053 84.7294 56.6963 84.624 56.7867 84.3077C56.8375 84.0969 56.798 83.9792 56.6455 83.9048C56.493 83.8428 56.3236 83.9667 56.0639 84.3202C55.742 84.779 55.7024 84.7977 55.6121 84.5434C55.533 84.3078 55.4935 84.2892 55.3805 84.4814C55.1998 84.779 54.4544 84.9712 54.3358 84.7666C54.1946 84.4814 54.0139 84.5868 54.0139 84.9775C54.0139 85.3681 53.9348 85.424 53.4605 85.2131C53.2402 85.1077 53.0369 85.1387 52.7376 85.2999C52.5174 85.4363 52.2971 85.4921 52.2463 85.4487C51.9865 85.1387 52.9183 84.3015 53.5339 84.3015C53.8049 84.3015 53.9179 84.2148 53.9744 84.0039C54.0252 83.7683 54.093 83.7373 54.2059 83.8551C54.3075 83.9605 54.5673 83.973 54.8214 83.9296C55.245 83.8242 55.4031 83.6009 55.7363 82.4538C55.8154 82.2182 55.8662 82.2431 56.1768 82.7081C56.5269 83.2414 56.8488 83.4211 56.8488 83.0676C56.8488 82.77 57.5434 82.3857 57.8145 82.5469C57.9557 82.6523 58.0743 82.6523 58.1646 82.5469C58.2437 82.4601 58.3679 82.429 58.4583 82.46C58.5486 82.5034 58.6616 82.4725 58.7181 82.3857C58.7576 82.2989 58.8592 82.2245 58.9214 82.2245C59.0004 82.2245 59.0117 82.2865 58.9722 82.3733C58.8028 82.6709 59.0625 82.5097 59.3562 82.1067C59.7402 81.6169 59.7685 81.1827 59.4183 81.0773C59.1586 81.0029 59.0456 80.5874 59.2884 80.5874C59.3675 80.5874 59.4183 80.6494 59.4183 80.7363L59.4296 80.7487ZM59.1755 81.3997C59.1755 81.5176 59.1247 81.6664 59.0456 81.7098C58.9835 81.7532 58.9157 81.6663 58.9157 81.4989C58.9157 81.3191 58.9778 81.1889 59.0456 81.1889C59.1247 81.1889 59.1755 81.2757 59.1755 81.3997ZM69.3462 81.2509C69.3462 81.2943 69.2954 81.3688 69.2163 81.4122C69.1542 81.4556 69.0864 81.4245 69.0864 81.3501C69.0864 81.2633 69.1486 81.1889 69.2163 81.1889C69.2954 81.1889 69.3462 81.2199 69.3462 81.2509ZM64.3202 82.7576C64.3202 82.8754 64.2693 82.9809 64.1903 82.9809C64.1281 82.9809 64.0604 82.8754 64.0604 82.7576C64.0604 82.6398 64.1225 82.5345 64.1903 82.5345C64.2693 82.5345 64.3202 82.6398 64.3202 82.7576ZM48.1916 83.1235C48.1916 83.3901 48.1125 83.5699 48.0108 83.5699C47.9092 83.5699 47.8414 83.3901 47.8414 83.1235C47.8414 82.8569 47.9035 82.6771 48.0108 82.6771C48.1181 82.6771 48.1916 82.8569 48.1916 83.1235ZM45.142 83.0801C45.142 83.1545 45.0799 83.3033 45.0121 83.4211C44.9218 83.5823 44.8597 83.601 44.7411 83.4646C44.662 83.3778 44.6394 83.2289 44.679 83.1359C44.7806 82.9561 45.142 82.9126 45.142 83.0739V83.0801ZM53.884 83.601C53.8953 83.6754 53.7541 83.7187 53.5734 83.7187C53.2007 83.7187 53.1725 83.6133 53.4718 83.2413C53.692 82.9561 53.7033 82.956 53.7824 83.2289C53.8332 83.3777 53.884 83.539 53.884 83.601ZM52.6077 83.5699C52.9409 83.8055 52.5682 84.0908 52.2237 83.8675C51.9922 83.7187 51.9639 83.6567 52.1051 83.5575C52.3366 83.3963 52.3762 83.3963 52.6077 83.5699ZM33.5538 83.7187C33.6555 83.7931 33.695 83.8986 33.6555 83.9544C33.5256 84.0908 33.1642 83.9109 33.1642 83.7187C33.1642 83.5389 33.2941 83.5265 33.5482 83.7187H33.5538ZM60.0734 83.7187C60.0734 83.7931 60.0452 83.8675 60.0226 83.8675C59.9831 83.8675 59.9209 83.7931 59.8814 83.7187C59.8419 83.6319 59.8701 83.5699 59.9322 83.5699C60.0113 83.5699 60.0734 83.6319 60.0734 83.7187ZM35.8692 83.9915C35.8692 84.2147 35.0843 84.5124 34.9318 84.3326C34.8414 84.2272 34.881 84.1404 35.1125 84.035C35.4852 83.8551 35.8749 83.8241 35.8749 83.9915H35.8692ZM50.7385 84.0474C50.9305 84.1342 51.0604 84.3326 51.0604 84.5062C51.0604 84.6674 51.162 84.9402 51.2806 85.089C51.4726 85.3432 51.4726 85.3867 51.3202 85.5046C51.2185 85.5914 50.9192 85.6967 50.6764 85.7401C50.4335 85.8021 50.1512 85.9199 50.0439 86.0067C49.9366 86.0935 49.5413 86.1679 49.1403 86.1679C48.5247 86.1679 48.4175 86.2114 48.457 86.4222C48.4852 86.602 48.4062 86.6888 48.2254 86.6888C48.0843 86.6888 47.9657 86.6144 47.9657 86.54C47.9657 86.2858 47.5421 86.3788 47.079 86.7012C46.7572 86.9244 46.407 87.0112 45.8536 87.0112C44.9896 87.0236 44.6169 87.1725 44.6169 87.5197C44.6169 87.7119 44.566 87.7119 44.2328 87.4887C43.8714 87.2345 43.8488 87.2345 43.6003 87.4887C43.4196 87.6809 43.2163 87.743 42.9848 87.6809C42.7815 87.6499 42.3692 87.6498 42.0473 87.7118C41.7254 87.7738 41.2737 87.7429 41.0534 87.6685C40.7711 87.5817 40.5282 87.5817 40.3475 87.6809C40.1781 87.7678 39.7658 87.7862 39.3705 87.7242C38.9075 87.6622 38.6251 87.6809 38.467 87.8111C38.3371 87.9165 37.7046 88.0219 37.0664 88.0467C36.4283 88.0715 35.8184 88.1832 35.7168 88.27C35.0617 88.8652 34.5308 88.7908 34.6889 88.1212C34.7906 87.6313 35.1125 87.4205 35.6151 87.4949C35.8749 87.5383 36.1968 87.4825 36.3775 87.3585C36.609 87.2097 36.7897 87.1972 37.0608 87.2964C37.4109 87.4452 38.3201 87.222 38.3201 86.9864C38.3201 86.943 38.7324 86.912 39.235 86.943C40.0708 87.005 40.1499 86.9864 40.212 86.6888C40.2515 86.4966 40.3532 86.3912 40.4548 86.4346C40.5452 86.478 40.7372 86.3726 40.8953 86.2238C41.1776 85.9385 41.6012 85.9695 41.7198 86.3105C41.7593 86.4283 41.9796 86.5214 42.2619 86.5214C42.6855 86.5214 42.725 86.4903 42.6459 86.1617C42.5273 85.5975 42.7081 85.5974 43.1598 86.1493C43.6116 86.7135 43.9844 86.8067 44.2441 86.4471C44.3345 86.3106 44.5152 86.2548 44.6451 86.2982C44.775 86.3416 45.0065 86.2981 45.1703 86.1803C45.5712 85.8951 46.791 85.7215 47 85.9261C47.2315 86.137 47.9374 85.8393 48.1181 85.4673C48.248 85.1697 48.6208 85.0829 48.6208 85.3309C48.6208 85.4053 48.7393 85.5417 48.8918 85.6285C49.1121 85.7773 49.242 85.7339 49.6373 85.4177C49.897 85.2069 50.2302 85.0333 50.3827 85.0333C50.5239 85.0333 50.7159 84.9278 50.8062 84.81C51.0265 84.5124 50.7441 84.097 50.4053 84.2148C50.1625 84.3016 50.0721 84.1404 50.2528 83.9482C50.3206 83.8573 50.4843 83.882 50.7441 84.0226L50.7385 84.0474ZM51.7042 84.1094C51.7042 84.2459 51.642 84.3201 51.5517 84.2891C51.3202 84.2023 51.2806 83.8737 51.5009 83.8737C51.6195 83.8737 51.7042 83.9792 51.7042 84.1094ZM49.2589 84.3015C49.2589 84.5124 49.0274 84.6426 48.8579 84.5248C48.7563 84.4628 48.7676 84.3883 48.8862 84.3015C49.1177 84.1403 49.2589 84.1403 49.2589 84.3015ZM60.7172 84.314C60.7172 84.4938 60.5986 84.5496 59.9831 84.6736C59.7402 84.717 59.5595 84.686 59.5595 84.6116C59.5595 84.5248 59.6894 84.4628 59.8532 84.4628C60.0056 84.4628 60.2259 84.3884 60.3275 84.314C60.5873 84.1217 60.7116 84.1217 60.7116 84.314H60.7172ZM52.2181 84.7604C52.2181 84.9216 52.1672 85.0581 52.0882 85.0581C52.0261 85.0581 51.9583 85.0271 51.9583 84.9961C51.9583 84.9651 51.9188 84.8349 51.8792 84.6985C51.8284 84.5372 51.8679 84.4628 52.0091 84.4628C52.1277 84.4628 52.2124 84.5806 52.2124 84.7604H52.2181ZM56.6342 85.1511C56.9674 85.2999 56.9279 86.0439 56.5721 86.1493C56.1711 86.2857 56.0808 86.1618 56.0808 85.4921C56.0808 85.0581 56.1316 84.9092 56.2502 84.9713C56.3293 85.0147 56.51 85.1077 56.6342 85.1511ZM39.2181 86.0439C39.2181 86.2795 39.0148 86.3292 38.8962 86.106C38.7945 85.9138 38.947 85.6285 39.0995 85.7339C39.1616 85.7959 39.2181 85.9261 39.2181 86.0439ZM52.2181 86.1184C52.2181 86.2672 52.1277 86.4036 52.0261 86.4036C51.8228 86.4036 51.7832 86.2671 51.9075 85.8951C52.0091 85.5975 52.2181 85.734 52.2181 86.1184ZM38.1507 86.0563C38.2015 86.2176 37.8175 86.4593 37.6989 86.3415C37.6707 86.2981 37.6707 86.1617 37.7272 86.0315C37.8062 85.7649 38.0773 85.7959 38.1507 86.0625V86.0563ZM28.9174 86.2486C28.9174 86.323 28.8666 86.3974 28.7876 86.3974C28.7254 86.3974 28.6577 86.323 28.6577 86.2486C28.6577 86.1618 28.7198 86.0998 28.7876 86.0998C28.8666 86.0998 28.9174 86.1618 28.9174 86.2486ZM29.6516 86.7693C29.5612 86.9802 29.4483 87.1414 29.3918 87.1414C29.3297 87.1414 29.3128 87.0546 29.3523 86.9492C29.3918 86.8624 29.4709 86.6516 29.5048 86.5152C29.5556 86.3664 29.6346 86.2795 29.6855 86.3229C29.7476 86.3663 29.725 86.5585 29.6459 86.7693H29.6516ZM53.1216 86.4717C53.2515 86.6515 53.2515 86.695 53.0821 86.695C52.9804 86.695 52.8618 86.5895 52.811 86.4717C52.7715 86.3539 52.7828 86.2486 52.8506 86.2486C52.9183 86.2486 53.0313 86.3539 53.1216 86.4717ZM50.8062 86.5462C50.8062 86.6206 50.7554 86.695 50.6764 86.695C50.6142 86.695 50.5465 86.6206 50.5465 86.5462C50.5465 86.4594 50.6086 86.3974 50.6764 86.3974C50.7554 86.3974 50.8062 86.4594 50.8062 86.5462ZM30.3349 87.5321C30.3349 87.6686 30.2728 87.7428 30.1824 87.7118C29.9509 87.625 29.9114 87.2964 30.1316 87.2964C30.2502 87.2964 30.3349 87.4019 30.3349 87.5321ZM33.9887 87.7367C34.2598 87.7367 34.3219 87.8111 34.3219 88.0963C34.3219 88.5738 34.1412 88.6916 33.8193 88.456C33.616 88.3072 33.5256 88.3072 33.3957 88.456C33.2037 88.6792 33.0343 88.6792 33.0343 88.456C33.0343 88.3692 32.9439 88.1583 32.831 88.0094C32.6277 87.7738 32.639 87.7429 32.9213 87.6065C33.1021 87.5321 33.3223 87.5321 33.4466 87.6065C33.5651 87.6809 33.808 87.7429 33.9887 87.7429V87.7367ZM31.7524 87.9599C31.9557 88.394 31.7806 88.766 31.47 88.5427C31.3797 88.4683 31.0973 88.4063 30.8544 88.4063C30.5326 88.4063 30.4027 88.332 30.3631 88.1398C30.3349 87.96 30.4027 87.8855 30.6229 87.8855C30.7923 87.8855 31.0069 87.8111 31.1142 87.7367C31.4248 87.5134 31.5773 87.5569 31.758 87.9599H31.7524ZM22.2876 96.9631C22.3271 97.0375 22.3271 97.1863 22.2763 97.2731C22.1972 97.4343 21.9826 97.1863 21.9657 96.9134C21.9657 96.7646 22.1972 96.7771 22.2876 96.9569V96.9631ZM15.3358 99.6293C15.3753 99.7037 15.3471 99.8091 15.2737 99.8649C15.2115 99.9083 15.1438 99.8525 15.1438 99.7285C15.1438 99.4619 15.2228 99.4185 15.3358 99.6231V99.6293ZM20.7402 101.13C20.8701 101.291 20.9209 101.427 20.8419 101.427C20.7797 101.427 20.6103 101.291 20.4804 101.13C20.3505 100.969 20.2997 100.832 20.3788 100.832C20.4409 100.832 20.6103 100.969 20.7402 101.13Z" fill="var(--fill-0, black)"/>
<path d="M72.3052 17.4602C72.3052 17.5346 72.3561 17.6709 72.4238 17.7887C72.565 18.0429 72.8361 17.8632 72.7344 17.578C72.6723 17.3548 72.3109 17.268 72.3109 17.4602H72.3052Z" fill="var(--fill-0, black)"/>
<path d="M24.5807 37.9963C24.2871 38.0583 24.1402 38.635 24.4113 38.635C24.6824 38.635 25.3261 38.1762 25.2471 38.0397C25.168 37.8909 25.0777 37.8785 24.5751 37.9963H24.5807Z" fill="var(--fill-0, black)"/>
<path d="M25.6984 38.041C25.6984 38.116 25.7611 38.1911 25.8294 38.1911C25.9092 38.1911 25.9604 38.116 25.9604 38.041C25.9604 37.9534 25.9092 37.8909 25.8294 37.8909C25.7667 37.8909 25.6984 37.9534 25.6984 38.041Z" fill="var(--fill-0, black)"/>
<path d="M22.8526 38.6038C22.4516 38.8271 21.757 39.3789 21.3052 39.8377C20.8534 40.2966 20.3508 40.7431 20.1871 40.8485C19.9442 40.9973 19.8934 41.1338 19.9273 41.6546C19.9668 42.2064 20.0064 42.2807 20.2887 42.2807C20.5711 42.2807 20.6106 42.2188 20.6106 41.76C20.5993 41.1771 21.0511 40.5695 21.4747 40.5695C21.9773 40.5695 23.999 38.6473 23.8296 38.3373C23.7279 38.145 23.6884 38.145 22.8526 38.6038Z" fill="var(--fill-0, black)"/>
<path d="M110.413 39.3975C110.413 39.6083 110.939 40.4826 111.108 40.557C111.469 40.7183 112.317 41.9273 112.497 42.5039C112.898 43.7812 113.282 46.3607 113.423 48.6053C113.474 49.2129 113.542 50.2546 113.576 50.9119C113.717 52.9208 113.717 59.0345 113.587 60.2126C113.395 61.9116 113.395 62.3394 113.587 62.699C113.819 63.1455 113.807 63.2509 113.418 63.7717C113.237 64.0259 113.107 64.3236 113.147 64.4414C113.186 64.5468 113.158 64.7079 113.107 64.7699C113.045 64.8443 112.904 65.4086 112.785 66.0224C112.684 66.6301 112.452 67.4671 112.283 67.8826C112.113 68.2856 111.933 68.7879 111.882 68.9987C111.831 69.2095 111.69 69.594 111.549 69.8482C111.419 70.1149 111.255 70.5923 111.176 70.9209C111.085 71.3054 110.865 71.665 110.493 72.006C109.911 72.5579 108.369 73.7607 108.251 73.7607C108.211 73.7607 107.9 74.0274 107.567 74.356C106.861 75.0381 106.794 75.0691 106.794 74.6536C106.794 74.4924 106.743 74.356 106.664 74.356C106.602 74.356 106.534 74.4738 106.534 74.6412C106.534 74.8644 106.364 74.9388 105.579 75.1001C104.755 75.2613 104.614 75.3356 104.574 75.6084C104.523 75.9928 104.083 76.1169 103.93 75.7882C103.75 75.4286 102.846 75.4597 102.643 75.8503C102.451 76.2099 102.151 76.2533 102.151 75.9246C102.151 75.565 101.508 74.4799 101.338 74.5543C101.248 74.5853 101.169 74.7652 101.146 74.9388C101.107 75.2055 101.067 75.2365 100.915 75.0876C100.632 74.821 100.565 75.0256 100.785 75.5341C101.056 76.1293 101.045 76.3649 100.706 76.6192C100.553 76.737 100.474 76.9043 100.525 77.0035C100.678 77.3011 100.875 77.1958 100.999 76.7369C101.079 76.4827 101.231 76.2905 101.35 76.2905C101.609 76.2905 102.406 77.3632 102.406 77.7042C102.406 78.0453 102.146 77.8097 101.943 77.2454C101.751 76.7246 101.248 76.5138 101.248 76.9478C101.248 77.0656 101.045 77.3073 100.796 77.481C100.322 77.822 100.192 78.2251 100.576 78.2251C100.695 78.2251 100.96 78.1072 101.169 77.9584C101.542 77.7042 101.553 77.7043 101.852 78.0453C102.202 78.4297 102.236 78.6716 101.954 78.6716C101.852 78.6716 101.762 78.5661 101.762 78.4483C101.762 78.163 101.299 78.1506 101.208 78.4172C101.118 78.7025 102.344 79.7876 103.151 80.1286C103.512 80.2898 103.964 80.5626 104.156 80.7362C104.348 80.8974 104.569 81.0462 104.67 81.0462C104.761 81.0462 105.003 81.2386 105.212 81.4928C105.433 81.7284 105.738 81.9392 105.907 81.9392C106.076 81.9392 106.268 82.057 106.359 82.2058C106.438 82.3546 106.782 82.6088 107.121 82.739C108.138 83.1854 108.347 83.3778 108.256 83.8118C108.194 84.1094 108.228 84.1962 108.448 84.2706C108.589 84.314 108.719 84.4627 108.719 84.6115C108.719 84.7603 108.911 85.0456 109.16 85.2688C109.583 85.6409 109.634 85.7772 109.956 87.563C109.996 87.7552 110.176 88.0964 110.38 88.3072C110.651 88.6048 110.764 88.9458 110.882 89.6588C111.074 90.9361 111.385 91.5624 112.209 92.3375C112.61 92.7095 113.073 93.3357 113.294 93.7945C113.666 94.551 113.706 94.6007 114.09 94.5077C114.502 94.4209 114.926 94.5821 115.248 94.9665C115.377 95.1153 115.519 95.1152 115.801 94.9974C116.021 94.923 116.224 94.7866 116.264 94.7122C116.383 94.489 116.868 94.5634 117.371 94.8734L117.845 95.1586L118.139 94.5324C118.331 94.1293 118.523 93.9061 118.692 93.9061C119.376 93.8937 120.172 92.9513 119.991 92.387C119.952 92.2816 120.042 92.0584 120.195 91.9096C120.466 91.5995 120.556 90.9733 120.375 90.5082C120.234 90.1486 120.579 90.1796 120.878 90.5517C121.279 91.0725 121.612 90.8802 121.815 90.0308C121.917 89.6153 122.047 89.169 122.109 89.0326C122.171 88.8838 122.228 88.5552 122.228 88.301C122.228 88.0343 122.38 87.5134 122.578 87.1414C122.86 86.5895 122.95 86.2052 123.018 85.1945C123.109 83.8862 123.25 83.1234 123.662 81.8461C123.973 80.9099 124.035 79.8992 123.831 79.5706C123.6 79.211 123.611 79.0931 123.882 79.0931C124.232 79.0931 124.645 78.5413 124.464 78.3367C124.362 78.2189 124.362 78.07 124.464 77.8034C124.565 77.5368 124.566 77.3695 124.453 77.1463C124.21 76.6998 124.261 76.3711 124.554 76.4641C124.938 76.5819 125.017 76.2533 124.695 75.9557C124.464 75.7324 124.424 75.5837 124.492 75.2116C124.543 74.945 124.684 74.7217 124.814 74.6783C124.983 74.6163 125.074 74.3932 125.125 73.8289C125.175 73.3949 125.175 72.9484 125.136 72.8182C125.096 72.7004 125.187 72.3407 125.339 72.0431C125.61 71.5099 125.61 70.7659 125.328 70.7659C125.158 70.7659 125.158 70.214 125.317 70.1086C125.446 70.0032 125.667 67.9199 125.61 67.3432C125.582 67.1324 125.52 66.9091 125.458 66.8223C125.396 66.7355 125.379 66.4069 125.418 66.0783C125.458 65.7497 125.509 64.5158 125.548 63.3253C125.599 61.0807 125.379 59.1895 125.085 59.2763C125.006 59.2887 124.944 59.2454 124.944 59.1586C124.944 59.0842 125.006 59.0098 125.085 59.0098C125.175 59.0098 125.204 58.7865 125.136 58.3711C125.017 57.4782 124.803 56.3 124.673 55.959C124.622 55.7978 124.543 55.4072 124.492 55.0972C124.453 54.7872 124.34 54.5019 124.261 54.4585C124.17 54.4275 124.091 54.1299 124.091 53.8012C124.08 53.4726 123.973 53.0448 123.86 52.8463C123.741 52.6355 123.656 52.3689 123.656 52.2511C123.656 51.4203 121.132 46.4475 120.499 46.063C120.358 45.9762 120.008 45.5299 119.726 45.0648C119.443 44.6184 118.98 44.0355 118.698 43.7689C118.416 43.5146 118.156 43.2605 118.145 43.1861C118.094 43.0806 117.179 42.3056 116.637 41.9335C116.343 41.7227 115.801 41.425 114.767 40.8917C114.383 40.6995 113.971 40.4578 113.864 40.3834C113.423 40.0734 112.977 39.9246 112.142 39.7882C111.65 39.7138 111.114 39.5525 110.956 39.4285C110.605 39.1619 110.391 39.1432 110.391 39.3664L110.413 39.3975ZM124.961 73.6615C124.961 73.9901 124.82 74.3436 124.69 74.3436C124.56 74.3436 124.537 73.7049 124.662 73.5561C124.803 73.3763 124.955 73.4383 124.955 73.6615H124.961Z" fill="var(--fill-0, black)"/>
<path d="M49.1293 46.776C49.1293 46.8939 50.174 48.0411 50.2361 47.9791C50.2474 47.9481 50.1062 47.669 49.9142 47.3404C49.6036 46.8071 49.1293 46.4598 49.1293 46.776Z" fill="var(--fill-0, black)"/>
<path d="M51.3317 48.8903C51.1792 49.0081 51.2018 49.0701 51.4842 49.2189C51.8682 49.4298 52.0376 49.3367 51.9247 48.9832C51.8343 48.729 51.6028 48.6981 51.3317 48.8965V48.8903Z" fill="var(--fill-0, black)"/>
<path d="M52.7375 50.1243C52.7375 50.3599 52.9804 50.6885 53.1611 50.6885C53.2119 50.6885 53.2514 50.5397 53.2232 50.3598C53.1837 49.9878 52.7319 49.7771 52.7319 50.1243H52.7375Z" fill="var(--fill-0, black)"/>
<path d="M53.4551 50.1677C53.5059 50.2855 53.6075 50.3908 53.6979 50.3908C53.7883 50.3908 53.8899 50.2855 53.9407 50.1677C53.9916 50.0065 53.9294 49.9444 53.6979 49.9444C53.4664 49.9444 53.4043 50.0065 53.4551 50.1677Z" fill="var(--fill-0, black)"/>
<path d="M53.9464 50.8498C53.9068 50.9366 53.9351 51.0854 54.0085 51.1784C54.1271 51.3149 54.1892 51.2962 54.2796 51.135C54.3982 50.9118 54.3304 50.6886 54.1497 50.6886C54.0876 50.6886 53.9972 50.763 53.9464 50.8498Z" fill="var(--fill-0, black)"/>
<path d="M54.5509 51.3708C54.2911 51.6808 54.2685 51.7738 54.421 51.8792C54.5509 51.9847 54.6807 51.8915 54.884 51.6125C55.0365 51.3893 55.1664 51.1662 55.1777 51.0918C55.1777 50.8686 54.8445 51.0173 54.5452 51.377L54.5509 51.3708Z" fill="var(--fill-0, black)"/>
<path d="M54.5392 54.1859C54.5392 54.4959 54.9232 54.6446 55.0531 54.3966C55.1943 54.1424 55.0926 53.9626 54.782 53.9626C54.6521 53.9626 54.5392 54.0681 54.5392 54.1859Z" fill="var(--fill-0, black)"/>
<path d="M53.8449 57.2241C53.8054 57.2861 53.8562 57.4782 53.9635 57.6271C54.1329 57.8627 54.1668 57.8813 54.2741 57.6891C54.3645 57.5527 54.3532 57.404 54.2628 57.2862C54.1103 57.0629 53.9409 57.0319 53.8506 57.2241H53.8449Z" fill="var(--fill-0, black)"/>
<path d="M100.294 60.6589C99.8813 61.0743 99.4069 61.4464 99.2262 61.4898C99.0455 61.5332 98.8027 61.6261 98.6841 61.7005C98.5824 61.7625 98.334 61.7874 98.1589 61.744C97.8991 61.682 97.7862 61.775 97.5659 62.1904C97.2327 62.8601 96.7922 63.1887 96.1372 63.2941C95.7757 63.3561 95.595 63.4554 95.5329 63.6662C95.4425 64.0072 94.6068 64.6334 93.8105 64.962C93.4886 65.0984 93.0876 65.3217 92.9069 65.4519C92.7262 65.5821 92.3422 65.7618 92.0429 65.8673C91.7323 65.9541 91.4895 66.0905 91.4895 66.1773C91.4895 66.2517 91.6307 66.2827 91.8227 66.2207C92.0824 66.1463 92.1446 66.1773 92.105 66.3261C92.0655 66.4439 91.8735 66.537 91.6532 66.537C91.3709 66.5494 91.1506 66.6981 90.857 67.1012C90.6254 67.3988 90.3431 67.6531 90.2414 67.6531C90.1398 67.6531 89.8405 67.8142 89.5863 68.025C89.3322 68.2358 89.0611 68.3971 88.9821 68.3971C88.7618 68.3971 87.3726 69.2032 87.3726 69.321C87.3726 69.5008 87.655 69.4575 88.0277 69.2342C88.2084 69.1288 88.5811 68.9986 88.8635 68.9366C89.1345 68.8746 89.6597 68.6699 90.0099 68.4901C90.3713 68.3102 90.857 68.0747 91.1054 67.9569C91.3483 67.8515 91.6589 67.6593 91.7888 67.5415C91.9808 67.3307 92.009 67.3492 92.009 67.5724C92.009 67.839 91.5346 68.3909 91.2862 68.4033C91.0829 68.4033 90.5915 69.0606 90.5915 69.3396C90.5915 69.4884 90.4391 69.6682 90.2414 69.755C90.0438 69.8418 89.8405 69.9906 89.7896 70.0836C89.7106 70.22 89.6372 70.22 89.4282 70.0712C89.1063 69.8356 89.0442 69.848 89.0442 70.1147C89.0442 70.3999 89.88 70.5734 90.2697 70.3688C90.4899 70.251 91.1732 70.251 92.585 70.3564C94.7479 70.5176 95.1884 70.4433 95.612 69.8481C95.7927 69.5939 95.8322 69.5814 95.9847 69.8046C96.1372 70.0155 96.2049 69.9968 96.6002 69.5938C97.052 69.1349 97.3344 69.0419 97.4756 69.2962C97.7184 69.7426 98.4412 69.2342 98.4412 68.6142C98.4412 68.2422 98.7349 68.1243 98.9043 68.4219C99.0455 68.7072 99.8305 68.453 100.322 67.9879C100.582 67.7337 100.966 67.2438 101.197 66.8718C101.429 66.4998 101.79 66.0224 102.022 65.7991C102.575 65.2659 102.536 64.9062 101.892 64.2242C101.4 63.6909 101.378 63.6165 101.508 63.2693C101.739 62.6864 101.7 62.4632 101.338 62.364C101.016 62.2772 100.915 61.9486 101.146 61.7812C101.225 61.7378 101.276 61.4711 101.276 61.1983C101.276 60.9254 101.367 60.5906 101.468 60.4232C101.728 60.0202 101.711 59.9149 101.35 59.9149C101.158 59.9149 100.745 60.2001 100.294 60.6589ZM100.887 60.9565C100.887 61.2541 100.824 61.4029 100.695 61.4029C100.384 61.4029 100.294 60.9442 100.565 60.721C100.779 60.5432 100.887 60.6217 100.887 60.9565Z" fill="var(--fill-0, black)"/>
<path d="M90.4446 66.4442C90.151 66.7108 90.151 66.7417 90.3825 66.8471C90.6536 66.9649 91.0376 66.7417 91.0376 66.4626C91.0376 66.134 90.7778 66.1341 90.4446 66.4504V66.4442Z" fill="var(--fill-0, black)"/>
<path d="M84.9615 70.1829C84.6509 70.3441 84.408 70.5427 84.408 70.6295C84.408 70.8403 84.4589 70.8216 85.1817 70.4062C86.1587 69.8419 85.9667 69.6621 84.9615 70.1829Z" fill="var(--fill-0, black)"/>
<path d="M88.4398 70.7038C88.4003 70.8402 88.4003 70.9704 88.4398 71.0324C88.5697 71.1812 88.9142 70.9456 88.9142 70.7038C88.9142 70.4061 88.5415 70.4061 88.4398 70.7038Z" fill="var(--fill-0, black)"/>
<path d="M83.301 71.1816C83.1598 71.4048 82.8887 71.597 82.7193 71.6156C82.5499 71.6466 82.2675 71.6777 82.1038 71.7025C81.6802 71.7645 81.6125 72.0868 82.0134 72.2108C82.4652 72.3286 83.4704 71.8699 83.7641 71.38C84.1763 70.7104 83.7528 70.5305 83.301 71.1878V71.1816Z" fill="var(--fill-0, black)"/>
<path d="M86.5313 71.8198C86.4917 71.8942 86.5425 71.9686 86.6498 71.9686C86.7684 71.9686 86.8531 71.8942 86.8531 71.8198C86.8531 71.733 86.8023 71.671 86.7346 71.671C86.6555 71.671 86.5651 71.733 86.5313 71.8198Z" fill="var(--fill-0, black)"/>
<path d="M78.2918 72.2667C78.1619 72.4279 78.0885 72.6078 78.1393 72.6512C78.241 72.769 78.7041 72.459 78.7944 72.1923C78.8961 71.8637 78.5629 71.907 78.2918 72.2667Z" fill="var(--fill-0, black)"/>
<path d="M80.8161 72.2479C80.5846 72.4587 80.5564 72.5456 80.6863 72.589C80.9065 72.6758 81.5729 72.3223 81.5729 72.1115C81.5729 71.8759 81.1493 71.9503 80.8105 72.2479H80.8161Z" fill="var(--fill-0, black)"/>
<path d="M80.3644 73.2586C80.274 73.364 80.5338 73.7483 80.6863 73.7483C80.7484 73.7483 80.8049 73.6616 80.8049 73.5376C80.8049 73.3144 80.4943 73.1222 80.3644 73.2524V73.2586Z" fill="var(--fill-0, black)"/>
<path d="M79.1279 73.9903C79.1279 74.1267 79.19 74.2012 79.2803 74.1702C79.5119 74.0834 79.5514 73.7546 79.3312 73.7546C79.2126 73.7546 79.1279 73.8601 79.1279 73.9903Z" fill="var(--fill-0, black)"/>
<path d="M74.4182 74.8522C74.3165 75.1808 74.4464 75.5343 74.6893 75.5343C74.9321 75.5343 74.949 75.0259 74.6893 74.7903C74.5368 74.6415 74.4859 74.6538 74.4182 74.8522Z" fill="var(--fill-0, black)"/>
<path d="M73.4236 74.8827C73.3219 75.0005 73.4349 75.2424 73.6043 75.2424C73.6664 75.2424 73.7229 75.1369 73.7229 75.0191C73.7229 74.7959 73.5704 74.7215 73.4292 74.8827H73.4236Z" fill="var(--fill-0, black)"/>
<path d="M75.9088 75.4473C75.9088 75.5652 75.971 75.714 76.0387 75.7574C76.1178 75.8008 76.1686 75.7448 76.1686 75.6208C76.1686 75.4968 76.1178 75.3542 76.0387 75.3108C75.9766 75.2674 75.9088 75.3233 75.9088 75.4473Z" fill="var(--fill-0, black)"/>
<path d="M74.9205 76.6814C74.7172 76.7682 74.7003 77.1711 74.881 77.1711C75.0222 77.1711 75.2142 76.7558 75.1239 76.6628C75.0956 76.6318 74.994 76.6504 74.9205 76.6752V76.6814Z" fill="var(--fill-0, black)"/>
<path d="M62.7785 77.9959C62.7785 78.3059 63.0891 78.43 63.411 78.2192C63.7724 78.0083 63.6425 77.7727 63.1512 77.7727C62.9084 77.7727 62.7785 77.8471 62.7785 77.9959Z" fill="var(--fill-0, black)"/>
<path d="M73.2827 78.1567C73.2319 78.3055 73.2714 78.3675 73.3618 78.3365C73.5538 78.2621 73.6554 77.9211 73.4917 77.9211C73.4296 77.9211 73.3223 78.0265 73.2884 78.1567H73.2827Z" fill="var(--fill-0, black)"/>
<path d="M71.4024 78.5175C71.4024 78.5926 71.465 78.6676 71.5334 78.6676C71.6131 78.6676 71.6644 78.5926 71.6644 78.5175C71.6644 78.4299 71.6131 78.3674 71.5334 78.3674C71.4707 78.3674 71.4024 78.4299 71.4024 78.5175Z" fill="var(--fill-0, black)"/>
<path d="M60.2659 78.8389C60.023 79.0001 60.0343 79.0187 60.3958 79.1241C60.7798 79.2419 61.1694 79.0496 61.0283 78.7954C60.9379 78.6156 60.5765 78.6342 60.2659 78.8389Z" fill="var(--fill-0, black)"/>
<path d="M59.4696 79.4836C59.43 79.62 59.43 79.7688 59.4809 79.8122C59.5712 79.9176 59.9439 79.5767 59.9439 79.3968C59.9439 79.1736 59.5599 79.248 59.4696 79.4836Z" fill="var(--fill-0, black)"/>
<path d="M67.8781 79.943C67.7482 80.3274 67.7877 80.6001 67.9685 80.6001C68.1605 80.6001 68.4711 79.9428 68.3525 79.794C68.2 79.6328 67.9515 79.7074 67.8781 79.943Z" fill="var(--fill-0, black)"/>
<path d="M56.341 80.3148C56.341 80.6745 56.6346 80.625 56.7024 80.2529C56.7306 80.1041 56.6629 79.9986 56.5499 79.9986C56.42 79.9986 56.3466 80.135 56.3466 80.3086L56.341 80.3148Z" fill="var(--fill-0, black)"/>
<path d="M55.0531 80.3766C54.9515 80.5254 54.7595 80.5688 54.4997 80.513C54.0988 80.4386 53.2517 80.823 53.2517 81.0958C53.2517 81.3191 53.6639 81.381 53.9971 81.2012C54.1891 81.0958 54.5788 80.978 54.8611 80.947C55.4146 80.8726 55.7873 80.5874 55.6461 80.3208C55.5162 80.0852 55.2451 80.11 55.0531 80.3828V80.3766Z" fill="var(--fill-0, black)"/>
<path d="M52.3091 80.9968C52.1284 81.189 52.2301 81.4867 52.4616 81.4867C52.7835 81.4867 52.9529 81.189 52.7214 81.0278C52.5011 80.8666 52.4108 80.8666 52.3091 80.9968Z" fill="var(--fill-0, black)"/>
<path d="M52.9923 81.7916C52.9923 81.8667 53.0549 81.9417 53.1233 81.9417C53.203 81.9417 53.2543 81.8667 53.2543 81.7916C53.2543 81.7041 53.203 81.6415 53.1233 81.6415C53.0606 81.6415 52.9923 81.7041 52.9923 81.7916Z" fill="var(--fill-0, black)"/>
<path d="M43.6567 82.6834C43.6172 82.7578 43.668 82.8322 43.7753 82.8322C43.8939 82.8322 43.9786 82.7578 43.9786 82.6834C43.9786 82.5966 43.9278 82.5346 43.86 82.5346C43.781 82.5346 43.6906 82.5966 43.6567 82.6834Z" fill="var(--fill-0, black)"/>
<path d="M42.268 82.9187C42.1268 83.0799 42.3075 83.2784 42.5786 83.2784C42.731 83.2784 42.8214 83.2039 42.7988 83.0861C42.7367 82.8753 42.3978 82.7761 42.2736 82.9249L42.268 82.9187Z" fill="var(--fill-0, black)"/>
<path d="M51.9362 134.687C51.0326 134.755 50.242 134.836 50.1742 134.885C50.0895 134.953 49.553 135.096 48.9601 135.245C47.8758 135.505 46.5487 136.237 45.7129 137.055C45.487 137.285 44.911 137.694 44.4309 137.967C43.9509 138.246 43.4144 138.587 43.2168 138.748C43.0191 138.897 42.172 139.449 41.3137 139.97C40.4666 140.478 39.6082 141.03 39.4105 141.191C39.2129 141.352 38.4223 141.861 37.6486 142.313C36.8749 142.772 35.8019 143.436 35.2485 143.814C33.9666 144.694 32.4136 145.655 31.0187 146.455C30.3975 146.815 29.4375 147.416 28.8897 147.807C28.325 148.179 27.3819 148.818 26.772 149.19C26.1508 149.562 25.5013 149.99 25.3037 150.151C24.5865 150.74 23.0448 151.763 22.2428 152.191C21.7911 152.433 21.1981 152.861 20.9327 153.102C20.6503 153.381 20.2832 153.574 20.0461 153.574C19.6112 153.574 18.2276 154.144 16.9118 154.894C16.4488 155.155 15.8389 155.415 15.5734 155.465C15.308 155.533 14.9805 155.663 14.8675 155.775C14.5174 156.103 13.6985 156.413 13.3145 156.376C13.0491 156.345 12.7385 156.587 11.9761 157.437C10.8636 158.677 9.97134 159.439 9.62121 159.439C9.49697 159.439 9.33885 159.588 9.29932 159.78C9.24285 159.96 9.04519 160.189 8.86448 160.289C8.68376 160.388 8.52564 160.518 8.52564 160.58C8.52564 160.642 8.80801 160.952 9.15814 161.25C9.49697 161.56 9.8471 162 9.94875 162.242C10.0335 162.484 10.1859 162.763 10.2989 162.88C10.3949 162.98 10.5812 163.29 10.7055 163.563C11.1855 164.672 11.8462 165.472 12.682 165.975C13.7098 166.576 14.0656 166.824 14.1616 166.967C14.7263 167.816 15.2459 168.399 15.5565 168.486C15.7541 168.554 16.0647 168.746 16.2342 168.926C16.5165 169.236 16.6012 169.236 17.2507 169.056C17.9001 168.876 17.9961 168.895 18.3801 169.205C18.606 169.404 18.8884 169.546 19.0013 169.546C19.1256 169.546 19.4079 169.726 19.6338 169.955C19.871 170.185 20.255 170.414 20.4922 170.464C20.8988 170.563 20.927 170.532 21.2828 169.614C21.6894 168.535 21.7459 168.473 22.6099 168.213C22.9488 168.114 23.4005 167.822 23.6377 167.574C23.8919 167.264 24.1855 167.103 24.4679 167.103C24.6938 167.103 25.0891 167.004 25.3432 166.874C25.891 166.613 27.5852 164.561 27.9692 163.711C28.1217 163.37 28.5734 162.682 28.997 162.18C29.4036 161.671 29.9005 161.07 30.0982 160.828C30.646 160.109 32.9049 157.815 33.0461 157.815C33.3115 157.815 34.6386 156.265 34.8362 155.713C34.9492 155.384 35.6833 154.361 36.457 153.412C37.2307 152.464 38.0213 151.503 38.2077 151.279C38.4053 151.037 38.5578 150.69 38.5578 150.51C38.5578 150.039 40.5061 148.111 42.9288 146.176C43.8041 145.476 44.4535 145.097 45.3289 144.794C46.4301 144.403 46.7237 144.372 49.0673 144.372C50.6316 144.391 51.891 144.471 52.3258 144.601C52.7211 144.713 53.6529 144.862 54.3701 144.942C55.1043 145.011 56.0474 145.172 56.4709 145.314C56.8945 145.445 57.9505 145.724 58.7976 145.916C59.656 146.127 60.7007 146.387 61.1243 146.517C61.5478 146.648 62.2819 146.858 62.745 146.976C63.2081 147.094 64.4505 147.447 65.4953 147.757C66.54 148.067 67.8106 148.458 68.3189 148.607C70.4761 149.246 76.8237 151.639 78.659 152.501C79.3367 152.829 80.4097 153.332 81.0591 153.642C83.3011 154.683 88.3102 157.784 89.129 158.615C89.2815 158.776 89.6655 159.086 89.9761 159.297C90.298 159.507 91.0209 160.109 91.5969 160.617C92.1729 161.126 93.3871 162.167 94.2794 162.949C95.8154 164.288 99.4014 167.791 100.249 168.802C100.7 169.354 100.909 169.224 100.813 168.461C100.757 168.101 100.661 167.922 100.446 167.891C100.023 167.822 99.8137 167.339 100.068 167.041C100.249 166.83 100.418 166.942 101.406 168.021C102.027 168.703 102.801 169.503 103.112 169.813C103.434 170.123 103.874 170.675 104.1 171.065C104.326 171.437 104.789 172.107 105.128 172.547C105.478 172.987 105.692 173.378 105.608 173.409C105.523 173.44 104.761 172.659 103.902 171.667C102.874 170.445 102.265 169.856 102.095 169.906C101.689 169.986 101.7 170.327 102.135 170.805C102.361 171.065 102.982 171.735 103.518 172.324C104.038 172.913 104.789 173.806 105.167 174.327C105.715 175.108 105.845 175.387 105.845 175.908C105.845 176.429 105.93 176.639 106.268 176.999C106.506 177.228 106.692 177.551 106.692 177.681C106.692 177.83 106.805 178.072 106.946 178.221C107.07 178.351 107.313 178.679 107.466 178.903C107.618 179.144 107.889 179.504 108.07 179.684C108.239 179.882 108.381 180.205 108.381 180.403C108.381 180.775 108.618 180.955 109.154 180.955C109.352 180.955 109.646 181.184 109.917 181.525C110.154 181.835 110.425 182.096 110.538 182.096C110.764 182.096 111.34 182.766 111.34 183.026C111.34 183.125 111.566 183.386 111.859 183.596C112.142 183.795 112.52 184.086 112.706 184.216C112.893 184.347 113.073 184.588 113.113 184.756C113.198 185.066 113.802 185.407 114.581 185.568C114.847 185.636 115.355 185.909 115.711 186.17C116.066 186.43 116.484 186.659 116.654 186.659C116.823 186.659 117.077 186.808 117.23 186.988C117.738 187.627 119.02 188.017 119.489 187.658C119.585 187.59 119.969 187.59 120.336 187.658C120.844 187.757 121.222 187.689 121.917 187.447C122.425 187.267 122.917 187.087 123.018 187.056C123.12 187.025 123.188 186.728 123.188 186.356C123.188 185.984 123.255 185.655 123.34 185.587C123.425 185.537 123.606 185.165 123.747 184.774C123.899 184.384 124.086 184.055 124.153 184.055C124.492 184.055 124.701 183.144 124.662 181.854C124.65 181.135 124.69 180.205 124.758 179.802C124.871 179.151 124.842 178.971 124.532 178.332C124.334 177.942 124.165 177.452 124.165 177.241C124.165 177.042 124.069 176.832 123.956 176.77C123.831 176.72 123.532 176.23 123.295 175.678C123.058 175.139 122.747 174.587 122.606 174.469C122.454 174.358 122.341 174.079 122.341 173.868C122.341 173.527 121.878 172.398 121.635 172.157C121.454 171.958 121.115 171.226 121.03 170.854C120.991 170.625 120.579 170.005 120.144 169.472C119.72 168.932 119.257 168.331 119.144 168.12C119.031 167.922 118.822 167.76 118.692 167.76C118.563 167.76 118.286 167.5 118.071 167.19C117.857 166.88 117.563 166.619 117.422 166.619C117.298 166.619 116.998 166.39 116.761 166.111C116.535 165.832 116.14 165.509 115.886 165.361C115.62 165.212 115.321 164.921 115.197 164.722C115.084 164.511 114.886 164.331 114.773 164.331C114.423 164.331 113.729 163.811 111.289 161.671C110.035 160.561 107.833 158.559 106.438 157.219C105.506 156.339 103.321 154.547 103.162 154.547C103.095 154.547 103.021 154.479 103.021 154.398C103.021 154.318 102.643 153.977 102.174 153.629C101.711 153.27 100.892 152.6 100.356 152.129C99.8193 151.67 99.2828 151.279 99.1586 151.279C99.0343 151.279 98.9327 151.211 98.9327 151.149C98.9327 151.069 98.5939 150.808 98.1703 150.56C97.7468 150.318 97.3684 150.008 97.3232 149.859C97.2668 149.698 97.1256 149.649 96.8997 149.711C96.702 149.76 96.5213 149.742 96.4761 149.661C96.4366 149.593 96.0526 149.32 95.6178 149.072C95.1942 148.812 94.8441 148.551 94.8441 148.483C94.8441 148.415 94.5504 148.204 94.1946 148.012C93.8445 147.813 93.3927 147.491 93.1781 147.292C92.7151 146.852 92.1503 146.542 90.6369 145.872C90.0044 145.593 89.4396 145.283 89.3945 145.221C89.3549 145.141 89.1968 145.073 89.0556 145.073C88.9032 145.073 88.5643 144.924 88.2933 144.763C88.0391 144.583 87.5196 144.391 87.1525 144.322C86.6612 144.242 86.4636 144.124 86.4071 143.901C86.3506 143.659 86.2377 143.591 85.8706 143.64C85.6052 143.659 85.3059 143.572 85.1534 143.43C84.871 143.138 84.0126 142.63 83.815 142.63C83.7472 142.63 83.3237 142.431 82.8832 142.189C82.4483 141.948 81.9514 141.731 81.7989 141.718C81.4036 141.687 80.6864 141.377 79.6812 140.819C79.2181 140.559 78.6251 140.348 78.371 140.348C78.1169 140.348 77.6933 140.236 77.411 140.106C77.1455 139.976 76.4114 139.777 75.8015 139.666C75.1803 139.554 74.6721 139.405 74.6721 139.337C74.6721 139.269 74.5196 139.207 74.3332 139.207C74.1356 139.207 73.9379 139.126 73.8984 139.046C73.8588 138.947 73.6047 138.884 73.3506 138.884C73.0852 138.884 72.8028 138.773 72.7012 138.643C72.5995 138.513 72.3228 138.401 72.0517 138.401C71.7976 138.401 71.5435 138.32 71.5039 138.24C71.4644 138.14 71.2385 138.078 71.0126 138.078C70.7867 138.078 70.5778 138.01 70.5326 137.93C70.4084 137.7 69.4201 137.589 69.2224 137.781C69.0813 137.911 68.9683 137.892 68.7876 137.682C68.6464 137.533 68.4939 137.452 68.4488 137.502C68.4205 137.551 67.997 137.403 67.5339 137.192C67.0426 136.962 66.6021 136.863 66.4892 136.931C66.3932 137.012 66.1955 136.962 66.0261 136.851C65.6872 136.59 63.9253 136.132 62.937 136.039C62.57 135.989 62.1634 135.89 62.0222 135.809C61.7398 135.629 60.1586 135.319 58.6056 135.139C58.0296 135.071 57.2954 134.941 56.9848 134.848C56.2394 134.619 53.9805 134.557 51.9475 134.668L51.9362 134.687ZM58.0747 144.57C58.2837 144.62 58.4531 144.732 58.4531 144.812C58.4531 144.961 56.9171 144.831 56.7589 144.663C56.6178 144.515 57.126 144.291 57.3914 144.384C57.5439 144.434 57.8432 144.515 58.0691 144.564L58.0747 144.57ZM59.3736 145.11C59.4131 145.19 59.3623 145.271 59.2494 145.271C59.1364 145.271 58.9952 145.19 58.9557 145.11C58.9162 145.011 58.967 144.949 59.08 144.949C59.1929 144.949 59.3341 145.017 59.3736 145.11ZM60.4297 145.432C60.4297 145.643 60.1473 145.643 59.8649 145.432C59.6955 145.302 59.7407 145.271 60.0456 145.271C60.2546 145.271 60.424 145.339 60.424 145.432H60.4297ZM61.9939 145.86C62.1634 146.102 62.1351 146.12 61.7003 146.009C61.0226 145.848 60.825 145.6 61.3784 145.6C61.6156 145.6 61.8979 145.711 61.9996 145.86H61.9939ZM64.1004 146.251C65.3823 146.579 66.8675 147.02 67.2064 147.181C67.3193 147.23 67.517 147.292 67.6299 147.311C67.9405 147.379 70.8206 148.353 71.7185 148.694C72.1421 148.855 73.0287 149.153 73.6951 149.332C74.3615 149.512 75.2481 149.804 75.6547 150.002C76.0782 150.182 77.4449 150.752 78.7042 151.242C81.7932 152.433 88.5925 156.265 89.5356 157.337C89.7728 157.598 90.0722 157.827 90.1851 157.827C90.3093 157.827 90.7611 158.137 91.1847 158.528C91.6082 158.9 92.1277 159.309 92.3423 159.439C92.54 159.551 92.749 159.799 92.7772 159.96C92.8167 160.14 92.9748 160.27 93.1443 160.27C93.3137 160.27 93.4379 160.338 93.4379 160.431C93.4379 160.512 93.5226 160.592 93.6356 160.592C93.7316 160.592 94.1833 160.903 94.6238 161.275C95.0474 161.665 95.5669 162.105 95.7646 162.267C96.03 162.477 96.1034 162.657 96.0469 162.887C95.9622 163.166 96.0074 163.197 96.3293 163.098C96.6794 162.998 96.7077 163.017 96.6117 163.358C96.527 163.668 96.5552 163.718 96.7529 163.637C96.9053 163.556 97.2442 163.786 97.8258 164.369C98.4866 165.038 98.6447 165.268 98.5713 165.54C98.5148 165.739 98.4583 165.913 98.4301 165.95C98.3906 165.999 98.0348 165.658 97.6282 165.218C96.7416 164.226 94.9175 162.546 94.7368 162.546C94.669 162.546 94.3302 162.236 93.9913 161.845C93.3701 161.163 93.0765 160.896 92.4948 160.605C92.3254 160.506 91.8454 160.065 91.4388 159.625C91.0322 159.166 90.5522 158.794 90.394 158.794C90.2246 158.794 90.0552 158.695 90.0157 158.565C89.9479 158.366 89.2985 157.864 87.9714 157.002C87.7737 156.872 87.0847 156.413 86.4466 155.973C85.7972 155.552 85.2211 155.204 85.1477 155.204C85.0743 155.204 84.9105 155.055 84.7694 154.876C84.6282 154.696 84.4475 154.547 84.3627 154.547C84.2385 154.547 80.9179 152.867 80.133 152.395C79.9918 152.296 79.54 152.116 79.1447 151.986C78.7494 151.856 78.1282 151.565 77.7611 151.348C77.394 151.131 76.9705 150.957 76.8293 150.957C76.6881 150.957 76.338 150.808 76.0274 150.628C75.7168 150.449 75.282 150.3 75.0391 150.3C74.7963 150.3 74.3332 150.151 74.0113 149.971C73.7007 149.791 73.3224 149.642 73.1642 149.642C73.023 149.642 72.8536 149.574 72.7689 149.512C72.7011 149.432 72.3905 149.301 72.0799 149.202C71.7693 149.091 71.1764 148.911 70.7698 148.762C70.3632 148.632 69.9396 148.551 69.838 148.601C69.725 148.65 69.5726 148.551 69.4709 148.359C69.3749 148.129 69.1773 148.018 68.9231 148.018C68.7142 148.018 68.1608 147.869 67.6977 147.689C67.2459 147.509 66.7376 147.361 66.5852 147.361C66.444 147.361 66.0656 147.261 65.7381 147.131C64.8232 146.772 64.2415 146.592 63.3097 146.381C62.7055 146.232 62.4231 146.102 62.4231 145.941C62.4231 145.78 62.5078 145.73 62.6773 145.811C62.8015 145.86 63.4509 146.052 64.1173 146.22L64.1004 146.251ZM99.3619 166.464C99.3619 166.545 99.3054 166.626 99.2207 166.626C99.153 166.626 99.0795 166.545 99.0795 166.464C99.0795 166.365 99.1473 166.303 99.2207 166.303C99.3054 166.303 99.3619 166.371 99.3619 166.464Z" fill="var(--fill-0, black)"/>
<path d="M98.2717 168.473C98.17 168.591 98.283 168.833 98.4524 168.833C98.5145 168.833 98.571 168.728 98.571 168.61C98.571 168.387 98.4185 168.312 98.2773 168.473H98.2717Z" fill="var(--fill-0, black)"/>
</g>
</svg>
