<svg width="120" height="244" viewBox="0 0 120 244" fill="none" xmlns="http://www.w3.org/2000/svg">
<path d="M119.674 182.009C118.945 181.8 117.92 182.125 117.086 182.232C116.408 182.279 113.388 183.386 113.731 182.981C115.074 181.405 117.217 181.33 118.369 180.819C118.992 180.544 119.365 180.6 119.161 180.056C118.945 179.475 119.348 179.321 118.018 179.73C115.773 180.349 113.439 181.433 111.495 182.758C111.271 182.911 111.033 183.023 110.792 183.139C109.475 183.762 108.496 185.237 107.332 186.181C107.344 186.181 107.353 186.181 107.366 186.181C106.912 186.232 106.713 185.906 106.103 186.302C105.222 186.343 104.829 185.371 104.24 184.837C103.571 184.613 103.253 183.772 102.715 183.297C99.0599 179.354 94.8498 175.968 91.1946 172.085C90.0807 170.523 89.5979 172.015 88.5009 172.127C87.9333 171.815 87.3446 171.857 86.7517 171.834C86.7517 171.834 85.9723 171.332 86.1417 172.499C86.362 177.526 87.1498 182.59 88.5687 187.385C89.0557 188.627 88.7931 189.975 87.7512 190.724C87.3361 191.384 87.7766 192.286 87.3107 192.951C87.1159 193.3 86.6924 193.598 86.5695 193.975C86.4382 194.389 87.226 194.64 87.3531 194.914C87.5988 195.328 88.0731 195.528 88.4247 195.802C88.7084 195.802 88.9541 195.546 89.2379 195.481C90.3221 194.951 89.8859 193.514 90.212 192.51C90.4492 191.891 90.6356 191.273 90.5847 190.594C90.3645 188.641 90.0892 186.678 89.3183 184.869C89.1616 183.144 89.0388 181.344 88.4374 179.726C88.4713 178.4 86.9253 174.164 88.1409 173.746C92.1688 177.601 95.6673 182.818 99.6147 186.957C100.818 187.924 102.211 190.496 103.143 190.185C105.604 189.654 106.735 190.157 107.018 188.329C107.446 187.831 107.937 188.11 108.319 188.208C110.051 188.064 111.775 187.548 113.558 187.366C114.439 187.171 117.476 187.399 116.429 185.734C114.21 185.409 111.838 186.86 109.648 186.418C109.623 185.943 110.161 185.897 110.474 185.897C112.164 185.367 114.185 183.846 116.65 183.614C117.056 183.614 118.615 183.456 119.051 183.279C119.581 183.19 120 183.046 120 183.046C120 183.046 120.008 182.339 119.665 182.009H119.674ZM103.384 188.11C99.5173 184.111 95.0447 179.261 91.1269 174.796C90.9617 174.29 90.2205 173.666 89.8732 173.29C89.6911 173.09 89.852 172.95 90.0299 172.778C92.2493 174.931 95.2056 177.638 97.1497 180.251C97.2725 180.405 97.3615 180.493 97.6706 180.8C97.7088 180.837 97.9968 180.758 98.0815 180.851C98.1916 180.972 98.1365 181.293 98.1704 181.326C99.5385 182.651 101.86 184.725 103.13 186.269C103.905 187.208 104.024 187.929 103.384 188.115V188.11ZM52.7876 212.018C52.1989 212.241 52.6859 214.181 52.0421 214.655C50.9325 215.199 51.3137 216.803 50.4623 217.561C50.1531 217.873 49.8948 218.296 49.4204 218.152C48.2387 218.938 46.9723 219.231 45.6212 218.659C44.8376 218.403 41.6949 217.627 42.6564 219.426C43.0503 219.315 43.3129 219.552 43.5416 219.873C44.1727 220.528 45.1214 220.273 45.888 220.556C49.5475 222.551 53.5076 218.031 53.1307 213.967C52.8554 213.102 53.8337 212.418 52.7876 212.013V212.018ZM61.5126 177.177C61.6863 177.624 62.0632 177.689 62.2453 178.108C62.8341 178.879 63.5202 177.791 62.8087 177.284C62.6731 176.787 63.139 176.066 63.6473 176.285C63.9226 176.396 64.2275 176.87 64.5113 176.587C65.1127 176.326 64.7485 175.713 64.5325 175.248C64.1979 174.504 63.2788 174.406 63.0035 173.638C62.2369 173.006 61.538 171.648 60.5893 171.481C60.1954 171.713 59.4034 171.95 59.6532 172.55C60.4326 174.02 60.7884 175.675 61.5126 177.177ZM66.4342 196.379C65.2652 197.951 64.1471 200.211 63.3211 202.266C63.2957 204.48 62.4868 205.847 62.6774 207.791C63.3423 208.056 63.5033 207.833 63.8887 207.768C65.1212 206.605 63.66 200.82 69.1788 195.184C69.4075 194.951 69.6786 194.388 69.9793 194.83C70.1953 195.853 68.9289 196.402 68.8315 197.448C67.2178 200.192 66.5231 203.573 66.8408 206.8C67.4719 207.182 67.6286 206.777 68.0521 206.665C68.9712 205.898 68.7171 203.02 68.8484 202.01C69.0094 200.267 71.1525 196.267 71.8979 194.97C72.2664 194.598 72.6518 194.398 73.0796 194.147C73.5074 194.026 73.8589 193.263 74.3164 193.575C74.6298 194.026 74.0241 194.43 73.7615 194.719C73.2363 195.291 73.1474 196.077 72.9568 196.835C72.9144 197.011 72.8467 197.179 72.7704 197.337C71.9699 199.016 70.0852 204.536 71.593 205.787C71.809 205.968 71.953 205.903 72.3257 205.894C73.4989 205.866 72.402 203.168 72.8975 201.913C74.9263 197.825 73.8166 195.119 77.3362 192.519C78.2215 191.863 78.5391 192.668 77.8699 193.375C77.0948 195.286 75.3117 200.466 75.9513 202.122C75.7734 202.373 75.5912 203.261 76.0614 203.536C76.0699 203.736 76.1164 203.95 76.3197 204.043C78.6577 204.619 77.4972 199.764 78.34 198.285C78.717 194.579 79.0643 192.449 81.6352 190.691C82.423 190.501 83.3379 190.682 84.0452 190.171C84.6297 189.32 85.5911 188.878 85.9427 187.804C86.4043 186.757 85.426 186.734 85.8368 185.581C85.697 184.381 85.7224 183.19 85.6631 181.977C85.121 180.568 84.2146 179.028 83.4565 177.749C82.4823 177.726 82.9101 177.131 82.6009 176.726C80.5594 176.178 78.1113 176.113 76.0402 175.815C75.3879 175.21 74.4688 175.406 73.698 175.066C73.0923 174.885 72.8763 174.169 72.2071 174.164C71.7921 174.266 69.9157 173.731 68.3698 172.741C66.2944 171.406 64.2953 170.058 63.5456 169.63C63.1348 169.393 62.7748 170.025 63.6473 171.332C64.5876 171.988 65.2483 172.053 65.7481 172.918C65.8285 173.411 67.8827 174.573 68.967 174.638C69.6913 175.303 70.2461 175.131 70.3139 175.168C70.3816 175.206 69.9581 175.443 69.5091 176.35C69.3736 176.624 68.4799 177.252 69.0941 177.503C70.0301 177.768 71.6735 174.448 72.7239 177.312C73.2152 178.647 70.1445 177.689 69.2169 180.172C69.0009 180.484 68.6536 180.665 68.6282 180.121C68.4418 179.8 68.0648 179.777 67.8065 179.568C66.8747 178.81 65.9005 180.126 64.9687 180.251C62.9103 181.712 61.9827 180.433 60.8476 178.452C59.4965 175.996 58.9756 173.132 57.8998 170.639C57.4423 169.509 56.879 168.374 56.3411 167.253C56.0192 166.914 55.6296 166.216 55.5025 165.793C55.638 165.545 55.8512 165.412 56.1421 165.393C56.7011 165.505 57.4085 166.43 58.0607 166.216C58.3657 166.198 59.4457 166.575 59.2763 165.886C58.8951 164.426 56.6376 164.277 55.6253 163.57C55.2187 163.282 54.5876 163.184 54.5876 163.184C54.5876 163.184 53.9354 163.454 53.6855 163.891C53.8126 166.83 55.7736 169.472 56.608 172.15C57.3026 174.085 57.6414 176.108 58.4038 177.968C58.4927 178.131 58.8909 178.312 58.9205 178.498C58.9629 178.754 58.5647 178.879 58.7045 179.131C59.3779 179.805 59.649 180.893 60.2928 181.637C60.6274 182.205 61.627 181.846 62.2115 182.028C62.9061 182.423 63.6049 183.037 64.4308 183.116C65.5702 183.195 65.7142 181.488 66.6926 181.233C67.1288 181.419 67.7853 181.809 68.2766 181.474C69.5303 181.033 69.0136 182.39 68.7552 183.065C68.8865 183.604 68.2597 184.711 68.9035 184.934C69.6193 185.064 70.0343 184.53 70.1063 183.739C70.0852 183.4 70.0852 183.265 70.191 183.13C70.2588 183.042 70.5341 183.232 70.5976 183.139C70.6696 183.037 70.7925 183.028 70.8603 182.921C71.0974 182.535 71.3007 182.111 71.4744 181.674C72.6942 180.13 75.0195 179.056 76.7856 178.521C78.0775 178.879 80.0893 178.126 80.8474 179.633C81.1482 180.619 82.3807 180.298 82.5797 181.251C82.9821 183.274 83.6555 186.036 82.0291 187.599C81.0889 188.506 79.6276 188.543 78.5264 189.013C77.5946 189.413 76.8534 190.059 75.803 190.212C73.626 191.259 71.144 190.347 69.0771 191.422C68.4418 191.845 67.887 192.417 67.2389 192.812C66.701 193.142 66.1716 193.282 65.5786 193.421C64.9137 193.579 64.7781 194.216 64.4774 194.323C63.7616 194.579 63.3338 193.565 62.6435 193.426C61.9446 193.282 61.2204 193.324 60.513 193.384C59.1111 193.496 57.6541 193.826 56.2649 193.454C55.6296 193.282 55.1891 192.756 54.6088 192.528C54.2192 192.375 53.5034 192.18 53.5034 192.18C53.5034 192.18 52.0464 193.203 51.3391 192.984C50.8477 192.835 50.9833 191.803 50.132 191.612C49.6025 191.491 48.9926 191.231 48.4081 191.18C47.705 191.119 46.985 191.143 46.3455 190.757C45.6974 190.366 45.2188 189.64 44.5073 189.375C43.9482 189.166 43.2917 189.375 42.9444 188.696C42.2794 187.404 41.4874 186.669 40.1024 186.501C39.7593 186.46 39.4586 186.98 39.2257 186.785C38.9673 186.571 39.34 186.264 39.1198 186.018C38.5861 185.418 38.0821 184.832 37.523 184.246C36.6209 182.679 35.2994 183.074 34.1389 182.163C33.241 181.46 32.7581 180.084 31.479 180.144C29.7933 179.14 29.0902 176.898 27.0826 176.261C25.0666 175.159 23.635 172.788 21.4071 172.322C19.3995 171.676 18.1204 168.281 15.9138 168.077C14.5881 167.449 13.0421 167.444 11.9113 166.398C11.2209 166.137 10.2806 165.761 9.586 165.677C9.37846 165.91 9.49705 166.398 9.57753 166.733C10.8609 168.067 12.6144 168.565 14.1688 169.444C15.054 169.932 16.2611 169.807 16.854 170.82C17.8536 171.727 19.2767 172.806 20.2424 173.838C20.7972 174.011 21.4537 174.006 21.9069 174.452C22.1568 174.936 22.3644 175.489 22.9827 175.368C23.6223 175.634 27.5316 179.07 27.6714 179.219C30.255 181.046 32.6904 182.972 35.1724 184.897C37.9042 184.711 38.0482 188.371 40.1405 189.501C41.4366 190.287 43.3806 189.915 44.232 191.533C44.7699 192.431 43.1901 192.556 43.8381 193.393C44.2616 194.356 45.2146 192.965 45.4941 194.714C45.6043 195.398 45.5577 196.132 45.3417 196.788C44.7148 198.392 42.8258 198.89 41.7331 200.118C39.628 200.685 37.6374 201.332 35.6594 202.229C34.4947 202.462 33.7662 202.08 33.2833 201.383C33.1393 201.057 32.8386 199.997 32.8894 199.611C32.36 196.439 31.1741 193.351 29.7806 190.505C29.1368 188.552 28.2093 186.943 27.3791 185.032L25.4689 182.451C25.4689 182.451 25.4605 182.446 25.4562 182.442C25.1301 182.009 24.7997 181.614 24.4651 181.27C24.1432 181.112 24.2449 180.963 24.4651 180.781C24.5626 180.702 24.2237 180.382 24.4863 180.14C24.7235 179.921 25.0454 180.288 25.1216 180.154C25.2614 179.903 25.2529 179.591 24.859 179.186C23.9484 178.261 23.5587 179.479 21.5766 180.433C20.8099 180.8 18.7939 180.065 19.2513 181.154C19.336 181.33 19.8104 181.712 19.5097 182C19.3106 182.219 18.8532 181.907 18.6287 181.986C15.7909 182.939 12.8261 185.832 10.0773 186.832C10.2383 186.018 9.50553 186.892 9.50977 187.059C9.514 187.227 9.52671 187.641 9.58177 188.134C10.9329 189.087 12.555 186.962 13.813 186.664C14.9311 186.297 15.8545 186.72 16.71 185.697C16.9599 185.32 17.1336 184.762 17.6376 184.762C20.8481 183.665 17.3199 187.046 17.2437 188.306C17.0192 189.171 16.2695 189.752 16.3754 190.71C16.5364 192.128 15.8502 193.403 15.469 193.844C15.1556 194.486 15.1895 194.998 15.0836 195.723C15.126 196.402 16.0747 196.43 16.2441 195.788C16.7481 194.868 17.6842 193.207 17.8621 192.059C18.0611 190.752 18.7007 190.026 18.9209 188.985C18.976 188.641 19.9247 186.167 20.1619 186.278C21.0387 186.576 19.7638 191.17 19.4673 192.045C19.6579 192.942 18.5609 196.1 18.5694 198.002C18.5736 199.197 18.8066 199.281 19.48 199.267C20.6914 198.095 20.1916 196.676 20.5685 195.319C20.9285 192.9 21.6782 190.515 21.7756 188.027C21.7036 187.148 21.6359 186.032 22.1145 185.237C22.2246 184.283 22.0594 183.511 22.5338 182.646C23.3343 181.814 23.6773 182.73 23.9526 183.479C23.9781 183.525 23.9992 183.567 24.0246 183.609C24.2915 184.162 24.6473 184.804 24.8124 185.278C25.6638 185.874 25.3461 186.836 26.3203 187.464C26.5193 188.213 26.8116 189.124 27.5358 189.399C29.1707 191.189 28.2559 194.077 29.7086 196.039C29.7806 196.751 29.9331 198.244 30.094 198.918C30.3101 199.829 30.5599 200.513 30.8564 201.173C31.0682 201.899 31.4409 202.82 31.8136 203.461C31.8899 203.796 31.9534 204.112 32.3177 204.178C33.7238 204.443 35.1554 204.308 36.4769 203.778C37.468 203.685 38.2176 202.806 39.2384 202.806C40.5726 202.945 41.5679 201.555 42.8216 201.369C43.927 200.155 45.3628 199.295 46.7648 198.504C47.5949 198.081 48.1371 196.579 49.0562 196.439C49.4628 196.653 49.1027 197.011 48.9757 197.276C48.8656 197.807 49.3823 198.179 49.5813 197.644C49.8355 197.434 50.1616 197.374 50.3141 197.021C51.0934 195.728 52.093 196.625 51.0341 197.644C50.2506 198.899 50.0515 200.192 49.9117 201.727C49.899 201.876 50.0642 202.424 50.0218 202.676C49.9541 202.903 49.5814 203.345 49.5644 203.475C49.2976 205.801 50.8605 207.809 49.9625 210.163C49.395 211.325 49.3145 212.674 48.1667 213.478C47.3196 214.069 47.0994 215.329 45.905 215.134C43.5458 214.483 40.1744 214.176 37.9762 213.139C37.8195 213.037 37.6543 212.925 37.4807 212.809C36.4091 212 34.3125 211.534 33.3257 210.767C33.0419 210.702 31.8729 209.981 31.5299 209.781C31.1953 209.526 30.8691 209.558 30.5176 209.26H30.5472L30.4879 209.237C30.3566 209.126 30.2253 209.014 30.0856 208.902C27.6883 207.586 25.901 205.233 23.0336 206.317C22.8218 206.396 21.9916 206.321 21.8858 206.535C21.458 207.4 22.017 207.242 21.2843 208.135C21.0302 208.256 21.1276 208.619 20.9497 208.87C20.7676 209.13 20.8015 210.511 20.9158 210.865C21.0132 211.172 21.2547 211.274 21.5046 211.255C21.6104 211.386 21.7672 211.414 21.962 211.255C23.1225 210.507 23.2114 210.288 24.3423 209.488C24.8336 208.874 26.2186 209.195 26.8878 209.321C27.5824 209.474 27.629 209.791 28.0653 210.307C30.3694 210.911 32.1779 212.874 34.338 213.85C36.3202 215.613 39.2977 215.599 41.822 215.971C43.5882 216.943 45.7101 217.533 47.6754 217.51C48.6241 217.045 50.1235 216.799 50.1277 215.404C50.9155 214.008 51.4238 212.572 51.9871 211.06C52.2116 210.781 52.4106 210.33 52.2454 210.177C51.9278 209.888 51.8388 209.563 51.8558 209.084C51.6779 205.717 51.1358 202.257 51.8177 198.927C52.1904 197.504 53.3636 196.969 54.5792 196.793C55.0408 196.621 55.494 196.165 55.998 196.444C56.5698 196.723 58.7511 195.207 58.6537 196.853C58.281 198.058 57.3153 197.853 56.7986 199.281C56.4851 199.713 56.3284 200.28 55.9218 200.611C55.3839 201.043 56.0108 201.945 55.6719 202.471C55.5576 202.648 55.511 202.964 55.439 203.168C54.8291 204.903 54.5792 206.493 54.9392 208.377C55.5745 208.702 55.7863 208.679 56.015 208.568C56.7689 208.195 56.6969 206.735 56.8875 205.819C57.5059 202.964 57.8532 200.355 59.7337 198.272C60.4072 197.755 61.4999 195.43 62.1818 196.523C62.0547 197.476 62.1818 197.588 61.8091 198.239C61.7371 198.369 62.0166 198.527 61.8769 198.769C61.7117 199.057 61.4279 198.862 61.3517 198.983C61.0509 199.453 60.4495 200.522 60.1446 201.099C59.2339 203.303 58.5054 205.801 58.7299 208.372C59.1238 208.935 59.6151 208.753 60.1191 208.521C61.0128 207.889 60.4707 205.47 60.657 204.294C61.0552 201.741 65.5956 194.3 66.4427 196.356L66.4342 196.379ZM87.082 224.086C86.0613 222.867 87.226 222.421 86.3154 222.505C84.3883 221.723 82.4061 221.114 80.4281 220.51C79.4667 220.217 78.4968 219.938 77.5396 219.617C76.5696 219.291 75.6802 218.729 74.706 218.403C73.6599 218.054 72.9483 217.757 71.8852 217.501C71.1483 217.324 70.2885 217.292 69.6531 216.794C68.8272 216.148 67.6837 216.32 66.8112 215.776C66.485 215.38 65.3245 215.776 65.3669 215.041C69.6743 213.436 73.7065 211.367 78.2723 210.953C80.174 210.06 81.7157 207.331 83.592 206.382C84.7229 205.931 85.0914 204.382 86.129 203.792C86.8406 203.447 87.6115 204.066 88.3188 203.894C88.6407 203.722 88.6745 202.559 88.8694 202.276C89.8308 201.466 88.1917 200.401 87.7385 199.839C87.298 198.811 84.0918 203.103 83.5581 203.675C80.3138 207.53 76.7772 208.735 72.529 210.214C68.9501 211.455 65.4304 212.999 62.1395 214.948C61.0128 216.083 63.4397 215.799 63.9946 216.464C64.4266 216.98 63.6134 217.092 63.3338 217.296C61.7201 218.301 66.1589 219.268 66.6968 220.142C71.8471 222.839 76.9254 225.002 82.4273 226.574C83.5031 227.039 82.4866 227.946 82.6856 228.811C82.44 229.685 82.4273 230.801 82.1731 231.699C81.4955 234.033 81.6056 237.009 81.0719 238.73C80.4535 240.72 79.7208 242.729 80.4239 243.199C80.7416 243.408 81.2159 243.515 82.1604 243.455C82.4908 243.357 82.6644 243.031 82.5586 242.757C82.3891 242.325 82.6475 242.181 82.6772 241.971C83.0118 239.762 83.9308 233.475 84.0748 229.857C83.9563 229.406 84.1765 228.62 84.6043 229.238C84.545 230.452 84.4645 231.852 84.7144 233.061C84.8542 233.74 84.8584 234.475 84.8626 235.21C84.8669 235.758 84.8711 236.307 84.9389 236.833C85.0194 237.465 85.1591 238.074 85.2862 238.693C85.3794 239.153 84.9389 239.525 85.2904 239.786C85.7521 240.125 85.5488 241.013 85.7351 241.441C85.8495 242.673 87.1413 242.306 87.4081 241.427C88.4882 240.269 86.9126 237.972 87.0905 236.46C86.6627 234.014 86.4128 231.759 85.8622 229.359C86.0105 228.076 85.6504 226.36 84.8203 225.351C78.1706 223.174 71.8217 220.896 65.4473 217.799C64.9264 217.65 65.4177 216.924 65.6168 216.952C70.6019 218.701 75.3922 221.217 80.5848 222.565C81.326 222.821 82.063 223.012 82.7534 223.407C83.7445 223.965 85.1252 223.57 85.9427 224.593C86.4636 225.606 86.7432 226.76 86.9296 227.895C87.027 228.485 87.1117 229.076 87.2133 229.666C87.3107 230.238 87.5564 230.782 87.6623 231.364C87.7851 232.057 87.9461 233.852 88.6195 233.931C89.3268 234.014 89.8308 234.261 90.1697 233.535C89.9198 232.08 89.3226 230.08 88.8397 228.648C88.8143 226.811 87.9461 225.537 87.0736 224.081L87.082 224.086ZM30.848 206.298C33.5332 207.219 37.7094 207.303 39.5857 204.698C39.7678 203.006 38.1245 204.526 37.4214 204.582C35.7272 205.391 33.2198 205.787 31.6019 204.805C31.407 204.489 30.759 205.084 30.9962 205.521C31.0597 205.945 30.615 205.852 30.848 206.294V206.298Z" fill="white"/>
<path d="M25.6802 210.641C25.4345 210.381 25.2905 210.646 25.0406 210.776C22.7789 212.367 21.8259 213.004 19.5811 214.683C19.3228 214.938 17.6964 216.547 18.1199 216.733C18.5985 217.282 19.2126 216.52 19.8014 216.52C21.1821 215.543 22.4528 214.687 23.8251 213.864C25.0703 212.706 25.6675 213.604 26.5654 212.013C27.4252 211.297 25.9809 210.958 25.6802 210.637V210.641ZM15.9768 219.435C14.3165 221.398 12.8298 223.402 10.0937 225.155C10.1657 226.132 10.0598 226.936 10.5003 226.95C10.7926 226.96 11.9489 226.09 12.3639 225.774C12.7578 224.825 13.0797 225.272 13.4016 224.983C15.6803 222.951 16.8111 220.51 18.607 218.956C18.9543 216.352 16.6333 218.505 15.9725 219.435H15.9768ZM17.6328 215.636C17.8319 215.259 17.7006 214.45 17.7006 214.45C16.2436 214.45 13.8548 215.999 12.5545 216.64C12.1606 216.836 11.7371 216.924 11.3093 216.878C10.8476 216.826 10.4029 216.836 10.4114 217.436C10.4326 217.65 10.4114 218.138 10.3351 218.226C10.1022 218.491 9.56006 218.049 9.7083 219.012C10.9027 220.37 14.1132 216.943 15.4007 216.785C15.1297 217.873 13.9183 218.552 13.3296 219.026C12.4317 220.296 9.64053 220.63 9.78877 222.56C9.72948 223.049 9.54735 223.69 10.2208 223.546C11.5126 222.751 16.5147 217.761 17.6328 215.645V215.636Z" fill="white"/>
<path d="M51.3421 0.165249C51.2362 0.221053 51.0118 0.267544 50.8381 0.267544C50.3341 0.276844 50.0461 0.490703 49.9783 0.904587C49.9487 1.10455 49.9571 1.32781 49.9995 1.40686C50.0376 1.49522 50.0884 1.90911 50.0969 2.34625C50.1054 2.76944 50.1647 3.27161 50.224 3.43902C50.2833 3.61574 50.3299 3.97382 50.3299 4.25284C50.3299 4.53186 50.3765 4.74581 50.4358 4.74581C50.5501 4.74581 50.8424 5.49459 50.7661 5.62945C50.7449 5.68525 50.8042 5.85257 50.9101 5.99673C51.016 6.15485 51.1134 6.52226 51.1431 6.84313C51.1727 7.21051 51.249 7.48021 51.3845 7.63368C51.4988 7.76854 51.5878 8.0151 51.5878 8.19181C51.5878 8.38248 51.6259 8.54982 51.6767 8.58237C51.7276 8.61492 51.7911 8.87068 51.8207 9.1497C51.8673 9.51709 51.9563 9.70775 52.1299 9.84261C52.2824 9.95422 52.3502 10.0891 52.3121 10.21C52.2824 10.3216 52.3883 10.8239 52.5535 11.3355C52.706 11.8377 52.8415 12.3492 52.8415 12.4515C52.8415 12.5631 52.9177 12.698 53.0151 12.7631C53.1041 12.8189 53.1803 12.9863 53.1888 13.1305C53.21 14.0001 53.2354 14.1257 53.4683 14.3582C53.6039 14.4931 53.7097 14.7162 53.7097 14.8511C53.7097 14.9952 53.7563 15.1394 53.8072 15.1766C53.8749 15.2231 53.8665 15.3208 53.7987 15.465C53.7225 15.6417 53.7309 15.7533 53.8453 15.9672C53.9342 16.1114 54.0105 16.5253 54.0274 16.8927C54.0486 17.4275 54.0952 17.5855 54.2773 17.7622C54.4128 17.8831 54.4806 18.0412 54.4425 18.1063C54.4044 18.1854 54.3535 19.9572 54.3366 22.0592C54.3154 24.1704 54.2773 26.0865 54.2477 26.333C54.1587 27.1468 53.9978 29.4487 53.9596 30.574C53.9215 31.6111 53.8622 32.4389 53.4556 36.9916C53.2523 39.3121 53.3201 39.1447 52.6636 39.0656C52.3544 39.0191 51.7572 38.9773 51.321 38.9634C50.5755 38.9401 50.3765 38.9959 50.6179 39.1633C50.7619 39.2749 50.7322 39.554 50.5713 39.554C50.495 39.554 50.4273 39.6563 50.4273 39.7679C50.4273 39.8795 50.495 40.0004 50.5713 40.0469C50.6475 40.0795 50.7153 40.2236 50.7153 40.3817C50.7153 40.5259 50.7619 40.67 50.8296 40.6933C50.9059 40.7258 50.8762 40.8375 50.7322 41.0607C50.6179 41.2281 50.5205 41.442 50.5205 41.5164C50.5205 41.6048 50.4823 41.6746 50.423 41.6746C50.3765 41.6746 50.3256 41.5396 50.3256 41.3862C50.3256 41.2188 50.2875 41.1304 50.2197 41.1723C50.0927 41.2746 49.5336 41.0142 49.4277 40.8142C49.3388 40.6561 49.0719 40.6142 49.0719 40.7583C49.0719 40.8048 49.3599 41.1397 49.72 41.5071C50.6475 42.4651 50.7153 42.5441 50.7153 42.7348C50.7153 42.8231 50.7534 42.9022 50.8127 42.9022C50.9271 42.9022 51.2955 43.7161 51.2955 43.9951C51.2955 44.1067 51.1897 44.2648 51.0457 44.3392C50.7746 44.4741 50.6221 44.4182 50.6221 44.1811C50.6221 44.102 50.5543 44.0137 50.4781 43.9672C50.4019 43.9346 50.3341 43.8323 50.3341 43.744C50.3341 43.5533 50.0715 43.4184 49.9868 43.5765C49.9571 43.6416 49.9953 43.7765 50.0842 43.8882C50.1731 43.9998 50.2367 44.1206 50.2367 44.1671C50.2367 44.302 50.9228 45.5855 51.1558 45.9063C51.609 46.5109 51.88 47.2131 51.88 47.7712C51.88 48.0827 51.9393 48.4175 52.024 48.5431C52.1003 48.6547 52.1681 48.9012 52.1681 49.0686C52.1681 49.2453 52.257 49.5244 52.3713 49.6825C52.4984 49.8732 52.545 50.0638 52.5069 50.2405C52.4688 50.4079 52.5154 50.5986 52.6424 50.7753C52.7483 50.9334 52.8161 51.1195 52.7864 51.2125C52.7568 51.2916 52.8076 51.5147 52.8838 51.7054C52.9728 51.8821 53.0363 52.1611 53.0363 52.3099C53.0363 52.4587 53.1337 52.8029 53.2566 53.068C53.3794 53.3331 53.5657 53.8817 53.6716 54.2631C53.8072 54.7886 53.9427 55.0537 54.1757 55.2676C54.3578 55.435 54.9296 56.0395 55.4505 56.6162C56.3696 57.6207 56.5899 57.8207 57.0727 58.0672C57.1871 58.1323 57.2845 58.2346 57.2845 58.2904C57.2845 58.3555 57.4115 58.481 57.5555 58.5693C57.797 58.7135 57.8859 58.7135 58.2586 58.5693C58.4916 58.467 58.7626 58.3136 58.8558 58.2252C59.1354 57.9229 59.1565 58.1461 58.877 58.5693C58.7415 58.7832 58.5297 58.9693 58.4153 58.9926C58.2629 59.0158 58.212 59.0948 58.2205 59.2808C58.2501 59.5599 58.1993 59.5692 57.7673 59.3925C57.4962 59.2901 57.4285 59.3041 57.3311 59.4483C57.2633 59.5599 57.1193 59.6389 57.0134 59.6389C56.9075 59.6389 56.7805 59.6854 56.7508 59.7505C56.6534 59.9273 56.3569 59.8715 56.1705 59.6389C55.891 59.2809 55.6962 59.3506 55.7767 59.7738C55.8359 60.1086 55.8232 60.1086 55.6623 59.9412C55.5649 59.8296 55.4505 59.783 55.4209 59.8202C55.3828 59.8667 55.1583 59.9087 54.9084 59.9227C54.6373 59.9459 54.3578 60.0435 54.1841 60.1923C53.9639 60.383 53.8749 60.4062 53.7309 60.3039C53.5785 60.1923 53.4599 60.2155 53.1125 60.4062C52.8796 60.5411 52.6297 60.6527 52.5619 60.6527C52.5026 60.6527 52.3502 60.7876 52.2231 60.955C52.0706 61.155 51.9605 61.2247 51.8673 61.1457C51.6344 60.9782 51.1727 61.0247 50.8424 61.234C50.6772 61.3456 50.4866 61.4247 50.4061 61.4108C50.3172 61.3875 50.2917 61.4758 50.3087 61.713L50.3299 62.0478L50.1562 61.8153C49.9148 61.4898 49.4319 61.3689 49.2668 61.6014C49.199 61.6897 49.0719 61.7688 48.9872 61.7688C48.9025 61.7688 48.7458 61.8478 48.6484 61.9362C48.3858 62.1687 48.2121 62.1501 48.0131 61.8572C47.8606 61.6247 47.8606 61.6014 48.0046 61.4665C48.1486 61.3456 48.1486 61.3224 48.0046 61.155C47.9157 61.0527 47.7844 61.0108 47.6954 61.0527C47.5133 61.1317 47.4752 61.4898 47.6276 61.6014C47.7717 61.7037 47.742 62.1037 47.5895 62.1037C47.5218 62.1037 47.4074 62.1826 47.3396 62.271C47.1745 62.5035 47.0516 62.485 47.0516 62.2153C47.0516 61.9455 46.7806 61.9129 46.7043 62.1594C46.6662 62.2617 46.5222 62.3269 46.3274 62.3269C46.1325 62.3269 45.9716 62.3734 45.9419 62.4385C45.836 62.6291 45.7217 62.5594 45.6624 62.2478C45.5734 61.8805 45.7598 61.7223 46.0309 61.9362C46.2511 62.1269 46.4756 61.9828 46.4756 61.6479C46.4756 61.4712 46.3994 61.4479 45.8869 61.4479C45.4422 61.4572 45.277 61.5038 45.2007 61.6619C45.1033 61.8293 44.989 61.8525 44.5442 61.8199C44.1376 61.7874 43.964 61.8106 43.8793 61.9315C43.7268 62.1455 43.8793 62.2572 44.3706 62.2572C44.8323 62.2572 44.9 62.3688 44.5908 62.6013C44.4087 62.7361 44.3028 62.7593 44.1673 62.6663C44.0614 62.6105 43.7988 62.5547 43.587 62.5547C43.1508 62.5547 43.0745 62.4431 43.4049 62.2757C43.7903 62.0757 43.7226 61.8851 43.2524 61.8851C42.6256 61.8851 42.2952 62.0525 42.3757 62.3315C42.4138 62.4896 42.3842 62.5779 42.2613 62.6338C42.1639 62.6663 42.0199 62.7686 41.9437 62.8476C41.8293 62.9593 41.6938 62.9593 41.2956 62.857C41.0246 62.7779 40.7662 62.6896 40.7239 62.6338C40.618 62.5221 40.3003 62.5315 40.3003 62.6663C40.3003 62.8105 39.7116 62.6664 39.5083 62.4664C39.3558 62.3222 39.3346 62.3223 39.2753 62.4897C39.216 62.6664 39.1991 62.6664 39.0339 62.4897C38.8814 62.3223 38.7163 62.313 37.9031 62.3688C37.3821 62.4013 36.8315 62.5036 36.6875 62.5687C36.5054 62.671 36.3698 62.6803 36.2639 62.6013C36.175 62.5455 35.9251 62.5222 35.7133 62.5547C35.3745 62.6012 35.3279 62.6431 35.3576 62.8663C35.3872 63.0895 35.3576 63.122 35.1627 63.0895C35.0187 63.0662 34.9298 62.9686 34.9128 62.8012C34.8832 62.5687 34.8451 62.5547 33.782 62.5547C33.0958 62.5547 32.6638 62.6012 32.613 62.6756C32.5749 62.7547 32.6511 62.7872 32.8247 62.764C33.1805 62.7314 33.6464 62.8849 33.5871 63.0105C33.5575 63.057 33.4601 63.0663 33.3838 63.0337C33.3076 63.0012 33.1339 63.0337 33.0069 63.1128C32.812 63.2337 32.7273 63.2244 32.4181 63.0105C32.1301 62.8105 32.0115 62.7872 31.7701 62.8756C31.5287 62.9779 31.4525 62.9547 31.1983 62.7175C30.8891 62.4153 30.7621 62.3827 30.5418 62.5501C30.4529 62.6152 30.3216 62.5827 30.1352 62.4617C29.9023 62.3036 29.8472 62.3036 29.6143 62.4385C29.394 62.5826 29.3517 62.5826 29.2458 62.4292C29.178 62.3269 28.9832 62.2617 28.7418 62.2617C28.4538 62.2617 28.2674 62.1827 28.0387 61.9595C27.865 61.7921 27.6533 61.6572 27.577 61.6572C27.4881 61.6572 27.2382 61.4573 27.0052 61.2108C26.7723 60.9644 26.4927 60.7643 26.3784 60.7643C26.2513 60.7643 25.9337 60.6062 25.6457 60.4295C25.3661 60.2388 25.0739 60.0947 24.9976 60.0947C24.7477 60.0947 23.6762 59.1786 23.4348 58.7554C23.2992 58.5322 23.0959 58.2763 22.9731 58.2066C22.846 58.1275 22.6851 57.8718 22.5961 57.6486C22.4987 57.416 22.3251 57.1696 22.2022 57.0812C22.0667 57.0022 21.8719 56.6906 21.7575 56.379C21.6432 56.0767 21.4187 55.7 21.2662 55.5512C21.0841 55.3745 20.9655 55.128 20.9274 54.849C20.8893 54.6025 20.7622 54.3003 20.6394 54.1701C20.5165 54.0399 20.4064 53.8353 20.4064 53.7237C20.4064 53.6121 20.3683 53.5004 20.3175 53.4679C20.2666 53.4353 20.2031 53.1796 20.1735 52.9005C20.1353 52.6215 19.9913 52.1193 19.8558 51.7845C19.661 51.2729 19.6356 51.1055 19.7118 50.8451C19.8177 50.5103 19.7584 49.6406 19.6356 49.4407C19.4704 49.1849 19.3179 48.3897 19.2883 47.7107C19.2586 46.8737 19.4831 45.2879 19.7499 44.4415C19.8262 44.209 19.8177 44.0602 19.7203 43.8509C19.6229 43.6277 19.6144 43.5254 19.7118 43.3579C19.7796 43.237 19.8262 43.0696 19.8262 42.9766C19.8262 42.8975 19.8939 42.7627 19.9786 42.6744C20.1142 42.5395 20.1142 42.5162 19.9575 42.386C19.7923 42.2511 19.805 42.2186 19.9659 41.628C20.093 41.2141 20.1989 41.0141 20.3132 41.0141C20.4488 41.0141 20.5928 40.8003 20.5928 40.6003C20.5928 40.5677 20.4869 40.5771 20.3513 40.6096C20.0506 40.698 20.0337 40.4515 20.2921 39.8934C20.4742 39.4935 20.7537 39.3587 20.7071 39.6935C20.6859 39.8051 20.7283 39.8934 20.7834 39.8934C20.9189 39.8934 20.9104 39.4144 20.7749 39.2563C20.6224 39.0796 21.0544 38.4518 21.3255 38.4518C21.5203 38.4425 21.6559 38.2518 21.6559 37.9728C21.6559 37.9077 21.5669 37.8845 21.461 37.917C21.3552 37.9496 21.2662 37.9263 21.2662 37.8705C21.2662 37.8147 21.3128 37.7682 21.3636 37.7682C21.4229 37.7682 21.461 37.6892 21.461 37.6008C21.461 37.5125 21.55 37.3311 21.6559 37.2102C21.7618 37.0892 21.8507 36.9078 21.8507 36.8195C21.8507 36.7172 21.9396 36.6521 22.054 36.6521C22.2277 36.6521 22.2488 36.6056 22.1895 36.3266C22.1599 36.136 22.1684 35.9685 22.2277 35.9266C22.287 35.8941 22.3335 35.9174 22.3335 35.9732C22.3335 36.0383 22.3801 36.0941 22.4394 36.0941C22.5072 36.0941 22.5157 35.9732 22.4775 35.75C22.3886 35.3268 22.5834 34.778 22.7952 34.8013C22.9011 34.8106 22.9604 34.7222 22.9604 34.5688C22.9604 34.4339 23.0578 34.2339 23.1806 34.1455C23.3331 34.0107 23.3924 33.8573 23.3924 33.5317C23.3924 33.1644 23.422 33.1178 23.5745 33.1643C23.7101 33.2108 23.8075 33.1317 23.9218 32.876C24.087 32.5086 24.0489 32.3086 23.816 32.3086C23.6635 32.3086 23.6423 32.1878 23.7694 32.0204C23.8075 31.9646 23.8837 31.7738 23.9134 31.5971C23.9811 31.3088 23.9727 31.2856 23.8244 31.4205C23.7355 31.4995 23.6042 31.7088 23.5237 31.8762C23.4559 32.0436 23.3035 32.211 23.1933 32.2575C22.9816 32.3366 22.9307 32.6016 23.1256 32.6807C23.1933 32.7132 23.1722 32.7457 23.079 32.7457C22.9816 32.755 22.8672 32.8667 22.7994 32.9922C22.7232 33.1596 22.6724 33.1922 22.6173 33.1038C22.5707 33.0155 22.4648 33.0945 22.27 33.3503C21.7109 34.0851 21.0163 35.1826 20.5208 36.0522C19.8727 37.2148 19.7287 37.4473 19.6313 37.4473C19.428 37.4473 19.8516 36.0847 20.2285 35.5592C20.4911 35.1919 20.8765 34.2292 20.8765 33.9409C20.8765 33.7642 20.9231 33.6527 21.0206 33.6527C21.118 33.6527 21.1646 33.5409 21.1646 33.3177C21.1646 33.0945 21.2111 32.9829 21.3001 32.9829C21.3763 32.9829 21.4737 32.8713 21.5034 32.7504C21.5627 32.5365 21.766 32.1924 22.3717 31.267C22.4479 31.146 22.4987 31.0204 22.4691 30.9972C22.4098 30.9321 21.7448 31.5227 21.7448 31.6437C21.7448 31.6995 21.6305 31.8761 21.4737 32.0575C20.7791 32.8853 20.3937 33.5317 20.3937 33.8526C20.3937 34.0991 20.3344 34.2106 20.2116 34.2664C20.1057 34.299 19.9913 34.4339 19.9617 34.5548C19.9236 34.6664 19.8558 34.7687 19.8092 34.7687C19.7499 34.7687 19.7414 34.9269 19.7796 35.1594C19.8177 35.4151 19.8007 35.5499 19.733 35.5499C19.6737 35.5499 19.6271 35.4941 19.6271 35.4383C19.6271 35.1686 19.3264 35.3593 19.1527 35.7407C19.0468 35.9732 18.8139 36.4103 18.6233 36.7218C18.403 37.0799 18.3141 37.3124 18.3734 37.3822C18.5386 37.5728 18.4793 37.917 18.276 37.9728C18.1701 38.0053 17.9583 38.2611 17.8143 38.5541C17.6788 38.8331 17.4204 39.2331 17.2425 39.4377C17.0646 39.6423 16.9249 39.8609 16.9249 39.9307C16.9249 40.0004 16.73 40.4096 16.5013 40.8468C16.2726 41.2839 16.0481 41.7629 16.01 41.9071C15.9338 42.2094 15.0232 43.3673 14.8707 43.3673C14.8241 43.3673 14.697 43.4882 14.5911 43.6463C14.4853 43.8044 14.3497 43.9253 14.2819 43.9253C14.2142 43.9253 13.9431 44.0462 13.6848 44.2043C13.4052 44.3718 13.1257 44.4601 12.9986 44.4276C12.6894 44.3392 12.6301 44.5717 12.8843 44.8833L13.1045 45.153L12.9012 45.5669C12.7868 45.7901 12.3802 46.3574 11.9821 46.8178C11.5967 47.2875 11.1985 47.8223 11.1138 48.0223C11.0079 48.2548 10.8512 48.4036 10.6776 48.4454C9.9745 48.6221 9.80932 48.8268 9.47895 49.8871C9.20788 50.8032 9.14858 52.0635 9.35189 53.0121C9.49589 53.6911 9.49589 53.8725 9.38154 54.5189C9.19941 55.5559 9.22906 57.2626 9.41965 57.8114C9.51707 58.0439 9.58484 58.4019 9.58484 58.5926C9.58484 58.7833 9.67378 59.16 9.77967 59.4297C9.88556 59.6994 9.9745 59.997 9.9745 60.0993C9.9745 60.2016 10.0634 60.4807 10.1693 60.7225C10.2752 60.955 10.4107 61.3271 10.47 61.5503C10.5378 61.7735 10.7792 62.3873 10.9995 62.9221C11.2324 63.4476 11.423 63.9498 11.423 64.0289C11.423 64.094 11.5204 64.3172 11.6433 64.5079C11.7661 64.6985 12.0117 65.1542 12.1854 65.5216C12.6089 66.4145 13.2273 67.7631 13.4687 68.3118C13.5746 68.5583 13.7017 68.7676 13.7483 68.7909C13.7864 68.8141 13.8753 69.0048 13.9304 69.2141C13.9855 69.4234 14.1252 69.6512 14.2311 69.707C14.3285 69.7721 14.4132 69.921 14.4132 70.0326C14.4132 70.2465 14.7436 70.637 15.002 70.7486C15.1079 70.7952 15.146 70.8929 15.1163 71.0929C15.057 71.3952 15.6754 72.7576 16.1794 73.4459C16.3234 73.6459 16.442 73.8598 16.442 73.9249C16.442 74.0923 17.1959 75.1758 17.3103 75.1758C17.3696 75.1758 17.4077 74.9527 17.4077 74.683C17.4077 74.2598 17.3484 74.1016 17.0223 73.6691C16.7046 73.2459 16.6453 73.1017 16.6919 72.8553C16.73 72.6879 16.7682 72.5298 16.7893 72.5205C16.8571 72.4089 17.4458 73.3111 17.8143 74.1063C18.0346 74.5853 18.3649 75.1108 18.5386 75.2549C18.7122 75.4131 18.8562 75.5897 18.8562 75.6688C18.8562 75.7339 18.9325 76.0036 19.0299 76.2734C19.1739 76.7105 19.212 76.7523 19.4661 76.6965C19.6779 76.6407 19.7965 76.6966 19.9278 76.8872C20.1015 77.1198 20.1226 77.1197 20.2455 76.9337C20.4106 76.6872 20.4657 76.6873 20.8257 77.0128C21.2789 77.4034 21.7533 77.6592 21.9185 77.5941C21.9947 77.5616 22.1387 77.5847 22.2361 77.6405C22.7401 77.9521 22.4182 76.8267 21.8676 76.357C21.4229 75.9757 21.3933 75.9013 21.6178 75.5432C21.8126 75.2177 21.9269 75.2317 22.054 75.5991C22.1599 75.9432 22.8672 77.0965 23.2526 77.5755C23.4348 77.7987 23.5406 77.8545 23.6084 77.7754C23.6846 77.6871 23.8032 77.729 24.0235 77.9336C24.4597 78.3149 24.5656 78.2777 24.5063 77.7754C24.4597 77.4173 24.4979 77.3057 24.7774 76.929C25.0654 76.5384 25.1162 76.5152 25.2984 76.6408C25.5864 76.8547 25.8108 76.7059 25.8108 76.3059C25.8108 75.906 25.6075 75.4037 25.2687 74.934C25.1416 74.7573 25.0358 74.5202 25.0358 74.4085C25.0358 74.2969 24.9383 74.0645 24.8155 73.8831C24.6037 73.5808 24.1675 72.767 24.1675 72.6647C24.1675 72.6414 24.2564 72.6181 24.3623 72.6181C24.6249 72.6181 25.04 73.0972 25.04 73.3901C25.04 73.7017 25.4169 74.5155 25.5991 74.5945C25.6753 74.641 25.7812 74.5852 25.832 74.4736C25.9379 74.2504 26.2471 74.4085 26.3445 74.7434C26.3742 74.8643 26.4885 74.9666 26.5944 74.9666C26.7299 74.9666 26.7765 74.8876 26.7765 74.655C26.7765 74.4876 26.7299 74.2877 26.6622 74.2086C26.5732 74.1063 26.5944 74.0319 26.7215 73.8645C26.8739 73.6645 26.8739 73.6087 26.6325 72.8042C26.497 72.3345 26.3996 71.9113 26.4292 71.8555C26.5436 71.6555 27.1535 71.409 28.0302 71.2323C29.1992 70.9858 29.4787 70.9208 30.8299 70.5627C31.4398 70.3953 32.1428 70.2186 32.4054 70.1628C33.7565 69.8605 34.5486 69.6512 35.5227 69.3257C35.7938 69.2467 36.1326 69.1676 36.2766 69.1676C36.4206 69.1676 36.6917 69.0886 36.8865 69.0002C37.1957 68.8421 38.0936 68.6188 38.4621 68.6002C38.5384 68.5909 38.9746 68.4979 39.4278 68.3863C39.881 68.2747 40.4697 68.1538 40.7323 68.1073C41.0034 68.0608 41.2618 67.9864 41.3295 67.9166C41.3888 67.8608 41.8208 67.7725 42.2952 67.7167C42.7569 67.6702 43.4261 67.5492 43.7734 67.4376C44.1207 67.3353 44.7475 67.1912 45.1753 67.1028C45.5989 67.0238 46.3824 66.8005 46.9119 66.6238C47.4413 66.4471 48.0131 66.2564 48.1655 66.2238C48.9364 66.0239 49.2583 65.9356 49.6141 65.8426C49.8258 65.7868 50.0884 65.6984 50.1943 65.6287C50.3002 65.5729 50.7365 65.4286 51.16 65.3263C52.2019 65.0706 52.6678 64.9124 52.8966 64.7357C53.0024 64.6567 53.2269 64.5915 53.4006 64.5915C53.5742 64.5915 53.8749 64.5125 54.0782 64.4149C54.6585 64.1266 54.8025 64.0707 55.315 63.9219C55.5861 63.8429 55.9037 63.708 56.0308 63.6104C56.1663 63.522 56.4077 63.4337 56.5602 63.4197C56.7254 63.4104 57.0134 63.3174 57.1955 63.229C57.3777 63.1267 57.6402 63.029 57.7758 62.9965C57.9113 62.9639 58.2586 62.8291 58.5466 62.6943C58.8347 62.5594 59.2031 62.4152 59.3471 62.3919C59.4996 62.3594 59.6478 62.2571 59.6775 62.178C59.7071 62.0897 59.8596 62.0338 60.0545 62.0431C60.2578 62.0524 60.4992 61.9641 60.6728 61.8199C60.8253 61.6851 61.0201 61.6061 61.0964 61.6433C61.1853 61.6758 61.359 61.5967 61.503 61.4758C61.647 61.3409 61.8503 61.2433 61.9562 61.2433C62.0705 61.2433 62.2738 61.1085 62.4305 60.9411C62.672 60.6713 62.7186 60.662 62.943 60.7969C63.1463 60.9178 63.2734 60.9318 63.6292 60.8201C63.8621 60.7411 64.1417 60.6853 64.2475 60.6853C64.3534 60.6853 64.4424 60.6388 64.4424 60.583C64.4424 60.5179 64.5864 60.3365 64.7727 60.183C65.0607 59.9272 65.1285 59.9041 65.3149 60.0389C65.4504 60.1412 65.5351 60.1504 65.586 60.0621C65.6241 59.997 65.7808 59.904 65.9333 59.8621C66.0857 59.8203 66.3483 59.6622 66.5135 59.518C66.7168 59.3413 66.8905 59.2716 67.0345 59.3181C67.17 59.3506 67.3225 59.3088 67.4411 59.1832C67.547 59.0716 67.6359 59.0158 67.6359 59.0623C67.6359 59.0948 67.8096 59.0297 68.0213 58.9041C68.2246 58.7832 68.4661 58.6809 68.5338 58.6809C68.6101 58.6809 68.7286 58.6019 68.7964 58.5136C68.8642 58.4252 69.0167 58.3461 69.1437 58.3461C69.2708 58.3461 69.4614 58.2438 69.5673 58.1229C69.6816 57.988 69.8087 57.9229 69.868 57.9648C69.9273 57.9973 70.0628 57.9323 70.1772 57.8207C70.2915 57.6998 70.5245 57.5416 70.6812 57.4626C70.8464 57.3975 71.0497 57.1836 71.1344 57.0069C71.2403 56.7929 71.3758 56.672 71.5113 56.672C71.7443 56.672 72.3711 56.2581 72.3711 56.1046C72.3711 55.9697 73.0954 55.4443 73.2775 55.4443C73.4808 55.4443 73.5655 55.2303 73.5486 54.8211C73.5274 54.6211 73.5698 54.4305 73.6248 54.384C73.6714 54.3514 73.7222 54.2631 73.7222 54.184C73.7222 54.0957 73.6926 54.0957 73.6079 54.1934C73.5401 54.2724 73.4131 54.3282 73.3199 54.3282C73.1081 54.3282 72.9429 54.663 73.0192 54.9746C73.0573 55.1513 73.0192 55.2211 72.8243 55.2769C72.6973 55.3234 72.5151 55.3327 72.4177 55.3094C72.2907 55.2862 72.2144 55.3652 72.1763 55.5419C72.117 55.8535 71.8883 55.9977 71.8883 55.7327C71.8883 55.5094 71.6088 55.5001 71.541 55.7233C71.5029 55.8117 71.3758 55.8907 71.2403 55.8907C71.1132 55.8907 70.9099 55.9465 70.804 56.0116C70.6685 56.0907 70.5838 56.1 70.516 56.0209C70.3424 55.821 69.9739 56.1791 70.0332 56.4999C70.0713 56.7557 70.0416 56.779 69.7325 56.779C69.3174 56.779 69.203 56.9464 69.4148 57.2161C69.5588 57.3928 69.5588 57.4301 69.3936 57.5975C69.1522 57.8532 69.1056 57.8299 69.1607 57.509C69.1903 57.3091 69.1607 57.2301 69.0548 57.2301C68.9658 57.2301 68.8218 57.3509 68.716 57.509C68.6101 57.6671 68.4534 57.7881 68.3686 57.7881C68.1188 57.7881 68.195 57.6207 68.5042 57.4859C68.7075 57.3975 68.7752 57.3091 68.7371 57.1835C68.6905 57.0487 68.7583 56.9696 68.9701 56.8813C69.1225 56.8162 69.2793 56.6674 69.3089 56.5465C69.3682 56.2907 69.3851 56.2907 68.9616 56.4999C68.7668 56.5883 68.5084 56.6674 68.3814 56.6674C68.1103 56.6674 67.8307 56.9929 67.8307 57.3044C67.8307 57.4253 67.7037 57.6393 67.5512 57.7834C67.386 57.9183 67.2505 58.1415 67.2335 58.2764C67.2124 58.3973 67.1361 58.5089 67.0599 58.5089C66.9625 58.5089 66.9243 58.4205 66.9455 58.2531C66.9836 57.9416 66.7126 57.9183 66.6448 58.2299C66.5855 58.5089 66.289 58.6438 65.5266 58.7414C65.1963 58.774 64.9379 58.853 64.9379 58.8995C64.9379 58.9553 64.7346 59.0763 64.4847 59.1879C64.2221 59.2902 63.9722 59.4436 63.9129 59.532C63.8536 59.611 63.7181 59.6762 63.6249 59.6762C63.519 59.6762 63.3369 59.7552 63.2099 59.8668C63.015 60.011 62.9473 60.0249 62.7863 59.8994C62.6211 59.7878 62.5661 59.797 62.439 59.9877C62.3501 60.1086 62.0536 60.2667 61.7613 60.3458C61.4691 60.4249 61.1345 60.5458 61.0074 60.6249C60.8804 60.7039 60.5627 60.7458 60.2916 60.7272C59.8766 60.6946 59.8088 60.7178 59.8384 60.8852C59.8766 61.0759 60.118 61.1178 60.4272 60.9643C60.5331 60.9085 60.5924 60.9317 60.5924 61.0434C60.5924 61.3224 60.3721 61.4665 59.9655 61.4665C59.7453 61.4665 59.4827 61.5316 59.3852 61.6247C59.2201 61.7595 59.165 61.7595 58.9321 61.6247C58.6906 61.4805 58.661 61.4898 58.5636 61.7037C58.4577 61.9269 58.4365 61.9269 58.2756 61.7502C58.1485 61.6154 58.0341 61.5828 57.9198 61.6386C57.6784 61.7595 57.4835 61.7037 57.2845 61.4618C57.0727 61.2061 56.8906 61.2851 57.0219 61.5734C57.1532 61.8618 56.8016 62.2431 56.5856 62.0292C56.4797 61.9269 56.4713 61.8386 56.5475 61.6619C56.6364 61.4852 56.6237 61.4061 56.4797 61.2805C56.3823 61.2015 56.1917 61.1363 56.035 61.1363C55.8148 61.1363 55.7639 61.0899 55.7639 60.8574C55.7639 60.6249 55.7258 60.5783 55.4251 60.5783C55.2049 60.5783 55.0863 60.5225 55.0863 60.4341C55.0863 60.2016 55.2006 60.1226 55.3489 60.2575C55.4166 60.3226 55.5606 60.3597 55.6665 60.3225C55.9376 60.2435 56.556 60.4574 56.6915 60.6666C56.7889 60.8248 56.827 60.8248 56.971 60.6899C57.1151 60.5458 57.1151 60.5225 56.9033 60.3318C56.6915 60.1412 56.6915 60.1319 56.8821 60.1319C56.988 60.1319 57.1235 60.0761 57.1828 60.011C57.2591 59.9226 57.3099 59.9552 57.3565 60.1226C57.4031 60.2993 57.5005 60.3551 57.7504 60.3551C57.9621 60.3551 58.0807 60.2993 58.0807 60.197C58.0807 60.1086 58.2078 59.8855 58.3603 59.6948C58.6017 59.3925 58.716 59.3367 59.1608 59.3134C59.6648 59.2902 59.6733 59.2901 59.6436 59.5924C59.614 59.9272 59.7114 59.9738 60.0206 59.7831C60.1561 59.7041 60.1942 59.6064 60.1561 59.4483C60.118 59.3274 60.1476 59.146 60.2154 59.0576C60.3043 58.9228 60.3043 58.8344 60.2069 58.6205C60.1392 58.4624 60.0248 58.3415 59.9655 58.3415C59.83 58.3415 59.4361 57.8718 59.4361 57.7044C59.4361 57.5138 59.6309 57.4718 60.2366 57.537C60.7194 57.5835 60.7787 57.616 60.6728 57.7602C60.4907 58.0066 60.478 58.6763 60.6517 58.6763C60.7279 58.6763 60.7872 58.5879 60.7872 58.4624C60.7872 58.3368 60.9143 58.1834 61.1049 58.0718C61.27 57.9835 61.3463 57.895 61.2573 57.895C60.9566 57.895 60.8888 57.6718 61.0837 57.2812C61.1896 57.0812 61.3463 56.8813 61.431 56.8441C61.5453 56.7882 61.5665 56.6766 61.5284 56.3744C61.4395 55.7698 61.5877 55.435 61.9435 55.435C62.2992 55.435 62.4051 55.2117 62.2527 54.8304C62.1849 54.6397 62.1849 54.4305 62.2527 54.0957C62.3585 53.6028 62.5618 53.4261 62.744 53.64C63.0447 53.9841 63.1802 53.5609 63.2268 52.0681C63.2353 51.724 63.2734 51.3984 63.3158 51.3519C63.3581 51.3054 63.3454 51.2078 63.2861 51.1287C63.1506 50.9287 63.0913 48.864 63.2268 48.6176C63.303 48.4734 63.303 48.3385 63.2183 48.1246C63.1506 47.9572 63.1294 47.7665 63.1717 47.7014C63.2099 47.6224 63.248 47.2643 63.2607 46.8876C63.2607 46.5202 63.2903 46.1621 63.3073 46.1063C63.3369 46.0505 63.3666 45.4925 63.3835 44.8554C63.4047 43.8974 63.3835 43.6602 63.248 43.4928C63.1421 43.358 63.1124 43.2231 63.1717 43.1347C63.2099 43.0557 63.2607 42.7906 63.2692 42.5441C63.3073 41.2699 63.3835 40.4561 63.4809 40.3212C63.5487 40.2329 63.5699 40.0422 63.5275 39.8655C63.4809 39.619 63.519 39.5074 63.7689 39.2516C64.0569 38.94 64.1925 38.3588 63.9722 38.3588C63.9257 38.3588 63.8748 38.4797 63.8748 38.6285C63.8748 38.7774 63.8071 38.954 63.7308 39.0284C63.6546 39.1028 63.5868 39.1308 63.5868 39.075C63.5868 38.8517 63.9341 37.7264 64.0781 37.4659C64.2433 37.1869 64.3661 36.2847 64.417 35.1128C64.4254 34.7687 64.4847 34.378 64.544 34.2431C64.6033 34.1222 64.633 33.8991 64.5906 33.741C64.561 33.5968 64.6118 33.0249 64.6965 32.4901C64.7854 31.9413 64.8702 31.1739 64.8786 30.7693C64.8998 30.2996 64.976 29.8857 65.0989 29.5974C65.2132 29.351 65.3318 28.8953 65.3615 28.593C65.3996 28.2814 65.4674 27.8582 65.5139 27.6443C65.7554 26.5282 65.9206 24.9332 65.9206 23.7706C65.9206 21.3617 65.9205 21.3803 65.7003 21.1943C65.5182 21.0501 65.5055 21.0175 65.6537 20.9245C65.8189 20.8222 65.8655 20.3339 65.7215 20.2316C65.6834 20.199 65.6156 19.8875 65.586 19.5294C65.5478 19.1481 65.4504 18.7714 65.3234 18.5807C65.1582 18.3249 65.1412 18.2226 65.2259 18.1017C65.2937 18.0133 65.3234 17.8552 65.2852 17.7669C65.209 17.5204 64.8617 17.567 64.7939 17.8227C64.7643 17.9436 64.688 18.0459 64.6414 18.0459C64.5144 18.0459 64.6118 17.4646 64.8236 16.9763C64.9506 16.6648 64.9506 16.5951 64.7939 16.33C64.6965 16.1719 64.544 16.0416 64.4466 16.0416C64.1967 16.0416 64.0908 15.7068 64.2941 15.5719C64.3916 15.5161 64.4593 15.3487 64.4593 15.1905C64.4593 14.8557 64.1798 14.6976 64.0527 14.9673C63.9765 15.1115 63.9256 15.1348 63.8198 15.0232C63.6673 14.879 63.6376 15.0464 63.7901 15.2231C63.8664 15.3115 63.8664 15.3673 63.7816 15.4231C63.6842 15.4882 63.4047 15.1999 63.3962 15.0092C63.3962 14.9767 63.5318 14.8744 63.6842 14.786C63.9172 14.6744 63.9722 14.5721 63.9722 14.2837C63.9722 13.9582 63.9426 13.9163 63.7096 13.9163C63.5572 13.9163 63.4005 13.8699 63.3412 13.828C63.2946 13.7815 63.2437 13.3258 63.2437 12.8003C63.2353 11.8516 63.176 11.5959 62.7313 10.7123C62.6254 10.5123 62.5195 10.3867 62.4814 10.4332C62.4433 10.4797 62.4348 10.3774 62.4729 10.2193C62.5322 9.93099 62.3374 9.559 62.1256 9.559C62.079 9.559 62.0366 9.47989 62.0366 9.39153C62.0366 9.28923 61.9308 9.16838 61.8037 9.11258C61.5623 9.01027 61.5157 8.67537 61.6893 8.34054C61.7486 8.23823 61.63 8.05221 61.3209 7.74994C61.0201 7.46161 60.8761 7.22444 60.8761 7.04772C60.8761 6.73615 60.334 6.21075 60.0248 6.21075C59.9104 6.21075 59.813 6.16425 59.813 6.09914C59.813 6.04334 59.669 5.92239 59.4827 5.82938C59.309 5.74103 59.038 5.49458 58.8939 5.27136C58.7499 5.04814 58.5466 4.87138 58.4492 4.87138C58.3433 4.87138 58.2967 4.81554 58.3137 4.72719C58.4026 4.49467 57.7546 3.36463 57.5217 3.33207C57.4073 3.30882 57.2591 3.2205 57.204 3.13214C57.0303 2.90892 56.7508 2.94154 56.6915 3.19731C56.6237 3.49958 56.4882 3.47628 56.3357 3.14145C56.1833 2.80662 56.0943 2.79735 55.9503 3.05312C55.8614 3.22053 55.8359 3.22975 55.7851 3.08559C55.7555 2.99723 55.5225 2.68567 55.2642 2.40665C54.9338 2.04857 54.8279 1.85797 54.9084 1.76961C55.0736 1.57894 54.9169 1.43472 54.4848 1.35566C54.2646 1.30916 53.9639 1.179 53.8283 1.0674C53.5403 0.820925 52.4942 0.500022 52.2655 0.574428C52.1596 0.620932 52.0452 0.541884 51.9351 0.351219C51.7699 0.062895 51.6725 0.0256419 51.3633 0.183755L51.3421 0.165249ZM59.1142 6.62458C59.1142 6.68969 59.0761 6.7688 59.0168 6.80135C58.9702 6.83391 58.9194 6.79195 58.9194 6.69894C58.9194 6.59664 58.9659 6.52228 59.0168 6.52228C59.0761 6.52228 59.1142 6.56878 59.1142 6.62458ZM60.0333 8.0894C60.0629 8.14521 60.0545 8.20101 59.9952 8.20101C59.9486 8.20101 59.8681 8.14521 59.8427 8.0894C59.813 8.0243 59.8215 7.9778 59.8808 7.9778C59.9274 7.9778 60.0079 8.0243 60.0333 8.0894ZM62.8329 14.0048C62.8626 14.0606 62.8244 14.1164 62.744 14.1164C62.655 14.1164 62.5915 14.0606 62.5915 14.0048C62.5915 13.9397 62.6296 13.8932 62.6804 13.8932C62.7397 13.8932 62.8075 13.9397 62.8329 14.0048ZM62.9473 15.9579C62.8795 16.116 62.8033 16.2369 62.7651 16.2369C62.6593 16.2369 62.6677 16.1485 62.7863 15.8928C62.9388 15.5812 63.0743 15.6371 62.9515 15.9579H62.9473ZM62.5915 16.5717C62.5915 16.6275 62.5449 16.6834 62.4856 16.6834C62.439 16.6834 62.4178 16.6275 62.4475 16.5717C62.4771 16.5066 62.5237 16.4601 62.5534 16.4601C62.5745 16.4601 62.5915 16.5066 62.5915 16.5717ZM55.1159 20.4408C55.0185 20.5525 54.9338 20.3851 55.0185 20.2409C55.0778 20.12 55.0947 20.12 55.1329 20.2409C55.154 20.32 55.1413 20.4083 55.1117 20.4408H55.1159ZM67.8138 57.895C67.6867 58.0392 67.5639 57.9276 67.6613 57.7602C67.691 57.6951 67.7672 57.6719 67.8265 57.7044C67.8858 57.7509 67.8858 57.816 67.818 57.895H67.8138ZM65.0438 59.4808C64.9845 59.6575 64.8109 59.7134 64.8109 59.5599C64.8109 59.439 64.9167 59.3134 65.0142 59.3134C65.0608 59.3134 65.0735 59.3924 65.0438 59.4808ZM64.04 60.0482C64.04 60.1366 63.9722 60.2063 63.896 60.2063C63.7308 60.2063 63.7223 60.183 63.8071 59.9365C63.8748 59.7365 64.04 59.8018 64.04 60.0482ZM53.8029 60.6527C53.8029 60.7085 53.9088 60.7643 54.0444 60.7643C54.2392 60.7643 54.2858 60.8201 54.2858 61.0527C54.2858 61.2108 54.2392 61.434 54.1884 61.5549C54.0994 61.7317 54.1206 61.7688 54.2646 61.7688C54.4679 61.7688 54.7686 61.3317 54.7686 61.0434C54.7686 60.9317 54.866 60.8759 55.0863 60.8852C55.2924 60.8852 55.3249 60.9442 55.1837 61.062C54.9719 61.2294 54.8745 61.541 55.0397 61.541C55.0778 61.541 55.2133 61.4619 55.3277 61.3642C55.531 61.2061 55.5479 61.2061 55.6369 61.4758C55.7047 61.6897 55.8021 61.7642 55.9757 61.7642C56.1113 61.7642 56.2171 61.8107 56.2171 61.8758C56.2171 61.9316 56.179 61.9874 56.1197 61.9874C56.0731 61.9874 56.0223 62.0664 56.0223 62.1547C56.0223 62.4245 55.8275 62.3454 55.7343 62.0431C55.6453 61.7734 55.4548 61.6851 55.3192 61.8432C55.2811 61.8758 55.298 61.9781 55.3573 62.0571C55.4166 62.1362 55.4336 62.2478 55.4166 62.2896C55.3277 62.4477 54.6712 62.8012 54.6161 62.736C54.5018 62.6012 54.6754 62.3222 54.9253 62.2106C55.1667 62.099 55.1752 62.0897 55.0143 61.8758C54.8618 61.6758 54.578 61.6851 54.578 61.8851C54.578 61.9409 54.4721 62.0432 54.3366 62.099C54.2011 62.1641 53.9808 62.2664 53.8326 62.3455C53.6801 62.4106 53.5234 62.4804 53.4641 62.4804C53.4175 62.4897 53.2608 62.6012 53.1253 62.736C52.8627 63.0151 52.9304 63.229 53.2142 63.0244C53.3582 62.9221 53.4344 62.9221 53.57 63.057C53.7436 63.2012 53.7436 63.2244 53.5785 63.3685C53.4048 63.5267 52.7102 63.536 52.2951 63.3779C52.1808 63.3314 52.0537 63.3545 52.024 63.4243C51.9097 63.6382 51.753 63.5592 51.8207 63.322C51.8589 63.1639 51.8292 63.0756 51.7149 63.0198C51.6005 62.9733 51.4734 63.0662 51.2786 63.3313C51.0372 63.6754 51.0075 63.6894 50.9398 63.4988C50.8805 63.3221 50.8508 63.3081 50.7661 63.4522C50.6306 63.6754 50.0715 63.8196 49.9826 63.6661C49.8767 63.4522 49.7411 63.5313 49.7411 63.8243C49.7411 64.1173 49.6818 64.1592 49.3261 64.001C49.1609 63.922 49.0084 63.9452 48.7839 64.0661C48.6187 64.1684 48.4536 64.2103 48.4154 64.1777C48.2206 63.9452 48.9195 63.3173 49.3811 63.3173C49.5844 63.3173 49.6691 63.2522 49.7115 63.0941C49.7496 62.9174 49.8004 62.8942 49.8851 62.9825C49.9614 63.0616 50.1562 63.0709 50.3468 63.0384C50.6645 62.9593 50.7831 62.7919 51.033 61.9315C51.0922 61.7548 51.1304 61.7735 51.3633 62.1223C51.6259 62.5222 51.8673 62.657 51.8673 62.3919C51.8673 62.1687 52.3883 61.8805 52.5916 62.0014C52.6975 62.0804 52.7864 62.0804 52.8542 62.0014C52.9135 61.9363 53.0067 61.9129 53.0744 61.9362C53.1422 61.9687 53.2269 61.9456 53.2693 61.8804C53.2989 61.8153 53.3752 61.7595 53.4217 61.7595C53.481 61.7595 53.4895 61.806 53.4599 61.8711C53.3328 62.0944 53.5276 61.9735 53.7479 61.6712C54.0359 61.3038 54.0571 60.9782 53.7945 60.8992C53.5996 60.8434 53.5149 60.5318 53.697 60.5318C53.7563 60.5318 53.7945 60.5783 53.7945 60.6434L53.8029 60.6527ZM53.6123 61.141C53.6123 61.2294 53.5742 61.341 53.5149 61.3735C53.4683 61.4061 53.4175 61.3409 53.4175 61.2154C53.4175 61.0805 53.4641 60.9828 53.5149 60.9828C53.5742 60.9828 53.6123 61.048 53.6123 61.141ZM61.2404 61.0294C61.2404 61.0619 61.2023 61.1178 61.143 61.1503C61.0964 61.1829 61.0456 61.1596 61.0456 61.1038C61.0456 61.0387 61.0921 60.9828 61.143 60.9828C61.2023 60.9828 61.2404 61.0061 61.2404 61.0294ZM57.4708 62.1594C57.4708 62.2478 57.4327 62.3269 57.3734 62.3269C57.3268 62.3269 57.276 62.2478 57.276 62.1594C57.276 62.071 57.3226 61.9921 57.3734 61.9921C57.4327 61.9921 57.4708 62.071 57.4708 62.1594ZM45.3744 62.4338C45.3744 62.6338 45.3151 62.7686 45.2388 62.7686C45.1626 62.7686 45.1118 62.6338 45.1118 62.4338C45.1118 62.2338 45.1584 62.099 45.2388 62.099C45.3193 62.099 45.3744 62.2338 45.3744 62.4338ZM43.0872 62.4012C43.0872 62.457 43.0407 62.5687 42.9898 62.657C42.9221 62.7779 42.8755 62.7919 42.7865 62.6896C42.7272 62.6245 42.7103 62.5129 42.7399 62.4431C42.8162 62.3083 43.0872 62.2757 43.0872 62.3966V62.4012ZM49.6437 62.7919C49.6522 62.8477 49.5463 62.8802 49.4108 62.8802C49.1312 62.8802 49.1101 62.8012 49.3345 62.5221C49.4997 62.3082 49.5082 62.3082 49.5675 62.5128C49.6056 62.6244 49.6437 62.7454 49.6437 62.7919ZM48.6865 62.7686C48.9364 62.9453 48.6569 63.1593 48.3985 62.9918C48.2249 62.8802 48.2037 62.8337 48.3095 62.7593C48.4832 62.6384 48.5129 62.6384 48.6865 62.7686ZM34.3961 62.8802C34.4723 62.936 34.502 63.0152 34.4723 63.057C34.3749 63.1593 34.1039 63.0244 34.1039 62.8802C34.1039 62.7454 34.2013 62.7361 34.3919 62.8802H34.3961ZM54.2858 62.8802C54.2858 62.936 54.2646 62.9918 54.2477 62.9918C54.218 62.9918 54.1714 62.936 54.1418 62.8802C54.1121 62.8151 54.1333 62.7686 54.1799 62.7686C54.2392 62.7686 54.2858 62.8151 54.2858 62.8802ZM36.1326 63.0848C36.1326 63.2522 35.5439 63.4755 35.4295 63.3406C35.3618 63.2616 35.3914 63.1965 35.5651 63.1174C35.8446 62.9825 36.1369 62.9593 36.1369 63.0848H36.1326ZM47.2846 63.1267C47.4286 63.1918 47.526 63.3406 47.526 63.4708C47.526 63.5918 47.6022 63.7963 47.6912 63.908C47.8352 64.0986 47.8352 64.1312 47.7208 64.2196C47.6446 64.2847 47.4201 64.3637 47.238 64.3963C47.0559 64.4428 46.8441 64.5311 46.7636 64.5962C46.6831 64.6613 46.3867 64.7171 46.0859 64.7171C45.6243 64.7171 45.5438 64.7497 45.5735 64.9078C45.5946 65.0427 45.5353 65.1078 45.3998 65.1078C45.2939 65.1078 45.205 65.052 45.205 64.9962C45.205 64.8055 44.8873 64.8753 44.54 65.1171C44.2986 65.2845 44.036 65.3496 43.6209 65.3496C42.9729 65.3589 42.6934 65.4706 42.6934 65.731C42.6934 65.8751 42.6552 65.8751 42.4053 65.7077C42.1343 65.517 42.1173 65.517 41.931 65.7077C41.7954 65.8519 41.643 65.8984 41.4693 65.8519C41.3168 65.8286 41.0076 65.8286 40.7662 65.8751C40.5248 65.9216 40.186 65.8984 40.0208 65.8426C39.809 65.7775 39.6269 65.7775 39.4914 65.8519C39.3643 65.917 39.0551 65.9309 38.7586 65.8844C38.4113 65.8379 38.1995 65.8519 38.0809 65.9495C37.9835 66.0286 37.5092 66.1076 37.0305 66.1262C36.5519 66.1448 36.0945 66.2286 36.0183 66.2937C35.527 66.7401 35.1288 66.6843 35.2474 66.1821C35.3237 65.8147 35.5651 65.6565 35.942 65.7124C36.1369 65.7449 36.3783 65.7031 36.5138 65.6101C36.6875 65.4985 36.823 65.4891 37.0263 65.5635C37.2889 65.6751 37.9708 65.5077 37.9708 65.331C37.9708 65.2984 38.28 65.2752 38.657 65.2984C39.2838 65.3449 39.3431 65.331 39.3897 65.1078C39.4193 64.9636 39.4956 64.8846 39.5718 64.9172C39.6396 64.9497 39.7836 64.8706 39.9022 64.759C40.114 64.5451 40.4316 64.5683 40.5206 64.8241C40.5502 64.9124 40.7154 64.9822 40.9272 64.9822C41.2448 64.9822 41.2745 64.9589 41.2152 64.7125C41.1262 64.2893 41.2618 64.2893 41.6006 64.7032C41.9394 65.1263 42.219 65.1962 42.4138 64.9265C42.4816 64.8242 42.6171 64.7823 42.7145 64.8149C42.8119 64.8474 42.9856 64.8148 43.1084 64.7264C43.4091 64.5125 44.324 64.3823 44.4807 64.5358C44.6544 64.6939 45.1838 64.4707 45.3193 64.1917C45.4167 63.9685 45.6963 63.9034 45.6963 64.0894C45.6963 64.1452 45.7852 64.2475 45.8996 64.3126C46.0648 64.4242 46.1622 64.3916 46.4587 64.1544C46.6535 63.9963 46.9034 63.8662 47.0177 63.8662C47.1236 63.8662 47.2676 63.7871 47.3354 63.6987C47.5006 63.4755 47.2888 63.1639 47.0347 63.2523C46.8526 63.3174 46.7848 63.1965 46.9203 63.0524C46.9711 62.9841 47.094 63.0027 47.2888 63.1081L47.2846 63.1267ZM48.0088 63.1733C48.0088 63.2756 47.9623 63.3313 47.8945 63.308C47.7208 63.2429 47.6912 62.9965 47.8564 62.9965C47.9453 62.9965 48.0088 63.0756 48.0088 63.1733ZM46.1749 63.3173C46.1749 63.4755 46.0012 63.5732 45.8742 63.4848C45.7979 63.4383 45.8064 63.3824 45.8954 63.3173C46.069 63.1964 46.1749 63.1964 46.1749 63.3173ZM54.7686 63.3266C54.7686 63.4615 54.6797 63.5034 54.218 63.5964C54.0359 63.629 53.9003 63.6057 53.9003 63.5499C53.9003 63.4848 53.9978 63.4383 54.1206 63.4383C54.2349 63.4383 54.4001 63.3825 54.4764 63.3266C54.6712 63.1825 54.7644 63.1825 54.7644 63.3266H54.7686ZM48.3943 63.6615C48.3943 63.7824 48.3561 63.8848 48.2968 63.8848C48.2503 63.8848 48.1994 63.8615 48.1994 63.8382C48.1994 63.815 48.1698 63.7173 48.1401 63.615C48.102 63.4941 48.1317 63.4383 48.2376 63.4383C48.3265 63.4383 48.39 63.5266 48.39 63.6615H48.3943ZM51.7064 63.9545C51.9563 64.0661 51.9266 64.6241 51.6598 64.7032C51.3591 64.8055 51.2913 64.7125 51.2913 64.2103C51.2913 63.8848 51.3294 63.7731 51.4184 63.8196C51.4777 63.8522 51.6132 63.9219 51.7064 63.9545ZM38.6443 64.6241C38.6443 64.8008 38.4918 64.8381 38.4028 64.6707C38.3266 64.5265 38.441 64.3126 38.5553 64.3916C38.6019 64.4381 38.6443 64.5358 38.6443 64.6241ZM48.3943 64.68C48.3943 64.7916 48.3265 64.8939 48.2503 64.8939C48.0978 64.8939 48.0681 64.7915 48.1613 64.5125C48.2375 64.2893 48.3943 64.3917 48.3943 64.68ZM37.8438 64.6334C37.8819 64.7543 37.5939 64.9357 37.5049 64.8473C37.4838 64.8148 37.4837 64.7125 37.5261 64.6148C37.5854 64.4149 37.7887 64.4381 37.8438 64.6381V64.6334ZM30.9188 64.7776C30.9188 64.8334 30.8807 64.8892 30.8214 64.8892C30.7748 64.8892 30.724 64.8334 30.724 64.7776C30.724 64.7125 30.7706 64.666 30.8214 64.666C30.8807 64.666 30.9188 64.7125 30.9188 64.7776ZM31.4694 65.1682C31.4016 65.3263 31.3169 65.4473 31.2746 65.4473C31.228 65.4473 31.2153 65.3821 31.2449 65.3031C31.2746 65.238 31.3339 65.0799 31.3593 64.9776C31.3974 64.866 31.4567 64.8008 31.4948 64.8334C31.5414 64.8659 31.5245 65.0101 31.4652 65.1682H31.4694ZM49.0719 64.945C49.1694 65.0798 49.1694 65.1124 49.0423 65.1124C48.966 65.1124 48.8771 65.0333 48.839 64.945C48.8093 64.8566 48.8178 64.7776 48.8686 64.7776C48.9195 64.7776 49.0042 64.8566 49.0719 64.945ZM47.3354 65.0008C47.3354 65.0566 47.2973 65.1124 47.238 65.1124C47.1914 65.1124 47.1406 65.0566 47.1406 65.0008C47.1406 64.9357 47.1872 64.8892 47.238 64.8892C47.2973 64.8892 47.3354 64.9357 47.3354 65.0008ZM31.9819 65.7403C31.9819 65.8426 31.9353 65.8983 31.8675 65.8751C31.6939 65.8099 31.6642 65.5635 31.8294 65.5635C31.9184 65.5635 31.9819 65.6426 31.9819 65.7403ZM34.7222 65.8937C34.9255 65.8937 34.9721 65.9495 34.9721 66.1634C34.9721 66.5215 34.8366 66.6099 34.5952 66.4332C34.4427 66.3216 34.3749 66.3216 34.2775 66.4332C34.1335 66.6006 34.0064 66.6006 34.0064 66.4332C34.0064 66.3681 33.9387 66.2099 33.854 66.0983C33.7015 65.9215 33.71 65.8983 33.9217 65.796C34.0573 65.7402 34.2225 65.7402 34.3156 65.796C34.4046 65.8518 34.5867 65.8983 34.7222 65.8983V65.8937ZM33.045 66.0611C33.1975 66.3867 33.0662 66.6657 32.8332 66.4982C32.7655 66.4424 32.5537 66.3959 32.3716 66.3959C32.1301 66.3959 32.0327 66.3402 32.0031 66.196C31.9819 66.0612 32.0327 66.0053 32.1979 66.0053C32.325 66.0053 32.4859 65.9495 32.5664 65.8937C32.7993 65.7263 32.9137 65.7589 33.0492 66.0611H33.045ZM25.9464 72.8135C25.976 72.8693 25.976 72.9809 25.9379 73.046C25.8786 73.1669 25.7177 72.9809 25.705 72.7763C25.705 72.6647 25.8786 72.674 25.9464 72.8088V72.8135ZM20.7325 74.8132C20.7622 74.869 20.741 74.948 20.686 74.9898C20.6394 75.0224 20.5885 74.9806 20.5885 74.8876C20.5885 74.6876 20.6478 74.6551 20.7325 74.8085V74.8132ZM24.7859 75.9385C24.8833 76.0595 24.9214 76.1617 24.8621 76.1617C24.8155 76.1617 24.6885 76.0595 24.591 75.9385C24.4936 75.8176 24.4555 75.7153 24.5148 75.7153C24.5614 75.7153 24.6884 75.8176 24.7859 75.9385Z" fill="white"/>
<path d="M63.4596 13.1863C63.4596 13.2421 63.4978 13.3443 63.5486 13.4327C63.6545 13.6234 63.8578 13.4886 63.7815 13.2747C63.7349 13.1072 63.4639 13.0422 63.4639 13.1863H63.4596Z" fill="white"/>
<path d="M27.6662 28.5884C27.446 28.6349 27.3359 29.0674 27.5392 29.0674C27.7425 29.0674 28.2253 28.7233 28.166 28.621C28.1067 28.5094 28.039 28.5 27.662 28.5884H27.6662Z" fill="white"/>
<path d="M28.5045 28.6219C28.5045 28.6782 28.5515 28.7345 28.6028 28.7345C28.6626 28.7345 28.701 28.6782 28.701 28.6219C28.701 28.5562 28.6626 28.5093 28.6028 28.5093C28.5558 28.5093 28.5045 28.5562 28.5045 28.6219Z" fill="white"/>
<path d="M26.3702 29.0441C26.0694 29.2115 25.5485 29.6254 25.2096 29.9695C24.8708 30.3136 24.4938 30.6485 24.371 30.7276C24.1889 30.8392 24.1508 30.9415 24.1762 31.3321C24.2058 31.746 24.2355 31.8017 24.4473 31.8017C24.659 31.8017 24.6887 31.7553 24.6887 31.4112C24.6802 30.974 25.019 30.5183 25.3367 30.5183C25.7137 30.5183 27.2299 29.0767 27.1029 28.8441C27.0266 28.7 26.997 28.6999 26.3702 29.0441Z" fill="white"/>
<path d="M92.0408 29.6393C92.0408 29.7974 92.4347 30.4532 92.5618 30.509C92.8328 30.6299 93.4682 31.5367 93.6037 31.9691C93.9044 32.9271 94.1924 34.8617 94.2983 36.5452C94.3364 37.0009 94.3872 37.7821 94.4127 38.2751C94.5185 39.7818 94.5185 44.3671 94.4211 45.2507C94.2771 46.5249 94.2771 46.8457 94.4211 47.1155C94.5948 47.4503 94.5863 47.5293 94.2941 47.92C94.1585 48.1106 94.0611 48.3339 94.0908 48.4223C94.1204 48.5013 94.0992 48.6221 94.0611 48.6686C94.0145 48.7244 93.9086 49.1476 93.8197 49.608C93.7435 50.0637 93.5698 50.6915 93.4427 51.0031C93.3157 51.3054 93.1801 51.6821 93.142 51.8402C93.1039 51.9983 92.998 52.2867 92.8921 52.4774C92.7947 52.6773 92.6719 53.0354 92.6126 53.2819C92.5448 53.5702 92.3796 53.8399 92.1001 54.0957C91.6639 54.5096 90.5076 55.4117 90.4186 55.4117C90.389 55.4117 90.156 55.6117 89.9061 55.8582C89.3767 56.3697 89.3259 56.393 89.3259 56.0814C89.3259 55.9605 89.2878 55.8582 89.2285 55.8582C89.1819 55.8582 89.1311 55.9465 89.1311 56.0721C89.1311 56.2395 89.004 56.2953 88.4153 56.4162C87.7969 56.5371 87.691 56.5929 87.6613 56.7975C87.6232 57.0858 87.2929 57.1788 87.1785 56.9324C87.043 56.6626 86.3653 56.6859 86.2128 56.9789C86.0688 57.2486 85.8443 57.2811 85.8443 57.0347C85.8443 56.7649 85.3615 55.9511 85.2344 56.0069C85.1667 56.0302 85.1074 56.1651 85.0904 56.2953C85.0608 56.4953 85.0311 56.5185 84.9168 56.4069C84.705 56.207 84.6542 56.3604 84.8194 56.7417C85.0227 57.1882 85.0142 57.3649 84.7601 57.5555C84.6457 57.6439 84.5864 57.7694 84.6245 57.8438C84.7389 58.067 84.8871 57.988 84.9803 57.6439C85.0396 57.4532 85.154 57.3091 85.2429 57.3091C85.4377 57.3091 86.0349 58.1136 86.0349 58.3694C86.0349 58.6251 85.8401 58.4484 85.6876 58.0252C85.5436 57.6346 85.1667 57.4765 85.1667 57.802C85.1667 57.8904 85.0142 58.0717 84.8278 58.2019C84.4721 58.4577 84.3746 58.76 84.6627 58.76C84.7516 58.76 84.9507 58.6716 85.1074 58.56C85.3869 58.3693 85.3954 58.3694 85.6199 58.6252C85.8825 58.9135 85.9079 59.0949 85.6961 59.0949C85.6199 59.0949 85.5521 59.0157 85.5521 58.9274C85.5521 58.7135 85.2048 58.7041 85.137 58.9041C85.0693 59.118 85.9884 59.9319 86.594 60.1876C86.8651 60.3085 87.2039 60.5131 87.3479 60.6434C87.4919 60.7643 87.6571 60.8759 87.7334 60.8759C87.8011 60.8759 87.9833 61.0201 88.14 61.2108C88.3051 61.3875 88.5339 61.5456 88.6609 61.5456C88.788 61.5456 88.932 61.6339 88.9998 61.7455C89.0591 61.8572 89.3174 62.0478 89.5715 62.1454C90.3339 62.4802 90.4906 62.6245 90.4229 62.95C90.3763 63.1733 90.4017 63.2384 90.5669 63.2942C90.6728 63.3267 90.7702 63.4382 90.7702 63.5498C90.7702 63.6614 90.9142 63.8754 91.1005 64.0428C91.4182 64.3218 91.4563 64.4241 91.6977 65.7634C91.7274 65.9076 91.8629 66.1635 92.0154 66.3216C92.2187 66.5448 92.3034 66.8005 92.3924 67.3353C92.5364 68.2933 92.7693 68.763 93.3877 69.3443C93.6884 69.6233 94.0357 70.093 94.2009 70.4371C94.4804 71.0044 94.5101 71.0417 94.7981 70.9719C95.1073 70.9068 95.4249 71.0277 95.6663 71.3161C95.7638 71.4277 95.8697 71.4276 96.0814 71.3392C96.2466 71.2834 96.3991 71.1811 96.4287 71.1253C96.5177 70.9579 96.8819 71.0137 97.2589 71.2462L97.6147 71.4601L97.8349 70.9905C97.9789 70.6882 98.1229 70.5208 98.25 70.5208C98.7625 70.5115 99.3597 69.8046 99.2241 69.3814C99.1945 69.3024 99.2622 69.135 99.3766 69.0234C99.5799 68.7908 99.6477 68.3211 99.5121 67.9724C99.4063 67.7026 99.6646 67.7259 99.8891 68.0049C100.19 68.3956 100.44 68.2514 100.592 67.6143C100.668 67.3027 100.766 66.9679 100.812 66.8656C100.859 66.754 100.901 66.5076 100.901 66.3169C100.901 66.1169 101.016 65.7263 101.164 65.4472C101.376 65.0333 101.444 64.7451 101.494 63.9871C101.562 63.0058 101.668 62.4338 101.977 61.4758C102.21 60.7736 102.257 60.0156 102.104 59.7691C101.931 59.4994 101.939 59.411 102.142 59.411C102.405 59.411 102.714 58.9972 102.579 58.8437C102.502 58.7554 102.502 58.6437 102.579 58.4437C102.655 58.2438 102.655 58.1183 102.57 57.9509C102.388 57.616 102.426 57.3695 102.646 57.4393C102.934 57.5276 102.994 57.2811 102.752 57.0579C102.579 56.8905 102.549 56.7789 102.6 56.4999C102.638 56.2999 102.744 56.1325 102.841 56.0999C102.968 56.0534 103.036 55.8861 103.074 55.4629C103.112 55.1373 103.112 54.8025 103.083 54.7048C103.053 54.6164 103.121 54.3467 103.235 54.1235C103.438 53.7236 103.438 53.1656 103.227 53.1656C103.1 53.1656 103.1 52.7517 103.218 52.6726C103.316 52.5936 103.481 51.0311 103.438 50.5986C103.417 50.4405 103.371 50.273 103.324 50.2079C103.277 50.1428 103.265 49.8964 103.294 49.6499C103.324 49.4034 103.362 48.478 103.392 47.5852C103.43 45.9017 103.265 44.4833 103.045 44.5484C102.985 44.5577 102.939 44.5252 102.939 44.4601C102.939 44.4043 102.985 44.3485 103.045 44.3485C103.112 44.3485 103.133 44.1811 103.083 43.8695C102.994 43.1999 102.833 42.3162 102.735 42.0604C102.697 41.9395 102.638 41.6466 102.6 41.4141C102.57 41.1816 102.485 40.9676 102.426 40.9351C102.358 40.9118 102.299 40.6886 102.299 40.4421C102.291 40.1957 102.21 39.8748 102.125 39.7259C102.036 39.5678 101.973 39.3679 101.973 39.2795C101.973 38.6564 100.08 34.9268 99.6053 34.6385C99.4994 34.5733 99.2368 34.2386 99.0251 33.8898C98.8133 33.555 98.466 33.1178 98.2542 32.9178C98.0424 32.7272 97.8476 32.5365 97.8391 32.4807C97.801 32.4017 97.1149 31.8204 96.7083 31.5413C96.488 31.3832 96.0814 31.1599 95.3063 30.76C95.0183 30.6158 94.7091 30.4346 94.6287 30.3787C94.2983 30.1462 93.9637 30.0346 93.3369 29.9323C92.9684 29.8765 92.566 29.7556 92.4474 29.6626C92.1848 29.4626 92.0239 29.4486 92.0239 29.616L92.0408 29.6393ZM102.951 55.3373C102.951 55.5838 102.845 55.8489 102.748 55.8489C102.651 55.8489 102.634 55.3699 102.727 55.2583C102.833 55.1234 102.947 55.1699 102.947 55.3373H102.951Z" fill="white"/>
<path d="M46.0777 35.1732C46.0777 35.2616 46.8612 36.122 46.9078 36.0755C46.9163 36.0522 46.8104 35.8429 46.6664 35.5965C46.4334 35.1965 46.0777 34.9361 46.0777 35.1732Z" fill="white"/>
<path d="M47.7295 36.7589C47.6152 36.8473 47.6321 36.8938 47.8439 37.0054C48.1319 37.1635 48.259 37.0937 48.1742 36.8286C48.1065 36.638 47.9328 36.6148 47.7295 36.7636V36.7589Z" fill="white"/>
<path d="M48.7839 37.6844C48.7839 37.8611 48.966 38.1075 49.1015 38.1075C49.1396 38.1075 49.1693 37.9959 49.1481 37.8611C49.1185 37.582 48.7796 37.424 48.7796 37.6844H48.7839Z" fill="white"/>
<path d="M49.322 37.717C49.3601 37.8053 49.4364 37.8843 49.5041 37.8843C49.5719 37.8843 49.6481 37.8053 49.6863 37.717C49.7244 37.596 49.6778 37.5495 49.5041 37.5495C49.3305 37.5495 49.2839 37.596 49.322 37.717Z" fill="white"/>
<path d="M49.6905 38.2285C49.6609 38.2936 49.682 38.4053 49.7371 38.475C49.826 38.5773 49.8726 38.5633 49.9404 38.4424C50.0293 38.275 49.9785 38.1076 49.843 38.1076C49.7964 38.1076 49.7286 38.1634 49.6905 38.2285Z" fill="white"/>
<path d="M50.1439 38.6193C49.949 38.8518 49.9321 38.9216 50.0464 39.0006C50.1439 39.0797 50.2413 39.0098 50.3938 38.8006C50.5081 38.6332 50.6055 38.4658 50.614 38.41C50.614 38.2426 50.3641 38.3542 50.1396 38.6239L50.1439 38.6193Z" fill="white"/>
<path d="M50.1351 40.7306C50.1351 40.9631 50.4231 41.0747 50.5205 40.8886C50.6264 40.698 50.5502 40.5631 50.3172 40.5631C50.2198 40.5631 50.1351 40.6422 50.1351 40.7306Z" fill="white"/>
<path d="M49.6144 43.0093C49.5848 43.0558 49.6229 43.1999 49.7033 43.3115C49.8304 43.4882 49.8558 43.5022 49.9363 43.358C50.0041 43.2557 49.9956 43.1442 49.9278 43.0558C49.8135 42.8884 49.6864 42.8651 49.6186 43.0093H49.6144Z" fill="white"/>
<path d="M84.4509 45.5854C84.1417 45.8969 83.7859 46.176 83.6504 46.2085C83.5148 46.2411 83.3327 46.3108 83.2438 46.3666C83.1675 46.4131 82.9812 46.4317 82.8499 46.3992C82.6551 46.3527 82.5703 46.4224 82.4052 46.734C82.1553 47.2362 81.8249 47.4827 81.3336 47.5618C81.0625 47.6083 80.927 47.6827 80.8804 47.8408C80.8126 48.0966 80.1858 48.5662 79.5886 48.8127C79.3472 48.915 79.0464 49.0824 78.9109 49.1801C78.7754 49.2777 78.4874 49.4126 78.2629 49.4916C78.0299 49.5567 77.8478 49.659 77.8478 49.7241C77.8478 49.7799 77.9537 49.8032 78.0977 49.7567C78.2925 49.7009 78.3391 49.7241 78.3095 49.8357C78.2798 49.9241 78.1358 49.9939 77.9706 49.9939C77.7589 50.0032 77.5937 50.1148 77.3734 50.417C77.1998 50.6403 76.988 50.831 76.9118 50.831C76.8355 50.831 76.6111 50.9518 76.4205 51.11C76.2299 51.2681 76.0266 51.389 75.9673 51.389C75.8021 51.389 74.7602 51.9936 74.7602 52.0819C74.7602 52.2168 74.9719 52.1843 75.2515 52.0169C75.387 51.9378 75.6666 51.8402 75.8783 51.7937C76.0816 51.7472 76.4755 51.5936 76.7381 51.4587C77.0092 51.3239 77.3734 51.1472 77.5598 51.0589C77.7419 50.9798 77.9749 50.8357 78.0723 50.7473C78.2163 50.5892 78.2375 50.6031 78.2375 50.7705C78.2375 50.9704 77.8817 51.3844 77.6953 51.3937C77.5429 51.3937 77.1744 51.8866 77.1744 52.0959C77.1744 52.2075 77.06 52.3423 76.9118 52.4074C76.7635 52.4725 76.6111 52.5842 76.573 52.6539C76.5137 52.7562 76.4586 52.7562 76.3019 52.6446C76.0605 52.4679 76.0139 52.4772 76.0139 52.6772C76.0139 52.8911 76.6407 53.0213 76.933 52.8678C77.0981 52.7795 77.6106 52.7794 78.6695 52.8585C80.2917 52.9794 80.622 52.9237 80.9397 52.4772C81.0752 52.2866 81.1049 52.2772 81.2192 52.4447C81.3336 52.6028 81.3844 52.5888 81.6809 52.2865C82.0197 51.9424 82.2315 51.8726 82.3374 52.0633C82.5195 52.3981 83.0617 52.0169 83.0617 51.5518C83.0617 51.2728 83.2819 51.1844 83.409 51.4076C83.5148 51.6216 84.1036 51.4309 84.4721 51.0821C84.6669 50.8915 84.9549 50.5241 85.1286 50.245C85.3022 49.966 85.5733 49.608 85.7469 49.4405C86.162 49.0406 86.1324 48.7709 85.6495 48.2593C85.281 47.8594 85.2641 47.8036 85.3615 47.5431C85.5352 47.106 85.5055 46.9386 85.2344 46.8642C84.993 46.7991 84.9168 46.5527 85.0904 46.4271C85.1497 46.3945 85.1879 46.1945 85.1879 45.9899C85.1879 45.7853 85.2556 45.5341 85.3319 45.4086C85.5267 45.1063 85.514 45.0273 85.2429 45.0273C85.0989 45.0273 84.7897 45.2412 84.4509 45.5854ZM84.8956 45.8086C84.8956 46.0318 84.849 46.1434 84.7516 46.1434C84.5187 46.1434 84.4509 45.7993 84.6542 45.6319C84.8151 45.4986 84.8956 45.5574 84.8956 45.8086Z" fill="white"/>
<path d="M77.0642 49.9243C76.844 50.1243 76.8439 50.1475 77.0176 50.2265C77.2209 50.3149 77.5089 50.1474 77.5089 49.9382C77.5089 49.6917 77.3141 49.6918 77.0642 49.929V49.9243Z" fill="white"/>
<path d="M72.9518 52.7284C72.7189 52.8493 72.5367 52.9982 72.5367 53.0633C72.5367 53.2214 72.5749 53.2074 73.117 52.8958C73.8497 52.4726 73.7057 52.3377 72.9518 52.7284Z" fill="white"/>
<path d="M75.5606 53.119C75.5309 53.2213 75.5309 53.319 75.5606 53.3655C75.658 53.4771 75.9164 53.3004 75.9164 53.119C75.9164 52.8958 75.6368 52.8958 75.5606 53.119Z" fill="white"/>
<path d="M71.7065 53.4774C71.6006 53.6448 71.3973 53.7889 71.2702 53.8029C71.1432 53.8261 70.9314 53.8494 70.8085 53.868C70.4909 53.9146 70.4401 54.1563 70.7408 54.2493C71.0796 54.3377 71.8335 53.9936 72.0538 53.6262C72.363 53.124 72.0453 52.9891 71.7065 53.482V53.4774Z" fill="white"/>
<path d="M74.1292 53.956C74.0995 54.0118 74.1376 54.0676 74.2181 54.0676C74.307 54.0676 74.3706 54.0118 74.3706 53.956C74.3706 53.8909 74.3325 53.8444 74.2816 53.8444C74.2223 53.8444 74.1546 53.8909 74.1292 53.956Z" fill="white"/>
<path d="M67.9496 54.2912C67.8522 54.4121 67.7971 54.547 67.8352 54.5796C67.9115 54.6679 68.2588 54.4354 68.3265 54.2354C68.4028 53.989 68.1529 54.0215 67.9496 54.2912Z" fill="white"/>
<path d="M69.8428 54.2771C69.6692 54.4352 69.648 54.5004 69.7454 54.5329C69.9106 54.598 70.4104 54.3329 70.4104 54.1748C70.4104 53.9981 70.0927 54.0539 69.8386 54.2771H69.8428Z" fill="white"/>
<path d="M69.504 55.0352C69.4362 55.1142 69.6311 55.4024 69.7454 55.4024C69.792 55.4024 69.8344 55.3374 69.8344 55.2444C69.8344 55.077 69.6014 54.9328 69.504 55.0305V55.0352Z" fill="white"/>
<path d="M68.5766 55.5839C68.5766 55.6862 68.6232 55.7421 68.691 55.7188C68.8646 55.6537 68.8943 55.4072 68.7291 55.4072C68.6402 55.4072 68.5766 55.4863 68.5766 55.5839Z" fill="white"/>
<path d="M65.0444 56.2303C64.9681 56.4768 65.0655 56.7419 65.2477 56.7419C65.4298 56.7419 65.4425 56.3606 65.2477 56.1839C65.1333 56.0723 65.0952 56.0815 65.0444 56.2303Z" fill="white"/>
<path d="M64.2984 56.2532C64.2222 56.3416 64.3069 56.523 64.434 56.523C64.4805 56.523 64.5229 56.4439 64.5229 56.3555C64.5229 56.1881 64.4085 56.1323 64.3027 56.2532H64.2984Z" fill="white"/>
<path d="M66.1623 56.6767C66.1623 56.7651 66.2089 56.8767 66.2598 56.9092C66.3191 56.9418 66.3572 56.8998 66.3572 56.8068C66.3572 56.7138 66.3191 56.6068 66.2598 56.5743C66.2132 56.5417 66.1623 56.5837 66.1623 56.6767Z" fill="white"/>
<path d="M65.4211 57.6022C65.2687 57.6673 65.256 57.9695 65.3915 57.9695C65.4974 57.9695 65.6414 57.658 65.5736 57.5883C65.5524 57.565 65.4762 57.579 65.4211 57.5976V57.6022Z" fill="white"/>
<path d="M56.3146 58.5881C56.3146 58.8206 56.5475 58.9137 56.7889 58.7556C57.06 58.5974 56.9626 58.4207 56.5941 58.4207C56.412 58.4207 56.3146 58.4765 56.3146 58.5881Z" fill="white"/>
<path d="M64.1928 58.7087C64.1546 58.8203 64.1843 58.8668 64.2521 58.8436C64.3961 58.7878 64.4723 58.532 64.3495 58.532C64.3029 58.532 64.2224 58.611 64.197 58.7087H64.1928Z" fill="white"/>
<path d="M62.7825 58.9793C62.7825 59.0356 62.8295 59.0919 62.8807 59.0919C62.9405 59.0919 62.979 59.0356 62.979 58.9793C62.979 58.9136 62.9405 58.8667 62.8807 58.8667C62.8337 58.8667 62.7825 58.9136 62.7825 58.9793Z" fill="white"/>
<path d="M54.4301 59.2203C54.248 59.3412 54.2565 59.3552 54.5275 59.4342C54.8156 59.5226 55.1078 59.3784 55.0019 59.1878C54.9342 59.0529 54.6631 59.0669 54.4301 59.2203Z" fill="white"/>
<path d="M53.8329 59.7039C53.8033 59.8062 53.8032 59.9178 53.8414 59.9504C53.9091 60.0294 54.1887 59.7737 54.1887 59.6388C54.1887 59.4714 53.9007 59.5272 53.8329 59.7039Z" fill="white"/>
<path d="M60.1393 60.0484C60.0419 60.3367 60.0715 60.5413 60.2071 60.5413C60.3511 60.5413 60.584 60.0483 60.4951 59.9367C60.3807 59.8158 60.1944 59.8717 60.1393 60.0484Z" fill="white"/>
<path d="M51.4864 60.3273C51.4864 60.597 51.7067 60.5599 51.7575 60.2809C51.7787 60.1693 51.7279 60.0901 51.6432 60.0901C51.5457 60.0901 51.4907 60.1924 51.4907 60.3227L51.4864 60.3273Z" fill="white"/>
<path d="M50.5206 60.3737C50.4443 60.4853 50.3003 60.5178 50.1055 60.476C49.8048 60.4201 49.1695 60.7084 49.1695 60.9131C49.1695 61.0805 49.4786 61.1269 49.7285 60.9921C49.8725 60.913 50.1648 60.8247 50.3766 60.8015C50.7916 60.7457 51.0712 60.5317 50.9653 60.3318C50.8679 60.155 50.6646 60.1737 50.5206 60.3783V60.3737Z" fill="white"/>
<path d="M48.4626 60.8388C48.327 60.9829 48.4033 61.2062 48.5769 61.2062C48.8183 61.2062 48.9454 60.983 48.7718 60.8621C48.6066 60.7411 48.5388 60.7411 48.4626 60.8388Z" fill="white"/>
<path d="M48.9749 61.4349C48.9749 61.4912 49.0219 61.5475 49.0732 61.5475C49.133 61.5475 49.1714 61.4912 49.1714 61.4349C49.1714 61.3692 49.133 61.3223 49.0732 61.3223C49.0262 61.3223 48.9749 61.3692 48.9749 61.4349Z" fill="white"/>
<path d="M41.9733 62.1037C41.9436 62.1595 41.9817 62.2153 42.0622 62.2153C42.1512 62.2153 42.2147 62.1595 42.2147 62.1037C42.2147 62.0386 42.1766 61.9921 42.1257 61.9921C42.0664 61.9921 41.9987 62.0386 41.9733 62.1037Z" fill="white"/>
<path d="M40.9317 62.2802C40.8258 62.4011 40.9613 62.55 41.1646 62.55C41.279 62.55 41.3468 62.4941 41.3298 62.4058C41.2832 62.2477 41.0291 62.1732 40.9359 62.2849L40.9317 62.2802Z" fill="white"/>
<path d="M48.1828 101.106C47.5052 101.157 46.9122 101.218 46.8614 101.255C46.7979 101.306 46.3955 101.413 45.9508 101.525C45.1376 101.72 44.1422 102.269 43.5154 102.883C43.346 103.055 42.9139 103.362 42.5539 103.566C42.1939 103.776 41.7915 104.031 41.6433 104.152C41.4951 104.264 40.8598 104.678 40.216 105.068C39.5806 105.45 38.9369 105.864 38.7886 105.984C38.6404 106.105 38.0474 106.487 37.4671 106.826C36.8869 107.17 36.0822 107.668 35.6671 107.952C34.7056 108.612 33.5409 109.333 32.4947 109.933C32.0288 110.202 31.3088 110.654 30.898 110.947C30.4744 111.226 29.7671 111.705 29.3097 111.984C28.8438 112.263 28.3567 112.583 28.2085 112.704C27.6706 113.146 26.5143 113.913 25.9129 114.234C25.574 114.416 25.1293 114.737 24.9302 114.918C24.7185 115.127 24.4431 115.271 24.2653 115.271C23.9391 115.271 22.9014 115.699 21.9146 116.262C21.5673 116.457 21.1099 116.652 20.9108 116.69C20.7117 116.741 20.4661 116.838 20.3814 116.922C20.1188 117.169 19.5046 117.401 19.2166 117.373C19.0175 117.35 18.7846 117.531 18.2128 118.169C17.3784 119.099 16.7092 119.671 16.4466 119.671C16.3534 119.671 16.2349 119.782 16.2052 119.926C16.1628 120.061 16.0146 120.233 15.8791 120.308C15.7435 120.382 15.6249 120.48 15.6249 120.526C15.6249 120.573 15.8367 120.805 16.0993 121.029C16.3534 121.261 16.616 121.591 16.6923 121.773C16.7558 121.954 16.8702 122.163 16.9549 122.252C17.0269 122.326 17.1666 122.558 17.2598 122.763C17.6198 123.596 18.1154 124.195 18.7422 124.572C19.5131 125.023 19.7799 125.209 19.8519 125.316C20.2755 125.953 20.6651 126.39 20.8981 126.455C21.0463 126.507 21.2793 126.651 21.4063 126.786C21.6181 127.018 21.6816 127.018 22.1687 126.883C22.6558 126.749 22.7278 126.762 23.0158 126.995C23.1852 127.144 23.397 127.251 23.4817 127.251C23.5749 127.251 23.7867 127.386 23.9561 127.558C24.134 127.73 24.422 127.902 24.5999 127.939C24.9048 128.013 24.926 127.99 25.1928 127.302C25.4978 126.493 25.5401 126.446 26.1882 126.251C26.4423 126.176 26.7811 125.958 26.959 125.772C27.1496 125.539 27.3698 125.418 27.5816 125.418C27.751 125.418 28.0475 125.344 28.2381 125.246C28.649 125.051 29.9196 123.512 30.2076 122.875C30.322 122.619 30.6608 122.103 30.9785 121.726C31.2834 121.345 31.6561 120.894 31.8044 120.712C32.2152 120.173 33.9094 118.452 34.0153 118.452C34.2143 118.452 35.2097 117.29 35.3579 116.876C35.4426 116.629 35.9932 115.862 36.5735 115.15C37.1537 114.439 37.7467 113.718 37.8865 113.551C38.0347 113.369 38.1491 113.109 38.1491 112.974C38.1491 112.621 39.6103 111.174 41.4273 109.723C42.0838 109.198 42.5709 108.914 43.2274 108.686C44.0533 108.393 44.2735 108.37 46.0312 108.37C47.2044 108.384 48.149 108.445 48.4751 108.542C48.7716 108.626 49.4704 108.738 50.0083 108.798C50.5589 108.849 51.2662 108.97 51.5839 109.077C51.9016 109.175 52.6936 109.384 53.3289 109.528C53.9727 109.686 54.7563 109.882 55.0739 109.979C55.3916 110.077 55.9422 110.235 56.2895 110.323C56.6368 110.412 57.5686 110.677 58.3522 110.909C59.1357 111.142 60.0887 111.435 60.4699 111.546C62.0878 112.025 66.8485 113.82 68.225 114.467C68.7332 114.713 69.538 115.09 70.0251 115.322C71.7065 116.104 75.4634 118.429 76.0775 119.052C76.1919 119.173 76.4799 119.406 76.7128 119.564C76.9542 119.722 77.4964 120.173 77.9284 120.554C78.3604 120.936 79.271 121.717 79.9402 122.303C81.0923 123.307 83.7818 125.935 84.4171 126.693C84.7559 127.107 84.9127 127.009 84.8406 126.437C84.7983 126.167 84.7263 126.032 84.5653 126.009C84.2477 125.958 84.091 125.595 84.2816 125.372C84.4171 125.214 84.5442 125.298 85.2854 126.107C85.7513 126.618 86.3315 127.218 86.5645 127.451C86.8059 127.683 87.1363 128.097 87.3057 128.39C87.4751 128.669 87.8224 129.171 88.0765 129.501C88.3391 129.832 88.5001 130.125 88.4365 130.148C88.373 130.171 87.8012 129.585 87.1574 128.841C86.3866 127.925 85.9292 127.483 85.8021 127.52C85.4971 127.581 85.5056 127.837 85.8317 128.195C86.0012 128.39 86.4671 128.892 86.8694 129.334C87.2591 129.776 87.8224 130.446 88.1062 130.836C88.517 131.422 88.6144 131.631 88.6144 132.022C88.6144 132.413 88.678 132.571 88.9321 132.84C89.11 133.012 89.2498 133.254 89.2498 133.352C89.2498 133.464 89.3345 133.645 89.4403 133.757C89.5335 133.854 89.7156 134.101 89.83 134.268C89.9444 134.45 90.1477 134.719 90.2832 134.854C90.4103 135.003 90.5161 135.245 90.5161 135.393C90.5161 135.673 90.694 135.807 91.0964 135.807C91.2447 135.807 91.4649 135.979 91.6682 136.235C91.8461 136.468 92.0494 136.663 92.1341 136.663C92.3035 136.663 92.7355 137.165 92.7355 137.361C92.7355 137.435 92.9049 137.63 93.1252 137.789C93.337 137.937 93.6207 138.156 93.7605 138.254C93.9003 138.351 94.0358 138.533 94.0655 138.658C94.129 138.891 94.5822 139.146 95.1667 139.267C95.3657 139.318 95.7469 139.523 96.0138 139.718C96.2806 139.914 96.594 140.086 96.7211 140.086C96.8481 140.086 97.0387 140.197 97.1531 140.332C97.5343 140.811 98.4957 141.104 98.8473 140.835C98.9193 140.783 99.2073 140.783 99.4826 140.835C99.8638 140.909 100.148 140.858 100.669 140.676C101.05 140.542 101.418 140.407 101.494 140.383C101.571 140.36 101.621 140.137 101.621 139.858C101.621 139.579 101.672 139.332 101.736 139.281C101.799 139.244 101.935 138.965 102.041 138.672C102.155 138.379 102.295 138.133 102.346 138.133C102.6 138.133 102.757 137.449 102.727 136.482C102.718 135.942 102.748 135.245 102.799 134.942C102.884 134.454 102.862 134.319 102.63 133.84C102.481 133.547 102.354 133.18 102.354 133.022C102.354 132.873 102.282 132.715 102.198 132.668C102.104 132.631 101.88 132.264 101.702 131.85C101.524 131.445 101.291 131.032 101.185 130.943C101.071 130.859 100.986 130.65 100.986 130.492C100.986 130.236 100.639 129.39 100.457 129.209C100.321 129.06 100.067 128.511 100.004 128.232C99.9739 128.06 99.6647 127.595 99.3386 127.195C99.0209 126.79 98.6736 126.339 98.5889 126.181C98.5042 126.032 98.3475 125.911 98.2501 125.911C98.1527 125.911 97.9451 125.716 97.7842 125.484C97.6232 125.251 97.403 125.056 97.2971 125.056C97.2039 125.056 96.9795 124.884 96.8016 124.674C96.6321 124.465 96.3357 124.223 96.1451 124.112C95.946 124 95.7215 123.782 95.6283 123.633C95.5436 123.475 95.3954 123.34 95.3107 123.34C95.0481 123.34 94.5271 122.949 92.6974 121.345C91.7571 120.512 90.1053 119.01 89.0592 118.006C88.3603 117.345 86.7212 116.001 86.6026 116.001C86.5518 116.001 86.4967 115.95 86.4967 115.89C86.4967 115.829 86.2129 115.574 85.8614 115.313C85.5141 115.043 84.8999 114.541 84.4976 114.188C84.0952 113.844 83.6928 113.551 83.5997 113.551C83.5065 113.551 83.4302 113.5 83.4302 113.453C83.4302 113.393 83.1761 113.197 82.8585 113.011C82.5408 112.83 82.257 112.597 82.2231 112.486C82.1808 112.365 82.0749 112.328 81.9055 112.374C81.7572 112.411 81.6217 112.397 81.5878 112.337C81.5582 112.286 81.2702 112.081 80.944 111.895C80.6264 111.7 80.3638 111.504 80.3638 111.453C80.3638 111.402 80.1435 111.244 79.8767 111.1C79.6141 110.951 79.2753 110.709 79.1143 110.561C78.767 110.23 78.3435 109.998 77.2084 109.496C76.734 109.286 76.3104 109.054 76.2766 109.007C76.2469 108.947 76.1283 108.896 76.0224 108.896C75.9081 108.896 75.654 108.784 75.4507 108.663C75.2601 108.528 74.8704 108.384 74.5951 108.333C74.2266 108.272 74.0784 108.184 74.036 108.017C73.9937 107.835 73.909 107.784 73.6337 107.821C73.4346 107.835 73.2101 107.77 73.0958 107.663C72.884 107.445 72.2402 107.063 72.0919 107.063C72.0411 107.063 71.7235 106.915 71.3931 106.733C71.067 106.552 70.6943 106.389 70.5799 106.38C70.2834 106.357 69.7455 106.124 68.9916 105.706C68.6443 105.51 68.1996 105.352 68.009 105.352C67.8184 105.352 67.5007 105.268 67.2889 105.171C67.0899 105.073 66.5393 104.924 66.0819 104.841C65.616 104.757 65.2348 104.645 65.2348 104.594C65.2348 104.543 65.1204 104.496 64.9806 104.496C64.8324 104.496 64.6841 104.436 64.6545 104.375C64.6248 104.301 64.4343 104.255 64.2437 104.255C64.0446 104.255 63.8328 104.171 63.7566 104.073C63.6803 103.976 63.4728 103.892 63.2695 103.892C63.0789 103.892 62.8883 103.831 62.8587 103.771C62.829 103.696 62.6596 103.65 62.4902 103.65C62.3208 103.65 62.1641 103.599 62.1302 103.538C62.037 103.366 61.2958 103.283 61.1475 103.427C61.0417 103.524 60.957 103.511 60.8214 103.352C60.7155 103.241 60.6012 103.18 60.5673 103.218C60.5461 103.255 60.2285 103.143 59.8811 102.985C59.5127 102.813 59.1823 102.739 59.0976 102.79C59.0256 102.85 58.8773 102.813 58.7503 102.729C58.4962 102.534 57.1747 102.19 56.4335 102.12C56.1582 102.083 55.8532 102.008 55.7473 101.948C55.5356 101.813 54.3497 101.581 53.1849 101.446C52.7529 101.395 52.2023 101.297 51.9693 101.227C51.4103 101.055 49.7161 101.009 48.1913 101.092L48.1828 101.106ZM52.7868 108.519C52.9435 108.556 53.0706 108.64 53.0706 108.7C53.0706 108.812 51.9185 108.714 51.7999 108.589C51.694 108.477 52.0752 108.31 52.2743 108.379C52.3886 108.417 52.6131 108.477 52.7825 108.514L52.7868 108.519ZM53.7609 108.924C53.7906 108.984 53.7524 109.044 53.6677 109.044C53.583 109.044 53.4771 108.984 53.4475 108.924C53.4179 108.849 53.456 108.803 53.5407 108.803C53.6254 108.803 53.7313 108.854 53.7609 108.924ZM54.553 109.165C54.553 109.323 54.3412 109.323 54.1294 109.165C54.0024 109.068 54.0362 109.044 54.2649 109.044C54.4217 109.044 54.5487 109.096 54.5487 109.165H54.553ZM55.7262 109.486C55.8532 109.668 55.8321 109.682 55.5059 109.598C54.9977 109.477 54.8494 109.291 55.2645 109.291C55.4424 109.291 55.6542 109.375 55.7304 109.486H55.7262ZM57.306 109.779C58.2675 110.026 59.3814 110.356 59.6355 110.477C59.7202 110.514 59.8684 110.561 59.9532 110.574C60.1861 110.626 62.3462 111.356 63.0196 111.611C63.3373 111.732 64.0022 111.956 64.502 112.09C65.0018 112.225 65.6668 112.444 65.9717 112.593C66.2894 112.728 67.3144 113.155 68.2589 113.523C70.5757 114.416 75.6751 117.29 76.3825 118.094C76.5603 118.289 76.7848 118.461 76.8695 118.461C76.9627 118.461 77.3016 118.694 77.6192 118.987C77.9369 119.266 78.3265 119.573 78.4875 119.671C78.6357 119.754 78.7924 119.94 78.8136 120.061C78.8433 120.196 78.9618 120.294 79.0889 120.294C79.216 120.294 79.3091 120.345 79.3091 120.415C79.3091 120.475 79.3727 120.536 79.4574 120.536C79.5294 120.536 79.8682 120.768 80.1986 121.047C80.5163 121.34 80.9059 121.67 81.0542 121.791C81.2532 121.949 81.3083 122.084 81.2659 122.256C81.2024 122.465 81.2363 122.489 81.4777 122.414C81.7403 122.34 81.7615 122.354 81.6895 122.61C81.6259 122.842 81.6471 122.879 81.7954 122.819C81.9097 122.759 82.1639 122.931 82.6001 123.368C83.0957 123.87 83.2142 124.042 83.1592 124.247C83.1168 124.395 83.0745 124.526 83.0533 124.554C83.0236 124.591 82.7568 124.335 82.4519 124.005C81.7869 123.261 80.4188 122 80.2833 122C80.2325 122 79.9784 121.768 79.7242 121.475C79.2583 120.963 79.0381 120.763 78.6018 120.545C78.4748 120.47 78.1148 120.14 77.8098 119.81C77.5048 119.466 77.1448 119.187 77.0263 119.187C76.8992 119.187 76.7721 119.113 76.7425 119.015C76.6916 118.866 76.2046 118.489 75.2092 117.843C75.061 117.745 74.5443 117.401 74.0657 117.071C73.5786 116.755 73.1466 116.494 73.0915 116.494C73.0365 116.494 72.9136 116.383 72.8077 116.248C72.7018 116.113 72.5663 116.001 72.5028 116.001C72.4096 116.001 69.9192 114.741 69.3304 114.388C69.2245 114.313 68.8857 114.179 68.5892 114.081C68.2928 113.983 67.8269 113.765 67.5516 113.602C67.2763 113.439 66.9586 113.309 66.8527 113.309C66.7468 113.309 66.4842 113.197 66.2513 113.062C66.0183 112.928 65.6922 112.816 65.5101 112.816C65.3279 112.816 64.9806 112.704 64.7392 112.569C64.5063 112.435 64.2225 112.323 64.1039 112.323C63.998 112.323 63.8709 112.272 63.8074 112.225C63.7566 112.165 63.5236 112.067 63.2907 111.993C63.0577 111.909 62.613 111.774 62.3081 111.663C62.0031 111.565 61.6854 111.505 61.6092 111.542C61.5245 111.579 61.4101 111.505 61.3339 111.36C61.2619 111.188 61.1137 111.105 60.9231 111.105C60.7664 111.105 60.3513 110.993 60.004 110.858C59.6651 110.723 59.284 110.612 59.1696 110.612C59.0637 110.612 58.7799 110.537 58.5343 110.44C57.8481 110.17 57.4119 110.035 56.713 109.877C56.2598 109.765 56.0481 109.668 56.0481 109.547C56.0481 109.426 56.1116 109.389 56.2387 109.449C56.3318 109.486 56.8189 109.63 57.3187 109.756L57.306 109.779ZM83.7521 124.939C83.7521 125 83.7098 125.06 83.6463 125.06C83.5954 125.06 83.5404 125 83.5404 124.939C83.5404 124.865 83.5912 124.819 83.6463 124.819C83.7098 124.819 83.7521 124.87 83.7521 124.939Z" fill="white"/>
<path d="M82.9345 126.446C82.8582 126.535 82.9429 126.716 83.07 126.716C83.1166 126.716 83.159 126.637 83.159 126.549C83.159 126.381 83.0446 126.325 82.9387 126.446H82.9345Z" fill="white"/>
</svg>
