<svg width="512" height="512" viewBox="0 0 512 512" fill="none" xmlns="http://www.w3.org/2000/svg">
<path d="M478.709 176.708C475.746 175.948 471.607 177.126 468.227 177.545C465.492 177.697 453.225 181.804 454.63 180.321C460.061 174.502 468.758 174.236 473.43 172.335C475.936 171.308 477.455 171.536 476.62 169.521C475.746 167.391 477.379 166.782 471.986 168.304C462.872 170.585 453.415 174.616 445.553 179.484C444.642 180.055 443.692 180.473 442.705 180.891C437.35 183.211 433.4 188.649 428.653 192.148C428.691 192.148 428.729 192.148 428.805 192.148C426.982 192.338 426.146 191.121 423.678 192.604C420.108 192.757 418.512 189.144 416.12 187.204C413.385 186.368 412.094 183.287 409.929 181.5C395.118 166.896 378.027 154.423 363.216 140.048C358.696 134.267 356.759 139.781 352.278 140.2C349.961 139.059 347.606 139.211 345.176 139.097C345.176 139.097 342.023 137.233 342.707 141.569C343.619 160.165 346.809 178.876 352.544 196.636C354.518 201.237 353.455 206.219 349.239 208.995C347.568 211.429 349.353 214.776 347.454 217.21C346.657 218.503 344.948 219.605 344.454 221.013C343.922 222.534 347.113 223.446 347.644 224.473C348.632 225.994 350.569 226.755 351.974 227.744C353.113 227.744 354.139 226.793 355.278 226.565C359.684 224.587 357.899 219.301 359.228 215.574C360.215 213.293 360.937 211.011 360.747 208.501C359.835 201.275 358.734 194.012 355.62 187.318C354.974 180.929 354.48 174.274 352.05 168.304C352.202 163.398 345.897 147.73 350.835 146.17C367.165 160.431 381.369 179.712 397.358 195.038C402.258 198.613 407.878 208.121 411.676 206.98C421.665 205.04 426.222 206.866 427.399 200.096C429.147 198.271 431.121 199.298 432.679 199.64C439.705 199.108 446.693 197.206 453.909 196.521C457.479 195.799 469.784 196.636 465.53 190.475C456.529 189.258 446.921 194.62 438.034 192.985C437.92 191.235 440.122 191.045 441.376 191.045C448.25 189.068 456.415 183.477 466.404 182.603C468.075 182.603 474.379 181.994 476.164 181.386C478.291 181.043 480 180.511 480 180.511C480 180.511 480.038 177.887 478.633 176.67L478.709 176.708ZM412.664 199.26C396.979 184.466 378.863 166.554 362.95 150.011C362.266 148.148 359.266 145.828 357.861 144.421C357.139 143.698 357.785 143.166 358.506 142.52C367.507 150.468 379.47 160.508 387.37 170.167C387.864 170.737 388.243 171.042 389.497 172.183C389.649 172.335 390.826 172.03 391.168 172.373C391.624 172.829 391.396 174.008 391.548 174.122C397.093 179.028 406.511 186.672 411.676 192.414C414.829 195.875 415.284 198.537 412.702 199.222L412.664 199.26ZM207.503 287.678C205.11 288.515 207.085 295.664 204.465 297.414C199.945 299.429 201.502 305.362 198.046 308.176C196.793 309.317 195.73 310.876 193.831 310.344C189.045 313.272 183.918 314.337 178.411 312.207C175.259 311.257 162.498 308.404 166.41 315.059C168.005 314.641 169.069 315.516 170.018 316.733C172.601 319.167 176.437 318.216 179.513 319.243C194.362 326.62 210.427 309.926 208.87 294.866C207.769 291.671 211.719 289.123 207.465 287.64L207.503 287.678ZM242.861 158.834C243.545 160.508 245.102 160.736 245.824 162.295C248.216 165.147 250.989 161.116 248.102 159.253C247.533 157.427 249.432 154.765 251.482 155.564C252.584 155.982 253.837 157.731 254.976 156.667C257.407 155.716 255.926 153.434 255.052 151.723C253.685 148.985 249.963 148.604 248.862 145.752C245.748 143.394 242.899 138.374 239.063 137.766C237.468 138.641 234.24 139.515 235.265 141.721C238.418 147.159 239.861 153.282 242.785 158.834H242.861ZM262.838 229.835C258.091 235.654 253.571 244.02 250.229 251.588C250.115 259.765 246.849 264.823 247.609 272.01C250.305 272.999 250.951 272.162 252.546 271.934C257.521 267.637 251.634 246.226 274.004 225.386C274.915 224.511 276.017 222.458 277.27 224.093C278.143 227.858 273.016 229.911 272.598 233.79C266.066 243.944 263.256 256.418 264.509 268.359C267.054 269.766 267.699 268.283 269.446 267.865C273.168 265.013 272.143 254.364 272.674 250.637C273.32 244.211 282.017 229.379 285.017 224.587C286.499 223.218 288.094 222.458 289.803 221.545C291.55 221.089 292.955 218.274 294.816 219.415C296.069 221.089 293.639 222.572 292.575 223.637C290.448 225.766 290.107 228.656 289.309 231.471C289.119 232.117 288.853 232.726 288.55 233.334C285.321 239.533 277.65 259.955 283.764 264.594C284.638 265.241 285.207 265.013 286.727 264.975C291.474 264.861 287.03 254.897 289.043 250.257C297.285 235.159 292.765 225.158 307.045 215.536C310.615 213.102 311.906 216.107 309.21 218.693C306.058 225.766 298.842 244.933 301.424 251.056C300.703 252.007 299.943 255.277 301.88 256.304C301.88 257.064 302.108 257.825 302.943 258.167C312.438 260.297 307.729 242.347 311.147 236.871C312.666 223.18 314.071 215.27 324.515 208.767C327.705 208.044 331.427 208.767 334.276 206.827C336.63 203.671 340.542 202.036 341.985 198.081C343.846 194.202 339.897 194.126 341.568 189.866C340.998 185.417 341.112 181.005 340.846 176.556C338.643 171.346 334.959 165.642 331.921 160.926C327.971 160.85 329.718 158.644 328.465 157.161C320.186 155.145 310.273 154.879 301.88 153.776C299.259 151.533 295.5 152.255 292.385 151C289.917 150.316 289.043 147.692 286.347 147.654C284.676 148.034 277.08 146.056 270.776 142.405C262.344 137.462 254.255 132.48 251.216 130.883C249.545 130.008 248.102 132.328 251.634 137.195C255.47 139.629 258.129 139.858 260.141 143.052C260.445 144.877 268.801 149.175 273.206 149.403C276.131 151.875 278.409 151.228 278.675 151.342C278.941 151.457 277.232 152.369 275.409 155.716C274.839 156.743 271.231 159.062 273.738 159.975C277.536 160.964 284.182 148.68 288.474 159.253C290.448 164.196 278.029 160.66 274.27 169.825C273.396 170.966 271.991 171.65 271.877 169.635C271.117 168.456 269.598 168.38 268.535 167.581C264.775 164.767 260.825 169.635 257.027 170.091C248.672 175.491 244.912 170.776 240.317 163.436C234.848 154.347 232.721 143.775 228.353 134.533C226.492 130.35 224.214 126.167 222.049 122.022C220.758 120.767 219.163 118.181 218.669 116.621C219.226 115.709 220.087 115.214 221.251 115.138C223.53 115.557 226.378 118.979 229.037 118.181C230.252 118.105 234.658 119.512 233.974 116.964C232.417 111.564 223.264 111.031 219.163 108.407C217.529 107.342 214.947 107 214.947 107C214.947 107 212.326 107.989 211.301 109.624C211.795 120.5 219.77 130.274 223.15 140.162C225.961 147.311 227.328 154.803 230.442 161.686C230.784 162.295 232.417 162.979 232.531 163.664C232.683 164.615 231.088 165.071 231.658 166.022C234.392 168.494 235.493 172.525 238.076 175.301C239.443 177.393 243.507 176.1 245.862 176.746C248.672 178.229 251.52 180.473 254.862 180.777C259.496 181.043 260.066 174.769 264.053 173.818C265.838 174.502 268.497 175.948 270.472 174.731C275.561 173.095 273.472 178.115 272.409 180.625C272.94 182.603 270.396 186.71 273.016 187.547C275.903 188.041 277.612 186.063 277.878 183.135C277.802 181.88 277.802 181.386 278.219 180.891C278.485 180.587 279.625 181.272 279.89 180.891C280.194 180.511 280.688 180.473 280.954 180.093C281.903 178.648 282.739 177.088 283.422 175.491C288.36 169.787 297.816 165.794 304.956 163.816C310.197 165.147 318.363 162.333 321.439 167.923C322.654 171.574 327.668 170.357 328.465 173.894C330.098 181.386 332.833 191.578 326.224 197.358C322.388 200.705 316.502 200.857 312.02 202.606C308.222 204.089 305.222 206.485 300.969 207.056C292.157 210.935 282.093 207.55 273.7 211.505C271.117 213.064 268.877 215.194 266.256 216.639C264.091 217.856 261.926 218.388 259.534 218.883C256.837 219.453 256.306 221.811 255.052 222.229C252.128 223.18 250.419 219.415 247.609 218.921C244.76 218.388 241.836 218.541 238.949 218.769C233.253 219.187 227.366 220.404 221.707 219.035C219.125 218.388 217.34 216.449 214.985 215.612C213.39 215.042 210.503 214.319 210.503 214.319C210.503 214.319 204.617 218.084 201.73 217.286C199.717 216.715 200.287 212.912 196.831 212.19C194.666 211.733 192.236 210.783 189.843 210.592C186.995 210.364 184.07 210.44 181.488 209.033C178.867 207.588 176.93 204.888 174.044 203.937C171.803 203.177 169.107 203.937 167.701 201.427C165.005 196.636 161.777 193.935 156.194 193.327C154.789 193.175 153.573 195.114 152.624 194.392C151.599 193.593 153.08 192.452 152.206 191.54C150.041 189.296 147.991 187.166 145.75 184.999C142.104 179.218 136.749 180.663 132.039 177.317C128.394 174.731 126.419 169.635 121.254 169.863C114.417 166.136 111.569 157.845 103.442 155.526C95.2762 151.457 89.4654 142.672 80.4265 140.96C72.2991 138.564 67.096 126.015 58.133 125.254C52.7781 122.934 46.4736 122.934 41.8782 119.055C39.0678 118.105 35.2699 116.698 32.4595 116.393C31.6239 117.268 32.1177 119.055 32.4595 120.31C37.6626 125.254 44.7646 127.08 51.069 130.35C54.677 132.176 59.5383 131.681 61.9689 135.446C66.0326 138.793 71.7674 142.786 75.7172 146.589C77.9579 147.235 80.6164 147.197 82.4774 148.832C83.5028 150.62 84.3383 152.673 86.8449 152.217C89.4275 153.206 105.265 165.908 105.834 166.478C116.316 173.247 126.191 180.359 136.255 187.47C147.345 186.786 147.915 200.324 156.422 204.508C161.663 207.398 169.562 206.029 173.018 212.038C175.183 215.346 168.803 215.802 171.423 218.921C173.132 222.458 177.006 217.362 178.146 223.789C178.601 226.337 178.411 229.037 177.538 231.471C174.993 237.403 167.322 239.229 162.916 243.792C154.371 245.884 146.319 248.28 138.268 251.588C133.521 252.425 130.596 251.056 128.621 248.47C128.052 247.253 126.798 243.336 127.026 241.929C124.862 230.216 120.076 218.769 114.417 208.235C111.797 201.009 108.037 195.076 104.695 188.003L96.9472 178.457C96.9472 178.457 96.9472 178.457 96.9092 178.457C95.58 176.86 94.2507 175.415 92.8835 174.122C91.5922 173.514 92.01 172.981 92.8835 172.297C93.2633 171.992 91.8961 170.814 92.9595 169.939C93.9469 169.14 95.2382 170.471 95.542 169.977C96.1117 169.026 96.0737 167.885 94.4786 166.402C90.7947 162.979 89.1996 167.467 81.1861 171.004C78.0718 172.373 69.9064 169.635 71.7674 173.666C72.1092 174.312 74.0461 175.719 72.8308 176.784C72.0332 177.583 70.1723 176.442 69.2608 176.746C57.7533 180.283 45.752 190.969 34.5863 194.658C35.2319 191.654 32.2696 194.886 32.2696 195.495C32.2696 196.103 32.3455 197.662 32.5734 199.45C38.0423 202.987 44.6126 195.114 49.7398 194.012C54.2592 192.642 58.0191 194.24 61.4752 190.437C62.5006 189.03 63.1842 186.976 65.2351 186.976C78.2617 182.907 63.9438 195.419 63.6399 200.096C62.7285 203.291 59.6902 205.458 60.1459 208.995C60.7915 214.243 58.0191 218.959 56.462 220.594C55.1707 222.952 55.3226 224.853 54.9049 227.554C55.0568 230.064 58.9306 230.178 59.6142 227.782C61.6651 224.359 65.4629 218.236 66.1845 213.977C66.9821 209.147 69.5646 206.447 70.4761 202.606C70.704 201.351 74.5398 192.186 75.4893 192.604C79.0593 193.707 73.8562 210.707 72.6789 213.939C73.4384 217.248 68.9949 228.923 69.0329 235.958C69.0329 240.37 69.9824 240.674 72.7168 240.636C77.6161 236.3 75.6032 231.052 77.1224 226.032C78.5656 217.095 81.6418 208.273 82.0216 199.069C81.7178 195.837 81.4519 191.692 83.3888 188.763C83.8446 185.227 83.161 182.375 85.0979 179.18C88.3261 176.1 89.7313 179.484 90.8327 182.26C90.9466 182.451 91.0226 182.565 91.1365 182.755C92.2379 184.808 93.6431 187.166 94.3267 188.916C97.7828 191.121 96.4915 194.658 100.441 196.978C101.239 199.754 102.416 203.101 105.378 204.127C111.987 210.745 108.303 221.431 114.19 228.694C114.493 231.319 115.101 236.833 115.747 239.343C116.62 242.727 117.646 245.237 118.823 247.671C119.696 250.371 121.178 253.756 122.697 256.114C123.001 257.331 123.266 258.548 124.748 258.776C130.444 259.765 136.255 259.232 141.61 257.293C145.636 256.95 148.674 253.718 152.814 253.718C158.207 254.25 162.271 249.078 167.36 248.394C171.841 243.906 177.652 240.712 183.349 237.784C186.729 236.224 188.932 230.672 192.653 230.14C194.287 230.938 192.843 232.269 192.312 233.22C191.856 235.198 193.983 236.567 194.78 234.589C195.806 233.828 197.135 233.6 197.743 232.269C200.895 227.478 204.959 230.786 200.667 234.589C197.477 239.229 196.679 244.02 196.109 249.687C196.071 250.257 196.717 252.273 196.565 253.185C196.299 254.022 194.78 255.657 194.704 256.152C193.641 264.746 199.945 272.2 196.337 280.871C194.021 285.168 193.717 290.15 189.045 293.116C185.589 295.284 184.716 299.962 179.855 299.239C170.284 296.843 156.612 295.702 147.687 291.862C147.041 291.481 146.357 291.063 145.674 290.645C141.344 287.64 132.837 285.929 128.811 283.077C127.672 282.849 122.925 280.186 121.519 279.426C120.152 278.475 118.823 278.589 117.418 277.486H117.532L117.304 277.41C116.772 276.992 116.24 276.574 115.671 276.155C105.948 271.288 98.6942 262.579 87.0728 266.61C86.2372 266.914 82.8571 266.61 82.4014 267.409C80.6544 270.603 82.9331 270.033 79.9708 273.341C78.9453 273.797 79.3251 275.129 78.6035 276.041C77.8819 276.992 77.9959 282.126 78.4516 283.419C78.8694 284.56 79.8189 284.94 80.8443 284.864C81.262 285.358 81.9077 285.435 82.7052 284.864C87.4146 282.088 87.7564 281.289 92.3518 278.323C94.3267 276.041 99.9475 277.22 102.682 277.715C105.492 278.285 105.682 279.464 107.467 281.365C116.81 283.609 124.14 290.873 132.913 294.486C140.964 300.989 153.042 300.951 163.258 302.32C170.398 305.932 179.019 308.1 186.995 308.024C190.83 306.313 196.945 305.4 196.945 300.228C200.135 295.056 202.186 289.732 204.503 284.18C205.414 283.153 206.212 281.479 205.566 280.909C204.275 279.844 203.933 278.627 203.971 276.878C203.249 264.442 201.047 251.626 203.819 239.305C205.338 234.057 210.086 232.041 215.023 231.395C216.884 230.748 218.745 229.075 220.796 230.102C223.112 231.128 231.961 225.538 231.544 231.623C230.024 236.072 226.113 235.312 224.024 240.598C222.77 242.195 222.125 244.287 220.454 245.504C218.289 247.101 220.834 250.447 219.428 252.387C218.973 253.033 218.783 254.212 218.479 254.973C216.01 261.4 214.985 267.256 216.466 274.216C219.049 275.433 219.922 275.319 220.834 274.9C223.91 273.531 223.606 268.131 224.366 264.746C226.872 254.212 228.277 244.553 235.911 236.833C238.646 234.931 243.051 226.337 245.824 230.368C245.33 233.866 245.824 234.323 244.304 236.719C244.001 237.175 245.14 237.784 244.57 238.696C243.887 239.761 242.747 239.038 242.443 239.495C241.228 241.244 238.797 245.199 237.544 247.329C233.86 255.467 230.898 264.708 231.809 274.216C233.405 276.307 235.379 275.623 237.468 274.786C241.076 272.466 238.911 263.491 239.633 259.156C241.266 249.725 259.648 222.191 263.104 229.797L262.838 229.835ZM346.543 332.325C342.403 327.799 347.113 326.164 343.429 326.468C335.605 323.578 327.592 321.334 319.54 319.091C315.628 318.026 311.717 316.961 307.843 315.782C303.893 314.565 300.285 312.512 296.373 311.295C292.12 310.002 289.271 308.899 284.942 307.948C281.941 307.301 278.447 307.187 275.903 305.324C272.56 302.928 267.927 303.575 264.395 301.559C263.066 300.114 258.356 301.559 258.546 298.821C276.017 292.888 292.347 285.244 310.881 283.723C318.591 280.415 324.857 270.337 332.453 266.838C337.048 265.165 338.529 259.46 342.745 257.255C345.631 255.962 348.746 258.281 351.632 257.635C352.923 256.988 353.075 252.691 353.873 251.626C357.747 248.622 351.138 244.705 349.277 242.613C347.492 238.81 334.504 254.707 332.339 256.798C319.16 271.059 304.842 275.509 287.638 280.985C273.13 285.587 258.85 291.291 245.52 298.517C240.962 302.738 250.799 301.673 253.039 304.107C254.786 306.008 251.482 306.427 250.381 307.187C243.849 310.914 261.813 314.489 264.015 317.722C284.904 327.685 305.488 335.672 327.781 341.49C332.149 343.201 328.009 346.548 328.807 349.78C327.819 353.013 327.781 357.158 326.718 360.467C323.946 369.099 324.401 380.09 322.237 386.479C319.73 393.819 316.768 401.272 319.616 402.984C320.907 403.782 322.844 404.163 326.642 403.935C327.971 403.592 328.693 402.375 328.237 401.348C327.554 399.751 328.617 399.219 328.731 398.458C330.098 390.282 333.82 367.046 334.39 353.659C333.896 351.986 334.808 349.096 336.555 351.378C336.327 355.865 335.985 361.037 337.01 365.525C337.58 368.035 337.58 370.773 337.618 373.473C337.618 375.526 337.656 377.542 337.922 379.482C338.264 381.839 338.833 384.083 339.327 386.365C339.707 388.076 337.922 389.445 339.327 390.396C341.188 391.651 340.39 394.922 341.112 396.519C341.568 401.082 346.809 399.713 347.91 396.481C352.278 392.221 345.897 383.703 346.619 378.112C344.872 369.061 343.884 360.733 341.644 351.834C342.251 347.08 340.808 340.729 337.428 337.003C310.463 328.978 284.714 320.536 258.888 309.051C256.761 308.518 258.774 305.818 259.572 305.932C279.776 312.397 299.222 321.715 320.262 326.697C323.262 327.647 326.262 328.332 329.073 329.815C333.098 331.869 338.681 330.423 342.023 334.226C344.15 337.953 345.29 342.251 346.011 346.434C346.391 348.602 346.733 350.807 347.151 352.975C347.568 355.105 348.556 357.082 348.974 359.25C349.467 361.798 350.113 368.453 352.847 368.757C355.734 369.061 357.785 369.974 359.152 367.312C358.126 361.95 355.696 354.534 353.759 349.248C353.645 342.479 350.113 337.725 346.619 332.363L346.543 332.325ZM118.519 266.534C129.419 269.918 146.357 270.261 153.953 260.601C154.675 254.326 148.029 259.955 145.18 260.183C138.306 263.187 128.128 264.632 121.595 261.02C120.798 259.841 118.177 262.046 119.127 263.682C119.393 265.241 117.57 264.899 118.519 266.534Z" fill="black"/>
<path d="M97.5928 282.582C96.6054 281.632 95.9977 282.582 95.0103 283.077C85.8195 288.933 81.9836 291.329 72.8687 297.528C71.8053 298.479 65.235 304.411 66.9441 305.096C68.881 307.149 71.3496 304.297 73.7423 304.297C79.3251 300.684 84.4902 297.528 90.0351 294.486C95.0863 290.226 97.5169 293.535 101.163 287.64C104.657 285.016 98.8082 283.761 97.5549 282.544L97.5928 282.582ZM58.247 315.098C51.5247 322.361 45.4861 329.777 34.3964 336.242C34.7002 339.855 34.2824 342.821 36.0295 342.897C37.2068 342.897 41.9161 339.703 43.5872 338.562C45.1823 335.063 46.4736 336.698 47.8028 335.633C57.0316 328.104 61.6271 319.091 68.919 313.348C70.3242 303.727 60.9055 311.675 58.247 315.136V315.098ZM64.9312 301.065C65.7288 299.696 65.1971 296.691 65.1971 296.691C59.2724 296.691 49.5878 302.434 44.3468 304.792C42.7517 305.514 41.0426 305.856 39.2956 305.666C37.4347 305.476 35.6117 305.514 35.6497 307.72C35.7256 308.518 35.6497 310.306 35.3458 310.648C34.3964 311.637 32.1936 310.002 32.8013 313.538C37.6625 318.558 50.6512 305.894 55.8923 305.286C54.7909 309.317 49.8917 311.827 47.499 313.576C43.8531 318.254 32.5354 319.509 33.1431 326.658C32.9152 328.446 32.1556 330.842 34.8901 330.309C40.1311 327.381 60.4117 308.899 64.9312 301.103V301.065Z" fill="black"/>
</svg>
